<?xml version="1.0" encoding="utf-8"?>
<!-- Generator: Adobe Illustrator 18.1.1, SVG Export Plug-In . SVG Version: 6.00 Build 0)  -->
<!DOCTYPE svg PUBLIC "-//W3C//DTD SVG 1.1//EN" "http://www.w3.org/Graphics/SVG/1.1/DTD/svg11.dtd">
<svg version="1.1" xmlns="http://www.w3.org/2000/svg" xmlns:xlink="http://www.w3.org/1999/xlink" x="0px" y="0px"
	 viewBox="0 0 1641 984" enable-background="new 0 0 1641 984" xml:space="preserve">
<g id="Layer_1">
	<g>
		<g>
			<g>
				<g>
					<path fill="#E3AD32" d="M63.1,940.6c0,7.3,5.9,13.2,13.2,13.2H1565c7.3,0,13.2-5.9,13.2-13.2V29.4H63.1V940.6z"/>
					<rect x="62.8" y="24.2" fill="#EEEEEE" width="1515.3" height="93.6"/>
					<g>
						<circle fill="#E66A58" cx="101" cy="72.8" r="11"/>
						<circle fill="#FDBF52" cx="134.4" cy="72.8" r="11"/>
						<circle fill="#80D054" cx="167.7" cy="72.8" r="11"/>
					</g>
					<path fill="#FFFFFF" d="M1455.5,94.4c0,4-4.2,7.2-9.5,7.2H225.2c-5.2,0-9.5-3.2-9.5-7.2V51.1c0-4,4.2-7.2,9.5-7.2H1446
						c5.2,0,9.5,3.2,9.5,7.2V94.4z"/>
					<g>
						<g>
							<path fill="#808184" d="M1526,62.2c0,1.9-1.5,3.4-3.4,3.4h-20.3c-1.9,0-3.4-1.5-3.4-3.4l0,0c0-1.9,1.5-3.4,3.4-3.4h20.3
								C1524.5,58.8,1526,60.3,1526,62.2L1526,62.2z"/>
							<path fill="#808184" d="M1526,72.3c0,1.9-1.5,3.4-3.4,3.4h-20.3c-1.9,0-3.4-1.5-3.4-3.4l0,0c0-1.9,1.5-3.4,3.4-3.4h20.3
								C1524.5,68.9,1526,70.4,1526,72.3L1526,72.3z"/>
							<path fill="#808184" d="M1526,82.4c0,1.9-1.5,3.4-3.4,3.4h-20.3c-1.9,0-3.4-1.5-3.4-3.4l0,0c0-1.9,1.5-3.4,3.4-3.4h20.3
								C1524.5,79.1,1526,80.6,1526,82.4L1526,82.4z"/>
						</g>
						<path fill="#BBBDBF" d="M252.7,82l-7.9-7.9c0.8-1.4,1.2-2.9,1.2-4.6c0-5.2-4.2-9.3-9.3-9.3c-5.2,0-9.4,4.2-9.4,9.3
							c0,5.2,4.2,9.3,9.4,9.3c1.8,0,3.5-0.5,4.9-1.4l7.8,7.8c0.5,0.5,1.6,0.2,2.5-0.7C252.9,83.7,253.2,82.5,252.7,82z M230.5,69.5
							c0-3.4,2.8-6.2,6.2-6.2c3.4,0,6.2,2.8,6.2,6.2c0,3.4-2.8,6.2-6.2,6.2C233.3,75.7,230.5,72.9,230.5,69.5z"/>
						<g>
							<rect x="1392.3" y="71.2" fill="#BBBDBF" width="9.5" height="1.9"/>
							<path fill="#BBBDBF" d="M1411.2,83.3l-5.3-5.3c1.1-1.7,1.7-3.6,1.7-5.8c0-5.9-4.8-10.6-10.6-10.6c-5.9,0-10.6,4.7-10.6,10.6
								c0,5.9,4.7,10.6,10.6,10.6c2.1,0,4.1-0.6,5.7-1.7l5.3,5.3c0.6,0.6,1.7,0.3,2.6-0.5C1411.6,85,1411.8,83.8,1411.2,83.3z
								 M1389.4,72.2c0-4.2,3.4-7.6,7.6-7.6c4.2,0,7.6,3.4,7.6,7.6c0,4.2-3.4,7.6-7.6,7.6C1392.8,79.8,1389.4,76.4,1389.4,72.2z"/>
						</g>
						<g>
							<g>
								<path fill="#BBBDBF" d="M1444,70.9c0.4-0.4,0.3-0.8-0.3-0.8l-7.4-1.1c-0.5-0.1-1.2-0.5-1.4-1l-3.3-6.7
									c-0.2-0.5-0.6-0.5-0.9,0l-3.3,6.7c-0.2,0.5-0.9,1-1.4,1l-7.4,1.1c-0.5,0.1-0.7,0.5-0.3,0.8l5.4,5.2c0.4,0.4,0.6,1.1,0.5,1.7
									l-1.3,7.4c-0.1,0.5,0.2,0.8,0.7,0.5l6.6-3.5c0.5-0.3,1.3-0.3,1.7,0l6.6,3.5c0.5,0.3,0.8,0,0.7-0.5l-1.3-7.4
									c-0.1-0.5,0.1-1.3,0.5-1.7L1444,70.9z M1432.1,79.9c-0.5-0.3-1.3-0.3-1.7,0l-4.3,2.2c-0.5,0.3-0.8,0-0.7-0.5l0.8-4.8
									c0.1-0.5-0.2-1.3-0.5-1.7l-3.5-3.4c-0.4-0.4-0.3-0.8,0.3-0.8l4.8-0.7c0.5-0.1,1.2-0.5,1.4-1l2.1-4.3c0.2-0.5,0.6-0.5,0.9,0
									l2.1,4.3c0.2,0.5,0.9,0.9,1.4,1l4.8,0.7c0.5,0.1,0.7,0.5,0.3,0.8l-3.5,3.4c-0.4,0.4-0.6,1.1-0.5,1.7l0.8,4.8
									c0.1,0.5-0.2,0.8-0.7,0.5L1432.1,79.9z"/>
							</g>
						</g>
					</g>
				</g>
				<text transform="matrix(1 0 0 1 283.7679 84.2711)" fill="#808184" font-family="'SourceSansPro-Regular'" font-size="25.4236">thetruthaboutyouand.me</text>
			</g>
		</g>
		<g>
			<g>
				<defs>
					<rect id="SVGID_69_" x="534" y="188.8" width="573.1" height="279.6"/>
				</defs>
				<clipPath id="SVGID_2_">
					<use xlink:href="#SVGID_69_"  overflow="visible"/>
				</clipPath>
				<g clip-path="url(#SVGID_2_)">
					<defs>
						<rect id="SVGID_71_" x="527.7" y="182.3" width="585.5" height="292.8"/>
					</defs>
					<clipPath id="SVGID_4_">
						<use xlink:href="#SVGID_71_"  overflow="visible"/>
					</clipPath>
					<path clip-path="url(#SVGID_4_)" fill="#FFFFFF" d="M555.3,275.7H534v-18.4l22.5-1.5l3-40.3h20.4v40.3h38.8v19.9h-38.8v80
						c0,17.8,5.6,27.9,22.2,27.9c5,0,11.6-2.1,16.3-3.9l4.7,18.4c-8,2.7-17.8,5.3-26.7,5.3c-30.8,0-41.2-19.6-41.2-48V275.7z"/>
					<path clip-path="url(#SVGID_4_)" fill="#FFFFFF" d="M645.4,255.8h20.2l2.1,26.1h0.9c9.8-18.1,24.6-29.6,40.9-29.6
						c6.2,0,10.7,0.9,15.4,3l-4.7,21.3c-4.7-1.5-8-2.4-13.9-2.4c-12.1,0-26.7,8.9-36.4,33.2v92.5h-24.3V255.8z"/>
					<path clip-path="url(#SVGID_4_)" fill="#FFFFFF" d="M740.2,255.8h24.6v88c0,27,8,38.5,27,38.5c14.8,0,25.2-7.4,38.8-24.3V255.8
						h24.3v144h-20.2l-2.1-22.5h-0.9c-13.3,15.7-27.6,26.1-47.4,26.1c-30.5,0-44.2-19.6-44.2-56.3V255.8z"/>
					<path clip-path="url(#SVGID_4_)" fill="#FFFFFF" d="M901.7,275.7h-21.3v-18.4l22.5-1.5l3-40.3h20.4v40.3h38.8v19.9h-38.8v80
						c0,17.8,5.6,27.9,22.2,27.9c5,0,11.6-2.1,16.3-3.9l4.7,18.4c-8,2.7-17.8,5.3-26.7,5.3c-30.8,0-41.2-19.6-41.2-48V275.7z"/>
					<path clip-path="url(#SVGID_4_)" fill="#FFFFFF" d="M991.8,188.8h24.3v57.5l-0.9,29.6c13.6-13,28.2-23.7,48-23.7
						c30.2,0,43.9,19.6,43.9,56.3v91.3h-24.3v-88c0-27-8.3-38.5-27.3-38.5c-14.8,0-24.9,7.7-39.4,22.2v104.3h-24.3V188.8z"/>
					<path clip-path="url(#SVGID_4_)" fill="#FFFFFF" d="M601.1,211.6h-3.8v-1.7l3.9-0.2l0.3-7.1h1.9v7.1h7.1v1.9h-7.1v15.9
						c0,3.1,0.8,5.2,4.1,5.2c0.9,0,2.2-0.4,3-0.8l0.6,1.8c-1.4,0.5-2.9,0.9-4,0.9c-4.7,0-6.1-3-6.1-7.4V211.6z"/>
					<path clip-path="url(#SVGID_4_)" fill="#FFFFFF" d="M616.4,197.5h2.2V208v5.4c2.5-2.5,5.1-4.4,8.4-4.4c5,0,7.4,3,7.4,9.3V234
						h-2.2v-15.3c0-5.2-1.6-7.6-5.6-7.6c-2.9,0-5,1.5-8,4.6V234h-2.2V197.5z"/>
					<path clip-path="url(#SVGID_4_)" fill="#FFFFFF" d="M642.3,201.7c0-1.3,0.9-2,2-2c1.1,0,2,0.8,2,2c0,1.2-0.9,2-2,2
						C643.2,203.7,642.3,202.9,642.3,201.7 M643.2,209.6h2.2V234h-2.2V209.6z"/>
					<path clip-path="url(#SVGID_4_)" fill="#FFFFFF" d="M653.1,229.6c2.1,1.7,4.3,3.1,7.8,3.1c3.8,0,5.8-2.2,5.8-4.8
						c0-3-3.1-4.4-5.9-5.4c-3.7-1.3-7.8-2.8-7.8-7c0-3.6,2.8-6.5,7.9-6.5c2.6,0,5.2,1.1,7,2.5l-1.2,1.6c-1.6-1.2-3.4-2.2-5.8-2.2
						c-3.8,0-5.5,2.2-5.5,4.4c0,2.7,2.8,3.9,5.7,4.9c3.8,1.4,8,2.7,8,7.5c0,3.7-2.9,6.9-8.2,6.9c-3.6,0-6.8-1.5-8.9-3.4L653.1,229.6
						z"/>
					<path clip-path="url(#SVGID_4_)" fill="#FFFFFF" d="M684.6,201.7c0-1.3,0.9-2,2-2s2,0.8,2,2c0,1.2-0.9,2-2,2
						S684.6,202.9,684.6,201.7 M685.5,209.6h2.2V234h-2.2V209.6z"/>
					<path clip-path="url(#SVGID_4_)" fill="#FFFFFF" d="M695.4,229.6c2.1,1.7,4.3,3.1,7.8,3.1c3.8,0,5.8-2.2,5.8-4.8
						c0-3-3.1-4.4-5.9-5.4c-3.7-1.3-7.8-2.8-7.8-7c0-3.6,2.8-6.5,7.9-6.5c2.6,0,5.2,1.1,7,2.5l-1.2,1.6c-1.6-1.2-3.4-2.2-5.8-2.2
						c-3.8,0-5.5,2.2-5.5,4.4c0,2.7,2.8,3.9,5.7,4.9c3.8,1.4,8,2.7,8,7.5c0,3.7-2.9,6.9-8.2,6.9c-3.6,0-6.8-1.5-8.9-3.4L695.4,229.6
						z"/>
					<path clip-path="url(#SVGID_4_)" fill="#FFFFFF" d="M728.4,211.6h-3.8v-1.7l3.9-0.2l0.3-7.1h1.9v7.1h7.1v1.9h-7.1v15.9
						c0,3.1,0.8,5.2,4.1,5.2c0.9,0,2.2-0.4,3-0.8l0.6,1.8c-1.4,0.5-2.9,0.9-4,0.9c-4.7,0-6.1-3-6.1-7.4V211.6z"/>
					<path clip-path="url(#SVGID_4_)" fill="#FFFFFF" d="M743.7,197.5h2.2V208v5.4c2.5-2.5,5.1-4.4,8.4-4.4c5,0,7.4,3,7.4,9.3V234
						h-2.2v-15.3c0-5.2-1.6-7.6-5.6-7.6c-2.9,0-5,1.5-8,4.6V234h-2.2V197.5z"/>
					<path clip-path="url(#SVGID_4_)" fill="#FFFFFF" d="M779.1,209c5.8,0,9.3,4.1,9.3,11.3c0,0.6,0,1.2-0.1,1.8h-17.6
						c0.1,6.1,3.7,10.6,9.2,10.6c2.6,0,4.7-0.9,6.6-2.2l0.9,1.7c-1.9,1.2-4.1,2.4-7.7,2.4c-6.2,0-11.3-4.8-11.3-12.8
						C768.5,213.9,773.6,209,779.1,209 M786.3,220.4c0-6.2-2.8-9.4-7.2-9.4c-4.2,0-7.9,3.6-8.4,9.4H786.3z"/>
					<path clip-path="url(#SVGID_4_)" fill="#FFFFFF" d="M921.2,442c0.1-3.7-1-7.7-5.7-7.7c-3.3,0-6.1,1.6-7.8,2.8l-1-1.7
						c1.7-1.2,5.1-3.2,9-3.2c5.8,0,7.7,4.2,7.7,9.4v15.6h-1.9l-0.3-3.1h-0.1c-2.5,2-5.4,3.8-8.6,3.8c-3.9,0-7.1-2.1-7.1-6.7
						C905.4,445.8,910.4,443.2,921.2,442 M912.9,456c2.8,0,5.3-1.4,8.3-4v-8.3c-10,1.2-13.4,3.5-13.4,7.4
						C907.8,454.6,910.1,456,912.9,456"/>
					<path clip-path="url(#SVGID_4_)" fill="#FFFFFF" d="M932.2,420.8h2.2v10.6l-0.1,4.8c2.5-2.1,5.4-3.8,8.4-3.8
						c6.5,0,9.8,4.9,9.8,12.4c0,8.3-5,13.2-10.8,13.2c-2.3,0-5-1.1-7.3-2.9h-0.1l-0.3,2.3h-1.9V420.8z M941.6,455.9
						c4.9,0,8.5-4.6,8.5-11.2c0-6-2.1-10.5-7.7-10.5c-2.4,0-5.1,1.4-8,4v14.5C937.1,455.1,939.7,455.9,941.6,455.9"/>
					<path clip-path="url(#SVGID_4_)" fill="#FFFFFF" d="M968.7,432.3c5.9,0,11,4.7,11,12.9c0,8.1-5.1,12.8-11,12.8
						c-5.8,0-10.9-4.7-10.9-12.8C957.8,437,962.9,432.3,968.7,432.3 M968.7,455.9c4.9,0,8.6-4.4,8.6-10.8c0-6.5-3.7-10.9-8.6-10.9
						c-4.9,0-8.6,4.4-8.6,10.9C960.1,451.6,963.8,455.9,968.7,455.9"/>
					<path clip-path="url(#SVGID_4_)" fill="#FFFFFF" d="M986.6,432.9h2.2v15.3c0,5.2,1.6,7.6,5.5,7.6c2.9,0,5-1.5,7.9-5v-18h2.2
						v24.4h-1.9l-0.3-4.1h-0.1c-2.4,2.8-4.9,4.7-8.3,4.7c-5,0-7.4-3-7.4-9.3V432.9z"/>
					<path clip-path="url(#SVGID_4_)" fill="#FFFFFF" d="M1014.4,434.8h-3.8v-1.7l3.9-0.2l0.3-7.1h1.9v7.1h7.1v1.9h-7.1v15.9
						c0,3.1,0.8,5.2,4.1,5.2c0.9,0,2.2-0.4,3-0.8l0.6,1.8c-1.4,0.5-2.9,0.9-4,0.9c-4.7,0-6.1-3-6.1-7.4V434.8z"/>
					<path clip-path="url(#SVGID_4_)" fill="#FFFFFF" d="M1038.9,466.3c3,0,5-2.7,6.2-6.5l0.7-2.1l-10-24.8h2.4l5.9,15.3
						c0.8,2,1.7,4.7,2.6,6.8h0.2c0.8-2.1,1.6-4.8,2.2-6.8l5.2-15.3h2.3l-9.7,27.4c-1.4,4.1-3.8,8.1-8.2,8.1c-0.9,0-1.8-0.2-2.5-0.5
						l0.5-2C1037.4,466.1,1038.1,466.3,1038.9,466.3"/>
					<path clip-path="url(#SVGID_4_)" fill="#FFFFFF" d="M1070.9,432.3c5.9,0,11,4.7,11,12.9c0,8.1-5.1,12.8-11,12.8
						c-5.8,0-10.9-4.7-10.9-12.8C1059.9,437,1065,432.3,1070.9,432.3 M1070.9,455.9c4.9,0,8.6-4.4,8.6-10.8c0-6.5-3.7-10.9-8.6-10.9
						c-4.9,0-8.6,4.4-8.6,10.9C1062.3,451.6,1065.9,455.9,1070.9,455.9"/>
					<path clip-path="url(#SVGID_4_)" fill="#FFFFFF" d="M1088.8,432.9h2.2v15.3c0,5.2,1.6,7.6,5.5,7.6c2.9,0,5-1.5,7.9-5v-18h2.2
						v24.4h-1.9l-0.3-4.1h-0.1c-2.4,2.8-4.9,4.7-8.3,4.7c-5,0-7.4-3-7.4-9.3V432.9z"/>
				</g>
			</g>
		</g>
		<rect x="525.6" y="558.2" fill="none" width="589.9" height="136.6"/>
		<text transform="matrix(1 0 0 1 525.5535 576.7798)"><tspan x="0" y="0" fill="#FFFFFF" font-family="'SourceSansPro-Light'" font-size="25.7954">life is difficult and messy. when you&apos;re dealing with </tspan><tspan x="0" y="34.4" fill="#FFFFFF" font-family="'SourceSansPro-Light'" font-size="25.7954">tough times, it&apos;s easy to believe untrue things about </tspan><tspan x="0" y="68.8" fill="#FFFFFF" font-family="'SourceSansPro-Light'" font-size="25.7954">yourself. don&apos;t let that pain linger. remember what&apos;s true </tspan><tspan x="0" y="103.2" fill="#FFFFFF" font-family="'SourceSansPro-Light'" font-size="25.7954">about you, so you can live your life to your fullest poten</tspan><tspan x="572.5" y="103.2" fill="#FFFFFF" font-family="'SourceSansPro-Light'" font-size="25.7954">-</tspan></text>
	</g>
	<rect x="641.4" y="810.5" fill="none" width="318.6" height="16.2"/>
	<text transform="matrix(1 0 0 1 729.3873 826.3182)" fill="#FFFFFF" font-family="'SourceSansPro-Light'" font-size="22">tell me the truth</text>
	<path fill="none" stroke="#FFFFFF" stroke-width="2" stroke-miterlimit="10" d="M989.2,860.6H651.8c-5.8,0-10.6-4.7-10.6-10.6v-63
		c0-5.8,4.7-10.6,10.6-10.6h337.4c5.8,0,10.6,4.7,10.6,10.6v63C999.7,855.9,995,860.6,989.2,860.6z"/>
	<g>
		<g>
			<line fill="none" stroke="#FFFFFF" stroke-width="2" stroke-miterlimit="10" x1="886" y1="820" x2="910" y2="820"/>
			<g>
				<polygon fill="#FFFFFF" points="905.1,826.4 904,825.3 909.7,820 904,814.7 905.1,813.6 912,820 				"/>
			</g>
		</g>
	</g>
</g>
<g id="Layer_2">
</g>
</svg>
