<?xml version="1.0" encoding="utf-8"?>
<!-- Generator: Adobe Illustrator 19.0.1, SVG Export Plug-In . SVG Version: 6.00 Build 0)  -->
<!DOCTYPE svg PUBLIC "-//W3C//DTD SVG 1.1//EN" "http://www.w3.org/Graphics/SVG/1.1/DTD/svg11.dtd">
<svg version="1.1" id="Layer_1" xmlns="http://www.w3.org/2000/svg" xmlns:xlink="http://www.w3.org/1999/xlink" x="0px" y="0px"
	 viewBox="117 6.7 593.7 276.3" style="enable-background:new 117 6.7 593.7 276.3;" xml:space="preserve">
<style type="text/css">
	.st0{fill:#FFFFFF;}
	.st1{clip-path:url(#SVGID_2_);fill:#385988;}
	.st2{fill:#385988;}
	.st3{fill:#BEC2C9;}
	.st4{fill:none;stroke:#BEC2C9;stroke-width:0.5193;stroke-miterlimit:10;}
</style>
<g>
	<g>
		
			<rect x="293.2" y="124.4" transform="matrix(0.987 -0.1607 0.1607 0.987 -26.502 70.734)" class="st0" width="261.7" height="149.6"/>
		<g>
			<g>
				<defs>
					
						<rect id="SVGID_1_" x="436.5" y="133.8" transform="matrix(-0.987 0.1607 -0.1607 -0.987 981.061 212.333)" width="91" height="24"/>
				</defs>
				<clipPath id="SVGID_2_">
					<use xlink:href="#SVGID_1_"  style="overflow:visible;"/>
				</clipPath>
				<path class="st1" d="M440.1,162.6l2.3-0.4c0.4-0.1,0.5-0.3,0.4-0.5l0-0.2c0-0.3-0.2-0.4-0.7-0.4l-2.2,0.4L440.1,162.6
					L440.1,162.6z M438.3,160.6l4.1-0.7c1.4-0.2,1.9,0.3,2,1.2l0.1,0.4c0.1,0.6-0.1,1.4-1.2,1.6l-3,0.5l0.2,1.1L439,165L438.3,160.6
					L438.3,160.6z"/>
			</g>
			<path class="st2" d="M446.8,161.4l2.5-0.4c0.4-0.1,0.5-0.2,0.5-0.5l0-0.1c-0.1-0.4-0.3-0.4-0.8-0.3l-2.3,0.4L446.8,161.4
				L446.8,161.4z M444.9,159.5l4.5-0.7c1.2-0.2,1.6,0.3,1.7,1l0,0.3c0.1,0.6,0,0.9-0.7,1.2l0,0c0.5,0,0.9,0.1,1,0.8l0.1,0.7
				l-1.5,0.2l-0.1-0.5c-0.1-0.5-0.2-0.6-0.7-0.5l-2.4,0.4l0.2,1.1l-1.5,0.2L444.9,159.5L444.9,159.5z"/>
			<polygon class="st2" points="452,158.4 453.5,158.1 454.2,162.5 452.7,162.7 452,158.4 			"/>
			<polygon class="st2" points="454.6,158 460,157.1 460.1,158.1 456.3,158.7 456.4,159.4 460.1,158.8 460.2,159.7 456.5,160.3 
				456.7,161 460.6,160.4 460.8,161.4 455.3,162.3 454.6,158 			"/>
			<path class="st2" d="M461.4,159.9l1.5-0.2c0.1,0.5,0.3,0.5,0.7,0.4l1.8-0.3c0.3-0.1,0.6-0.1,0.6-0.5c-0.1-0.4-0.2-0.4-2.2-0.1
				c-2.3,0.4-2.6,0.2-2.7-0.9c-0.1-0.8-0.1-1.4,1.7-1.7l2.1-0.3c1.7-0.3,2,0.2,2.1,1l0,0.1l-1.5,0.2c-0.1-0.3-0.1-0.4-0.8-0.3
				l-1.7,0.3c-0.3,0.1-0.6,0.2-0.5,0.4c0.1,0.4,0.2,0.4,1.9,0.1c2.3-0.4,2.9-0.3,3.1,0.9c0.2,1.2-0.2,1.4-2.2,1.8l-1.8,0.3
				c-1.4,0.2-2,0.1-2.1-0.9L461.4,159.9L461.4,159.9z"/>
			<polygon class="st2" points="467.6,155.9 473.4,154.9 473.5,156 471.4,156.3 472,159.6 470.4,159.8 469.9,156.6 467.8,156.9 
				467.6,155.9 			"/>
			<polygon class="st2" points="474,154.8 479.4,153.9 479.5,154.9 475.7,155.6 475.8,156.3 479.4,155.7 479.6,156.6 475.9,157.2 
				476,157.9 480,157.2 480.2,158.3 474.7,159.1 474,154.8 			"/>
			<path class="st2" d="M482.2,155.7l2.5-0.4c0.4-0.1,0.5-0.2,0.5-0.5l0-0.1c-0.1-0.4-0.3-0.4-0.8-0.3l-2.3,0.4L482.2,155.7
				L482.2,155.7z M480.4,153.8l4.5-0.7c1.2-0.2,1.6,0.3,1.7,1l0,0.3c0.1,0.6,0,0.9-0.7,1.2l0,0c0.5,0,0.9,0.1,1,0.8l0.1,0.7
				l-1.5,0.2l-0.1-0.5c-0.1-0.5-0.2-0.6-0.7-0.5l-2.4,0.4l0.2,1.1l-1.5,0.2L480.4,153.8L480.4,153.8z"/>
			<path class="st2" d="M490.1,152.7l-1.2,2.7l3.3-0.5L490.1,152.7L490.1,152.7z M489.6,152.3l0.8-0.1l3.6,3.9l-0.8,0.1l-0.8-0.8
				l-3.9,0.6l-0.5,1l-0.8,0.1L489.6,152.3L489.6,152.3z"/>
			<polygon class="st2" points="492.2,151.8 493,151.7 496,155.1 497.7,151 498.5,150.8 496.5,155.6 495.7,155.7 492.2,151.8 			"/>
			<polygon class="st2" points="499.2,150.7 499.8,150.6 500.5,154.9 499.9,155.1 499.2,150.7 			"/>
			<path class="st2" d="M504,150.4l-1.2,2.7l3.3-0.5L504,150.4L504,150.4z M503.5,150l0.8-0.1l3.6,3.9l-0.8,0.1l-0.8-0.8l-3.9,0.6
				l-0.5,1l-0.8,0.1L503.5,150L503.5,150z"/>
			<polygon class="st2" points="509.1,149.6 506.6,150 506.5,149.5 512.1,148.6 512.2,149.1 509.7,149.5 510.3,153.3 509.7,153.5 
				509.1,149.6 			"/>
			<polygon class="st2" points="513,148.5 513.7,148.4 514.4,152.7 513.7,152.8 513,148.5 			"/>
			<path class="st2" d="M520.6,148.6c-0.1-0.8-0.7-0.8-1.3-0.7l-2.7,0.4c-0.6,0.1-1.1,0.4-1,1.1l0.3,1.6c0.1,0.8,0.7,0.8,1.3,0.7
				l2.7-0.4c0.6-0.1,1.1-0.4,1-1.1L520.6,148.6L520.6,148.6z M515,149.8c-0.2-1.1,0.2-1.7,1.5-1.9l2.8-0.5c1.3-0.2,1.8,0.2,2,1.3
				l0.2,1.2c0.2,1.1-0.2,1.7-1.5,1.9l-2.8,0.5c-1.3,0.2-1.8-0.2-2-1.3L515,149.8L515,149.8z"/>
			<g>
				<polygon class="st2" points="521.9,147 522.9,146.9 528,149.9 527.4,146.1 528.1,146 528.8,150.3 527.8,150.5 522.7,147.4 
					523.3,151.2 522.6,151.3 521.9,147 				"/>
				<path class="st3" d="M487.1,144.3c0,0-0.2-0.4-0.3-0.4c0,0-0.1,0-0.2-0.2c0,0-0.7-0.6-0.9-0.8c0,0-0.6-0.6-1.3-0.8
					c0,0-0.1,0.1-0.4-0.4c0,0-1.1-1.6-1.4-1.9c-0.3-0.3-0.9-1.2-3.7-1c0,0-0.4-0.1,0.5-0.4c0,0,1-0.4,2.1-0.1c0,0,0-0.1-0.4-0.4
					c0,0-0.1-0.2,0.6,0c0,0,0.3,0,0.8,0.3c0,0,0-0.1,0-0.1s0.1-0.1,0.4,0c0,0,0.5,0.2,0.9,0.5c0,0,0-0.2,0-0.2s0.5,0.1,1.1,0.5
					c0,0,0.4,0,0.7,0.2c0,0,0.3,0.3,0.4,0.3c0,0,1.1,0.3,1.2,0.6c0,0,0.6,0,1.1,0.7c0,0,0.1,0,0.1,0l0.1-0.1c0,0,0.6-5.7,5-8.7
					c0,0,0.2-0.1-0.9,1.2c0,0,1.3-0.9,1.6-1.1c0,0,0.2-0.1-0.5,0.6c0,0,0.1,0,0.1,0s0.7-0.4,1-0.4c0,0,0.6-0.2,0,0.3
					c0,0-1,1-1.3,1.4c0,0,2.1-1.2,2.2-1.2c0,0,0.2-0.1,0,0.2c0,0-0.4,0.5-0.4,0.6c0,0,0.3-0.1,0.2,0.1l-0.1,0.2c0,0,0.8-0.2,0.3,0.2
					c0,0-0.8,0.9-1,1.6c0,0,0.9-0.6,1.1-0.3c0,0-0.5,0.5-0.7,1.2c0,0,0.5-0.1,0.7-0.1c0,0-0.1,0.4-0.6,1c0,0,0.1,0.2,0,0.3l0,0.1
					c0,0,0.2,0,0.1,0.3c0,0-0.3,0.4-0.3,0.6c0,0.2,0.8-0.2,1.1,0c0,0,0.3,0.1,0,0.3c0,0-0.3,0.2-0.3,0.3c0,0-0.1,0.1,0.5,0.1
					c0,0,0.4,0.1-0.1,0.3c0,0-0.2,0.1-0.2,0.2c0,0,0.1,0.1,0.2,0.1c0,0,0.1,0-0.1,0.2c0,0-0.1,0.1,0.3,0.3c0,0,0,0,0,0.3
					c0,0,0,0.2-0.1,0.4c0,0-0.1,0.1-0.1,0.1s0.1,0.1,0.1,0.1c0,0,0,0.1,0,0.2c0,0,0,0.1,0,0.2c0,0,0,0.2,0,0.3c0,0-0.1,0.1,0,0.2
					c0,0,0.3,0.2,0.2,0.3c0,0-0.3,0.3-0.4,0.4c0,0-0.1,0.1,0.2,0.3c0,0,0.2,0.1,0.1,0.2c0,0,0,0.1-0.1,0.1c0,0,0,0.1,0,0.1
					s0,0.1,0,0.2c0,0,0.1,0.1-0.5,0.3c0,0-0.1,0-0.2,0.2c0,0,0.1,0.4-0.3,0.5c0,0-0.1,0.2,0,0.4c0,0,0,0.1-0.6,0.2
					c0,0,0,0.1-0.1,0.2c0,0-0.2,0.1-0.5,0.1c0,0,0.1,0.2-0.2,0.3c0,0-0.6,0.1-0.7,0.1c0,0,0.1,0.2,0.6,0.5c0,0,0.9,0.3,1.1,0.9
					c0,0,0.1,0.3,1.1,0.7c0,0,1.7,0.8,2.1,2c0,0-2.2,0.4-3.8-0.7c0,0-0.8-0.4-1.2-0.2c0,0-0.2,0.1-0.3,0.3c0,0,0,0.1,0,0.1
					s0.3,0.2,0.3,0.3c0,0,0.3,0.3-0.1,0.5c0,0-0.1,0.1-0.3,0c0,0,0.3-0.2,0.1-0.3c0,0-0.1-0.2-0.3,0c0,0-0.3,0.3,0.2,0.4
					c0,0-0.7,0.3-1,0.2c0,0-0.1,0-0.1,0s-0.2,0.1-0.3-0.1c0,0-0.2,0-0.2-0.1c0,0-0.2-0.1-0.2-0.3c0,0,0-0.1,0.5-0.3
					c0.2,0,0.2-0.3,0.2-0.3c0,0,0-0.3,0-0.3s-0.3,0-0.6,0.1c0,0-0.3,0.2-0.5,0.5c0,0,0.3,0.7-0.2,1c0,0-0.1,0-0.1,0s0.2-0.3-0.1-0.4
					c0,0-0.2-0.1-0.2,0.2c0,0,0,0.3,0.4,0.3c0,0-0.3,0.3-0.9,0.2c0,0-0.3,0.1-0.4,0c0,0-0.3,0-0.3-0.1c0,0-0.1,0.1-0.1-0.1
					c0,0-0.1-0.1,0-0.2c0,0,0.6-0.6,1.2-0.9c0,0,0.2-0.2,0.2-0.5c0,0-0.1-0.1-0.2-0.2c0,0-0.1-0.1-0.1-0.4c0,0,0.1-0.1-0.1-0.2
					c0,0-0.1-0.1-0.2-0.1c0,0-0.1,0.1-0.1,0.2c0,0-0.7-0.5-0.9-0.6c0,0-0.4-0.3-0.6-0.2c0,0-0.1,0-0.2,0.1c0,0,0,0.1,0,0.1
					s-0.5,0.1-0.8,0.5c0,0-0.2,0.2-0.2,0.3c0,0-0.1,0-0.2,0.1c0,0-0.2,0.3-0.4,0.8c0,0-0.7,0-0.8-0.8c0,0-0.1-0.1-0.1-0.1
					s-0.4-0.6,0.2-1.5c0,0,0.7-0.8,0.8-1.5c0,0,0.1-0.2,0.2,0c0,0,0.1,0,0.1,0s0.1-0.2,0.2-0.3c0,0,0,0.1,0.1,0
					c0.1-0.1,0.1-0.1,0-0.2c0-0.1,0.1-0.1,0.1-0.1S487.2,144.4,487.1,144.3L487.1,144.3z"/>
			</g>
		</g>
		<g>
			<g>
				<g>
					<path class="st2" d="M456,219.4l-2.4,0.4l-0.1-0.3l1.1-1.4c0.2-0.3,0.5-0.7,0.4-1.1c-0.1-0.4-0.4-0.6-0.8-0.6
						c-0.4,0.1-0.7,0.5-0.8,0.7l-0.3-0.2c0.1-0.2,0.3-0.8,1-0.9c0.7-0.1,1.3,0.2,1.4,0.8c0.1,0.6-0.4,1.2-0.5,1.4l-0.8,1l1.8-0.3
						L456,219.4z"/>
					<path class="st2" d="M459.1,218.1l-0.5,0.1l0.1,0.8l-0.5,0.1l-0.1-0.8l-1.8,0.3l-0.1-0.4l1.4-2.7l0.5-0.1l0.4,2.4l0.5-0.1
						L459.1,218.1z M458,217.9l-0.3-1.8l-1,2L458,217.9z"/>
					<path class="st2" d="M461.4,214.5l-1.4,4.7l-0.4-0.1l1.4-4.7L461.4,214.5z"/>
					<path class="st2" d="M464.7,214.7l-1.2,3.5l-0.5,0.1l1.2-3.4l-2,0.3l-0.1-0.4l2.4-0.4L464.7,214.7z"/>
					<path class="st2" d="M472.8,214.3l-1.7,0.3l0.3,1.7l-0.3,0.1l-0.3-1.7l-1.7,0.3l-0.1-0.3l1.7-0.3l-0.3-1.7l0.3-0.1l0.3,1.7
						l1.7-0.3L472.8,214.3z"/>
					<path class="st2" d="M475.8,216.2l-0.4,0.1l-0.8-4.6l-1,0.2l-0.1-0.3l1.4-0.2L475.8,216.2z"/>
					<path class="st2" d="M480.8,215.5c-0.9,0.1-1.5-0.3-1.6-0.6l0.3-0.3c0.2,0.3,0.7,0.6,1.4,0.5s1.2-0.6,1.1-1.5s-0.9-1.2-1.5-1.1
						c-0.3,0.1-0.7,0.2-0.8,0.4l-0.3-0.1l0.1-2.3l2.2-0.4l0.1,0.3l-1.9,0.3l-0.1,1.7c0.2-0.1,0.5-0.2,0.7-0.3
						c0.8-0.1,1.7,0.3,1.9,1.3C482.4,214.6,481.6,215.3,480.8,215.5z"/>
					<path class="st2" d="M485.1,214.8c-0.9,0.1-1.5-0.3-1.6-0.6l0.3-0.3c0.2,0.3,0.7,0.6,1.4,0.5c0.6-0.1,1.2-0.6,1.1-1.5
						s-0.9-1.2-1.5-1.1c-0.3,0.1-0.7,0.2-0.8,0.4l-0.3-0.1l0.1-2.3l2.2-0.4l0.1,0.3l-1.9,0.3l-0.1,1.7c0.2-0.1,0.5-0.2,0.7-0.3
						c0.8-0.1,1.7,0.3,1.9,1.3S486,214.6,485.1,214.8z"/>
					<path class="st2" d="M489.4,214.1c-0.9,0.1-1.5-0.3-1.6-0.6l0.3-0.3c0.2,0.3,0.7,0.6,1.4,0.5c0.6-0.1,1.2-0.6,1.1-1.5
						s-0.9-1.2-1.5-1.1c-0.3,0.1-0.7,0.2-0.8,0.4l-0.3-0.1l0.1-2.3l2.2-0.4l0.1,0.3l-1.9,0.3l-0.1,1.7c0.2-0.1,0.5-0.2,0.7-0.3
						c0.8-0.1,1.7,0.3,1.9,1.3C491,213.2,490.3,213.9,489.4,214.1z"/>
					<path class="st2" d="M495.4,213.1c-0.9,0.1-1.5-0.3-1.6-0.6l0.3-0.3c0.2,0.3,0.7,0.6,1.4,0.5c0.6-0.1,1.2-0.6,1.1-1.5
						s-0.9-1.2-1.5-1.1c-0.3,0.1-0.7,0.2-0.8,0.4l-0.3-0.1l0.1-2.3l2.2-0.4l0.1,0.3l-1.9,0.3l-0.1,1.7c0.2-0.1,0.5-0.2,0.7-0.3
						c0.8-0.1,1.7,0.3,1.9,1.3C497,212.2,496.3,213,495.4,213.1z"/>
					<path class="st2" d="M499.7,212.4c-0.9,0.1-1.5-0.3-1.6-0.6l0.3-0.3c0.2,0.3,0.7,0.6,1.4,0.5c0.6-0.1,1.2-0.6,1.1-1.5
						s-0.9-1.2-1.5-1.1c-0.3,0.1-0.7,0.2-0.8,0.4l-0.3-0.1l0.1-2.3l2.2-0.4l0.1,0.3l-1.9,0.3l-0.1,1.7c0.2-0.1,0.5-0.2,0.7-0.3
						c0.8-0.1,1.7,0.3,1.9,1.3C501.3,211.5,500.6,212.3,499.7,212.4z"/>
					<path class="st2" d="M504,211.7c-0.9,0.1-1.5-0.3-1.6-0.6l0.3-0.3c0.2,0.3,0.7,0.6,1.4,0.5c0.6-0.1,1.2-0.6,1.1-1.5
						s-0.9-1.2-1.5-1.1c-0.3,0.1-0.7,0.2-0.8,0.4l-0.3-0.1l0.1-2.3l2.2-0.4l0.1,0.3l-1.9,0.3l-0.1,1.7c0.2-0.1,0.5-0.2,0.7-0.3
						c0.8-0.1,1.7,0.3,1.9,1.3S504.9,211.6,504,211.7z"/>
					<path class="st2" d="M510,210.7c-0.9,0.1-1.5-0.3-1.6-0.6l0.3-0.3c0.2,0.3,0.7,0.6,1.4,0.5c0.6-0.1,1.2-0.6,1.1-1.5
						s-0.9-1.2-1.5-1.1c-0.3,0.1-0.7,0.2-0.8,0.4l-0.3-0.1l0.1-2.3l2.2-0.4l0.1,0.3l-1.9,0.3l-0.1,1.7c0.2-0.1,0.5-0.2,0.7-0.3
						c0.8-0.1,1.7,0.3,1.9,1.3C511.7,209.8,510.9,210.6,510,210.7z"/>
					<path class="st2" d="M514.3,210c-0.9,0.1-1.5-0.3-1.6-0.6l0.3-0.3c0.2,0.3,0.7,0.6,1.4,0.5c0.6-0.1,1.2-0.6,1.1-1.5
						s-0.9-1.2-1.5-1.1c-0.3,0.1-0.7,0.2-0.8,0.4l-0.3-0.1l0.1-2.3l2.2-0.4l0.1,0.3l-1.9,0.3l-0.1,1.7c0.2-0.1,0.5-0.2,0.7-0.3
						c0.8-0.1,1.7,0.3,1.9,1.3C516,209.1,515.2,209.9,514.3,210z"/>
					<path class="st2" d="M518.6,209.3c-0.9,0.1-1.5-0.3-1.6-0.6l0.3-0.3c0.2,0.3,0.7,0.6,1.4,0.5s1.2-0.6,1.1-1.5s-0.9-1.2-1.5-1.1
						c-0.3,0.1-0.7,0.2-0.8,0.4l-0.3-0.1l0.1-2.3l2.2-0.4l0.1,0.3l-1.9,0.3l-0.1,1.7c0.2-0.1,0.5-0.2,0.7-0.3
						c0.8-0.1,1.7,0.3,1.9,1.3C520.3,208.4,519.5,209.2,518.6,209.3z"/>
					<path class="st2" d="M522.9,208.6c-0.9,0.1-1.5-0.3-1.6-0.6l0.3-0.3c0.2,0.3,0.7,0.6,1.4,0.5c0.6-0.1,1.2-0.6,1.1-1.5
						s-0.9-1.2-1.5-1.1c-0.3,0.1-0.7,0.2-0.8,0.4l-0.3-0.1l0.1-2.3l2.2-0.4l0.1,0.3l-1.9,0.3l-0.1,1.7c0.2-0.1,0.5-0.2,0.7-0.3
						c0.8-0.1,1.7,0.3,1.9,1.3C524.6,207.7,523.8,208.5,522.9,208.6z"/>
					<path class="st2" d="M459.4,228.7c-0.3,0.5-0.8,0.9-1.7,1.1c-1.4,0.2-2.7-0.6-2.9-2.1s0.7-2.7,2.1-3c0.9-0.1,1.5,0.1,1.9,0.4
						l-0.2,0.3c-0.3-0.3-0.9-0.5-1.7-0.4c-1.2,0.2-1.9,1.2-1.7,2.5c0.2,1.3,1.2,2.1,2.4,1.9c0.7-0.1,1.2-0.5,1.5-0.9L459.4,228.7z"
						/>
					<path class="st2" d="M463.2,228.8l-0.4,0.1l-0.3-2c-0.1-0.5-0.3-1.1-1-1c-0.7,0.1-1,0.8-0.8,1.6l0.3,1.7l-0.4,0.1l-0.8-5
						l0.4-0.1l0.4,2.2c0.1-0.4,0.5-0.8,1-0.9c1-0.2,1.3,0.4,1.4,1.2L463.2,228.8z"/>
					<path class="st2" d="M464.1,224.3c-0.2,0-0.3-0.1-0.4-0.3c0-0.2,0.1-0.3,0.3-0.4c0.2,0,0.3,0.1,0.4,0.3
						C464.4,224.1,464.2,224.3,464.1,224.3z M464.9,228.5l-0.4,0.1l-0.5-3.3l0.4-0.1L464.9,228.5z"/>
					<path class="st2" d="M469,227.3c-0.1,0.2-0.4,0.7-1.3,0.8c-0.9,0.1-1.7-0.5-1.9-1.5c-0.2-1,0.5-1.9,1.4-2
						c0.9-0.1,1.3,0.3,1.4,0.4l-0.2,0.3c-0.2-0.1-0.5-0.4-1.2-0.3c-0.7,0.1-1.2,0.7-1,1.6c0.1,0.8,0.7,1.3,1.5,1.2
						c0.8-0.1,1-0.7,1-0.7L469,227.3z"/>
					<path class="st2" d="M472.3,227.3l-0.4,0.1l-0.1-0.5c-0.1,0.2-0.4,0.6-1,0.7c-0.6,0.1-1.2-0.2-1.3-0.8c-0.1-0.6,0.3-1,1.2-1.2
						l0.9-0.2l0-0.2c-0.1-0.6-0.6-0.8-1.1-0.8c-0.5,0.1-0.9,0.4-0.9,0.4l-0.2-0.2c0.2-0.2,0.6-0.4,1.1-0.5c0.5-0.1,0.8,0,1.1,0.2
						c0.2,0.2,0.4,0.4,0.5,1L472.3,227.3z M471.6,225.7l-0.9,0.2c-0.7,0.1-0.9,0.5-0.8,0.8c0.1,0.4,0.4,0.6,0.9,0.6s0.8-0.5,1-0.8
						L471.6,225.7z"/>
					<path class="st2" d="M476.5,225.9c0.1,0.8,0.1,1.2,0,1.5c-0.1,0.3-0.5,0.8-1.3,1c-0.9,0.1-1.5-0.3-1.5-0.3l0.2-0.3
						c0.2,0.2,0.8,0.3,1.3,0.3c0.5-0.1,0.8-0.4,0.9-0.6c0.1-0.2,0.2-0.6,0.1-1.2l0-0.2c-0.2,0.5-0.5,0.8-1.1,0.9
						c-0.9,0.1-1.7-0.4-1.9-1.4c-0.2-1,0.5-1.8,1.4-2c0.6-0.1,1.1,0.1,1.4,0.5l-0.1-0.6l0.4-0.1L476.5,225.9z M474.5,223.8
						c-0.8,0.1-1.2,0.8-1,1.6c0.1,0.8,0.7,1.3,1.5,1.2c0.8-0.1,1.2-0.8,1-1.6C475.8,224.2,475.3,223.7,474.5,223.8z"/>
					<path class="st2" d="M479.4,226.2c-0.9,0.2-1.8-0.4-2-1.4c-0.2-1,0.5-1.9,1.4-2c1-0.2,1.8,0.5,2,1.5
						C481,225.2,480.4,226.1,479.4,226.2z M478.9,223.1c-0.8,0.1-1.2,0.8-1.1,1.6c0.1,0.8,0.7,1.3,1.5,1.2c0.8-0.1,1.2-0.8,1.1-1.6
						C480.3,223.5,479.7,222.9,478.9,223.1z"/>
					<path class="st2" d="M486.8,224.9l-2.7,0.4l-0.8-5l2.7-0.4l0.1,0.4l-2.3,0.4l0.3,1.8l2.2-0.4l0.1,0.4l-2.2,0.4l0.3,2.1l2.4-0.4
						L486.8,224.9z"/>
					<path class="st2" d="M490.6,224.3l-0.4,0.1l-1.4-1.3l-0.9,1.7l-0.4,0.1l1.1-2l-1.5-1.4l0.4-0.1l1.2,1.2l0.8-1.5l0.4-0.1
						l-0.9,1.8L490.6,224.3z"/>
					<path class="st2" d="M493.9,222.2l-2.7,0.4c0.2,0.8,0.7,1.2,1.4,1.1c0.8-0.1,1.1-0.6,1.1-0.6l0.2,0.2c0,0-0.3,0.6-1.3,0.7
						c-1,0.2-1.7-0.5-1.9-1.5c-0.2-1,0.5-1.8,1.3-2c0.9-0.1,1.6,0.4,1.8,1.3C493.9,222,493.9,222.2,493.9,222.2z M493.5,221.9
						c-0.1-0.4-0.5-1.1-1.3-1c-0.8,0.1-1,0.9-1,1.4L493.5,221.9z"/>
					<path class="st2" d="M497.9,222.6c-0.1,0.2-0.4,0.7-1.3,0.8c-0.9,0.1-1.7-0.5-1.9-1.5c-0.2-1,0.5-1.9,1.4-2
						c0.9-0.1,1.3,0.3,1.4,0.4l-0.2,0.3c-0.2-0.1-0.5-0.4-1.2-0.3c-0.7,0.1-1.2,0.7-1,1.6c0.1,0.8,0.7,1.3,1.5,1.2
						c0.8-0.1,1-0.7,1-0.7L497.9,222.6z"/>
					<path class="st2" d="M501.5,222.5l-0.4,0.1l-0.1-0.5c-0.2,0.4-0.5,0.7-1,0.8c-0.5,0.1-0.7,0-1-0.2c-0.2-0.2-0.3-0.5-0.4-1
						l-0.3-2l0.4-0.1l0.3,2c0.1,0.5,0.3,1,1,0.9c0.7-0.1,0.9-0.8,0.8-1.5l-0.3-1.8l0.4-0.1L501.5,222.5z"/>
					<path class="st2" d="M504.2,222.1c0,0-0.2,0.1-0.5,0.2c-0.3,0.1-0.5-0.1-0.7-0.3c-0.2-0.2-0.2-0.4-0.3-1l-0.3-1.7l-0.5,0.1
						l-0.1-0.3l0.5-0.1l-0.2-1.1l0.4-0.1l0.2,1.1l0.8-0.1l0.1,0.3l-0.8,0.1l0.3,1.9c0.1,0.4,0.2,0.8,0.6,0.7c0.2,0,0.3-0.2,0.3-0.2
						L504.2,222.1z"/>
					<path class="st2" d="M504.7,217.7c-0.2,0-0.3-0.1-0.4-0.3c0-0.2,0.1-0.3,0.3-0.4c0.2,0,0.3,0.1,0.4,0.3
						S504.9,217.7,504.7,217.7z M505.6,221.9l-0.4,0.1l-0.5-3.3l0.4-0.1L505.6,221.9z"/>
					<path class="st2" d="M509,217.9l-0.9,3.6l-0.3,0l-1.9-3.1l0.4-0.1l1.6,2.6l0.7-3L509,217.9z"/>
					<path class="st2" d="M512.9,219.1l-2.7,0.4c0.2,0.8,0.7,1.2,1.4,1.1c0.8-0.1,1.1-0.6,1.1-0.6l0.2,0.2c0,0-0.3,0.6-1.3,0.7
						c-1,0.2-1.7-0.5-1.9-1.5c-0.2-1,0.5-1.8,1.3-2c0.9-0.1,1.6,0.4,1.8,1.3C512.9,218.9,512.9,219.1,512.9,219.1z M512.5,218.8
						c-0.1-0.4-0.5-1.1-1.3-1c-0.8,0.1-1,0.9-1,1.4L512.5,218.8z"/>
					<path class="st2" d="M519.9,219.5l-0.5,0.1l-0.9-1.4l-2.4,0.4l-0.4,1.6l-0.4,0.1l1.3-5.3l0.2,0L519.9,219.5z M518.4,217.9
						l-1.4-2.4l-0.6,2.7L518.4,217.9z"/>
					<path class="st2" d="M520.3,215.2c-0.2,0-0.3-0.1-0.4-0.3s0.1-0.3,0.3-0.4s0.3,0.1,0.4,0.3C520.6,215,520.5,215.1,520.3,215.2z
						 M521.2,219.3l-0.4,0.1l-0.5-3.3l0.4-0.1L521.2,219.3z"/>
					<path class="st2" d="M523.7,215.9c-0.1,0-0.2,0-0.4,0c-0.3,0.1-0.5,0.3-0.5,0.4c0,0.1-0.2,0.4-0.1,1l0.3,1.8l-0.4,0.1l-0.5-3.3
						l0.4-0.1l0.1,0.6c0-0.5,0.4-0.8,0.7-0.8c0.2,0,0.4,0,0.4,0L523.7,215.9z"/>
					<path class="st2" d="M526.7,218.5c-0.5,0.1-1,0-1.4-0.5l0.3,2l-0.4,0.1l-0.8-4.7l0.4-0.1l0.1,0.6c0.2-0.5,0.6-0.8,1.1-0.9
						c1-0.2,1.8,0.5,1.9,1.5C528.2,217.5,527.7,218.3,526.7,218.5z M526.2,215.4c-0.8,0.1-1.2,0.8-1,1.6c0.1,0.8,0.7,1.3,1.5,1.2
						c0.8-0.1,1.2-0.8,1-1.6C527.6,215.8,527,215.2,526.2,215.4z"/>
					<path class="st2" d="M530.9,217.8c-0.9,0.2-1.8-0.4-2-1.4c-0.2-1,0.5-1.9,1.4-2c1-0.2,1.8,0.5,2,1.5
						C532.5,216.8,531.9,217.7,530.9,217.8z M530.4,214.7c-0.8,0.1-1.2,0.8-1.1,1.6c0.1,0.8,0.7,1.3,1.5,1.2
						c0.8-0.1,1.2-0.8,1.1-1.6C531.8,215.1,531.2,214.6,530.4,214.7z"/>
					<path class="st2" d="M534.8,214.1c-0.1,0-0.2,0-0.4,0c-0.3,0.1-0.5,0.3-0.5,0.4c0,0.1-0.2,0.4-0.1,1l0.3,1.8l-0.4,0.1l-0.5-3.3
						l0.4-0.1l0.1,0.6c0-0.5,0.4-0.8,0.7-0.8c0.2,0,0.4,0,0.4,0L534.8,214.1z"/>
					<path class="st2" d="M537.5,216.6c0,0-0.2,0.1-0.5,0.2c-0.3,0.1-0.5-0.1-0.7-0.3c-0.2-0.2-0.2-0.4-0.3-1l-0.3-1.7l-0.5,0.1
						l-0.1-0.3l0.5-0.1l-0.2-1.1l0.4-0.1l0.2,1.1l0.8-0.1l0.1,0.3l-0.8,0.1l0.3,1.9c0.1,0.4,0.2,0.8,0.6,0.7c0.2,0,0.3-0.2,0.3-0.2
						L537.5,216.6z"/>
					<path class="st2" d="M458.3,240.1l-0.4,0.1l-0.8-4.6l-1,0.2l-0.1-0.3l1.4-0.2L458.3,240.1z"/>
					<path class="st2" d="M461.8,239.6c-1.3,0.2-2-1-2.2-2.3c-0.2-1.3,0.1-2.6,1.4-2.8c1.3-0.2,2,1,2.2,2.3
						C463.4,238,463.1,239.4,461.8,239.6z M461,234.8c-0.9,0.1-1.2,1.1-1,2.4c0.2,1.3,0.8,2.1,1.7,2s1.2-1.1,1-2.4
						C462.6,235.5,461.9,234.7,461,234.8z"/>
					<path class="st2" d="M466.2,238.9c-1,0.2-1.4-0.4-1.6-0.6c-0.1-0.2-0.4-0.6-0.5-1.5c-0.1-0.9,0-1.6,0.2-2.1
						c0.2-0.5,0.6-0.8,1.2-0.9c0.9-0.1,1.4,0.3,1.4,0.3l-0.2,0.3c-0.3-0.2-0.7-0.4-1.2-0.3c-0.5,0.1-0.8,0.3-1,0.7
						c-0.2,0.4-0.3,1.1-0.1,2c0.1-0.5,0.5-1,1.3-1.1c0.8-0.1,1.6,0.3,1.8,1.3C467.7,237.9,467.2,238.7,466.2,238.9z M465.7,236
						c-0.8,0.1-1.1,0.8-1,1.5c0.1,0.6,0.6,1.2,1.4,1.1c0.8-0.1,1.1-0.8,1-1.4C467,236.5,466.6,235.9,465.7,236z"/>
					<path class="st2" d="M470.2,238.2l-0.4,0.1l-0.8-4.6l-1,0.2l-0.1-0.3l1.4-0.2L470.2,238.2z"/>
					<path class="st2" d="M475.2,237.4c-1,0.2-1.5-0.5-1.7-0.6l0.3-0.3c0.2,0.3,0.7,0.7,1.4,0.6c0.6-0.1,1.1-0.6,1-1.2
						s-0.8-0.8-1.1-0.9c-0.3-0.1-0.7-0.2-0.9-0.2c-0.2-0.1-0.8-0.3-0.9-1c-0.1-0.7,0.4-1.3,1.3-1.5c0.8-0.1,1.3,0.4,1.4,0.4
						l-0.2,0.3c-0.2-0.2-0.6-0.5-1.1-0.4c-0.6,0.1-1,0.5-0.9,1c0.1,0.6,0.5,0.7,0.9,0.8c0.4,0.1,1,0.2,1.1,0.3s0.8,0.3,0.9,1
						S476.2,237.3,475.2,237.4z"/>
					<path class="st2" d="M479.4,236.7c-0.9,0.2-1.8-0.4-2-1.4c-0.2-1,0.5-1.9,1.4-2c1-0.2,1.8,0.5,2,1.5
						C481,235.7,480.4,236.6,479.4,236.7z M478.9,233.6c-0.8,0.1-1.2,0.8-1.1,1.6c0.1,0.8,0.7,1.3,1.5,1.2c0.8-0.1,1.2-0.8,1.1-1.6
						C480.3,234,479.7,233.5,478.9,233.6z"/>
					<path class="st2" d="M484.8,235.8l-0.4,0.1l-0.1-0.5c-0.2,0.4-0.5,0.7-1,0.8s-0.8,0-1-0.2c-0.2-0.2-0.3-0.5-0.4-1l-0.3-2
						l0.4-0.1l0.3,2c0.1,0.5,0.3,1,1,0.9c0.7-0.1,0.9-0.8,0.8-1.5l-0.3-1.8l0.4-0.1L484.8,235.8z"/>
					<path class="st2" d="M487.5,235.3c0,0-0.2,0.1-0.5,0.2c-0.3,0.1-0.5-0.1-0.7-0.3c-0.2-0.2-0.2-0.4-0.3-1l-0.3-1.7l-0.5,0.1
						l-0.1-0.3l0.5-0.1l-0.2-1.1l0.4-0.1l0.2,1.1l0.8-0.1l0.1,0.3l-0.8,0.1l0.3,1.9c0.1,0.4,0.2,0.8,0.6,0.7c0.2,0,0.3-0.2,0.3-0.2
						L487.5,235.3z"/>
					<path class="st2" d="M491.1,234.8l-0.4,0.1l-0.3-2c-0.1-0.5-0.3-1.1-1-1c-0.7,0.1-1,0.8-0.8,1.6l0.3,1.7l-0.4,0.1l-0.8-5
						l0.4-0.1l0.4,2.2c0.1-0.4,0.5-0.8,1-0.9c1-0.2,1.3,0.4,1.4,1.2L491.1,234.8z"/>
					<path class="st2" d="M499.3,228.3l-0.6,5.2l-0.4,0.1l-2.1-4.2l-0.7,4.6l-0.4,0.1l-2.3-4.7l0.4-0.1l1.9,4.1l0.6-4.5l0.4-0.1
						l2,4.1l0.5-4.5L499.3,228.3z"/>
					<path class="st2" d="M502.4,233c-0.9,0.2-1.8-0.4-2-1.4c-0.2-1,0.5-1.9,1.4-2c1-0.2,1.8,0.5,2,1.5
						C504,232,503.4,232.8,502.4,233z M501.9,229.8c-0.8,0.1-1.2,0.8-1.1,1.6c0.1,0.8,0.7,1.3,1.5,1.2c0.8-0.1,1.2-0.8,1.1-1.6
						C503.3,230.3,502.7,229.7,501.9,229.8z"/>
					<path class="st2" d="M505.7,232.4l-0.4,0.1l-0.8-5l0.4-0.1L505.7,232.4z"/>
					<path class="st2" d="M507.7,227.3c0,0-0.2,0-0.4,0c-0.5,0.1-0.5,0.5-0.4,1l0.1,0.5l0.8-0.1l0.1,0.3l-0.8,0.1l0.5,3l-0.4,0.1
						l-0.5-3l-0.5,0.1l-0.1-0.3l0.5-0.1l-0.1-0.5c-0.1-0.5,0-0.7,0.1-0.9c0.1-0.2,0.3-0.4,0.6-0.5s0.5,0,0.5,0L507.7,227.3z"/>
					<path class="st2" d="M513.8,231.1l-0.5,0.1l-1.8-2.1l-0.6,0.1l0.4,2.3l-0.4,0.1l-0.8-5l1.1-0.2c0.9-0.2,1.6,0.3,1.8,1.1
						c0.1,0.8-0.4,1.3-1,1.5L513.8,231.1z M512.1,226.8c-0.3-0.2-0.6-0.1-1,0l-0.5,0.1l0.3,2l0.5-0.1c0.4-0.1,0.7-0.1,1-0.4
						c0.2-0.2,0.3-0.5,0.2-0.8C512.5,227.2,512.4,227,512.1,226.8z"/>
					<path class="st2" d="M516.1,230.8c-0.9,0.2-1.8-0.4-2-1.4c-0.2-1,0.5-1.9,1.4-2c1-0.2,1.8,0.5,2,1.5
						C517.7,229.8,517.1,230.6,516.1,230.8z M515.6,227.6c-0.8,0.1-1.2,0.8-1.1,1.6c0.1,0.8,0.7,1.3,1.5,1.2
						c0.8-0.1,1.2-0.8,1.1-1.6C517,228,516.4,227.5,515.6,227.6z"/>
					<path class="st2" d="M521.2,229.9l-0.4,0.1l-0.1-0.5c-0.1,0.2-0.4,0.6-1,0.7c-0.6,0.1-1.2-0.2-1.3-0.8c-0.1-0.6,0.3-1,1.2-1.2
						l0.9-0.2l0-0.2c-0.1-0.6-0.6-0.8-1.1-0.8c-0.5,0.1-0.9,0.4-0.9,0.4l-0.2-0.2c0.2-0.2,0.6-0.4,1.1-0.5c0.5-0.1,0.8,0,1.1,0.2
						c0.2,0.2,0.4,0.4,0.5,1L521.2,229.9z M520.6,228.2l-0.9,0.2c-0.7,0.1-0.9,0.5-0.8,0.8c0.1,0.4,0.4,0.6,0.9,0.6s0.8-0.5,1-0.8
						L520.6,228.2z"/>
					<path class="st2" d="M523.4,226c0.5-0.1,1,0,1.4,0.5l-0.4-2.2l0.4-0.1l0.8,5l-0.4,0.1l-0.1-0.6c-0.2,0.5-0.6,0.8-1.1,0.9
						c-1,0.2-1.8-0.5-1.9-1.5C521.8,227,522.4,226.2,523.4,226z M523.9,229.1c0.8-0.1,1.2-0.8,1-1.6c-0.1-0.8-0.7-1.3-1.5-1.2
						c-0.8,0.1-1.2,0.8-1,1.6C522.5,228.7,523.1,229.3,523.9,229.1z"/>
					<path class="st2" d="M463.8,244.6l-0.6,5.2l-0.4,0.1l-2.1-4.2l-0.7,4.6l-0.4,0.1l-2.3-4.7l0.4-0.1l1.9,4.1l0.6-4.5l0.4-0.1
						l2,4.1l0.5-4.5L463.8,244.6z"/>
					<path class="st2" d="M468.2,249l-0.4,0.1l-0.3-2c-0.1-0.5-0.3-1.1-1-1c-0.7,0.1-1,0.8-0.8,1.6l0.3,1.7l-0.4,0.1l-0.8-5l0.4-0.1
						l0.4,2.2c0.1-0.4,0.5-0.8,1-0.9c1-0.2,1.3,0.4,1.4,1.2L468.2,249z"/>
					<path class="st2" d="M472.1,246.7l-2.7,0.4c0.2,0.8,0.7,1.2,1.4,1.1c0.8-0.1,1.1-0.6,1.1-0.6l0.2,0.2c0,0-0.3,0.6-1.3,0.7
						c-1,0.2-1.7-0.5-1.9-1.5c-0.2-1,0.5-1.8,1.3-2c0.9-0.1,1.6,0.4,1.8,1.3C472.1,246.6,472.1,246.7,472.1,246.7z M471.7,246.5
						c-0.1-0.4-0.5-1.1-1.3-1c-0.8,0.1-1,0.9-1,1.4L471.7,246.5z"/>
					<path class="st2" d="M476.1,246.1l-2.7,0.4c0.2,0.8,0.7,1.2,1.4,1.1c0.8-0.1,1.1-0.6,1.1-0.6l0.2,0.2c0,0-0.3,0.6-1.3,0.7
						c-1,0.2-1.7-0.5-1.9-1.5c-0.2-1,0.5-1.8,1.3-2c0.9-0.1,1.6,0.4,1.8,1.3C476.1,246,476.1,246.1,476.1,246.1z M475.7,245.8
						c-0.1-0.4-0.5-1.1-1.3-1c-0.8,0.1-1,0.9-1,1.4L475.7,245.8z"/>
					<path class="st2" d="M477.8,247.4l-0.4,0.1l-0.8-5l0.4-0.1L477.8,247.4z"/>
					<path class="st2" d="M478.8,243c-0.2,0-0.3-0.1-0.4-0.3c0-0.2,0.1-0.3,0.3-0.4c0.2,0,0.3,0.1,0.4,0.3
						C479.1,242.8,479,242.9,478.8,243z M479.7,247.1l-0.4,0.1l-0.5-3.3l0.4-0.1L479.7,247.1z"/>
					<path class="st2" d="M483.7,246.5l-0.4,0.1l-0.3-2c-0.1-0.5-0.3-1.1-1-1c-0.7,0.1-1,0.8-0.8,1.6l0.3,1.7l-0.4,0.1l-0.5-3.3
						l0.4-0.1l0.1,0.6c0.1-0.4,0.5-0.8,1-0.9c1-0.2,1.3,0.4,1.4,1.2L483.7,246.5z"/>
					<path class="st2" d="M487.9,245.1c0.1,0.8,0.1,1.2,0,1.5c-0.1,0.3-0.5,0.8-1.3,1c-0.9,0.1-1.5-0.3-1.5-0.3l0.2-0.3
						c0.2,0.2,0.8,0.3,1.3,0.3c0.5-0.1,0.8-0.4,0.9-0.6c0.1-0.2,0.2-0.6,0.1-1.2l0-0.2c-0.2,0.5-0.5,0.8-1.1,0.9
						c-0.9,0.1-1.7-0.4-1.9-1.4s0.5-1.8,1.4-2c0.6-0.1,1.1,0.1,1.4,0.5l-0.1-0.6l0.4-0.1L487.9,245.1z M485.9,243
						c-0.8,0.1-1.2,0.8-1,1.6c0.1,0.8,0.7,1.3,1.5,1.2c0.8-0.1,1.2-0.8,1-1.6C487.3,243.4,486.7,242.9,485.9,243z"/>
					<path class="st2" d="M490.2,244.8l-0.3,1.7l-0.3,0l0.2-1.6L490.2,244.8z"/>
					<path class="st2" d="M493.9,244.8l-0.4,0.1l-0.8-5l0.4-0.1L493.9,244.8z"/>
					<path class="st2" d="M497.6,244.2l-2.2,0.4l-0.8-5l0.4-0.1l0.7,4.6l1.8-0.3L497.6,244.2z"/>
					<path class="st2" d="M501.8,243.6c-1,0.2-1.4-0.4-1.6-0.6c-0.1-0.2-0.4-0.6-0.5-1.5c-0.1-0.9,0-1.6,0.2-2.1
						c0.2-0.5,0.6-0.8,1.2-0.9c0.9-0.1,1.4,0.3,1.4,0.3l-0.2,0.3c-0.3-0.2-0.7-0.4-1.2-0.3c-0.5,0.1-0.8,0.3-1,0.7
						c-0.2,0.4-0.3,1.1-0.1,2c0.1-0.5,0.5-1,1.3-1.1c0.8-0.1,1.6,0.3,1.8,1.3C503.2,242.6,502.7,243.5,501.8,243.6z M501.3,240.8
						c-0.8,0.1-1.1,0.8-1,1.5c0.1,0.6,0.6,1.2,1.4,1.1c0.8-0.1,1.1-0.8,1-1.4C502.6,241.2,502.1,240.6,501.3,240.8z"/>
					<path class="st2" d="M506,242.9c-1.3,0.2-2-1-2.2-2.3c-0.2-1.3,0.1-2.6,1.4-2.8c1.3-0.2,2,1,2.2,2.3
						C507.5,241.4,507.2,242.7,506,242.9z M505.2,238.2c-0.9,0.1-1.2,1.1-1,2.4c0.2,1.3,0.8,2.1,1.7,2c0.9-0.1,1.2-1.1,1-2.4
						C506.7,238.9,506.1,238,505.2,238.2z"/>
					<path class="st2" d="M510.3,242.2c-1.3,0.2-2-1-2.2-2.3c-0.2-1.3,0.1-2.6,1.4-2.8c1.3-0.2,2,1,2.2,2.3
						C511.9,240.7,511.5,242,510.3,242.2z M509.5,237.5c-0.9,0.1-1.2,1.1-1,2.4c0.2,1.3,0.8,2.1,1.7,2s1.2-1.1,1-2.4
						S510.4,237.3,509.5,237.5z"/>
					<path class="st2" d="M515.6,240.7c-0.2,0.5-0.6,0.8-1.2,0.9c-0.9,0.1-1.4-0.2-1.4-0.3l0.2-0.3c0.3,0.2,0.7,0.3,1.2,0.3
						c0.5-0.1,0.8-0.3,1-0.7c0.2-0.4,0.3-1.1,0.1-2c-0.1,0.5-0.5,1-1.2,1.2c-0.8,0.1-1.6-0.3-1.8-1.3c-0.2-0.9,0.3-1.8,1.3-1.9
						c1-0.2,1.4,0.4,1.6,0.6c0.1,0.2,0.4,0.6,0.5,1.5C515.9,239.5,515.8,240.2,515.6,240.7z M513.7,236.8c-0.8,0.1-1.1,0.8-1,1.4
						s0.6,1.2,1.4,1.1c0.8-0.1,1.1-0.8,1-1.5S514.5,236.7,513.7,236.8z"/>
					<path class="st2" d="M518.9,240.8c-1.3,0.2-2-1-2.2-2.3c-0.2-1.3,0.1-2.6,1.4-2.8c1.3-0.2,2,1,2.2,2.3
						C520.5,239.3,520.1,240.6,518.9,240.8z M518.1,236.1c-0.9,0.1-1.2,1.1-1,2.4c0.2,1.3,0.8,2.1,1.7,2c0.9-0.1,1.2-1.1,1-2.4
						C519.6,236.8,519,235.9,518.1,236.1z"/>
				</g>
			</g>
		</g>
		<line class="st4" x1="447.2" y1="215.8" x2="453.1" y2="251.6"/>
		<g>
			<path class="st2" d="M325.4,240.2c-0.2,0.3-0.6,0.6-1.2,0.7l-1.1,0.2l-0.6-3.5l1.1-0.2c0.6-0.1,1.1,0.1,1.4,0.2s0.7,0.6,0.8,1.2
				C325.9,239.5,325.7,239.9,325.4,240.2z M324.7,237.9c-0.2-0.2-0.6-0.2-1-0.2l-0.6,0.1l0.4,2.7l0.6-0.1c0.4-0.1,0.7-0.3,0.9-0.5
				c0.2-0.2,0.3-0.6,0.3-1.1C325.2,238.4,324.9,238.1,324.7,237.9z"/>
			<path class="st2" d="M327.4,240.4l-0.5,0.1l-0.6-3.5l0.5-0.1L327.4,240.4z"/>
			<path class="st2" d="M330.7,239.8l-0.6,0.1l-1.2-1.4l-0.4,0.1l0.2,1.5l-0.5,0.1l-0.6-3.5l1-0.2c0.4-0.1,0.7,0,0.9,0.1
				c0.2,0.1,0.4,0.4,0.5,0.7c0.1,0.6-0.3,1-0.6,1.1L330.7,239.8z M329.3,237c-0.2-0.1-0.4-0.1-0.6,0l-0.4,0.1l0.2,1.2l0.4-0.1
				c0.2,0,0.4-0.1,0.6-0.2c0.1-0.1,0.2-0.3,0.1-0.5C329.6,237.2,329.5,237.1,329.3,237z"/>
			<path class="st2" d="M333.4,239.4l-2.1,0.3l-0.6-3.5l2.1-0.3l0.1,0.4l-1.6,0.3l0.2,1.1l1.5-0.2l0.1,0.4l-1.5,0.2l0.2,1.2l1.6-0.3
				L333.4,239.4z"/>
			<path class="st2" d="M337.1,238.3c-0.2,0.3-0.5,0.6-1.2,0.7c-1,0.2-1.9-0.4-2.1-1.5c-0.2-1.1,0.5-2,1.5-2.1
				c0.7-0.1,1.1,0.1,1.3,0.3l-0.1,0.4c-0.2-0.2-0.6-0.3-1.1-0.3c-0.8,0.1-1.2,0.8-1.1,1.6c0.1,0.8,0.8,1.3,1.5,1.2
				c0.5-0.1,0.8-0.3,1-0.6L337.1,238.3z"/>
			<path class="st2" d="M339.5,235.2l-1,0.2l0.5,3.1l-0.5,0.1l-0.5-3.1l-1,0.2l-0.1-0.4l2.5-0.4L339.5,235.2z"/>
			<path class="st2" d="M347.4,234.7l-1.7,0.3l0.3,1.7l-0.3,0.1l-0.3-1.7l-1.7,0.3l-0.1-0.3l1.7-0.3l-0.3-1.7l0.3-0.1l0.3,1.7
				l1.7-0.3L347.4,234.7z"/>
			<path class="st2" d="M350.4,236.6l-0.4,0.1l-0.8-4.6l-1,0.2l-0.1-0.3l1.4-0.2L350.4,236.6z"/>
			<path class="st2" d="M355.4,235.9c-0.9,0.1-1.5-0.3-1.6-0.6l0.3-0.3c0.2,0.3,0.7,0.6,1.4,0.5c0.6-0.1,1.2-0.6,1.1-1.5
				s-0.9-1.2-1.5-1.1c-0.3,0.1-0.7,0.2-0.8,0.4l-0.3-0.1l0.1-2.3l2.2-0.4l0.1,0.3l-1.9,0.3l-0.1,1.7c0.2-0.1,0.5-0.2,0.7-0.3
				c0.8-0.1,1.7,0.3,1.9,1.3C357,235,356.3,235.7,355.4,235.9z"/>
			<path class="st2" d="M359.7,235.2c-0.9,0.1-1.5-0.3-1.6-0.6l0.3-0.3c0.2,0.3,0.7,0.6,1.4,0.5c0.6-0.1,1.2-0.6,1.1-1.5
				c-0.1-0.9-0.9-1.2-1.5-1.1c-0.3,0.1-0.7,0.2-0.8,0.4l-0.3-0.1l0.1-2.3l2.2-0.4l0.1,0.3l-1.9,0.3l-0.1,1.7
				c0.2-0.1,0.5-0.2,0.7-0.3c0.8-0.1,1.7,0.3,1.9,1.3S360.6,235,359.7,235.2z"/>
			<path class="st2" d="M364,234.5c-0.9,0.1-1.5-0.3-1.6-0.6l0.3-0.3c0.2,0.3,0.7,0.6,1.4,0.5c0.6-0.1,1.2-0.6,1.1-1.5
				s-0.9-1.2-1.5-1.1c-0.3,0.1-0.7,0.2-0.8,0.4l-0.3-0.1l0.1-2.3l2.2-0.4l0.1,0.3l-1.9,0.3l-0.1,1.7c0.2-0.1,0.5-0.2,0.7-0.3
				c0.8-0.1,1.7,0.3,1.9,1.3C365.6,233.6,364.9,234.3,364,234.5z"/>
			<path class="st2" d="M370,233.5c-0.9,0.1-1.5-0.3-1.6-0.6l0.3-0.3c0.2,0.3,0.7,0.6,1.4,0.5c0.6-0.1,1.2-0.6,1.1-1.5
				c-0.1-0.9-0.9-1.2-1.5-1.1c-0.3,0.1-0.7,0.2-0.8,0.4l-0.3-0.1l0.1-2.3l2.2-0.4l0.1,0.3l-1.9,0.3l-0.1,1.7
				c0.2-0.1,0.5-0.2,0.7-0.3c0.8-0.1,1.7,0.3,1.9,1.3C371.7,232.6,370.9,233.4,370,233.5z"/>
			<path class="st2" d="M374.4,232.8c-0.9,0.1-1.5-0.3-1.6-0.6l0.3-0.3c0.2,0.3,0.7,0.6,1.4,0.5c0.6-0.1,1.2-0.6,1.1-1.5
				s-0.9-1.2-1.5-1.1c-0.3,0.1-0.7,0.2-0.8,0.4l-0.3-0.1l0.1-2.3l2.2-0.4l0.1,0.3l-1.9,0.3l-0.1,1.7c0.2-0.1,0.5-0.2,0.7-0.3
				c0.8-0.1,1.7,0.3,1.9,1.3S375.2,232.7,374.4,232.8z"/>
			<path class="st2" d="M378.7,232.1c-0.9,0.1-1.5-0.3-1.6-0.6l0.3-0.3c0.2,0.3,0.7,0.6,1.4,0.5c0.6-0.1,1.2-0.6,1.1-1.5
				s-0.9-1.2-1.5-1.1c-0.3,0.1-0.7,0.2-0.8,0.4l-0.3-0.1l0.1-2.3l2.2-0.4l0.1,0.3l-1.9,0.3l-0.1,1.7c0.2-0.1,0.5-0.2,0.7-0.3
				c0.8-0.1,1.7,0.3,1.9,1.3S379.6,232,378.7,232.1z"/>
			<path class="st2" d="M384.7,231.1c-0.9,0.1-1.5-0.3-1.6-0.6l0.3-0.3c0.2,0.3,0.7,0.6,1.4,0.5c0.6-0.1,1.2-0.6,1.1-1.5
				s-0.9-1.2-1.5-1.1c-0.3,0.1-0.7,0.2-0.8,0.4l-0.3-0.1l0.1-2.3l2.2-0.4l0.1,0.3l-1.9,0.3l-0.1,1.7c0.2-0.1,0.5-0.2,0.7-0.3
				c0.8-0.1,1.7,0.3,1.9,1.3C386.3,230.3,385.6,231,384.7,231.1z"/>
			<path class="st2" d="M389,230.4c-0.9,0.1-1.5-0.3-1.6-0.6l0.3-0.3c0.2,0.3,0.7,0.6,1.4,0.5c0.6-0.1,1.2-0.6,1.1-1.5
				s-0.9-1.2-1.5-1.1c-0.3,0.1-0.7,0.2-0.8,0.4l-0.3-0.1l0.1-2.3l2.2-0.4l0.1,0.3l-1.9,0.3l-0.1,1.7c0.2-0.1,0.5-0.2,0.7-0.3
				c0.8-0.1,1.7,0.3,1.9,1.3C390.6,229.6,389.9,230.3,389,230.4z"/>
			<path class="st2" d="M393.3,229.7c-0.9,0.1-1.5-0.3-1.6-0.6l0.3-0.3c0.2,0.3,0.7,0.6,1.4,0.5c0.6-0.1,1.2-0.6,1.1-1.5
				c-0.1-0.9-0.9-1.2-1.5-1.1c-0.3,0.1-0.7,0.2-0.8,0.4l-0.3-0.1l0.1-2.3l2.2-0.4l0.1,0.3l-1.9,0.3l-0.1,1.7
				c0.2-0.1,0.5-0.2,0.7-0.3c0.8-0.1,1.7,0.3,1.9,1.3C394.9,228.9,394.2,229.6,393.3,229.7z"/>
			<path class="st2" d="M397.6,229c-0.9,0.1-1.5-0.3-1.6-0.6l0.3-0.3c0.2,0.3,0.7,0.6,1.4,0.5c0.6-0.1,1.2-0.6,1.1-1.5
				s-0.9-1.2-1.5-1.1c-0.3,0.1-0.7,0.2-0.8,0.4l-0.3-0.1l0.1-2.3l2.2-0.4l0.1,0.3l-1.9,0.3l-0.1,1.7c0.2-0.1,0.5-0.2,0.7-0.3
				c0.8-0.1,1.7,0.3,1.9,1.3C399.2,228.2,398.5,228.9,397.6,229z"/>
			<path class="st2" d="M328.6,250.7l-0.5,0.1l-0.7-2.8l0,0l-0.6,3l-0.3,0l-1.5-2.7l0,0l0.2,2.8l-0.5,0.1l-0.3-3.6l0.6-0.1l1.5,2.6
				l0,0l0.6-2.9l0.6-0.1L328.6,250.7z"/>
			<path class="st2" d="M331,250.4c-1,0.2-1.9-0.4-2.1-1.5c-0.2-1.1,0.5-2,1.5-2.1c1-0.2,1.9,0.4,2.1,1.5
				C332.7,249.4,332,250.2,331,250.4z M330.5,247.1c-0.7,0.1-1.2,0.7-1.1,1.6c0.1,0.9,0.8,1.3,1.5,1.2c0.7-0.1,1.2-0.7,1.1-1.6
				C331.9,247.4,331.2,247,330.5,247.1z"/>
			<path class="st2" d="M335.6,249.3c-0.2,0.2-0.5,0.3-0.9,0.4l-1.1,0.2l-0.6-3.5l1-0.2c0.3-0.1,0.6-0.1,0.9,0
				c0.2,0.1,0.4,0.3,0.5,0.7c0.1,0.4-0.1,0.7-0.4,0.9l0,0c0.5,0,0.8,0.3,0.9,0.7C335.9,248.8,335.8,249.1,335.6,249.3z M334.6,246.6
				c-0.1-0.1-0.3-0.1-0.5,0l-0.5,0.1l0.2,1.1l0.4-0.1c0.2,0,0.4-0.1,0.5-0.2s0.2-0.2,0.2-0.5C334.8,246.8,334.7,246.6,334.6,246.6z
				 M335,248.1c-0.2-0.1-0.4-0.1-0.6,0l-0.5,0.1l0.2,1.2l0.5-0.1c0.2,0,0.4-0.1,0.6-0.2c0.2-0.1,0.2-0.3,0.2-0.5
				C335.3,248.3,335.2,248.2,335,248.1z"/>
			<path class="st2" d="M337.3,249.3l-0.5,0.1l-0.6-3.5l0.5-0.1L337.3,249.3z"/>
			<path class="st2" d="M340.1,248.8l-1.7,0.3l-0.6-3.5l0.5-0.1l0.5,3.1l1.2-0.2L340.1,248.8z"/>
			<path class="st2" d="M342.8,248.4l-2.1,0.3l-0.6-3.5l2.1-0.3l0.1,0.4l-1.6,0.3l0.2,1.1l1.5-0.2l0.1,0.4l-1.5,0.2l0.2,1.2l1.6-0.3
				L342.8,248.4z"/>
			<path class="st2" d="M350.4,244.8l-1.7,0.3l0.3,1.7l-0.3,0.1l-0.3-1.7l-1.7,0.3l-0.1-0.3l1.7-0.3l-0.3-1.7l0.3-0.1l0.3,1.7
				l1.7-0.3L350.4,244.8z"/>
			<path class="st2" d="M353.4,246.7l-0.4,0.1l-0.8-4.6l-1,0.2l-0.1-0.3l1.4-0.2L353.4,246.7z"/>
			<path class="st2" d="M358.4,245.9c-0.9,0.1-1.5-0.3-1.6-0.6l0.3-0.3c0.2,0.3,0.7,0.6,1.4,0.5c0.6-0.1,1.2-0.6,1.1-1.5
				s-0.9-1.2-1.5-1.1c-0.3,0.1-0.7,0.2-0.8,0.4l-0.3-0.1l0.1-2.3l2.2-0.4l0.1,0.3l-1.9,0.3l-0.1,1.7c0.2-0.1,0.5-0.2,0.7-0.3
				c0.8-0.1,1.7,0.3,1.9,1.3C360,245.1,359.3,245.8,358.4,245.9z"/>
			<path class="st2" d="M362.7,245.2c-0.9,0.1-1.5-0.3-1.6-0.6l0.3-0.3c0.2,0.3,0.7,0.6,1.4,0.5c0.6-0.1,1.2-0.6,1.1-1.5
				s-0.9-1.2-1.5-1.1c-0.3,0.1-0.7,0.2-0.8,0.4l-0.3-0.1l0.1-2.3l2.2-0.4l0.1,0.3l-1.9,0.3l-0.1,1.7c0.2-0.1,0.5-0.2,0.7-0.3
				c0.8-0.1,1.7,0.3,1.9,1.3C364.4,244.4,363.6,245.1,362.7,245.2z"/>
			<path class="st2" d="M367,244.5c-0.9,0.1-1.5-0.3-1.6-0.6l0.3-0.3c0.2,0.3,0.7,0.6,1.4,0.5c0.6-0.1,1.2-0.6,1.1-1.5
				c-0.1-0.9-0.9-1.2-1.5-1.1c-0.3,0.1-0.7,0.2-0.8,0.4l-0.3-0.1l0.1-2.3l2.2-0.4l0.1,0.3l-1.9,0.3l-0.1,1.7
				c0.2-0.1,0.5-0.2,0.7-0.3c0.8-0.1,1.7,0.3,1.9,1.3C368.7,243.7,367.9,244.4,367,244.5z"/>
			<path class="st2" d="M373.1,243.5c-0.9,0.1-1.5-0.3-1.6-0.6l0.3-0.3c0.2,0.3,0.7,0.6,1.4,0.5c0.6-0.1,1.2-0.6,1.1-1.5
				s-0.9-1.2-1.5-1.1c-0.3,0.1-0.7,0.2-0.8,0.4l-0.3-0.1l0.1-2.3l2.2-0.4l0.1,0.3l-1.9,0.3l-0.1,1.7c0.2-0.1,0.5-0.2,0.7-0.3
				c0.8-0.1,1.7,0.3,1.9,1.3S374,243.4,373.1,243.5z"/>
			<path class="st2" d="M377.4,242.8c-0.9,0.1-1.5-0.3-1.6-0.6l0.3-0.3c0.2,0.3,0.7,0.6,1.4,0.5c0.6-0.1,1.2-0.6,1.1-1.5
				c-0.1-0.9-0.9-1.2-1.5-1.1c-0.3,0.1-0.7,0.2-0.8,0.4l-0.3-0.1l0.1-2.3l2.2-0.4l0.1,0.3l-1.9,0.3l-0.1,1.7
				c0.2-0.1,0.5-0.2,0.7-0.3c0.8-0.1,1.7,0.3,1.9,1.3C379,242,378.3,242.7,377.4,242.8z"/>
			<path class="st2" d="M381.7,242.1c-0.9,0.1-1.5-0.3-1.6-0.6l0.3-0.3c0.2,0.3,0.7,0.6,1.4,0.5c0.6-0.1,1.2-0.6,1.1-1.5
				s-0.9-1.2-1.5-1.1c-0.3,0.1-0.7,0.2-0.8,0.4l-0.3-0.1l0.1-2.3l2.2-0.4l0.1,0.3l-1.9,0.3l-0.1,1.7c0.2-0.1,0.5-0.2,0.7-0.3
				c0.8-0.1,1.7,0.3,1.9,1.3S382.6,242,381.7,242.1z"/>
			<path class="st2" d="M387.7,241.2c-0.9,0.1-1.5-0.3-1.6-0.6l0.3-0.3c0.2,0.3,0.7,0.6,1.4,0.5c0.6-0.1,1.2-0.6,1.1-1.5
				c-0.1-0.9-0.9-1.2-1.5-1.1c-0.3,0.1-0.7,0.2-0.8,0.4l-0.3-0.1l0.1-2.3l2.2-0.4l0.1,0.3l-1.9,0.3l-0.1,1.7
				c0.2-0.1,0.5-0.2,0.7-0.3c0.8-0.1,1.7,0.3,1.9,1.3C389.3,240.3,388.6,241,387.7,241.2z"/>
			<path class="st2" d="M392,240.5c-0.9,0.1-1.5-0.3-1.6-0.6l0.3-0.3c0.2,0.3,0.7,0.6,1.4,0.5c0.6-0.1,1.2-0.6,1.1-1.5
				s-0.9-1.2-1.5-1.1c-0.3,0.1-0.7,0.2-0.8,0.4l-0.3-0.1l0.1-2.3l2.2-0.4l0.1,0.3l-1.9,0.3l-0.1,1.7c0.2-0.1,0.5-0.2,0.7-0.3
				c0.8-0.1,1.7,0.3,1.9,1.3C393.6,239.6,392.9,240.3,392,240.5z"/>
			<path class="st2" d="M396.3,239.8c-0.9,0.1-1.5-0.3-1.6-0.6l0.3-0.3c0.2,0.3,0.7,0.6,1.4,0.5c0.6-0.1,1.2-0.6,1.1-1.5
				s-0.9-1.2-1.5-1.1c-0.3,0.1-0.7,0.2-0.8,0.4l-0.3-0.1l0.1-2.3l2.2-0.4l0.1,0.3l-1.9,0.3l-0.1,1.7c0.2-0.1,0.5-0.2,0.7-0.3
				c0.8-0.1,1.7,0.3,1.9,1.3S397.2,239.6,396.3,239.8z"/>
			<path class="st2" d="M400.6,239.1c-0.9,0.1-1.5-0.3-1.6-0.6l0.3-0.3c0.2,0.3,0.7,0.6,1.4,0.5c0.6-0.1,1.2-0.6,1.1-1.5
				c-0.1-0.9-0.9-1.2-1.5-1.1c-0.3,0.1-0.7,0.2-0.8,0.4l-0.3-0.1l0.1-2.3l2.2-0.4l0.1,0.3l-1.9,0.3l-0.1,1.7
				c0.2-0.1,0.5-0.2,0.7-0.3c0.8-0.1,1.7,0.3,1.9,1.3C402.2,238.2,401.5,238.9,400.6,239.1z"/>
			<path class="st2" d="M329.2,259.5l-2.7,0.4c0.2,0.8,0.7,1.2,1.4,1.1c0.8-0.1,1.1-0.6,1.1-0.6l0.2,0.2c0,0-0.3,0.6-1.3,0.7
				c-1,0.2-1.7-0.5-1.9-1.5c-0.2-1,0.5-1.8,1.3-2c0.9-0.1,1.6,0.4,1.8,1.3C329.2,259.3,329.2,259.5,329.2,259.5z M328.8,259.2
				c-0.1-0.4-0.5-1.1-1.3-1c-0.8,0.1-1,0.9-1,1.4L328.8,259.2z"/>
			<path class="st2" d="M335.1,260.2l-0.4,0.1l-0.3-2c-0.1-0.4-0.2-1-0.9-0.9c-0.6,0.1-0.9,0.8-0.8,1.5l0.3,1.7l-0.4,0.1l-0.3-2
				c-0.1-0.6-0.3-1-0.9-0.9c-0.6,0.1-0.9,0.8-0.8,1.5l0.3,1.7l-0.4,0.1l-0.5-3.3l0.4-0.1l0.1,0.6c0.1-0.4,0.4-0.8,0.9-0.8
				c0.5-0.1,0.9,0.1,1.1,0.5c0.1-0.5,0.5-0.8,0.9-0.9c0.9-0.1,1.2,0.5,1.3,1.2L335.1,260.2z"/>
			<path class="st2" d="M338.7,259.6l-0.4,0.1l-0.1-0.5c-0.1,0.2-0.4,0.6-1,0.7c-0.6,0.1-1.2-0.2-1.3-0.8c-0.1-0.6,0.3-1,1.2-1.2
				l0.9-0.2l0-0.2c-0.1-0.6-0.6-0.8-1.1-0.8c-0.5,0.1-0.9,0.4-0.9,0.4l-0.2-0.2c0.2-0.2,0.6-0.4,1.1-0.5c0.5-0.1,0.8,0,1.1,0.2
				c0.2,0.2,0.4,0.4,0.5,1L338.7,259.6z M338.1,257.9l-0.9,0.2c-0.7,0.1-0.9,0.5-0.8,0.8s0.4,0.6,0.9,0.6c0.5-0.1,0.8-0.5,1-0.8
				L338.1,257.9z"/>
			<path class="st2" d="M339.6,255.1c-0.2,0-0.3-0.1-0.4-0.3s0.1-0.3,0.3-0.4s0.3,0.1,0.4,0.3C339.8,254.9,339.7,255.1,339.6,255.1z
				 M340.4,259.3l-0.4,0.1l-0.5-3.3l0.4-0.1L340.4,259.3z"/>
			<path class="st2" d="M342.2,259l-0.4,0.1l-0.8-5l0.4-0.1L342.2,259z"/>
			<path class="st2" d="M346.3,258.3l-0.4,0.1l-0.3-2c-0.1-0.5-0.3-1.1-1-1c-0.7,0.1-1,0.8-0.8,1.6l0.3,1.7l-0.4,0.1l-0.5-3.3
				l0.4-0.1l0.1,0.6c0.1-0.4,0.5-0.8,1-0.8c1-0.2,1.3,0.4,1.4,1.2L346.3,258.3z"/>
			<path class="st2" d="M349.9,257.8l-0.4,0.1l-0.1-0.5c-0.1,0.2-0.4,0.6-1,0.7c-0.6,0.1-1.2-0.2-1.3-0.8c-0.1-0.6,0.3-1,1.2-1.2
				l0.9-0.2l0-0.2c-0.1-0.6-0.6-0.8-1.1-0.8c-0.5,0.1-0.9,0.4-0.9,0.4l-0.2-0.2c0.2-0.2,0.6-0.4,1.1-0.5c0.5-0.1,0.8,0,1.1,0.2
				c0.2,0.2,0.4,0.4,0.5,1L349.9,257.8z M349.2,256.1l-0.9,0.2c-0.7,0.1-0.9,0.5-0.8,0.8s0.4,0.6,0.9,0.6c0.5-0.1,0.8-0.5,1-0.8
				L349.2,256.1z"/>
			<path class="st2" d="M355.7,256.8l-0.4,0.1l-0.3-2c-0.1-0.4-0.2-1-0.9-0.9c-0.6,0.1-0.9,0.8-0.8,1.5l0.3,1.7l-0.4,0.1l-0.3-2
				c-0.1-0.6-0.3-1-0.9-0.9c-0.6,0.1-0.9,0.8-0.8,1.5l0.3,1.7l-0.4,0.1l-0.5-3.3l0.4-0.1l0.1,0.6c0.1-0.4,0.5-0.8,0.9-0.8
				c0.5-0.1,0.9,0.1,1.1,0.5c0.1-0.5,0.5-0.8,0.9-0.9c0.9-0.1,1.2,0.5,1.3,1.2L355.7,256.8z"/>
			<path class="st2" d="M359.6,254.5l-2.7,0.4c0.2,0.8,0.7,1.2,1.4,1.1c0.8-0.1,1.1-0.6,1.1-0.6l0.2,0.2c0,0-0.3,0.6-1.3,0.7
				s-1.7-0.5-1.9-1.5c-0.2-1,0.5-1.8,1.3-2c0.9-0.1,1.6,0.4,1.8,1.3C359.6,254.4,359.6,254.5,359.6,254.5z M359.2,254.3
				c-0.1-0.4-0.5-1.1-1.3-1c-0.8,0.1-1,0.9-1,1.4L359.2,254.3z"/>
			<path class="st2" d="M364.2,255.4c-0.4,0.1-0.6-0.1-0.7-0.4c-0.3,0.5-0.6,0.6-0.9,0.6c-0.3,0-0.8,0-1-0.9
				c-0.1-0.9,0.4-2.2,1.3-2.3c0.6-0.1,0.9,0.3,0.9,0.3l0.1-0.3l0.4-0.1l-0.4,2.1c0,0.2,0,0.3,0,0.4c0,0.2,0.1,0.2,0.3,0.2
				c0.5-0.1,1.1-0.9,0.9-1.9c-0.2-1-1.1-1.7-2.4-1.5c-1.3,0.2-2.2,1.4-2,2.8c0.2,1.4,1.3,2.1,2.5,1.9c1.2-0.2,1.9-0.9,1.9-1l0.2,0.2
				c-0.1,0.1-0.7,0.9-2.1,1.1s-2.7-0.6-2.9-2.2c-0.3-1.6,0.9-2.9,2.3-3.2s2.6,0.5,2.8,1.8C365.7,254.3,365,255.3,364.2,255.4z
				 M363.9,253c0,0-0.2-0.4-0.8-0.3c-0.8,0.1-1.1,1.2-1,1.9c0.1,0.7,0.5,0.7,0.7,0.7c0.2,0,0.8-0.3,0.9-1.2L363.9,253z"/>
			<path class="st2" d="M368.7,254.8c-0.5,0.1-1,0-1.4-0.5l0.3,2l-0.4,0.1l-0.8-4.7l0.4-0.1l0.1,0.6c0.2-0.5,0.6-0.8,1.1-0.9
				c1-0.2,1.8,0.5,1.9,1.5C370.2,253.8,369.7,254.6,368.7,254.8z M368.2,251.6c-0.8,0.1-1.2,0.8-1,1.6c0.1,0.8,0.7,1.3,1.5,1.2
				c0.8-0.1,1.2-0.8,1-1.6C369.5,252.1,369,251.5,368.2,251.6z"/>
			<path class="st2" d="M372.5,251c-0.1,0-0.2,0-0.4,0c-0.3,0.1-0.5,0.3-0.5,0.4c0,0.1-0.2,0.4-0.1,1l0.3,1.8l-0.4,0.1l-0.5-3.3
				l0.4-0.1l0.1,0.6c0-0.5,0.4-0.8,0.7-0.8c0.2,0,0.4,0,0.4,0L372.5,251z"/>
			<path class="st2" d="M373.4,249.6c-0.2,0-0.3-0.1-0.4-0.3c0-0.2,0.1-0.3,0.3-0.4c0.2,0,0.3,0.1,0.4,0.3S373.6,249.6,373.4,249.6z
				 M374.3,253.8l-0.4,0.1l-0.5-3.3l0.4-0.1L374.3,253.8z"/>
			<path class="st2" d="M378.3,251.5l-2.7,0.4c0.2,0.8,0.7,1.2,1.4,1.1c0.8-0.1,1.1-0.6,1.1-0.6l0.2,0.2c0,0-0.3,0.6-1.3,0.7
				c-1,0.2-1.7-0.5-1.9-1.5c-0.2-1,0.5-1.8,1.3-2c0.9-0.1,1.6,0.4,1.8,1.3C378.3,251.4,378.3,251.5,378.3,251.5z M377.9,251.2
				c-0.1-0.4-0.5-1.1-1.3-1c-0.8,0.1-1,0.9-1,1.4L377.9,251.2z"/>
			<path class="st2" d="M380.5,252.8c-0.6,0.1-1.1-0.1-1.3-0.4l0.2-0.3c0.3,0.3,0.6,0.4,1,0.4s0.8-0.3,0.7-0.8
				c-0.1-0.4-0.7-0.5-1-0.5c-0.3-0.1-1-0.2-1.1-0.8c-0.1-0.6,0.4-1,0.9-1.1c0.5-0.1,0.8,0,1.1,0.3l-0.2,0.3
				c-0.3-0.2-0.5-0.3-0.9-0.2c-0.4,0.1-0.6,0.3-0.6,0.6c0.1,0.3,0.4,0.4,0.9,0.5c0.4,0.1,1.1,0.2,1.2,0.8
				C381.6,252.3,381.1,252.7,380.5,252.8z"/>
			<path class="st2" d="M384.1,252.1c0,0-0.2,0.1-0.5,0.2c-0.3,0.1-0.5-0.1-0.7-0.3c-0.2-0.2-0.2-0.4-0.3-1l-0.3-1.7l-0.5,0.1
				l-0.1-0.3l0.5-0.1l-0.2-1.1l0.4-0.1l0.2,1.1l0.8-0.1l0.1,0.3l-0.8,0.1l0.3,1.9c0.1,0.4,0.2,0.8,0.6,0.7c0.2,0,0.3-0.2,0.3-0.2
				L384.1,252.1z"/>
			<path class="st2" d="M387.5,250l-2.7,0.4c0.2,0.8,0.7,1.2,1.4,1.1c0.8-0.1,1.1-0.6,1.1-0.6l0.2,0.2c0,0-0.3,0.6-1.3,0.7
				s-1.7-0.5-1.9-1.5c-0.2-1,0.5-1.8,1.3-2c0.9-0.1,1.6,0.4,1.8,1.3C387.5,249.9,387.5,250,387.5,250z M387.1,249.7
				c-0.1-0.4-0.5-1.1-1.3-1c-0.8,0.1-1,0.9-1,1.4L387.1,249.7z"/>
			<path class="st2" d="M389.9,248.2c-0.1,0-0.2,0-0.4,0c-0.3,0.1-0.5,0.3-0.5,0.4c0,0.1-0.2,0.4-0.1,1l0.3,1.8l-0.4,0.1l-0.5-3.3
				l0.4-0.1l0.1,0.6c0-0.5,0.4-0.8,0.7-0.8c0.2,0,0.4,0,0.4,0L389.9,248.2z"/>
			<path class="st2" d="M393.5,250.7l-0.4,0.1l-0.1-0.5c-0.1,0.2-0.4,0.6-1,0.7c-0.6,0.1-1.2-0.2-1.3-0.8c-0.1-0.6,0.3-1,1.2-1.2
				l0.9-0.2l0-0.2c-0.1-0.6-0.6-0.8-1.1-0.8c-0.5,0.1-0.9,0.4-0.9,0.4l-0.2-0.2c0.2-0.2,0.6-0.4,1.1-0.5c0.5-0.1,0.8,0,1.1,0.2
				c0.2,0.2,0.4,0.4,0.5,1L393.5,250.7z M392.8,249l-0.9,0.2c-0.7,0.1-0.9,0.5-0.8,0.8c0.1,0.4,0.4,0.6,0.9,0.6
				c0.5-0.1,0.8-0.5,1-0.8L392.8,249z"/>
			<path class="st2" d="M396.7,246.7l-0.9,3.6l-0.3,0l-1.9-3.1l0.4-0.1l1.6,2.6l0.7-3L396.7,246.7z"/>
			<path class="st2" d="M398.1,250c-0.2,0-0.4-0.1-0.4-0.3c0-0.2,0.1-0.4,0.3-0.4c0.2,0,0.4,0.1,0.4,0.3
				C398.4,249.8,398.3,249.9,398.1,250z"/>
			<path class="st2" d="M402.4,248.7c-0.1,0.2-0.4,0.7-1.3,0.8c-0.9,0.1-1.7-0.5-1.9-1.5c-0.2-1,0.5-1.9,1.4-2
				c0.9-0.1,1.3,0.3,1.4,0.4l-0.2,0.3c-0.2-0.1-0.5-0.4-1.2-0.3c-0.7,0.1-1.2,0.7-1,1.6c0.1,0.8,0.7,1.3,1.5,1.2
				c0.8-0.1,1-0.7,1-0.7L402.4,248.7z"/>
			<path class="st2" d="M404.9,248.9c-0.9,0.2-1.8-0.4-2-1.4c-0.2-1,0.5-1.9,1.4-2c1-0.2,1.8,0.5,2,1.5
				C406.5,247.9,405.9,248.7,404.9,248.9z M404.4,245.7c-0.8,0.1-1.2,0.8-1.1,1.6c0.1,0.8,0.7,1.3,1.5,1.2c0.8-0.1,1.2-0.8,1.1-1.6
				C405.8,246.1,405.2,245.6,404.4,245.7z"/>
			<path class="st2" d="M412.2,247.6l-0.4,0.1l-0.3-2c-0.1-0.4-0.2-1-0.9-0.9c-0.6,0.1-0.9,0.8-0.8,1.5l0.3,1.7l-0.4,0.1l-0.3-2
				c-0.1-0.6-0.3-1-0.9-0.9c-0.6,0.1-0.9,0.8-0.8,1.5l0.3,1.7l-0.4,0.1l-0.5-3.3l0.4-0.1l0.1,0.6c0.1-0.4,0.5-0.8,0.9-0.8
				c0.5-0.1,0.9,0.1,1.1,0.5c0.1-0.5,0.5-0.8,0.9-0.9c0.9-0.1,1.2,0.5,1.3,1.2L412.2,247.6z"/>
			<path class="st2" d="M332.3,267.7l-0.6,3.5l-0.3,0.1l-1.5-2.6l-0.6,3l-0.3,0.1l-1.7-3.2l0.4-0.1l1.4,2.6l0.6-3l0.3,0l1.5,2.6
				l0.4-2.9L332.3,267.7z"/>
			<path class="st2" d="M337.7,266.8l-0.6,3.5l-0.3,0.1l-1.5-2.6l-0.6,3l-0.3,0.1l-1.7-3.2l0.4-0.1l1.4,2.6l0.6-3l0.3,0l1.5,2.6
				l0.4-2.9L337.7,266.8z"/>
			<path class="st2" d="M343.2,265.9l-0.6,3.5l-0.3,0.1l-1.5-2.6l-0.6,3l-0.3,0.1l-1.7-3.2l0.4-0.1l1.4,2.6l0.6-3l0.3,0l1.5,2.6
				l0.4-2.9L343.2,265.9z"/>
			<path class="st2" d="M344.6,269.2c-0.2,0-0.4-0.1-0.4-0.3c0-0.2,0.1-0.4,0.3-0.4c0.2,0,0.4,0.1,0.4,0.3
				C345,269,344.8,269.2,344.6,269.2z"/>
			<path class="st2" d="M348.2,268.6c-0.5,0.1-1,0-1.4-0.5l0.3,2l-0.4,0.1l-0.8-4.7l0.4-0.1l0.1,0.6c0.2-0.5,0.6-0.8,1.1-0.9
				c1-0.2,1.8,0.5,1.9,1.5C349.7,267.6,349.1,268.5,348.2,268.6z M347.6,265.5c-0.8,0.1-1.2,0.8-1,1.6c0.1,0.8,0.7,1.3,1.5,1.2
				c0.8-0.1,1.2-0.8,1-1.6C349,265.9,348.4,265.4,347.6,265.5z"/>
			<path class="st2" d="M352,264.9c-0.1,0-0.2,0-0.4,0c-0.3,0.1-0.5,0.3-0.5,0.4c0,0.1-0.2,0.4-0.1,1l0.3,1.8l-0.4,0.1l-0.5-3.3
				l0.4-0.1l0.1,0.6c0-0.5,0.4-0.8,0.7-0.8c0.2,0,0.4,0,0.4,0L352,264.9z"/>
			<path class="st2" d="M352.9,263.5c-0.2,0-0.3-0.1-0.4-0.3s0.1-0.3,0.3-0.4c0.2,0,0.3,0.1,0.4,0.3
				C353.2,263.3,353,263.4,352.9,263.5z M353.7,267.6l-0.4,0.1l-0.5-3.3l0.4-0.1L353.7,267.6z"/>
			<path class="st2" d="M357.7,265.4l-2.7,0.4c0.2,0.8,0.7,1.2,1.4,1.1s1.1-0.6,1.1-0.6l0.2,0.2c0,0-0.3,0.6-1.3,0.7
				c-1,0.2-1.7-0.5-1.9-1.5c-0.2-1,0.5-1.8,1.3-2c0.9-0.1,1.6,0.4,1.8,1.3C357.7,265.2,357.7,265.4,357.7,265.4z M357.3,265.1
				c-0.1-0.4-0.5-1.1-1.3-1c-0.8,0.1-1,0.9-1,1.4L357.3,265.1z"/>
			<path class="st2" d="M360,266.7c-0.6,0.1-1.1-0.1-1.3-0.4l0.2-0.3c0.3,0.3,0.6,0.4,1,0.4s0.8-0.3,0.7-0.8c-0.1-0.4-0.7-0.5-1-0.5
				c-0.3-0.1-1-0.2-1.1-0.8c-0.1-0.6,0.4-1,0.9-1.1c0.5-0.1,0.8,0,1.1,0.3l-0.2,0.3c-0.3-0.2-0.5-0.3-0.9-0.2
				c-0.4,0.1-0.6,0.3-0.6,0.6c0.1,0.3,0.4,0.4,0.9,0.5c0.4,0.1,1.1,0.2,1.2,0.8C361.1,266.2,360.6,266.6,360,266.7z"/>
			<path class="st2" d="M363.5,266c0,0-0.2,0.1-0.5,0.2c-0.3,0.1-0.5-0.1-0.7-0.3c-0.2-0.2-0.2-0.4-0.3-1l-0.3-1.7l-0.5,0.1
				l-0.1-0.3l0.5-0.1l-0.2-1.1l0.4-0.1l0.2,1.1l0.8-0.1l0.1,0.3l-0.8,0.1l0.3,1.9c0.1,0.4,0.2,0.8,0.6,0.7c0.2,0,0.3-0.2,0.3-0.2
				L363.5,266z"/>
			<path class="st2" d="M367,263.9l-2.7,0.4c0.2,0.8,0.7,1.2,1.4,1.1s1.1-0.6,1.1-0.6l0.2,0.2c0,0-0.3,0.6-1.3,0.7s-1.7-0.5-1.9-1.5
				c-0.2-1,0.5-1.8,1.3-2c0.9-0.1,1.6,0.4,1.8,1.3C367,263.7,367,263.9,367,263.9z M366.6,263.6c-0.1-0.4-0.5-1.1-1.3-1
				c-0.8,0.1-1,0.9-1,1.4L366.6,263.6z"/>
			<path class="st2" d="M369.4,262c-0.1,0-0.2,0-0.4,0c-0.3,0.1-0.5,0.3-0.5,0.4c0,0.1-0.2,0.4-0.1,1l0.3,1.8l-0.4,0.1l-0.5-3.3
				l0.4-0.1l0.1,0.6c0-0.5,0.4-0.8,0.7-0.8c0.2,0,0.4,0,0.4,0L369.4,262z"/>
			<path class="st2" d="M372.9,264.5l-0.4,0.1l-0.1-0.5c-0.1,0.2-0.4,0.6-1,0.7c-0.6,0.1-1.2-0.2-1.3-0.8c-0.1-0.6,0.3-1,1.2-1.2
				l0.9-0.2l0-0.2c-0.1-0.6-0.6-0.8-1.1-0.8c-0.5,0.1-0.9,0.4-0.9,0.4l-0.2-0.2c0.2-0.2,0.6-0.4,1.1-0.5c0.5-0.1,0.8,0,1.1,0.2
				c0.2,0.2,0.4,0.4,0.5,1L372.9,264.5z M372.3,262.9l-0.9,0.2c-0.7,0.1-0.9,0.5-0.8,0.8s0.4,0.6,0.9,0.6c0.5-0.1,0.8-0.5,1-0.8
				L372.3,262.9z"/>
			<path class="st2" d="M376.2,260.6l-0.9,3.6l-0.3,0l-1.9-3.1l0.4-0.1l1.6,2.6l0.7-3L376.2,260.6z"/>
			<path class="st2" d="M377.6,263.8c-0.2,0-0.4-0.1-0.4-0.3c0-0.2,0.1-0.4,0.3-0.4c0.2,0,0.4,0.1,0.4,0.3
				C377.9,263.6,377.8,263.8,377.6,263.8z"/>
			<path class="st2" d="M381.9,262.5c-0.1,0.2-0.4,0.7-1.3,0.8c-0.9,0.1-1.7-0.5-1.9-1.5c-0.2-1,0.5-1.9,1.4-2
				c0.9-0.1,1.3,0.3,1.4,0.4l-0.2,0.3c-0.2-0.1-0.5-0.4-1.2-0.3c-0.7,0.1-1.2,0.7-1,1.6c0.1,0.8,0.7,1.3,1.5,1.2
				c0.8-0.1,1-0.7,1-0.7L381.9,262.5z"/>
			<path class="st2" d="M384.4,262.7c-0.9,0.2-1.8-0.4-2-1.4c-0.2-1,0.5-1.9,1.4-2c1-0.2,1.8,0.5,2,1.5
				C386,261.7,385.3,262.6,384.4,262.7z M383.9,259.6c-0.8,0.1-1.2,0.8-1.1,1.6c0.1,0.8,0.7,1.3,1.5,1.2c0.8-0.1,1.2-0.8,1.1-1.6
				C385.3,260,384.7,259.5,383.9,259.6z"/>
			<path class="st2" d="M391.7,261.5l-0.4,0.1l-0.3-2c-0.1-0.4-0.2-1-0.9-0.9c-0.6,0.1-0.9,0.8-0.8,1.5l0.3,1.7l-0.4,0.1l-0.3-2
				c-0.1-0.6-0.3-1-0.9-0.9c-0.6,0.1-0.9,0.8-0.8,1.5l0.3,1.7l-0.4,0.1l-0.5-3.3l0.4-0.1l0.1,0.6c0.1-0.4,0.5-0.8,0.9-0.8
				c0.5-0.1,0.9,0.1,1.1,0.5c0.1-0.5,0.5-0.8,0.9-0.9c0.9-0.1,1.2,0.5,1.3,1.2L391.7,261.5z"/>
		</g>
		<line class="st4" x1="316.8" y1="237" x2="322.6" y2="272.8"/>
		<g>
			<g>
				<path class="st2" d="M319,212.5l-1,0.2l-0.9-1.6l-2.7,0.4l-0.4,1.8l-0.9,0.2l1.6-6.8l0.8-0.1L319,212.5z M316.7,210.4l-1.6-2.7
					l-0.7,3L316.7,210.4z"/>
				<path class="st2" d="M326.2,211.4l-0.9,0.1l-4.5-4.5c0,0,0.2,0.9,0.3,1.7l0.6,3.4l-0.9,0.1l-1-6.4l0.9-0.2l4.4,4.4
					c0,0-0.1-0.8-0.3-1.6l-0.5-3.4l0.9-0.1L326.2,211.4z"/>
				<path class="st2" d="M332.9,209.4c-0.4,0.5-1.1,1-2.2,1.2l-1.9,0.3l-1-6.4l1.9-0.3c1.1-0.2,2,0.1,2.5,0.4c0.5,0.3,1.2,1,1.4,2.2
					C333.7,208.1,333.3,208.9,332.9,209.4z M331.5,205.4c-0.4-0.3-1-0.4-1.8-0.3l-1,0.2l0.8,4.8l1-0.2c0.8-0.1,1.3-0.5,1.6-0.9
					c0.3-0.4,0.6-1,0.5-1.9C332.4,206.1,331.9,205.6,331.5,205.4z"/>
				<path class="st2" d="M339.4,202.7l-1.6,4.1l0.4,2.7l-0.9,0.1l-0.4-2.7l-2.8-3.3l1-0.2l2.1,2.7l1.2-3.2L339.4,202.7z"/>
				<path class="st2" d="M348,204.6c-0.3,0.4-0.8,0.6-1.5,0.7l-0.9,0.1l0.4,2.7l-0.9,0.1l-1-6.4l1.8-0.3c0.6-0.1,1.2-0.1,1.6,0.2
					c0.5,0.3,0.7,0.7,0.8,1.3C348.5,203.7,348.3,204.2,348,204.6z M346.9,202.5c-0.3-0.1-0.6-0.2-1-0.1l-0.8,0.1l0.4,2.2l0.8-0.1
					c0.4-0.1,0.7-0.2,0.9-0.4c0.2-0.2,0.3-0.5,0.2-0.9C347.4,202.9,347.2,202.6,346.9,202.5z"/>
				<path class="st2" d="M355.5,206.6l-1.1,0.2l-2.1-2.5l-0.7,0.1l0.4,2.7l-0.9,0.1l-1-6.4l1.8-0.3c0.6-0.1,1.2,0,1.6,0.2
					c0.4,0.2,0.7,0.7,0.8,1.2c0.2,1.1-0.5,1.7-1.2,2L355.5,206.6z M352.9,201.5c-0.3-0.2-0.7-0.1-1.1-0.1l-0.7,0.1l0.4,2.2l0.7-0.1
					c0.4-0.1,0.8-0.1,1-0.4c0.3-0.3,0.3-0.5,0.3-0.9C353.4,201.9,353.2,201.6,352.9,201.5z"/>
				<path class="st2" d="M358.1,206.2l-0.9,0.1l-1-6.4l0.9-0.1L358.1,206.2z"/>
				<path class="st2" d="M364.4,205.1l-3.8,0.6l-1-6.4l3.7-0.6l0.1,0.7l-2.8,0.5l0.3,1.9l2.7-0.4l0.1,0.7l-2.7,0.4l0.4,2.2l2.9-0.5
					L364.4,205.1z"/>
				<path class="st2" d="M369.8,203.9c-0.3,0.4-0.8,0.6-1.5,0.8c-1.1,0.2-1.9-0.4-2.2-0.7l0.4-0.7c0.4,0.4,1.1,0.8,1.8,0.7
					c0.7-0.1,1.2-0.6,1.1-1.3c-0.1-0.7-0.9-0.8-1.2-0.9c-0.4-0.1-0.8-0.2-1.1-0.3c-0.1,0-0.4-0.1-0.7-0.3c-0.3-0.2-0.5-0.5-0.6-1
					c-0.1-0.5,0.1-1,0.4-1.3c0.3-0.4,0.8-0.6,1.4-0.7c1-0.2,1.8,0.4,2,0.5l-0.4,0.7c-0.4-0.3-0.9-0.6-1.5-0.5
					c-0.6,0.1-1.1,0.5-1,1.1c0.1,0.6,0.6,0.7,1,0.8l1.3,0.3c0.1,0,0.6,0.2,0.8,0.4c0.2,0.2,0.5,0.5,0.6,1
					C370.3,202.9,370.2,203.5,369.8,203.9z"/>
				<path class="st2" d="M375.5,197.6l-1.8,0.3l0.9,5.6l-0.9,0.1l-0.9-5.6l-1.8,0.3l-0.1-0.7l4.5-0.7L375.5,197.6z"/>
				<path class="st2" d="M382.1,202.3l-3.8,0.6l-1-6.4l3.7-0.6l0.1,0.7l-2.8,0.5l0.3,1.9l2.7-0.4l0.1,0.7l-2.7,0.4l0.4,2.2l2.9-0.5
					L382.1,202.3z"/>
				<path class="st2" d="M388.6,201.2l-1.1,0.2l-2.1-2.5l-0.7,0.1l0.4,2.7l-0.9,0.1l-1-6.4l1.8-0.3c0.6-0.1,1.2,0,1.6,0.2
					c0.4,0.2,0.7,0.7,0.8,1.2c0.2,1.1-0.5,1.7-1.2,2L388.6,201.2z M386.1,196.1c-0.3-0.2-0.7-0.1-1.1-0.1l-0.7,0.1l0.4,2.2l0.7-0.1
					c0.4-0.1,0.8-0.1,1-0.4c0.3-0.3,0.3-0.5,0.3-0.9C386.6,196.5,386.4,196.2,386.1,196.1z"/>
				<path class="st2" d="M316.9,219.6c-0.2,0.3-0.6,0.5-1.1,0.5l-0.7,0.1l0.4,2.3l-0.4,0.1l-0.8-5l1.1-0.2c0.5-0.1,0.9,0,1.2,0.2
					s0.5,0.5,0.6,0.9C317.3,219,317.2,219.3,316.9,219.6z M316.4,217.9c-0.2-0.1-0.5-0.1-0.9-0.1l-0.8,0.1l0.3,1.9l0.8-0.1
					c0.4-0.1,0.6-0.2,0.8-0.4c0.2-0.2,0.3-0.5,0.2-0.8C316.8,218.3,316.6,218.1,316.4,217.9z"/>
				<path class="st2" d="M322.5,221.4l-0.5,0.1l-1.8-2.1l-0.6,0.1l0.4,2.3l-0.4,0.1l-0.8-5l1.1-0.2c0.9-0.2,1.6,0.3,1.8,1.1
					c0.1,0.8-0.4,1.3-1,1.5L322.5,221.4z M320.7,217.2c-0.3-0.2-0.6-0.1-1,0l-0.5,0.1l0.3,2l0.5-0.1c0.4-0.1,0.7-0.1,1-0.4
					c0.2-0.2,0.3-0.5,0.2-0.8C321.2,217.6,321.1,217.4,320.7,217.2z"/>
				<path class="st2" d="M326.7,220.8l-2.7,0.4l-0.8-5l2.7-0.4l0.1,0.4l-2.3,0.4l0.3,1.8l2.2-0.4l0.1,0.4l-2.2,0.4l0.3,2.1l2.4-0.4
					L326.7,220.8z"/>
				<path class="st2" d="M329.8,220.3c-1,0.2-1.5-0.5-1.7-0.6l0.3-0.3c0.2,0.3,0.7,0.7,1.4,0.6s1.1-0.6,1-1.2
					c-0.1-0.6-0.8-0.8-1.1-0.9c-0.3-0.1-0.7-0.2-0.9-0.2c-0.2-0.1-0.8-0.3-0.9-1c-0.1-0.7,0.4-1.3,1.3-1.5c0.8-0.1,1.3,0.4,1.4,0.4
					l-0.2,0.3c-0.2-0.2-0.6-0.5-1.1-0.4c-0.6,0.1-1,0.5-0.9,1c0.1,0.6,0.5,0.7,0.9,0.8c0.4,0.1,1,0.2,1.1,0.3c0.1,0,0.8,0.3,0.9,1
					C331.3,219.5,330.8,220.2,329.8,220.3z"/>
				<path class="st2" d="M333.5,219.6l-0.4,0.1l-0.8-5l0.4-0.1L333.5,219.6z"/>
				<path class="st2" d="M338.7,218.1c-0.3,0.4-0.8,0.8-1.7,1l-1.4,0.2l-0.8-5l1.4-0.2c0.9-0.1,1.5,0.1,1.9,0.4
					c0.4,0.3,0.9,0.8,1,1.7C339.3,217.1,339,217.7,338.7,218.1z M337.8,214.8c-0.4-0.2-0.9-0.4-1.6-0.3l-0.9,0.2l0.7,4.3l0.9-0.2
					c0.7-0.1,1.2-0.4,1.4-0.8c0.3-0.3,0.6-0.9,0.4-1.7C338.6,215.5,338.2,215,337.8,214.8z"/>
				<path class="st2" d="M344.1,217.9l-2.7,0.4l-0.8-5l2.7-0.4l0.1,0.4l-2.3,0.4l0.3,1.8l2.2-0.4l0.1,0.4l-2.2,0.4l0.3,2.1l2.4-0.4
					L344.1,217.9z"/>
				<path class="st2" d="M349.9,217l-0.4,0.1l-4-3.8l0.7,4.3l-0.4,0.1l-0.8-5l0.4-0.1l4,3.7l-0.7-4.3l0.4-0.1L349.9,217z"/>
				<path class="st2" d="M354.1,211.6l-1.5,0.2l0.7,4.6l-0.4,0.1l-0.7-4.6l-1.5,0.2l-0.1-0.4l3.3-0.5L354.1,211.6z"/>
				<path class="st2" d="M362.6,214.9l-0.5,0.1l-0.8-0.7c-0.3,0.6-0.7,1.1-1.6,1.2c-0.8,0.1-1.5-0.3-1.6-1.1
					c-0.1-0.8,0.4-1.3,1.1-1.8c-0.3-0.3-0.7-0.5-0.8-1.1c-0.1-0.5,0.3-1,0.9-1.1c0.7-0.1,1.1,0.3,1.2,0.8c0.1,0.5-0.3,1-0.8,1.4
					l1.4,1.2c0.1-0.2,0.4-0.9,0.4-1.2l0.4,0c0,0.2-0.3,1-0.5,1.3L362.6,214.9L362.6,214.9z M359.5,212.7l-0.2,0.2
					c-0.4,0.3-0.8,0.7-0.7,1.3c0.1,0.6,0.6,1,1.2,0.9c0.6-0.1,1.1-0.7,1.3-1.1L359.5,212.7z M359.4,210.6c-0.4,0.1-0.7,0.4-0.6,0.8
					c0.1,0.4,0.5,0.7,0.7,0.9l0.1-0.1c0.3-0.2,0.7-0.6,0.6-1.1C360.1,210.7,359.8,210.5,359.4,210.6z"/>
				<path class="st2" d="M370.4,212.9c-0.3,0.5-0.8,0.9-1.7,1.1c-1.4,0.2-2.7-0.6-2.9-2.1c-0.2-1.5,0.7-2.7,2.1-3
					c0.9-0.1,1.5,0.1,1.9,0.4l-0.2,0.3c-0.3-0.3-0.9-0.5-1.7-0.4c-1.2,0.2-1.9,1.2-1.7,2.5c0.2,1.3,1.2,2.1,2.4,1.9
					c0.7-0.1,1.2-0.5,1.5-0.9L370.4,212.9z"/>
				<path class="st2" d="M374.9,212.9l-2.7,0.4l-0.8-5l2.7-0.4l0.1,0.4l-2.3,0.4l0.3,1.8l2.2-0.4l0.1,0.4l-2.2,0.4l0.3,2.1l2.4-0.4
					L374.9,212.9z"/>
				<path class="st2" d="M378.9,212.3c-1.3,0.2-2.7-0.6-2.9-2.1c-0.3-1.6,0.8-2.7,2.1-3c1.3-0.2,2.7,0.6,2.9,2.1
					S380.3,212.1,378.9,212.3z M378.2,207.6c-1.1,0.2-2,1.2-1.7,2.5c0.2,1.4,1.3,2,2.5,1.9c1.1-0.2,2-1.2,1.8-2.5
					C380.4,208,379.3,207.4,378.2,207.6z"/>
			</g>
		</g>
	</g>
</g>
</svg>
