<?xml version="1.0" encoding="utf-8"?>
<!-- Generator: Adobe Illustrator 19.0.1, SVG Export Plug-In . SVG Version: 6.00 Build 0)  -->
<!DOCTYPE svg PUBLIC "-//W3C//DTD SVG 1.1//EN" "http://www.w3.org/Graphics/SVG/1.1/DTD/svg11.dtd">
<svg version="1.1" id="Layer_1" xmlns="http://www.w3.org/2000/svg" xmlns:xlink="http://www.w3.org/1999/xlink" x="0px" y="0px"
	 viewBox="117 6.7 593.7 276.3" style="enable-background:new 117 6.7 593.7 276.3;" xml:space="preserve">
<style type="text/css">
	.st0{fill:#C59B6D;}
	.st1{fill:#FFFFFF;}
	.st2{clip-path:url(#SVGID_2_);fill:#385988;}
	.st3{fill:#385988;}
	.st4{fill:#BEC2C9;}
	.st5{fill:none;stroke:#BEC2C9;stroke-width:0.6163;stroke-miterlimit:10;}
	.st6{fill:#E5BD95;}
</style>
<g>
	<g>
		<polygon class="st0" points="532.1,331.9 443.8,331.9 379.2,187 467.6,187 		"/>
		<rect x="258.2" y="67.9" class="st1" width="310.6" height="177.5"/>
		<g>
			<g>
				<defs>
					<rect id="SVGID_1_" x="437.6" y="90.9" width="108" height="28.5"/>
				</defs>
				<clipPath id="SVGID_2_">
					<use xlink:href="#SVGID_1_"  style="overflow:visible;"/>
				</clipPath>
				<path class="st2" d="M439.4,116.8h2.8c0.4,0,0.6-0.2,0.6-0.6V116c0-0.4-0.2-0.6-0.7-0.6h-2.7V116.8L439.4,116.8z M437.6,114.2
					h4.9c1.7,0,2.1,0.8,2.1,1.8v0.4c0,0.8-0.4,1.7-1.7,1.7h-3.6v1.3h-1.8V114.2L437.6,114.2z"/>
			</g>
			<path class="st3" d="M447.4,116.7h3c0.5,0,0.7-0.2,0.7-0.5V116c0-0.5-0.3-0.5-0.8-0.5h-2.8V116.7L447.4,116.7z M445.6,114.2h5.5
				c1.4,0,1.8,0.6,1.8,1.5v0.3c0,0.7-0.2,1.1-1,1.3v0c0.5,0.1,1,0.3,1,1.2v0.9H451v-0.6c0-0.5-0.2-0.7-0.7-0.7h-2.8v1.4h-1.8V114.2
				L445.6,114.2z"/>
			<polygon class="st3" points="454.1,114.2 455.9,114.2 455.9,119.4 454.1,119.4 454.1,114.2 			"/>
			<polygon class="st3" points="457.3,114.2 463.7,114.2 463.7,115.4 459.1,115.4 459.1,116.2 463.5,116.2 463.5,117.3 459.1,117.3 
				459.1,118.1 463.8,118.1 463.8,119.4 457.3,119.4 457.3,114.2 			"/>
			<path class="st3" d="M464.8,117.7h1.8c0,0.6,0.3,0.6,0.8,0.6h2.2c0.4,0,0.8,0,0.8-0.4c0-0.5-0.2-0.5-2.5-0.5c-2.7,0-3-0.3-3-1.6
				c0-0.9,0.1-1.7,2.4-1.7h2.5c2.1,0,2.3,0.6,2.3,1.5v0.2h-1.8c0-0.4,0-0.5-0.9-0.5h-2c-0.4,0-0.7,0.1-0.7,0.4
				c0,0.5,0.2,0.5,2.2,0.5c2.8,0,3.5,0.1,3.5,1.7c0,1.4-0.5,1.6-2.9,1.6h-2.2c-1.6,0-2.3-0.3-2.3-1.4V117.7L464.8,117.7z"/>
			<polygon class="st3" points="472.9,114.2 479.8,114.2 479.8,115.4 477.2,115.4 477.2,119.4 475.4,119.4 475.4,115.4 472.9,115.4 
				472.9,114.2 			"/>
			<polygon class="st3" points="480.6,114.2 487,114.2 487,115.4 482.4,115.4 482.4,116.2 486.8,116.2 486.8,117.3 482.4,117.3 
				482.4,118.1 487.1,118.1 487.1,119.4 480.6,119.4 480.6,114.2 			"/>
			<path class="st3" d="M490,116.7h3c0.5,0,0.7-0.2,0.7-0.5V116c0-0.5-0.3-0.5-0.8-0.5H490V116.7L490,116.7z M488.2,114.2h5.5
				c1.4,0,1.8,0.6,1.8,1.5v0.3c0,0.7-0.2,1.1-1,1.3v0c0.5,0.1,1,0.3,1,1.2v0.9h-1.8v-0.6c0-0.5-0.2-0.7-0.7-0.7H490v1.4h-1.8V114.2
				L488.2,114.2z"/>
			<path class="st3" d="M499.8,114.7l-2,3h4L499.8,114.7L499.8,114.7z M499.3,114.2h1l3.5,5.2h-0.9l-0.7-1.1h-4.7l-0.7,1.1h-0.9
				L499.3,114.2L499.3,114.2z"/>
			<polygon class="st3" points="502.5,114.2 503.4,114.2 506.2,118.7 509.1,114.2 510,114.2 506.7,119.4 505.8,119.4 502.5,114.2 
							"/>
			<polygon class="st3" points="510.8,114.2 511.6,114.2 511.6,119.4 510.8,119.4 510.8,114.2 			"/>
			<path class="st3" d="M516.5,114.7l-2,3h4L516.5,114.7L516.5,114.7z M516,114.2h1l3.5,5.2h-0.9l-0.7-1.1h-4.7l-0.7,1.1h-0.9
				L516,114.2L516,114.2z"/>
			<polygon class="st3" points="522.6,114.7 519.6,114.7 519.6,114.2 526.4,114.2 526.4,114.7 523.4,114.7 523.4,119.4 522.6,119.4 
				522.6,114.7 			"/>
			<polygon class="st3" points="527.5,114.2 528.3,114.2 528.3,119.4 527.5,119.4 527.5,114.2 			"/>
			<path class="st3" d="M536.4,115.8c0-0.9-0.6-1.1-1.4-1.1h-3.2c-0.8,0-1.4,0.2-1.4,1.1v2c0,0.9,0.6,1.1,1.4,1.1h3.2
				c0.8,0,1.4-0.2,1.4-1.1V115.8L536.4,115.8z M529.6,116c0-1.3,0.5-2,2.1-2h3.4c1.6,0,2.1,0.6,2.1,2v1.4c0,1.3-0.5,2-2.1,2h-3.4
				c-1.6,0-2.1-0.6-2.1-2V116L529.6,116z"/>
			<g>
				<polygon class="st3" points="538.2,114.2 539.4,114.2 544.8,118.7 544.8,114.2 545.6,114.2 545.6,119.4 544.4,119.4 539,114.8 
					539,119.4 538.2,119.4 538.2,114.2 				"/>
				<path class="st4" d="M497.9,104.4c0,0-0.1-0.4-0.3-0.5c0,0-0.1,0-0.2-0.3c0,0-0.7-0.9-0.9-1.1c0,0-0.6-0.9-1.4-1.1
					c0,0-0.1,0.1-0.4-0.6c0,0-1-2.1-1.3-2.5c-0.3-0.4-0.9-1.6-4.2-1.9c0,0-0.4-0.2,0.7-0.4c0,0,1.3-0.3,2.5,0.2c0,0,0.1-0.1-0.4-0.5
					c0,0-0.1-0.2,0.7,0.1c0,0,0.3,0.1,0.9,0.5c0,0,0-0.2,0-0.2s0.1-0.1,0.5,0.1c0,0,0.5,0.3,0.9,0.7c0,0,0.1-0.3,0.1-0.3
					s0.5,0.3,1.2,0.8c0,0,0.5,0.1,0.8,0.4c0,0,0.3,0.4,0.4,0.5c0,0,1.3,0.5,1.3,0.9c0,0,0.7,0.1,1.1,1c0,0,0.1,0,0.1,0l0.2-0.1
					c0,0,1.8-6.6,7.5-9.2c0,0,0.3-0.1-1.2,1.3c0,0,1.7-0.8,2.1-0.9c0,0,0.3-0.1-0.7,0.6c0,0,0.1,0,0.1,0s0.9-0.3,1.3-0.3
					c0,0,0.7-0.1,0,0.3c0,0-1.4,0.9-1.8,1.4c0,0,2.6-1.1,2.8-1c0,0,0.2,0,0,0.2c0,0-0.5,0.5-0.6,0.6c0,0,0.3,0,0.2,0.1l-0.2,0.2
					c0,0,0.9-0.1,0.3,0.3c0,0-1.1,0.9-1.5,1.6c0,0,1.1-0.5,1.3-0.1c0,0-0.7,0.5-1.1,1.2c0,0,0.7-0.1,0.8,0c0,0-0.2,0.5-0.9,1.1
					c0,0,0,0.2,0,0.3l0,0.1c0,0,0.2,0,0.1,0.4c0,0-0.4,0.5-0.4,0.7c-0.1,0.2,1,0,1.3,0.2c0,0,0.4,0.2,0,0.3c0,0-0.3,0.2-0.4,0.3
					c0,0-0.2,0.1,0.6,0.2c0,0,0.4,0.2-0.1,0.4c0,0-0.2,0-0.2,0.2c0,0,0.1,0.1,0.3,0.1c0,0,0.1,0-0.1,0.2c0,0-0.1,0.1,0.2,0.4
					c0,0,0,0-0.1,0.3c0,0,0,0.2-0.2,0.4c0,0-0.1,0.1-0.1,0.1s0.1,0.1,0.1,0.1c0,0,0,0.2,0,0.3c0,0-0.1,0.1-0.1,0.2
					c0,0,0,0.2-0.1,0.3c0,0-0.1,0.1,0,0.2c0,0,0.4,0.3,0.1,0.4c0,0-0.4,0.3-0.5,0.4c0,0-0.1,0.1,0.1,0.4c0,0,0.2,0.1,0,0.2
					c0,0,0,0.1-0.2,0.1c0,0-0.1,0.1-0.1,0.1s-0.1,0.2,0,0.3c0,0,0.1,0.1-0.6,0.2c0,0-0.2,0-0.2,0.2c0,0,0,0.5-0.4,0.6
					c0,0-0.1,0.2-0.1,0.5c0,0,0,0.1-0.7,0.1c0,0-0.1,0.1-0.1,0.2c0,0-0.3,0.1-0.6,0c0,0,0,0.3-0.3,0.3c0,0-0.7,0-0.9,0
					c0,0,0.1,0.3,0.7,0.7c0,0,0.9,0.5,1.1,1.2c0,0,0,0.4,1.2,1c0,0,1.8,1.2,2.1,2.7c0,0-2.7,0-4.4-1.5c0,0-0.8-0.7-1.3-0.5
					c0,0-0.2,0-0.5,0.3c0,0,0,0.1,0,0.1s0.3,0.3,0.3,0.5c0,0,0.3,0.4-0.3,0.6c0,0-0.2,0-0.3,0c0,0,0.3-0.2,0.2-0.3
					c0,0-0.1-0.2-0.3-0.1c0,0-0.4,0.3,0.2,0.5c0,0-0.9,0.2-1.2,0c0,0-0.1,0-0.1,0s-0.2,0.1-0.3-0.1c0,0-0.2,0-0.2-0.1
					c0,0-0.2-0.2-0.2-0.4c0,0,0-0.1,0.7-0.3c0.2,0,0.3-0.3,0.3-0.3c0,0,0.1-0.4,0.1-0.4s-0.3,0-0.7,0c0,0-0.4,0.2-0.7,0.5
					c0,0,0.3,0.9-0.4,1.1c0,0-0.1,0-0.1,0s0.3-0.3-0.1-0.5c0,0-0.2-0.1-0.3,0.2c0,0,0,0.3,0.4,0.4c0,0-0.4,0.3-1.1,0.1
					c0,0-0.3,0-0.4-0.1c0,0-0.3,0-0.3-0.2c0,0-0.1,0-0.1-0.1c0,0-0.1-0.1,0-0.2c0,0,0.8-0.6,1.5-0.9c0,0,0.2-0.2,0.3-0.6
					c0,0-0.1-0.1-0.2-0.3c0,0-0.1-0.1,0-0.4c0,0,0.1-0.1,0-0.3c0,0-0.1-0.2-0.2-0.1c0,0-0.1,0.1-0.1,0.3c0,0-0.7-0.7-1-0.8
					c0,0-0.4-0.4-0.7-0.4c0,0-0.1,0-0.2,0c0,0-0.1,0.1-0.1,0.1s-0.6,0-1.1,0.4c0,0-0.2,0.2-0.3,0.3c0,0-0.1,0-0.2,0.1
					c0,0-0.3,0.3-0.6,0.8c0,0-0.8-0.1-0.7-1.1c0,0,0-0.1,0-0.1s-0.4-0.8,0.5-1.8c0,0,0.9-0.8,1.3-1.6c0,0,0.1-0.3,0.2,0
					c0,0,0.1,0,0.1,0s0.1-0.2,0.2-0.3c0,0,0,0.1,0.1,0c0.1,0,0.1-0.1,0.1-0.2c0-0.1,0.1-0.1,0.1-0.1S498,104.5,497.9,104.4
					L497.9,104.4z"/>
			</g>
		</g>
		<g>
			<g>
				<g>
					<path class="st3" d="M447.1,186.4h-2.9l-0.1-0.4l1.5-1.4c0.3-0.3,0.7-0.7,0.7-1.2c0-0.5-0.3-0.8-0.9-0.8c-0.5,0-0.9,0.4-1,0.7
						l-0.3-0.4c0.1-0.3,0.5-0.8,1.4-0.8c0.9,0,1.4,0.5,1.4,1.3c0,0.8-0.6,1.3-0.9,1.5l-1.1,1h2.2V186.4z"/>
					<path class="st3" d="M451,185.5h-0.6v0.9h-0.6v-0.9h-2.1V185l2.1-2.9h0.6v2.9h0.6V185.5z M449.8,185v-2.2l-1.6,2.2H449.8z"/>
					<path class="st3" d="M454.4,181.7l-2.6,5.3l-0.4-0.2l2.6-5.3L454.4,181.7z"/>
					<path class="st3" d="M458.2,182.5l-2,3.9h-0.6l2-3.8h-2.4v-0.5h2.9L458.2,182.5z"/>
					<path class="st3" d="M467.8,183.6h-2v2h-0.4v-2h-2v-0.4h2v-2h0.4v2h2V183.6z"/>
					<path class="st3" d="M470.9,186.4h-0.5v-5.6h-1.2v-0.4h1.7V186.4z"/>
					<path class="st3" d="M476.9,186.5c-1.1,0-1.6-0.7-1.8-1l0.3-0.3c0.2,0.4,0.7,0.8,1.5,0.8s1.6-0.5,1.6-1.5c0-1-0.8-1.5-1.6-1.5
						c-0.4,0-0.8,0.1-1,0.3l-0.3-0.2l0.6-2.7h2.7v0.4h-2.3l-0.4,1.9c0.3-0.1,0.6-0.2,0.9-0.2c1,0,2,0.7,2,1.9
						C479,185.8,478,186.5,476.9,186.5z"/>
					<path class="st3" d="M482.1,186.5c-1.1,0-1.6-0.7-1.8-1l0.3-0.3c0.2,0.4,0.7,0.8,1.5,0.8c0.8,0,1.6-0.5,1.6-1.5
						c0-1-0.8-1.5-1.6-1.5c-0.4,0-0.8,0.1-1,0.3l-0.3-0.2l0.6-2.7h2.7v0.4h-2.3l-0.4,1.9c0.3-0.1,0.6-0.2,0.9-0.2c1,0,2,0.7,2,1.9
						C484.1,185.8,483.2,186.5,482.1,186.5z"/>
					<path class="st3" d="M487.3,186.5c-1.1,0-1.6-0.7-1.8-1l0.3-0.3c0.2,0.4,0.7,0.8,1.5,0.8c0.8,0,1.6-0.5,1.6-1.5
						c0-1-0.8-1.5-1.6-1.5c-0.4,0-0.8,0.1-1,0.3l-0.3-0.2l0.6-2.7h2.7v0.4h-2.3l-0.4,1.9c0.3-0.1,0.6-0.2,0.9-0.2c1,0,2,0.7,2,1.9
						C489.3,185.8,488.3,186.5,487.3,186.5z"/>
					<path class="st3" d="M494.5,186.5c-1.1,0-1.6-0.7-1.8-1l0.3-0.3c0.2,0.4,0.7,0.8,1.5,0.8c0.8,0,1.6-0.5,1.6-1.5
						c0-1-0.8-1.5-1.6-1.5c-0.4,0-0.8,0.1-1,0.3l-0.3-0.2l0.6-2.7h2.7v0.4h-2.3l-0.4,1.9c0.3-0.1,0.6-0.2,0.9-0.2c1,0,2,0.7,2,1.9
						C496.6,185.8,495.6,186.5,494.5,186.5z"/>
					<path class="st3" d="M499.7,186.5c-1.1,0-1.6-0.7-1.8-1l0.3-0.3c0.2,0.4,0.7,0.8,1.5,0.8c0.8,0,1.6-0.5,1.6-1.5
						c0-1-0.8-1.5-1.6-1.5c-0.4,0-0.8,0.1-1,0.3l-0.3-0.2l0.6-2.7h2.7v0.4h-2.3l-0.4,1.9c0.3-0.1,0.6-0.2,0.9-0.2c1,0,2,0.7,2,1.9
						C501.7,185.8,500.8,186.5,499.7,186.5z"/>
					<path class="st3" d="M504.9,186.5c-1.1,0-1.6-0.7-1.8-1l0.3-0.3c0.2,0.4,0.7,0.8,1.5,0.8c0.8,0,1.6-0.5,1.6-1.5
						c0-1-0.8-1.5-1.6-1.5c-0.4,0-0.8,0.1-1,0.3l-0.3-0.2l0.6-2.7h2.7v0.4h-2.3l-0.4,1.9c0.3-0.1,0.6-0.2,0.9-0.2c1,0,2,0.7,2,1.9
						C506.9,185.8,505.9,186.5,504.9,186.5z"/>
					<path class="st3" d="M512.1,186.5c-1.1,0-1.6-0.7-1.8-1l0.3-0.3c0.2,0.4,0.7,0.8,1.5,0.8c0.8,0,1.6-0.5,1.6-1.5
						c0-1-0.8-1.5-1.6-1.5c-0.4,0-0.8,0.1-1,0.3l-0.3-0.2l0.6-2.7h2.7v0.4h-2.3l-0.4,1.9c0.3-0.1,0.6-0.2,0.9-0.2c1,0,2,0.7,2,1.9
						C514.2,185.8,513.2,186.5,512.1,186.5z"/>
					<path class="st3" d="M517.3,186.5c-1.1,0-1.6-0.7-1.8-1l0.3-0.3c0.2,0.4,0.7,0.8,1.5,0.8c0.8,0,1.6-0.5,1.6-1.5
						c0-1-0.8-1.5-1.6-1.5c-0.4,0-0.8,0.1-1,0.3l-0.3-0.2l0.6-2.7h2.7v0.4h-2.3l-0.4,1.9c0.3-0.1,0.6-0.2,0.9-0.2c1,0,2,0.7,2,1.9
						C519.3,185.8,518.4,186.5,517.3,186.5z"/>
					<path class="st3" d="M522.5,186.5c-1.1,0-1.6-0.7-1.8-1l0.3-0.3c0.2,0.4,0.7,0.8,1.5,0.8c0.8,0,1.6-0.5,1.6-1.5
						c0-1-0.8-1.5-1.6-1.5c-0.4,0-0.8,0.1-1,0.3l-0.3-0.2l0.6-2.7h2.7v0.4h-2.3l-0.4,1.9c0.3-0.1,0.6-0.2,0.9-0.2c1,0,2,0.7,2,1.9
						C524.5,185.8,523.5,186.5,522.5,186.5z"/>
					<path class="st3" d="M527.6,186.5c-1.1,0-1.6-0.7-1.8-1l0.3-0.3c0.2,0.4,0.7,0.8,1.5,0.8c0.8,0,1.6-0.5,1.6-1.5
						c0-1-0.8-1.5-1.6-1.5c-0.4,0-0.8,0.1-1,0.3l-0.3-0.2l0.6-2.7h2.7v0.4h-2.3l-0.4,1.9c0.3-0.1,0.6-0.2,0.9-0.2c1,0,2,0.7,2,1.9
						C529.7,185.8,528.7,186.5,527.6,186.5z"/>
					<path class="st3" d="M449.3,197.9c-0.4,0.5-1.1,0.9-2.2,0.9c-1.7,0-3-1.3-3-3.1c0-1.8,1.3-3.1,3-3.1c1,0,1.7,0.4,2.2,0.9
						l-0.3,0.3c-0.3-0.4-1-0.8-1.9-0.8c-1.5,0-2.5,1.1-2.5,2.6c0,1.6,1,2.7,2.5,2.7c0.8,0,1.5-0.3,1.9-0.8L449.3,197.9z"/>
					<path class="st3" d="M453.8,198.7h-0.5v-2.4c0-0.6-0.1-1.3-1-1.3c-0.9,0-1.3,0.8-1.3,1.7v2h-0.4v-6h0.4v2.7
						c0.2-0.5,0.7-0.8,1.3-0.8c1.1,0,1.4,0.7,1.4,1.7V198.7z"/>
					<path class="st3" d="M455.7,193.7c-0.2,0-0.4-0.2-0.4-0.4c0-0.2,0.2-0.4,0.4-0.4s0.4,0.2,0.4,0.4
						C456,193.5,455.9,193.7,455.7,193.7z M455.9,198.7h-0.4v-4h0.4V198.7z"/>
					<path class="st3" d="M460.9,198.1c-0.1,0.2-0.6,0.7-1.6,0.7c-1.1,0-2-0.9-2-2.1c0-1.2,1-2.1,2-2.1c1.1,0,1.5,0.6,1.6,0.7
						l-0.3,0.3c-0.2-0.2-0.5-0.6-1.3-0.6c-0.8,0-1.5,0.6-1.5,1.6c0,1,0.6,1.7,1.5,1.7c0.9,0,1.3-0.6,1.3-0.6L460.9,198.1z"/>
					<path class="st3" d="M464.7,198.7h-0.5v-0.6c-0.1,0.2-0.6,0.6-1.4,0.6c-0.8,0-1.3-0.5-1.3-1.2c0-0.7,0.5-1.2,1.6-1.2l1.1,0
						v-0.2c0-0.7-0.5-1.1-1.1-1.1c-0.6,0-1.1,0.3-1.2,0.3l-0.2-0.3c0.3-0.2,0.7-0.4,1.3-0.4s1,0.2,1.2,0.4c0.2,0.3,0.4,0.6,0.4,1.3
						V198.7z M464.3,196.7l-1.1,0.1c-0.8,0-1.1,0.4-1.1,0.8s0.3,0.8,1,0.8s1.1-0.4,1.3-0.7V196.7z"/>
					<path class="st3" d="M469.9,197.9c0,0.9-0.1,1.4-0.3,1.7c-0.2,0.3-0.7,0.9-1.7,0.9c-1,0-1.7-0.6-1.7-0.6l0.3-0.3
						c0.2,0.2,0.8,0.5,1.5,0.5c0.6,0,1-0.3,1.2-0.5c0.2-0.2,0.3-0.7,0.3-1.4v-0.3c-0.3,0.5-0.8,0.9-1.5,0.9c-1.1,0-2-0.8-2-2
						c0-1.3,0.9-2,2-2c0.7,0,1.2,0.4,1.5,0.8v-0.8h0.5V197.9z M468,195.1c-1,0-1.5,0.7-1.5,1.6c0,0.9,0.5,1.6,1.5,1.6
						c1,0,1.5-0.7,1.5-1.6C469.5,195.8,469,195.1,468,195.1z"/>
					<path class="st3" d="M473.3,198.8c-1.1,0-2-0.9-2-2.1c0-1.2,0.9-2.1,2-2.1c1.1,0,2.1,0.9,2.1,2.1
						C475.4,198,474.5,198.8,473.3,198.8z M473.3,195c-1,0-1.6,0.8-1.6,1.7c0,0.9,0.6,1.7,1.6,1.7c1,0,1.6-0.8,1.6-1.7
						C474.9,195.8,474.3,195,473.3,195z"/>
					<path class="st3" d="M482.2,198.7h-3.3v-6h3.2v0.4h-2.8v2.2h2.6v0.4h-2.6v2.5h2.8V198.7z"/>
					<path class="st3" d="M486.7,198.7h-0.5l-1.4-1.8l-1.4,1.8h-0.5l1.6-2.1l-1.5-1.9h0.5l1.2,1.6l1.2-1.6h0.5l-1.4,1.9L486.7,198.7
						z"/>
					<path class="st3" d="M491,196.8h-3.3c0,0.9,0.6,1.6,1.5,1.6s1.4-0.5,1.4-0.5l0.2,0.3c0,0-0.5,0.6-1.7,0.6
						c-1.2,0-1.9-0.9-1.9-2.1c0-1.2,0.9-2.1,1.9-2.1c1.1,0,1.8,0.8,1.8,1.9C491.1,196.7,491,196.8,491,196.8z M490.6,196.4
						c0-0.5-0.4-1.4-1.4-1.4c-1,0-1.4,0.8-1.4,1.4H490.6z"/>
					<path class="st3" d="M495.7,198.1c-0.1,0.2-0.6,0.7-1.6,0.7c-1.1,0-2-0.9-2-2.1c0-1.2,1-2.1,2-2.1c1.1,0,1.5,0.6,1.6,0.7
						l-0.3,0.3c-0.2-0.2-0.5-0.6-1.3-0.6c-0.8,0-1.5,0.6-1.5,1.6c0,1,0.6,1.7,1.5,1.7c0.9,0,1.3-0.6,1.3-0.6L495.7,198.1z"/>
					<path class="st3" d="M499.8,198.7h-0.5v-0.6c-0.3,0.5-0.7,0.7-1.3,0.7s-0.9-0.2-1.1-0.4c-0.2-0.3-0.3-0.7-0.3-1.3v-2.4h0.4v2.5
						c0,0.6,0.1,1.3,1,1.3c0.9,0,1.2-0.8,1.2-1.6v-2.1h0.5V198.7z"/>
					<path class="st3" d="M503.1,198.7c0,0-0.2,0.1-0.6,0.1c-0.4,0-0.6-0.2-0.8-0.4c-0.1-0.3-0.1-0.6-0.1-1.2v-2H501v-0.4h0.6v-1.3
						h0.5v1.3h1v0.4h-1v2.3c0,0.4,0.1,1,0.6,1c0.3,0,0.4-0.1,0.4-0.1L503.1,198.7z"/>
					<path class="st3" d="M504.5,193.7c-0.2,0-0.4-0.2-0.4-0.4c0-0.2,0.2-0.4,0.4-0.4c0.2,0,0.4,0.2,0.4,0.4
						C504.9,193.5,504.7,193.7,504.5,193.7z M504.7,198.7h-0.4v-4h0.4V198.7z"/>
					<path class="st3" d="M509.5,194.7l-1.7,4h-0.3l-1.7-4h0.5l1.4,3.4l1.4-3.4H509.5z"/>
					<path class="st3" d="M513.9,196.8h-3.3c0,0.9,0.6,1.6,1.5,1.6c0.9,0,1.4-0.5,1.4-0.5l0.2,0.3c0,0-0.5,0.6-1.7,0.6
						c-1.2,0-1.9-0.9-1.9-2.1c0-1.2,0.9-2.1,1.9-2.1c1.1,0,1.8,0.8,1.8,1.9C513.9,196.7,513.9,196.8,513.9,196.8z M513.5,196.4
						c0-0.5-0.4-1.4-1.4-1.4c-1,0-1.4,0.8-1.4,1.4H513.5z"/>
					<path class="st3" d="M522,198.7h-0.5l-0.7-1.8h-2.8l-0.7,1.8h-0.5l2.5-6h0.3L522,198.7z M520.6,196.5l-1.2-3l-1.2,3H520.6z"/>
					<path class="st3" d="M523.3,193.7c-0.2,0-0.4-0.2-0.4-0.4c0-0.2,0.2-0.4,0.4-0.4c0.2,0,0.4,0.2,0.4,0.4
						C523.7,193.5,523.5,193.7,523.3,193.7z M523.6,198.7h-0.4v-4h0.4V198.7z"/>
					<path class="st3" d="M527.1,195.2c-0.1,0-0.2-0.1-0.4-0.1c-0.4,0-0.6,0.3-0.7,0.4c-0.1,0.1-0.3,0.4-0.3,1.1v2.2h-0.5v-4h0.5
						v0.8c0.1-0.5,0.6-0.8,1-0.8c0.3,0,0.4,0.1,0.4,0.1L527.1,195.2z"/>
					<path class="st3" d="M530.2,198.8c-0.6,0-1.1-0.2-1.5-0.8v2.4h-0.4v-5.6h0.4v0.8c0.3-0.6,0.9-0.8,1.5-0.8c1.2,0,2,0.9,2,2.1
						C532.1,197.9,531.4,198.8,530.2,198.8z M530.2,195c-1,0-1.5,0.8-1.5,1.7c0,0.9,0.5,1.7,1.5,1.7c1,0,1.5-0.7,1.5-1.7
						C531.7,195.8,531.1,195,530.2,195z"/>
					<path class="st3" d="M535.2,198.8c-1.1,0-2-0.9-2-2.1c0-1.2,0.9-2.1,2-2.1c1.1,0,2.1,0.9,2.1,2.1
						C537.3,198,536.4,198.8,535.2,198.8z M535.2,195c-1,0-1.6,0.8-1.6,1.7c0,0.9,0.6,1.7,1.6,1.7c1,0,1.6-0.8,1.6-1.7
						C536.8,195.8,536.2,195,535.2,195z"/>
					<path class="st3" d="M540.5,195.2c-0.1,0-0.2-0.1-0.4-0.1c-0.4,0-0.6,0.3-0.7,0.4c-0.1,0.1-0.3,0.4-0.3,1.1v2.2h-0.5v-4h0.5
						v0.8c0.1-0.5,0.6-0.8,1-0.8c0.3,0,0.4,0.1,0.4,0.1L540.5,195.2z"/>
					<path class="st3" d="M543.2,198.7c0,0-0.2,0.1-0.6,0.1c-0.4,0-0.6-0.2-0.8-0.4c-0.1-0.3-0.1-0.6-0.1-1.2v-2h-0.6v-0.4h0.6v-1.3
						h0.5v1.3h1v0.4h-1v2.3c0,0.4,0.1,1,0.6,1c0.3,0,0.4-0.1,0.4-0.1L543.2,198.7z"/>
					<path class="st3" d="M446,211.1h-0.5v-5.6h-1.2v-0.4h1.7V211.1z"/>
					<path class="st3" d="M450.1,211.2c-1.5,0-2.2-1.5-2.2-3.1c0-1.5,0.7-3.1,2.2-3.1c1.5,0,2.2,1.5,2.2,3.1
						C452.3,209.6,451.6,211.2,450.1,211.2z M450.1,205.4c-1.1,0-1.7,1.1-1.7,2.6s0.6,2.7,1.7,2.7c1.1,0,1.7-1.1,1.7-2.7
						S451.2,205.4,450.1,205.4z"/>
					<path class="st3" d="M455.4,211.2c-1.2,0-1.6-0.8-1.7-1.1c-0.1-0.3-0.3-0.8-0.3-1.9s0.3-1.9,0.6-2.4c0.3-0.5,0.8-0.8,1.6-0.8
						c1.1,0,1.6,0.6,1.6,0.6l-0.3,0.3c-0.3-0.3-0.7-0.6-1.3-0.6s-1,0.2-1.3,0.7c-0.3,0.5-0.5,1.2-0.5,2.3c0.2-0.6,0.7-1.1,1.7-1.1
						s1.8,0.7,1.8,1.8C457.3,210.3,456.6,211.2,455.4,211.2z M455.4,207.7c-1,0-1.4,0.7-1.4,1.5c0,0.8,0.5,1.5,1.4,1.5
						c1,0,1.4-0.7,1.4-1.5C456.8,208.5,456.4,207.7,455.4,207.7z"/>
					<path class="st3" d="M460.2,211.1h-0.5v-5.6h-1.2v-0.4h1.7V211.1z"/>
					<path class="st3" d="M466.2,211.2c-1.2,0-1.7-0.8-1.8-1.1l0.4-0.3c0.2,0.4,0.7,0.9,1.5,0.9c0.8,0,1.4-0.5,1.4-1.3
						s-0.8-1.1-1.1-1.2s-0.7-0.3-1-0.4c-0.2-0.1-0.9-0.5-0.9-1.4c0-0.9,0.8-1.5,1.8-1.5s1.5,0.7,1.6,0.8l-0.3,0.3
						c-0.2-0.3-0.6-0.6-1.3-0.6s-1.2,0.4-1.2,1c0,0.7,0.5,0.9,0.9,1.1c0.4,0.2,1.1,0.5,1.2,0.5s0.9,0.5,0.9,1.4
						S467.4,211.2,466.2,211.2z"/>
					<path class="st3" d="M471.3,211.1c-1.1,0-2-0.9-2-2.1s0.9-2.1,2-2.1c1.1,0,2.1,0.9,2.1,2.1S472.4,211.1,471.3,211.1z
						 M471.3,207.4c-1,0-1.6,0.8-1.6,1.7c0,0.9,0.6,1.7,1.6,1.7c1,0,1.6-0.8,1.6-1.7C472.8,208.1,472.2,207.4,471.3,207.4z"/>
					<path class="st3" d="M477.7,211.1h-0.4v-0.6c-0.3,0.5-0.7,0.7-1.3,0.7c-0.6,0-0.9-0.2-1.1-0.4c-0.2-0.3-0.3-0.7-0.3-1.3v-2.4
						h0.4v2.5c0,0.6,0.1,1.3,1,1.3c0.9,0,1.2-0.8,1.2-1.6v-2.1h0.4V211.1z"/>
					<path class="st3" d="M481,211c0,0-0.2,0.1-0.6,0.1c-0.4,0-0.6-0.2-0.8-0.4c-0.1-0.3-0.1-0.6-0.1-1.2v-2h-0.6v-0.4h0.6v-1.3h0.5
						v1.3h1v0.4h-1v2.3c0,0.4,0.1,1,0.6,1c0.3,0,0.4-0.1,0.4-0.1L481,211z"/>
					<path class="st3" d="M485.3,211.1h-0.5v-2.4c0-0.6-0.1-1.3-1-1.3c-0.9,0-1.3,0.8-1.3,1.7v2h-0.4v-6h0.4v2.7
						c0.2-0.5,0.7-0.8,1.3-0.8c1.1,0,1.4,0.7,1.4,1.7V211.1z"/>
					<path class="st3" d="M496.1,205.1l-1.7,6H494l-1.7-5.3l-1.6,5.3h-0.4l-1.7-6h0.5l1.5,5.2l1.6-5.2h0.5l1.6,5.2l1.5-5.2H496.1z"
						/>
					<path class="st3" d="M499,211.1c-1.1,0-2-0.9-2-2.1s0.9-2.1,2-2.1c1.1,0,2.1,0.9,2.1,2.1S500.1,211.1,499,211.1z M499,207.4
						c-1,0-1.6,0.8-1.6,1.7c0,0.9,0.6,1.7,1.6,1.7c1,0,1.6-0.8,1.6-1.7C500.5,208.1,499.9,207.4,499,207.4z"/>
					<path class="st3" d="M502.8,211.1h-0.5v-6h0.5V211.1z"/>
					<path class="st3" d="M506.3,205.5c0,0-0.2-0.1-0.4-0.1c-0.6,0-0.7,0.5-0.7,1.1v0.6h1v0.4h-1v3.6h-0.5v-3.6h-0.6v-0.4h0.6v-0.5
						c0-0.6,0.1-0.9,0.2-1.1c0.1-0.2,0.4-0.5,0.8-0.5s0.6,0.1,0.6,0.1L506.3,205.5z"/>
					<path class="st3" d="M512.7,211.1h-0.6l-1.8-2.8h-0.8v2.8h-0.5v-6h1.4c1.1,0,1.9,0.6,1.9,1.6c0,1-0.7,1.5-1.5,1.6L512.7,211.1z
						 M511.4,205.8c-0.3-0.2-0.7-0.3-1.2-0.3h-0.7v2.3h0.7c0.5,0,0.9,0,1.2-0.2c0.3-0.2,0.4-0.5,0.4-0.9
						C511.8,206.3,511.7,206,511.4,205.8z"/>
					<path class="st3" d="M515.4,211.1c-1.1,0-2-0.9-2-2.1s0.9-2.1,2-2.1c1.1,0,2.1,0.9,2.1,2.1S516.6,211.1,515.4,211.1z
						 M515.4,207.4c-1,0-1.6,0.8-1.6,1.7c0,0.9,0.6,1.7,1.6,1.7c1,0,1.6-0.8,1.6-1.7C517,208.1,516.4,207.4,515.4,207.4z"/>
					<path class="st3" d="M521.6,211.1h-0.5v-0.6c-0.1,0.2-0.6,0.6-1.4,0.6c-0.8,0-1.3-0.5-1.3-1.2c0-0.7,0.5-1.2,1.6-1.2l1.1,0
						v-0.2c0-0.7-0.5-1.1-1.1-1.1c-0.6,0-1.1,0.3-1.2,0.3l-0.2-0.3c0.3-0.2,0.7-0.4,1.3-0.4s1,0.2,1.2,0.4c0.2,0.3,0.4,0.6,0.4,1.3
						V211.1z M521.1,209l-1.1,0.1c-0.8,0-1.1,0.4-1.1,0.8s0.3,0.8,1,0.8s1.1-0.4,1.3-0.7V209z"/>
					<path class="st3" d="M524.8,207c0.6,0,1.1,0.2,1.5,0.8v-2.7h0.5v6h-0.5v-0.7c-0.3,0.6-0.9,0.8-1.5,0.8c-1.2,0-2-0.9-2-2.1
						C522.8,207.9,523.6,207,524.8,207z M524.8,210.7c1,0,1.5-0.8,1.5-1.7c0-0.9-0.5-1.7-1.5-1.7c-1,0-1.5,0.8-1.5,1.7
						C523.3,210,523.8,210.7,524.8,210.7z"/>
					<path class="st3" d="M451.5,217.4l-1.7,6h-0.4l-1.7-5.3l-1.6,5.3h-0.4l-1.7-6h0.5l1.5,5.2l1.6-5.2h0.5l1.6,5.2l1.5-5.2H451.5z"
						/>
					<path class="st3" d="M455.8,223.4h-0.5V221c0-0.6-0.1-1.3-1-1.3s-1.3,0.8-1.3,1.7v2h-0.5v-6h0.5v2.7c0.2-0.5,0.7-0.8,1.3-0.8
						c1.1,0,1.4,0.7,1.4,1.7V223.4z"/>
					<path class="st3" d="M460.8,221.5h-3.3c0,0.9,0.6,1.6,1.5,1.6c0.9,0,1.4-0.5,1.4-0.5l0.2,0.3c0,0-0.5,0.6-1.7,0.6
						c-1.2,0-1.9-0.9-1.9-2.1c0-1.2,0.9-2.1,1.9-2.1c1.1,0,1.8,0.8,1.8,1.9C460.9,221.3,460.8,221.5,460.8,221.5z M460.4,221.1
						c0-0.5-0.4-1.4-1.4-1.4c-1,0-1.4,0.8-1.4,1.4H460.4z"/>
					<path class="st3" d="M465.6,221.5h-3.3c0,0.9,0.6,1.6,1.5,1.6c0.9,0,1.4-0.5,1.4-0.5l0.2,0.3c0,0-0.5,0.6-1.7,0.6
						c-1.2,0-1.9-0.9-1.9-2.1c0-1.2,0.9-2.1,1.9-2.1c1.1,0,1.8,0.8,1.8,1.9C465.6,221.3,465.6,221.5,465.6,221.5z M465.2,221.1
						c0-0.5-0.4-1.4-1.4-1.4c-1,0-1.4,0.8-1.4,1.4H465.2z"/>
					<path class="st3" d="M467.4,223.4h-0.5v-6h0.5V223.4z"/>
					<path class="st3" d="M469.3,218.3c-0.2,0-0.4-0.2-0.4-0.4c0-0.2,0.2-0.4,0.4-0.4c0.2,0,0.4,0.2,0.4,0.4
						C469.7,218.2,469.6,218.3,469.3,218.3z M469.6,223.4h-0.5v-4h0.5V223.4z"/>
					<path class="st3" d="M474.4,223.4H474V221c0-0.6-0.1-1.3-1-1.3c-0.9,0-1.3,0.8-1.3,1.7v2h-0.4v-4h0.4v0.7
						c0.2-0.5,0.7-0.8,1.3-0.8c1.1,0,1.4,0.7,1.4,1.7V223.4z"/>
					<path class="st3" d="M479.6,222.5c0,0.9-0.1,1.4-0.3,1.7c-0.2,0.3-0.7,0.9-1.7,0.9c-1,0-1.7-0.6-1.7-0.6l0.3-0.3
						c0.2,0.2,0.8,0.5,1.5,0.5c0.6,0,1-0.3,1.2-0.5c0.2-0.2,0.3-0.7,0.3-1.4v-0.3c-0.3,0.5-0.8,0.9-1.5,0.9c-1.1,0-2-0.8-2-2
						c0-1.3,0.9-2,2-2c0.7,0,1.2,0.4,1.5,0.8v-0.8h0.5V222.5z M477.7,219.7c-1,0-1.5,0.7-1.5,1.6c0,0.9,0.5,1.6,1.5,1.6
						s1.5-0.7,1.5-1.6C479.2,220.4,478.7,219.7,477.7,219.7z"/>
					<path class="st3" d="M482.3,222.7l-0.7,1.9h-0.3l0.5-1.9H482.3z"/>
					<path class="st3" d="M486.7,223.4h-0.5v-6h0.5V223.4z"/>
					<path class="st3" d="M491.1,223.4h-2.6v-6h0.5v5.5h2.1V223.4z"/>
					<path class="st3" d="M496.1,223.5c-1.2,0-1.6-0.8-1.7-1.1c-0.1-0.3-0.3-0.8-0.3-1.9c0-1.1,0.3-1.9,0.6-2.4
						c0.3-0.5,0.8-0.8,1.6-0.8c1.1,0,1.6,0.6,1.6,0.6l-0.3,0.3c-0.3-0.3-0.7-0.6-1.3-0.6s-1,0.2-1.3,0.7c-0.3,0.5-0.5,1.2-0.5,2.3
						c0.2-0.6,0.7-1.1,1.7-1.1c0.9,0,1.8,0.7,1.8,1.8C498,222.6,497.3,223.5,496.1,223.5z M496.1,220.1c-1,0-1.5,0.7-1.5,1.5
						c0,0.8,0.5,1.5,1.5,1.5c1,0,1.4-0.7,1.4-1.5C497.6,220.8,497.1,220.1,496.1,220.1z"/>
					<path class="st3" d="M501.2,223.5c-1.5,0-2.2-1.5-2.2-3.1c0-1.5,0.7-3.1,2.2-3.1c1.5,0,2.2,1.5,2.2,3.1
						C503.3,221.9,502.7,223.5,501.2,223.5z M501.2,217.7c-1.1,0-1.7,1.1-1.7,2.6c0,1.6,0.6,2.7,1.7,2.7c1.1,0,1.7-1.1,1.7-2.7
						C502.8,218.8,502.3,217.7,501.2,217.7z"/>
					<path class="st3" d="M506.4,223.5c-1.5,0-2.2-1.5-2.2-3.1c0-1.5,0.7-3.1,2.2-3.1c1.5,0,2.2,1.5,2.2,3.1
						C508.5,221.9,507.9,223.5,506.4,223.5z M506.4,217.7c-1.1,0-1.7,1.1-1.7,2.6c0,1.6,0.6,2.7,1.7,2.7c1.1,0,1.7-1.1,1.7-2.7
						C508,218.8,507.4,217.7,506.4,217.7z"/>
					<path class="st3" d="M512.9,222.7c-0.3,0.5-0.9,0.8-1.6,0.8c-1.1,0-1.6-0.5-1.6-0.6l0.3-0.3c0.3,0.3,0.8,0.5,1.4,0.5
						c0.6,0,0.9-0.2,1.3-0.7c0.3-0.5,0.5-1.2,0.5-2.4c-0.2,0.6-0.7,1.1-1.7,1.1c-0.9,0-1.8-0.7-1.8-1.8s0.7-2,1.9-2
						c1.2,0,1.6,0.8,1.7,1.1c0.1,0.3,0.3,0.8,0.3,1.9C513.5,221.4,513.2,222.2,512.9,222.7z M511.4,217.7c-1,0-1.4,0.7-1.4,1.5
						c0,0.8,0.5,1.5,1.4,1.5c1,0,1.4-0.7,1.4-1.5C512.9,218.5,512.4,217.7,511.4,217.7z"/>
					<path class="st3" d="M516.7,223.5c-1.5,0-2.2-1.5-2.2-3.1c0-1.5,0.7-3.1,2.2-3.1c1.5,0,2.2,1.5,2.2,3.1
						C518.9,221.9,518.2,223.5,516.7,223.5z M516.7,217.7c-1.1,0-1.7,1.1-1.7,2.6c0,1.6,0.6,2.7,1.7,2.7s1.7-1.1,1.7-2.7
						C518.4,218.8,517.8,217.7,516.7,217.7z"/>
				</g>
			</g>
		</g>
		<line class="st5" x1="437.6" y1="180.5" x2="437.6" y2="223.5"/>
		<g>
			<path class="st3" d="M290.3,185.8c-0.3,0.3-0.9,0.6-1.6,0.6h-1.3v-4.3h1.3c0.7,0,1.3,0.3,1.6,0.6c0.3,0.3,0.7,0.8,0.7,1.6
				C290.9,185.1,290.6,185.6,290.3,185.8z M289.8,183.1c-0.2-0.2-0.6-0.4-1.1-0.4H288v3.2h0.7c0.5,0,0.9-0.2,1.1-0.4
				c0.2-0.2,0.5-0.6,0.5-1.2C290.3,183.7,290,183.3,289.8,183.1z"/>
			<path class="st3" d="M292.5,186.4h-0.6v-4.3h0.6V186.4z"/>
			<path class="st3" d="M296.5,186.4h-0.7l-1.1-1.8h-0.5v1.8h-0.6v-4.3h1.2c0.4,0,0.8,0.1,1,0.3c0.3,0.2,0.4,0.5,0.4,0.9
				c0,0.7-0.5,1.1-1,1.2L296.5,186.4z M295.4,182.8c-0.2-0.1-0.4-0.2-0.7-0.2h-0.4v1.4h0.4c0.3,0,0.5,0,0.7-0.1
				c0.2-0.1,0.3-0.3,0.3-0.6C295.7,183.1,295.6,182.9,295.4,182.8z"/>
			<path class="st3" d="M299.8,186.4h-2.5v-4.3h2.5v0.5h-1.9v1.3h1.8v0.5h-1.8v1.5h1.9V186.4z"/>
			<path class="st3" d="M304.2,185.8c-0.3,0.3-0.7,0.6-1.6,0.6c-1.2,0-2.2-0.9-2.2-2.2c0-1.3,1-2.2,2.2-2.2c0.8,0,1.3,0.3,1.5,0.6
				l-0.3,0.5c-0.2-0.2-0.6-0.5-1.2-0.5c-0.9,0-1.6,0.7-1.6,1.7c0,1,0.7,1.7,1.6,1.7c0.6,0,1-0.2,1.3-0.5L304.2,185.8z"/>
			<path class="st3" d="M307.6,182.6h-1.2v3.8h-0.6v-3.8h-1.2v-0.5h3V182.6z"/>
			<path class="st3" d="M317,183.6h-2v2h-0.4v-2h-2v-0.4h2v-2h0.4v2h2V183.6z"/>
			<path class="st3" d="M320.2,186.4h-0.5v-5.6h-1.2v-0.4h1.7V186.4z"/>
			<path class="st3" d="M326.2,186.5c-1.1,0-1.6-0.7-1.8-1l0.3-0.3c0.2,0.4,0.7,0.8,1.5,0.8c0.8,0,1.6-0.5,1.6-1.5
				c0-1-0.8-1.5-1.6-1.5c-0.4,0-0.8,0.1-1,0.3l-0.3-0.2l0.6-2.7h2.7v0.4h-2.3l-0.4,1.9c0.3-0.1,0.6-0.2,0.9-0.2c1,0,2,0.7,2,1.9
				C328.2,185.8,327.3,186.5,326.2,186.5z"/>
			<path class="st3" d="M331.4,186.5c-1.1,0-1.6-0.7-1.8-1l0.3-0.3c0.2,0.4,0.7,0.8,1.5,0.8c0.8,0,1.6-0.5,1.6-1.5
				c0-1-0.8-1.5-1.6-1.5c-0.4,0-0.8,0.1-1,0.3l-0.3-0.2l0.6-2.7h2.7v0.4H331l-0.4,1.9c0.3-0.1,0.6-0.2,0.9-0.2c1,0,2,0.7,2,1.9
				C333.4,185.8,332.4,186.5,331.4,186.5z"/>
			<path class="st3" d="M336.5,186.5c-1.1,0-1.6-0.7-1.8-1l0.3-0.3c0.2,0.4,0.7,0.8,1.5,0.8c0.8,0,1.6-0.5,1.6-1.5
				c0-1-0.8-1.5-1.6-1.5c-0.4,0-0.8,0.1-1,0.3l-0.3-0.2l0.6-2.7h2.7v0.4h-2.3l-0.4,1.9c0.3-0.1,0.6-0.2,0.9-0.2c1,0,2,0.7,2,1.9
				C338.6,185.8,337.6,186.5,336.5,186.5z"/>
			<path class="st3" d="M343.8,186.5c-1.1,0-1.6-0.7-1.8-1l0.3-0.3c0.2,0.4,0.7,0.8,1.5,0.8s1.6-0.5,1.6-1.5c0-1-0.8-1.5-1.6-1.5
				c-0.4,0-0.8,0.1-1,0.3l-0.3-0.2l0.6-2.7h2.7v0.4h-2.3l-0.4,1.9c0.3-0.1,0.6-0.2,0.9-0.2c1,0,2,0.7,2,1.9
				C345.8,185.8,344.9,186.5,343.8,186.5z"/>
			<path class="st3" d="M349,186.5c-1.1,0-1.6-0.7-1.8-1l0.3-0.3c0.2,0.4,0.7,0.8,1.5,0.8c0.8,0,1.6-0.5,1.6-1.5
				c0-1-0.8-1.5-1.6-1.5c-0.4,0-0.8,0.1-1,0.3l-0.3-0.2l0.6-2.7h2.7v0.4h-2.3l-0.4,1.9c0.3-0.1,0.6-0.2,0.9-0.2c1,0,2,0.7,2,1.9
				C351,185.8,350,186.5,349,186.5z"/>
			<path class="st3" d="M354.1,186.5c-1.1,0-1.6-0.7-1.8-1l0.3-0.3c0.2,0.4,0.7,0.8,1.5,0.8c0.8,0,1.6-0.5,1.6-1.5
				c0-1-0.8-1.5-1.6-1.5c-0.4,0-0.8,0.1-1,0.3l-0.3-0.2l0.6-2.7h2.7v0.4h-2.3l-0.4,1.9c0.3-0.1,0.6-0.2,0.9-0.2c1,0,2,0.7,2,1.9
				C356.2,185.8,355.2,186.5,354.1,186.5z"/>
			<path class="st3" d="M361.4,186.5c-1.1,0-1.6-0.7-1.8-1l0.3-0.3c0.2,0.4,0.7,0.8,1.5,0.8c0.8,0,1.6-0.5,1.6-1.5
				c0-1-0.8-1.5-1.6-1.5c-0.4,0-0.8,0.1-1,0.3l-0.3-0.2l0.6-2.7h2.7v0.4H361l-0.4,1.9c0.3-0.1,0.6-0.2,0.9-0.2c1,0,2,0.7,2,1.9
				C363.4,185.8,362.5,186.5,361.4,186.5z"/>
			<path class="st3" d="M366.6,186.5c-1.1,0-1.6-0.7-1.8-1l0.3-0.3c0.2,0.4,0.7,0.8,1.5,0.8s1.6-0.5,1.6-1.5c0-1-0.8-1.5-1.6-1.5
				c-0.4,0-0.8,0.1-1,0.3l-0.3-0.2l0.6-2.7h2.7v0.4h-2.3l-0.4,1.9c0.3-0.1,0.6-0.2,0.9-0.2c1,0,2,0.7,2,1.9
				C368.6,185.8,367.6,186.5,366.6,186.5z"/>
			<path class="st3" d="M371.7,186.5c-1.1,0-1.6-0.7-1.8-1l0.3-0.3c0.2,0.4,0.7,0.8,1.5,0.8s1.6-0.5,1.6-1.5c0-1-0.8-1.5-1.6-1.5
				c-0.4,0-0.8,0.1-1,0.3l-0.3-0.2l0.6-2.7h2.7v0.4h-2.3l-0.4,1.9c0.3-0.1,0.6-0.2,0.9-0.2c1,0,2,0.7,2,1.9
				C373.8,185.8,372.8,186.5,371.7,186.5z"/>
			<path class="st3" d="M376.9,186.5c-1.1,0-1.6-0.7-1.8-1l0.3-0.3c0.2,0.4,0.7,0.8,1.5,0.8c0.8,0,1.6-0.5,1.6-1.5
				c0-1-0.8-1.5-1.6-1.5c-0.4,0-0.8,0.1-1,0.3l-0.3-0.2l0.6-2.7h2.7v0.4h-2.3l-0.4,1.9c0.3-0.1,0.6-0.2,0.9-0.2c1,0,2,0.7,2,1.9
				C379,185.8,378,186.5,376.9,186.5z"/>
			<path class="st3" d="M291.9,198.7h-0.6l-0.3-3.4h0l-1.3,3.4h-0.3l-1.3-3.4h0l-0.3,3.4h-0.6l0.4-4.3h0.7l1.2,3.3h0l1.2-3.3h0.7
				L291.9,198.7z"/>
			<path class="st3" d="M294.8,198.8c-1.2,0-2.2-0.8-2.2-2.2s1-2.2,2.2-2.2c1.2,0,2.2,0.8,2.2,2.2S296,198.8,294.8,198.8z
				 M294.8,194.9c-0.9,0-1.6,0.6-1.6,1.7c0,1,0.7,1.7,1.6,1.7c0.9,0,1.6-0.6,1.6-1.7C296.4,195.6,295.7,194.9,294.8,194.9z"/>
			<path class="st3" d="M300.4,198.5c-0.3,0.2-0.6,0.3-1.1,0.3H298v-4.3h1.1c0.4,0,0.7,0,1,0.2c0.3,0.2,0.5,0.4,0.5,0.9
				c0,0.5-0.3,0.8-0.6,0.9v0c0.6,0.1,0.9,0.5,0.9,1C300.9,198,300.7,198.2,300.4,198.5z M299.7,195.1c-0.2-0.1-0.3-0.1-0.6-0.1h-0.6
				v1.4h0.5c0.3,0,0.5,0,0.6-0.1c0.1-0.1,0.3-0.3,0.3-0.6C300,195.3,299.9,195.1,299.7,195.1z M300,196.9c-0.2-0.1-0.5-0.2-0.7-0.2
				h-0.6v1.5h0.6c0.3,0,0.5,0,0.7-0.1c0.2-0.1,0.3-0.3,0.3-0.6S300.2,197.1,300,196.9z"/>
			<path class="st3" d="M302.4,198.7h-0.6v-4.3h0.6V198.7z"/>
			<path class="st3" d="M305.7,198.7h-2.1v-4.3h0.6v3.7h1.5V198.7z"/>
			<path class="st3" d="M309,198.7h-2.5v-4.3h2.5v0.5h-1.9v1.3h1.8v0.5h-1.8v1.5h1.9V198.7z"/>
			<path class="st3" d="M318.6,196h-2v2h-0.4v-2h-2v-0.4h2v-2h0.4v2h2V196z"/>
			<path class="st3" d="M321.8,198.7h-0.5v-5.6h-1.2v-0.4h1.7V198.7z"/>
			<path class="st3" d="M327.8,198.8c-1.1,0-1.6-0.7-1.8-1l0.3-0.3c0.2,0.4,0.7,0.8,1.5,0.8c0.8,0,1.6-0.5,1.6-1.5s-0.8-1.5-1.6-1.5
				c-0.4,0-0.8,0.1-1,0.3l-0.3-0.2l0.6-2.7h2.7v0.4h-2.3l-0.4,1.9c0.3-0.1,0.6-0.2,0.9-0.2c1,0,2,0.7,2,1.9S328.9,198.8,327.8,198.8
				z"/>
			<path class="st3" d="M333,198.8c-1.1,0-1.6-0.7-1.8-1l0.3-0.3c0.2,0.4,0.7,0.8,1.5,0.8c0.8,0,1.6-0.5,1.6-1.5s-0.8-1.5-1.6-1.5
				c-0.4,0-0.8,0.1-1,0.3l-0.3-0.2l0.6-2.7h2.7v0.4h-2.3l-0.4,1.9c0.3-0.1,0.6-0.2,0.9-0.2c1,0,2,0.7,2,1.9S334,198.8,333,198.8z"/>
			<path class="st3" d="M338.1,198.8c-1.1,0-1.6-0.7-1.8-1l0.3-0.3c0.2,0.4,0.7,0.8,1.5,0.8s1.6-0.5,1.6-1.5s-0.8-1.5-1.6-1.5
				c-0.4,0-0.8,0.1-1,0.3l-0.3-0.2l0.6-2.7h2.7v0.4h-2.3l-0.4,1.9c0.3-0.1,0.6-0.2,0.9-0.2c1,0,2,0.7,2,1.9S339.2,198.8,338.1,198.8
				z"/>
			<path class="st3" d="M345.4,198.8c-1.1,0-1.6-0.7-1.8-1l0.3-0.3c0.2,0.4,0.7,0.8,1.5,0.8s1.6-0.5,1.6-1.5s-0.8-1.5-1.6-1.5
				c-0.4,0-0.8,0.1-1,0.3l-0.3-0.2l0.6-2.7h2.7v0.4H345l-0.4,1.9c0.3-0.1,0.6-0.2,0.9-0.2c1,0,2,0.7,2,1.9S346.5,198.8,345.4,198.8z
				"/>
			<path class="st3" d="M350.6,198.8c-1.1,0-1.6-0.7-1.8-1l0.3-0.3c0.2,0.4,0.7,0.8,1.5,0.8c0.8,0,1.6-0.5,1.6-1.5s-0.8-1.5-1.6-1.5
				c-0.4,0-0.8,0.1-1,0.3l-0.3-0.2l0.6-2.7h2.7v0.4h-2.3l-0.4,1.9c0.3-0.1,0.6-0.2,0.9-0.2c1,0,2,0.7,2,1.9S351.6,198.8,350.6,198.8
				z"/>
			<path class="st3" d="M355.7,198.8c-1.1,0-1.6-0.7-1.8-1l0.3-0.3c0.2,0.4,0.7,0.8,1.5,0.8s1.6-0.5,1.6-1.5s-0.8-1.5-1.6-1.5
				c-0.4,0-0.8,0.1-1,0.3l-0.3-0.2l0.6-2.7h2.7v0.4h-2.3l-0.4,1.9c0.3-0.1,0.6-0.2,0.9-0.2c1,0,2,0.7,2,1.9S356.8,198.8,355.7,198.8
				z"/>
			<path class="st3" d="M363,198.8c-1.1,0-1.6-0.7-1.8-1l0.3-0.3c0.2,0.4,0.7,0.8,1.5,0.8c0.8,0,1.6-0.5,1.6-1.5s-0.8-1.5-1.6-1.5
				c-0.4,0-0.8,0.1-1,0.3l-0.3-0.2l0.6-2.7h2.7v0.4h-2.3l-0.4,1.9c0.3-0.1,0.6-0.2,0.9-0.2c1,0,2,0.7,2,1.9S364.1,198.8,363,198.8z"
				/>
			<path class="st3" d="M368.2,198.8c-1.1,0-1.6-0.7-1.8-1l0.3-0.3c0.2,0.4,0.7,0.8,1.5,0.8s1.6-0.5,1.6-1.5s-0.8-1.5-1.6-1.5
				c-0.4,0-0.8,0.1-1,0.3l-0.3-0.2l0.6-2.7h2.7v0.4h-2.3l-0.4,1.9c0.3-0.1,0.6-0.2,0.9-0.2c1,0,2,0.7,2,1.9S369.3,198.8,368.2,198.8
				z"/>
			<path class="st3" d="M373.3,198.8c-1.1,0-1.6-0.7-1.8-1l0.3-0.3c0.2,0.4,0.7,0.8,1.5,0.8c0.8,0,1.6-0.5,1.6-1.5s-0.8-1.5-1.6-1.5
				c-0.4,0-0.8,0.1-1,0.3l-0.3-0.2l0.6-2.7h2.7v0.4H373l-0.4,1.9c0.3-0.1,0.6-0.2,0.9-0.2c1,0,2,0.7,2,1.9S374.4,198.8,373.3,198.8z
				"/>
			<path class="st3" d="M378.5,198.8c-1.1,0-1.6-0.7-1.8-1l0.3-0.3c0.2,0.4,0.7,0.8,1.5,0.8c0.8,0,1.6-0.5,1.6-1.5s-0.8-1.5-1.6-1.5
				c-0.4,0-0.8,0.1-1,0.3l-0.3-0.2l0.6-2.7h2.7v0.4h-2.3l-0.4,1.9c0.3-0.1,0.6-0.2,0.9-0.2c1,0,2,0.7,2,1.9S379.6,198.8,378.5,198.8
				z"/>
			<path class="st3" d="M291,209.2h-3.3c0,0.9,0.6,1.6,1.5,1.6s1.4-0.5,1.4-0.5l0.2,0.3c0,0-0.5,0.6-1.7,0.6s-1.9-0.9-1.9-2.1
				c0-1.2,0.9-2.1,1.9-2.1c1.1,0,1.8,0.8,1.8,1.9C291,209,291,209.2,291,209.2z M290.6,208.8c0-0.5-0.4-1.4-1.4-1.4
				s-1.4,0.8-1.4,1.4H290.6z"/>
			<path class="st3" d="M297.8,211.1h-0.4v-2.4c0-0.5-0.1-1.3-0.9-1.3c-0.8,0-1.2,0.8-1.2,1.6v2.1h-0.4v-2.4c0-0.7-0.2-1.3-0.9-1.3
				c-0.8,0-1.2,0.8-1.2,1.6v2.1h-0.4v-4h0.4v0.7c0.2-0.4,0.7-0.8,1.2-0.8c0.6,0,1,0.3,1.2,0.8c0.3-0.5,0.7-0.8,1.3-0.8
				c1.1,0,1.3,0.8,1.3,1.6V211.1z"/>
			<path class="st3" d="M302.1,211.1h-0.5v-0.6c-0.1,0.2-0.6,0.6-1.4,0.6c-0.8,0-1.3-0.5-1.3-1.2c0-0.7,0.5-1.2,1.6-1.2l1.1,0v-0.2
				c0-0.7-0.5-1.1-1.1-1.1c-0.6,0-1.1,0.3-1.2,0.3l-0.2-0.3c0.3-0.2,0.7-0.4,1.3-0.4c0.6,0,1,0.2,1.2,0.4c0.2,0.3,0.4,0.6,0.4,1.3
				V211.1z M301.7,209l-1.1,0.1c-0.8,0-1.1,0.4-1.1,0.8s0.3,0.8,1,0.8s1.1-0.4,1.3-0.7V209z"/>
			<path class="st3" d="M303.9,206c-0.2,0-0.4-0.2-0.4-0.4c0-0.2,0.2-0.4,0.4-0.4c0.2,0,0.4,0.2,0.4,0.4
				C304.3,205.8,304.1,206,303.9,206z M304.2,211.1h-0.4v-4h0.4V211.1z"/>
			<path class="st3" d="M306.3,211.1h-0.4v-6h0.4V211.1z"/>
			<path class="st3" d="M311.2,211.1h-0.5v-2.4c0-0.6-0.1-1.3-1-1.3s-1.3,0.8-1.3,1.7v2H308v-4h0.5v0.7c0.2-0.5,0.7-0.8,1.3-0.8
				c1.1,0,1.4,0.7,1.4,1.7V211.1z"/>
			<path class="st3" d="M315.5,211.1h-0.5v-0.6c-0.1,0.2-0.6,0.6-1.4,0.6s-1.3-0.5-1.3-1.2c0-0.7,0.5-1.2,1.6-1.2l1.1,0v-0.2
				c0-0.7-0.5-1.1-1.1-1.1c-0.6,0-1.1,0.3-1.2,0.3l-0.2-0.3c0.3-0.2,0.7-0.4,1.3-0.4c0.6,0,1,0.2,1.2,0.4c0.2,0.3,0.4,0.6,0.4,1.3
				V211.1z M315.1,209l-1.1,0.1c-0.8,0-1.1,0.4-1.1,0.8s0.3,0.8,1,0.8c0.6,0,1.1-0.4,1.3-0.7V209z"/>
			<path class="st3" d="M322.5,211.1h-0.4v-2.4c0-0.5-0.1-1.3-0.9-1.3c-0.8,0-1.2,0.8-1.2,1.6v2.1h-0.4v-2.4c0-0.7-0.2-1.3-0.9-1.3
				c-0.8,0-1.2,0.8-1.2,1.6v2.1h-0.4v-4h0.4v0.7c0.2-0.4,0.7-0.8,1.2-0.8c0.6,0,1,0.3,1.2,0.8c0.3-0.5,0.7-0.8,1.3-0.8
				c1.1,0,1.3,0.8,1.3,1.6V211.1z"/>
			<path class="st3" d="M327.6,209.2h-3.3c0,0.9,0.6,1.6,1.5,1.6s1.4-0.5,1.4-0.5l0.2,0.3c0,0-0.5,0.6-1.7,0.6
				c-1.2,0-1.9-0.9-1.9-2.1c0-1.2,0.9-2.1,1.9-2.1c1.1,0,1.8,0.8,1.8,1.9C327.6,209,327.6,209.2,327.6,209.2z M327.1,208.8
				c0-0.5-0.4-1.4-1.4-1.4s-1.4,0.8-1.4,1.4H327.1z"/>
			<path class="st3" d="M332.8,211.1c-0.5,0-0.7-0.3-0.7-0.6c-0.5,0.5-0.9,0.6-1.2,0.6c-0.3,0-1-0.2-1-1.3s0.8-2.5,2-2.5
				c0.8,0,1,0.5,1,0.5l0.1-0.3h0.4l-0.8,2.4c-0.1,0.2-0.1,0.3-0.1,0.5c0,0.2,0.1,0.3,0.3,0.3c0.6,0,1.5-0.9,1.5-2.1s-1-2.2-2.5-2.2
				c-1.5,0-2.8,1.2-2.8,2.9c0,1.7,1.1,2.8,2.6,2.8s2.4-0.7,2.5-0.8l0.2,0.3c-0.1,0.1-1,0.9-2.6,0.9c-1.7,0-3-1.2-3-3.2
				c0-1.9,1.6-3.3,3.3-3.3c1.7,0,2.9,1.1,2.9,2.6C334.8,210,333.7,211.1,332.8,211.1z M332.8,208.2c0,0-0.2-0.5-0.9-0.5
				c-0.9,0-1.5,1.2-1.5,2c0,0.8,0.4,0.9,0.7,0.9c0.3,0,1-0.2,1.3-1.2L332.8,208.2z"/>
			<path class="st3" d="M338.1,211.1c-0.6,0-1.1-0.2-1.5-0.8v2.4h-0.5v-5.6h0.5v0.8c0.3-0.6,0.9-0.8,1.5-0.8c1.2,0,2,0.9,2,2.1
				C340.1,210.3,339.3,211.1,338.1,211.1z M338.1,207.4c-1,0-1.5,0.8-1.5,1.7c0,0.9,0.5,1.7,1.5,1.7c1,0,1.5-0.7,1.5-1.7
				C339.6,208.1,339.1,207.4,338.1,207.4z"/>
			<path class="st3" d="M343.3,207.5c-0.1,0-0.2-0.1-0.4-0.1c-0.4,0-0.6,0.3-0.7,0.4c-0.1,0.1-0.3,0.4-0.3,1.1v2.2h-0.4v-4h0.4v0.8
				c0.1-0.5,0.6-0.8,1-0.8c0.3,0,0.4,0.1,0.4,0.1L343.3,207.5z"/>
			<path class="st3" d="M344.6,206c-0.2,0-0.4-0.2-0.4-0.4c0-0.2,0.2-0.4,0.4-0.4c0.2,0,0.4,0.2,0.4,0.4
				C345,205.8,344.8,206,344.6,206z M344.9,211.1h-0.4v-4h0.4V211.1z"/>
			<path class="st3" d="M350,209.2h-3.3c0,0.9,0.6,1.6,1.5,1.6s1.4-0.5,1.4-0.5l0.2,0.3c0,0-0.5,0.6-1.7,0.6c-1.2,0-1.9-0.9-1.9-2.1
				c0-1.2,0.9-2.1,1.9-2.1c1.1,0,1.8,0.8,1.8,1.9C350,209,350,209.2,350,209.2z M349.5,208.8c0-0.5-0.4-1.4-1.4-1.4
				c-1,0-1.4,0.8-1.4,1.4H349.5z"/>
			<path class="st3" d="M352.3,211.1c-0.7,0-1.2-0.4-1.5-0.8l0.3-0.3c0.3,0.4,0.7,0.6,1.2,0.6c0.5,0,0.9-0.2,0.9-0.8
				s-0.7-0.7-1.1-0.8c-0.3-0.1-1.1-0.4-1.1-1.1c0-0.7,0.6-1.1,1.2-1.1c0.6,0,1,0.2,1.3,0.6l-0.3,0.3c-0.3-0.3-0.6-0.5-1-0.5
				c-0.4,0-0.8,0.2-0.8,0.6c0,0.4,0.4,0.6,0.9,0.8c0.5,0.2,1.3,0.4,1.3,1.2C353.7,210.7,353.1,211.1,352.3,211.1z"/>
			<path class="st3" d="M356.6,211c0,0-0.2,0.1-0.6,0.1s-0.6-0.2-0.8-0.4c-0.1-0.3-0.1-0.6-0.1-1.2v-2h-0.6v-0.4h0.6v-1.3h0.5v1.3h1
				v0.4h-1v2.3c0,0.4,0.1,1,0.6,1c0.3,0,0.4-0.1,0.4-0.1L356.6,211z"/>
			<path class="st3" d="M361.1,209.2h-3.3c0,0.9,0.6,1.6,1.5,1.6c0.9,0,1.4-0.5,1.4-0.5l0.2,0.3c0,0-0.5,0.6-1.7,0.6
				c-1.2,0-1.9-0.9-1.9-2.1c0-1.2,0.9-2.1,1.9-2.1c1.1,0,1.8,0.8,1.8,1.9C361.1,209,361.1,209.2,361.1,209.2z M360.7,208.8
				c0-0.5-0.4-1.4-1.4-1.4c-1,0-1.4,0.8-1.4,1.4H360.7z"/>
			<path class="st3" d="M364.3,207.5c-0.1,0-0.2-0.1-0.4-0.1c-0.4,0-0.6,0.3-0.7,0.4c-0.1,0.1-0.3,0.4-0.3,1.1v2.2h-0.4v-4h0.4v0.8
				c0.1-0.5,0.6-0.8,1-0.8c0.3,0,0.4,0.1,0.4,0.1L364.3,207.5z"/>
			<path class="st3" d="M367.9,211.1h-0.5v-0.6c-0.1,0.2-0.6,0.6-1.4,0.6c-0.8,0-1.3-0.5-1.3-1.2c0-0.7,0.5-1.2,1.6-1.2l1.1,0v-0.2
				c0-0.7-0.5-1.1-1.1-1.1c-0.6,0-1.1,0.3-1.2,0.3l-0.2-0.3c0.3-0.2,0.7-0.4,1.3-0.4s1,0.2,1.2,0.4c0.2,0.3,0.4,0.6,0.4,1.3V211.1z
				 M367.5,209l-1.1,0.1c-0.8,0-1.1,0.4-1.1,0.8s0.3,0.8,1,0.8s1.1-0.4,1.3-0.7V209z"/>
			<path class="st3" d="M372.5,207.1l-1.7,4h-0.3l-1.7-4h0.5l1.4,3.4l1.4-3.4H372.5z"/>
			<path class="st3" d="M373.5,211.1c-0.2,0-0.4-0.2-0.4-0.4c0-0.2,0.2-0.4,0.4-0.4c0.2,0,0.4,0.2,0.4,0.4
				C373.9,211,373.7,211.1,373.5,211.1z"/>
			<path class="st3" d="M378.8,210.5c-0.1,0.2-0.6,0.7-1.6,0.7c-1.1,0-2-0.9-2-2.1c0-1.2,0.9-2.1,2-2.1c1.1,0,1.5,0.6,1.6,0.7
				l-0.3,0.3c-0.2-0.2-0.5-0.6-1.3-0.6c-0.8,0-1.5,0.6-1.5,1.6c0,1,0.6,1.7,1.5,1.7c0.9,0,1.3-0.6,1.3-0.6L378.8,210.5z"/>
			<path class="st3" d="M381.7,211.1c-1.1,0-2-0.9-2-2.1s0.9-2.1,2-2.1c1.1,0,2.1,0.9,2.1,2.1S382.8,211.1,381.7,211.1z
				 M381.7,207.4c-1,0-1.6,0.8-1.6,1.7c0,0.9,0.6,1.7,1.6,1.7c1,0,1.6-0.8,1.6-1.7C383.3,208.1,382.7,207.4,381.7,207.4z"/>
			<path class="st3" d="M390.5,211.1h-0.4v-2.4c0-0.5-0.1-1.3-0.9-1.3s-1.2,0.8-1.2,1.6v2.1h-0.4v-2.4c0-0.7-0.2-1.3-0.9-1.3
				c-0.8,0-1.2,0.8-1.2,1.6v2.1h-0.4v-4h0.4v0.7c0.2-0.4,0.7-0.8,1.2-0.8c0.6,0,1,0.3,1.2,0.8c0.3-0.5,0.7-0.8,1.3-0.8
				c1.1,0,1.3,0.8,1.3,1.6V211.1z"/>
			<path class="st3" d="M293,219.4l-1.3,4h-0.4L290,220l-1.3,3.4h-0.4l-1.3-4h0.5l1.1,3.4l1.3-3.4h0.3l1.3,3.4l1.1-3.4H293z"/>
			<path class="st3" d="M299.6,219.4l-1.3,4h-0.4l-1.3-3.4l-1.3,3.4h-0.4l-1.3-4h0.5l1.1,3.4l1.3-3.4h0.3l1.3,3.4l1.1-3.4H299.6z"/>
			<path class="st3" d="M306.1,219.4l-1.3,4h-0.4l-1.3-3.4l-1.3,3.4h-0.4l-1.3-4h0.5l1.1,3.4l1.3-3.4h0.3l1.3,3.4l1.1-3.4H306.1z"/>
			<path class="st3" d="M307.2,223.5c-0.2,0-0.4-0.2-0.4-0.4c0-0.2,0.2-0.4,0.4-0.4c0.2,0,0.4,0.2,0.4,0.4
				C307.6,223.3,307.4,223.5,307.2,223.5z"/>
			<path class="st3" d="M311.4,223.5c-0.6,0-1.1-0.2-1.5-0.8v2.4h-0.4v-5.6h0.4v0.8c0.3-0.6,0.9-0.8,1.5-0.8c1.2,0,2,0.9,2,2.1
				C313.4,222.6,312.6,223.5,311.4,223.5z M311.4,219.7c-1,0-1.5,0.8-1.5,1.7c0,0.9,0.5,1.7,1.5,1.7c1,0,1.5-0.7,1.5-1.7
				C312.9,220.5,312.4,219.7,311.4,219.7z"/>
			<path class="st3" d="M316.6,219.8c-0.1,0-0.2-0.1-0.4-0.1c-0.4,0-0.6,0.3-0.7,0.4c-0.1,0.1-0.3,0.4-0.3,1.1v2.2h-0.4v-4h0.4v0.8
				c0.1-0.5,0.6-0.8,1-0.8c0.3,0,0.4,0.1,0.4,0.1L316.6,219.8z"/>
			<path class="st3" d="M317.9,218.3c-0.2,0-0.4-0.2-0.4-0.4c0-0.2,0.2-0.4,0.4-0.4c0.2,0,0.4,0.2,0.4,0.4
				C318.3,218.2,318.2,218.3,317.9,218.3z M318.2,223.4h-0.5v-4h0.5V223.4z"/>
			<path class="st3" d="M323.3,221.5H320c0,0.9,0.6,1.6,1.5,1.6s1.4-0.5,1.4-0.5l0.2,0.3c0,0-0.5,0.6-1.7,0.6
				c-1.2,0-1.9-0.9-1.9-2.1c0-1.2,0.9-2.1,1.9-2.1c1.1,0,1.8,0.8,1.8,1.9C323.3,221.3,323.3,221.5,323.3,221.5z M322.8,221.1
				c0-0.5-0.4-1.4-1.4-1.4c-1,0-1.4,0.8-1.4,1.4H322.8z"/>
			<path class="st3" d="M325.6,223.5c-0.7,0-1.2-0.4-1.5-0.8l0.3-0.3c0.3,0.4,0.7,0.6,1.2,0.6c0.5,0,0.9-0.2,0.9-0.8
				c0-0.5-0.7-0.7-1.1-0.8c-0.3-0.1-1.1-0.4-1.1-1.1c0-0.7,0.6-1.1,1.2-1.1c0.6,0,0.9,0.2,1.3,0.6l-0.3,0.3c-0.3-0.3-0.6-0.5-1-0.5
				c-0.4,0-0.8,0.2-0.8,0.6c0,0.4,0.4,0.6,0.9,0.8c0.5,0.2,1.3,0.4,1.3,1.2C327,223,326.4,223.5,325.6,223.5z"/>
			<path class="st3" d="M329.9,223.3c0,0-0.2,0.1-0.6,0.1c-0.4,0-0.6-0.2-0.8-0.4c-0.1-0.3-0.1-0.6-0.1-1.2v-2h-0.6v-0.4h0.6v-1.3
				h0.5v1.3h1v0.4h-1v2.3c0,0.4,0.1,1,0.6,1c0.3,0,0.4-0.1,0.4-0.1L329.9,223.3z"/>
			<path class="st3" d="M334.4,221.5h-3.3c0,0.9,0.6,1.6,1.5,1.6s1.4-0.5,1.4-0.5l0.2,0.3c0,0-0.5,0.6-1.7,0.6s-1.9-0.9-1.9-2.1
				c0-1.2,0.9-2.1,1.9-2.1c1.1,0,1.8,0.8,1.8,1.9C334.4,221.3,334.4,221.5,334.4,221.5z M334,221.1c0-0.5-0.4-1.4-1.4-1.4
				c-1,0-1.4,0.8-1.4,1.4H334z"/>
			<path class="st3" d="M337.6,219.8c-0.1,0-0.2-0.1-0.4-0.1c-0.4,0-0.6,0.3-0.7,0.4c-0.1,0.1-0.3,0.4-0.3,1.1v2.2h-0.4v-4h0.4v0.8
				c0.1-0.5,0.6-0.8,1-0.8c0.3,0,0.4,0.1,0.4,0.1L337.6,219.8z"/>
			<path class="st3" d="M341.2,223.4h-0.5v-0.6c-0.1,0.2-0.6,0.6-1.4,0.6c-0.8,0-1.3-0.5-1.3-1.2c0-0.7,0.5-1.2,1.6-1.2l1.1,0v-0.2
				c0-0.7-0.5-1.1-1.1-1.1c-0.6,0-1.1,0.3-1.2,0.3l-0.2-0.3c0.3-0.2,0.7-0.4,1.3-0.4c0.6,0,1,0.2,1.2,0.4c0.2,0.3,0.4,0.6,0.4,1.3
				V223.4z M340.8,221.4l-1.1,0.1c-0.8,0-1.1,0.4-1.1,0.8c0,0.4,0.3,0.8,1,0.8c0.6,0,1.1-0.4,1.3-0.7V221.4z"/>
			<path class="st3" d="M345.8,219.4l-1.7,4h-0.3l-1.7-4h0.5l1.4,3.4l1.4-3.4H345.8z"/>
			<path class="st3" d="M346.8,223.5c-0.2,0-0.4-0.2-0.4-0.4c0-0.2,0.2-0.4,0.4-0.4c0.2,0,0.4,0.2,0.4,0.4
				C347.2,223.3,347,223.5,346.8,223.5z"/>
			<path class="st3" d="M352.1,222.8c-0.1,0.2-0.6,0.7-1.6,0.7c-1.1,0-2-0.9-2-2.1c0-1.2,1-2.1,2-2.1c1.1,0,1.5,0.6,1.6,0.7
				l-0.3,0.3c-0.2-0.2-0.5-0.6-1.3-0.6c-0.8,0-1.5,0.6-1.5,1.6c0,1,0.6,1.7,1.5,1.7c0.9,0,1.3-0.6,1.3-0.6L352.1,222.8z"/>
			<path class="st3" d="M355,223.5c-1.1,0-2-0.9-2-2.1c0-1.2,0.9-2.1,2-2.1c1.1,0,2.1,0.9,2.1,2.1C357,222.6,356.1,223.5,355,223.5z
				 M355,219.7c-1,0-1.6,0.8-1.6,1.7c0,0.9,0.6,1.7,1.6,1.7c1,0,1.6-0.8,1.6-1.7C356.6,220.4,356,219.7,355,219.7z"/>
			<path class="st3" d="M363.8,223.4h-0.4v-2.4c0-0.5-0.1-1.3-0.9-1.3c-0.8,0-1.2,0.8-1.2,1.6v2.1h-0.4v-2.4c0-0.7-0.2-1.3-0.9-1.3
				c-0.8,0-1.2,0.8-1.2,1.6v2.1h-0.4v-4h0.4v0.7c0.2-0.4,0.7-0.8,1.2-0.8c0.6,0,1,0.3,1.2,0.8c0.3-0.5,0.7-0.8,1.3-0.8
				c1.1,0,1.3,0.8,1.3,1.6V223.4z"/>
		</g>
		<line class="st5" x1="280.8" y1="180.5" x2="280.8" y2="223.5"/>
		<g>
			<g>
				<path class="st3" d="M288,152.2h-1.2l-0.8-2h-3.3l-0.8,2h-1.1l3.1-7.7h0.9L288,152.2z M285.7,149.3l-1.3-3.4l-1.3,3.4H285.7z"/>
				<path class="st3" d="M296.6,152.2h-1.1l-4.4-6.1c0,0,0,1,0,2v4.1h-1.1v-7.7h1.1l4.3,6c0,0,0-0.9,0-2v-4.1h1.1V152.2z"/>
				<path class="st3" d="M304.8,151.2c-0.6,0.5-1.5,1-2.9,1h-2.3v-7.7h2.3c1.3,0,2.3,0.5,2.9,1c0.6,0.5,1.2,1.4,1.2,2.8
					C306,149.8,305.4,150.7,304.8,151.2z M304,146.2c-0.4-0.4-1.1-0.7-2-0.7h-1.2v5.8h1.2c0.9,0,1.6-0.3,2-0.7
					c0.4-0.4,0.9-1.1,0.9-2.2C304.9,147.3,304.4,146.6,304,146.2z"/>
				<path class="st3" d="M313.7,144.6l-2.7,4.5v3.2H310V149l-2.7-4.5h1.2l2,3.5l2-3.5H313.7z"/>
				<path class="st3" d="M323.4,148.4c-0.5,0.4-1.1,0.5-1.9,0.5h-1.1v3.3h-1.1v-7.7h2.2c0.7,0,1.4,0.1,1.9,0.5
					c0.5,0.4,0.7,0.9,0.7,1.6C324.2,147.5,323.9,148,323.4,148.4z M322.6,145.7c-0.3-0.2-0.6-0.3-1.1-0.3h-1v2.6h1
					c0.5,0,0.8-0.1,1.1-0.3c0.3-0.2,0.5-0.5,0.5-1C323.1,146.3,322.9,145.9,322.6,145.7z"/>
				<path class="st3" d="M331.8,152.2h-1.3l-2-3.3h-0.8v3.3h-1.1v-7.7h2.2c0.8,0,1.4,0.2,1.8,0.5c0.5,0.4,0.7,0.9,0.7,1.6
					c0,1.3-0.9,1.9-1.7,2.1L331.8,152.2z M329.8,145.7c-0.3-0.3-0.8-0.3-1.3-0.3h-0.8v2.6h0.8c0.5,0,0.9,0,1.3-0.3
					c0.3-0.3,0.5-0.6,0.5-1C330.3,146.3,330.1,146,329.8,145.7z"/>
				<path class="st3" d="M335,152.2H334v-7.7h1.1V152.2z"/>
				<path class="st3" d="M342.6,152.2h-4.6v-7.7h4.5v0.9h-3.4v2.3h3.2v0.9h-3.2v2.7h3.5V152.2z"/>
				<path class="st3" d="M349.2,151.7c-0.5,0.4-1.1,0.6-1.9,0.6c-1.3,0-2.1-0.9-2.5-1.3l0.6-0.7c0.4,0.5,1.1,1.1,1.9,1.1
					c0.8,0,1.5-0.5,1.5-1.3c0-0.8-0.9-1.1-1.2-1.3c-0.4-0.2-0.9-0.4-1.2-0.5c-0.2-0.1-0.5-0.2-0.8-0.5c-0.3-0.3-0.5-0.7-0.5-1.3
					c0-0.6,0.3-1.1,0.7-1.5c0.4-0.4,1-0.6,1.8-0.6c1.3,0,2,0.8,2.2,1l-0.6,0.7c-0.4-0.4-0.9-0.8-1.7-0.8c-0.8,0-1.3,0.4-1.3,1.1
					c0,0.7,0.5,1,1,1.2l1.4,0.6c0.1,0.1,0.6,0.3,0.9,0.6c0.2,0.3,0.5,0.7,0.5,1.3C350,150.7,349.7,151.3,349.2,151.7z"/>
				<path class="st3" d="M357.1,145.5h-2.2v6.8h-1.1v-6.8h-2.2v-0.9h5.4V145.5z"/>
				<path class="st3" d="M363.9,152.2h-4.6v-7.7h4.5v0.9h-3.4v2.3h3.2v0.9h-3.2v2.7h3.5V152.2z"/>
				<path class="st3" d="M371.7,152.2h-1.3l-2-3.3h-0.8v3.3h-1.1v-7.7h2.2c0.8,0,1.4,0.2,1.8,0.5c0.5,0.4,0.7,0.9,0.7,1.6
					c0,1.3-0.9,1.9-1.7,2.1L371.7,152.2z M369.7,145.7c-0.3-0.3-0.8-0.3-1.3-0.3h-0.8v2.6h0.8c0.5,0,0.9,0,1.3-0.3
					c0.3-0.3,0.5-0.6,0.5-1C370.2,146.3,370,146,369.7,145.7z"/>
				<path class="st3" d="M284.2,160.1c-0.3,0.3-0.8,0.4-1.4,0.4H282v2.8h-0.5v-6h1.4c0.6,0,1,0.1,1.4,0.4c0.3,0.3,0.5,0.7,0.5,1.2
					C284.8,159.5,284.6,159.8,284.2,160.1z M283.9,158c-0.2-0.2-0.6-0.3-1-0.3H282v2.3h0.9c0.4,0,0.8-0.1,1-0.3
					c0.2-0.2,0.4-0.5,0.4-0.9C284.3,158.5,284.1,158.2,283.9,158z"/>
				<path class="st3" d="M290.4,163.3h-0.6l-1.8-2.8h-0.8v2.8h-0.5v-6h1.4c1.1,0,1.9,0.6,1.9,1.6s-0.7,1.5-1.5,1.6L290.4,163.3z
					 M289.1,158c-0.3-0.2-0.7-0.3-1.2-0.3h-0.7v2.3h0.7c0.5,0,0.9,0,1.2-0.2c0.3-0.2,0.4-0.5,0.4-0.9S289.5,158.3,289.1,158z"/>
				<path class="st3" d="M295.5,163.3h-3.3v-6h3.2v0.4h-2.8v2.2h2.6v0.4h-2.6v2.5h2.8V163.3z"/>
				<path class="st3" d="M299.1,163.4c-1.2,0-1.7-0.8-1.8-1.1l0.4-0.3c0.2,0.4,0.7,0.9,1.5,0.9s1.4-0.5,1.4-1.3
					c0-0.8-0.8-1.1-1.1-1.2c-0.3-0.1-0.7-0.3-1-0.4c-0.2-0.1-0.9-0.5-0.9-1.4s0.8-1.5,1.8-1.5s1.5,0.7,1.6,0.8l-0.3,0.3
					c-0.2-0.3-0.6-0.6-1.3-0.6c-0.7,0-1.2,0.4-1.2,1c0,0.7,0.5,0.9,0.9,1.1c0.4,0.2,1.1,0.5,1.2,0.5c0.1,0.1,0.9,0.5,0.9,1.4
					S300.3,163.4,299.1,163.4z"/>
				<path class="st3" d="M303.7,163.3h-0.5v-6h0.5V163.3z"/>
				<path class="st3" d="M310,162.5c-0.4,0.4-1.1,0.8-2.2,0.8h-1.6v-6h1.6c1,0,1.8,0.4,2.2,0.8c0.4,0.4,0.9,1.1,0.9,2.2
					C310.9,161.4,310.4,162.1,310,162.5z M309.6,158.4c-0.4-0.4-1-0.6-1.8-0.6h-1.1v5.1h1.1c0.8,0,1.4-0.3,1.8-0.6s0.8-1,0.8-1.9
					S310,158.8,309.6,158.4z"/>
				<path class="st3" d="M316.3,163.3H313v-6h3.2v0.4h-2.8v2.2h2.6v0.4h-2.6v2.5h2.8V163.3z"/>
				<path class="st3" d="M323.4,163.3h-0.4l-4-5.2v5.2h-0.5v-6h0.5l3.9,5.1v-5.1h0.5V163.3z"/>
				<path class="st3" d="M329.2,157.8h-1.8v5.5H327v-5.5h-1.8v-0.4h4V157.8z"/>
				<path class="st3" d="M338.6,163.3H338l-0.8-1c-0.5,0.6-1.1,1.1-2.1,1.1c-1,0-1.7-0.6-1.7-1.6s0.8-1.5,1.6-1.9
					c-0.3-0.4-0.7-0.8-0.7-1.4c0-0.6,0.5-1.2,1.3-1.2c0.8,0,1.3,0.5,1.3,1.2c0,0.6-0.6,1.1-1.2,1.5l1.5,1.7c0.2-0.2,0.6-0.9,0.7-1.3
					l0.4,0.1c-0.1,0.2-0.6,1.1-0.9,1.5L338.6,163.3L338.6,163.3z M335.4,160.2l-0.3,0.2c-0.5,0.3-1.1,0.7-1.1,1.4s0.5,1.3,1.3,1.3
					c0.8,0,1.4-0.6,1.7-1L335.4,160.2z M335.7,157.6c-0.5,0-0.8,0.3-0.8,0.8c0,0.5,0.4,0.9,0.6,1.2l0.1-0.1c0.3-0.2,0.9-0.5,0.9-1.1
					C336.5,157.9,336.2,157.6,335.7,157.6z"/>
				<path class="st3" d="M348.1,162.5c-0.4,0.5-1.1,0.9-2.2,0.9c-1.7,0-3-1.3-3-3.1s1.3-3.1,3-3.1c1,0,1.7,0.4,2.2,0.9l-0.3,0.3
					c-0.3-0.4-1-0.8-1.9-0.8c-1.5,0-2.5,1.1-2.5,2.6c0,1.6,1,2.6,2.5,2.6c0.8,0,1.5-0.3,1.9-0.8L348.1,162.5z"/>
				<path class="st3" d="M353.4,163.3h-3.3v-6h3.2v0.4h-2.8v2.2h2.6v0.4h-2.6v2.5h2.8V163.3z"/>
				<path class="st3" d="M358.2,163.4c-1.6,0-3-1.2-3-3.1s1.4-3.1,3-3.1c1.6,0,3,1.2,3,3.1S359.9,163.4,358.2,163.4z M358.2,157.7
					c-1.4,0-2.5,1-2.5,2.7c0,1.7,1.2,2.6,2.5,2.6c1.4,0,2.5-1,2.5-2.6C360.8,158.7,359.6,157.7,358.2,157.7z"/>
			</g>
		</g>
	</g>
</g>
<g>
	<path class="st0" d="M366,55.5c0,11.2-9.1,15.4-20.3,15.4s-20.3-4.2-20.3-15.4s9.1-20.3,20.3-20.3S366,44.3,366,55.5z"/>
	<path class="st6" d="M360.3,47c0,4-29.1,4-29.1,0c0-6,8.1-9.3,14.6-9.3C351.8,37.7,360.3,41,360.3,47z"/>
</g>
<g>
	<path class="st0" d="M411,55.5c0,11.2-9.1,15.4-20.3,15.4s-20.3-4.2-20.3-15.4s9.1-20.3,20.3-20.3S411,44.3,411,55.5z"/>
	<path class="st6" d="M405.3,47c0,4-29.1,4-29.1,0c0-6,8.1-9.3,14.6-9.3C396.8,37.7,405.3,41,405.3,47z"/>
</g>
<g>
	<path class="st0" d="M456,55.5c0,11.2-9.1,15.4-20.3,15.4s-20.3-4.2-20.3-15.4s9.1-20.3,20.3-20.3S456,44.3,456,55.5z"/>
	<path class="st6" d="M450.3,47c0,4-29.1,4-29.1,0c0-6,8.1-9.3,14.6-9.3C441.8,37.7,450.3,41,450.3,47z"/>
</g>
<g>
	<path class="st0" d="M347.4,252.6c0-11.2,9.1-15.4,20.3-15.4s20.3,4.2,20.3,15.4c0,11.2-9.1,20.3-20.3,20.3
		S347.4,263.8,347.4,252.6z"/>
	<path class="st6" d="M353.1,261c0-4,29.1-4,29.1,0c0,6-8.1,9.3-14.6,9.3C361.6,270.3,353.1,267,353.1,261z"/>
</g>
<g>
	<path class="st0" d="M501,55.5c0,11.2-9.1,15.4-20.3,15.4s-20.3-4.2-20.3-15.4s9.1-20.3,20.3-20.3S501,44.3,501,55.5z"/>
	<path class="st6" d="M495.3,47c0,4-29.1,4-29.1,0c0-6,8.1-9.3,14.6-9.3C486.8,37.7,495.3,41,495.3,47z"/>
</g>
</svg>
