<?xml version="1.0" encoding="utf-8"?>
<!-- Generator: Adobe Illustrator 19.0.1, SVG Export Plug-In . SVG Version: 6.00 Build 0)  -->
<!DOCTYPE svg PUBLIC "-//W3C//DTD SVG 1.1//EN" "http://www.w3.org/Graphics/SVG/1.1/DTD/svg11.dtd">
<svg version="1.1" id="Layer_1" xmlns="http://www.w3.org/2000/svg" xmlns:xlink="http://www.w3.org/1999/xlink" x="0px" y="0px"
	 viewBox="117 6.7 593.7 276.3" style="enable-background:new 117 6.7 593.7 276.3;" xml:space="preserve">
<style type="text/css">
	.st0{fill:url(#SVGID_1_);}
	.st1{clip-path:url(#SVGID_3_);}
	.st2{fill:#4061AC;}
	.st3{fill:#4566AF;}
	.st4{fill:#607EBE;}
	.st5{fill:#3255A5;}
	.st6{fill:#2D50A2;}
	.st7{fill:#4A6AB2;}
	.st8{fill:#4D6EB5;}
	.st9{fill:#5777BA;}
	.st10{fill:#819CD0;}
	.st11{fill:#99B3DD;}
	.st12{fill:#5274B8;}
	.st13{fill:#5071B6;}
	.st14{fill:#3658A7;}
	.st15{fill:#6D8CC7;}
	.st16{fill:#6889C5;}
	.st17{fill:#7392CA;}
	.st18{fill:#597ABC;}
	.st19{fill:#3C5CA9;}
	.st20{fill:#AEC5E6;}
	.st21{fill:#8BA7D6;}
	.st22{fill:#7C99CE;}
	.st23{fill:#7194CC;}
	.st24{fill:#5D7DBE;}
	.st25{fill:#6785C2;}
	.st26{fill:#92AEDA;}
	.st27{fill:#7895CC;}
	.st28{fill:#A3BBE1;}
	.st29{fill:#6481C0;}
	.st30{clip-path:url(#SVGID_3_);fill:url(#SVGID_4_);}
	.st31{clip-path:url(#SVGID_6_);fill:#385988;}
	.st32{fill:#385988;}
	.st33{fill:#BEC2C9;}
	.st34{fill:#659DE0;}
	.st35{clip-path:url(#SVGID_8_);fill:#385988;}
	.st36{fill:#FFFFFF;}
	.st37{clip-path:url(#SVGID_10_);fill:#385988;}
	.st38{fill:none;stroke:#BEC2C9;stroke-width:0.1965;stroke-miterlimit:10;}
</style>
<g>
	<g>
		
			<image style="overflow:visible;" width="2592" height="3888" xlink:href="ED35D478ECABA7A3.jpg"  transform="matrix(8.447192e-02 0 0 7.195810e-02 337.1655 27.0333)">
		</image>
	</g>
	<linearGradient id="SVGID_1_" gradientUnits="userSpaceOnUse" x1="379.7979" y1="166.9199" x2="556.5694" y2="166.9199">
		<stop  offset="0" style="stop-color:#FFFFFE;stop-opacity:0"/>
		<stop  offset="1" style="stop-color:#FFFFFF"/>
	</linearGradient>
	<rect x="379.8" y="27" class="st0" width="176.8" height="279.8"/>
</g>
<g>
	<g>
		<g>
			<defs>
				
					<rect id="SVGID_7_" x="479.5" y="193" transform="matrix(-1 -3.733796e-03 3.733796e-03 -1 1018.1131 403.6033)" width="59.8" height="15.8"/>
			</defs>
			<clipPath id="SVGID_3_">
				<use xlink:href="#SVGID_7_"  style="overflow:visible;"/>
			</clipPath>
			<path style="clip-path:url(#SVGID_3_);fill:#385988;" d="M480.5,207.2l1.6,0c0.2,0,0.3-0.1,0.3-0.3l0-0.1c0-0.2-0.1-0.3-0.4-0.3
				l-1.5,0L480.5,207.2L480.5,207.2z M479.5,205.7l2.7,0c1,0,1.2,0.4,1.2,1l0,0.2c0,0.4-0.2,0.9-0.9,0.9l-2,0l0,0.7l-1,0
				L479.5,205.7L479.5,205.7z"/>
		</g>
		<path class="st32" d="M484.9,207.2l1.7,0c0.3,0,0.4-0.1,0.4-0.3l0-0.1c0-0.3-0.1-0.3-0.5-0.3l-1.6,0L484.9,207.2L484.9,207.2z
			 M484,205.7l3,0c0.8,0,1,0.3,1,0.9l0,0.2c0,0.4-0.1,0.6-0.6,0.7l0,0c0.3,0,0.5,0.2,0.5,0.6l0,0.5l-1,0l0-0.3
			c0-0.3-0.1-0.4-0.4-0.4l-1.6,0l0,0.7l-1,0L484,205.7L484,205.7z"/>
		<polygon class="st32" points="488.7,205.8 489.7,205.8 489.7,208.6 488.7,208.6 488.7,205.8 		"/>
		<polygon class="st32" points="490.4,205.8 494,205.8 494,206.4 491.4,206.4 491.4,206.9 493.8,206.9 493.8,207.5 491.4,207.5 
			491.4,208 494,208 494,208.7 490.4,208.6 490.4,205.8 		"/>
		<path class="st32" d="M494.6,207.7l1,0c0,0.3,0.1,0.3,0.4,0.3l1.2,0c0.2,0,0.4,0,0.4-0.2c0-0.3-0.1-0.3-1.4-0.3
			c-1.5,0-1.7-0.2-1.7-0.9c0-0.5,0.1-0.9,1.3-0.9l1.4,0c1.2,0,1.3,0.4,1.3,0.9l0,0.1l-1,0c0-0.2,0-0.3-0.5-0.3l-1.1,0
			c-0.2,0-0.4,0.1-0.4,0.2c0,0.3,0.1,0.3,1.2,0.3c1.6,0,1.9,0.1,1.9,0.9c0,0.8-0.3,0.9-1.6,0.9l-1.2,0c-0.9,0-1.3-0.2-1.3-0.8
			L494.6,207.7L494.6,207.7z"/>
		<polygon class="st32" points="499.1,205.8 502.9,205.8 502.9,206.5 501.5,206.5 501.5,208.7 500.5,208.7 500.5,206.5 499.1,206.5 
			499.1,205.8 		"/>
		<polygon class="st32" points="503.3,205.8 506.9,205.8 506.9,206.5 504.3,206.5 504.3,206.9 506.7,207 506.7,207.6 504.3,207.5 
			504.3,208 506.9,208 506.9,208.7 503.3,208.7 503.3,205.8 		"/>
		<path class="st32" d="M508.5,207.2l1.7,0c0.3,0,0.4-0.1,0.4-0.3l0-0.1c0-0.3-0.1-0.3-0.5-0.3l-1.6,0L508.5,207.2L508.5,207.2z
			 M507.6,205.8l3,0c0.8,0,1,0.3,1,0.9l0,0.2c0,0.4-0.1,0.6-0.6,0.7l0,0c0.3,0,0.5,0.2,0.5,0.6l0,0.5l-1,0l0-0.3
			c0-0.3-0.1-0.4-0.4-0.4l-1.6,0l0,0.7l-1,0L507.6,205.8L507.6,205.8z"/>
		<path class="st32" d="M514,206.2l-1.1,1.6l2.2,0L514,206.2L514,206.2z M513.7,205.9l0.5,0l1.9,2.9l-0.5,0l-0.4-0.6l-2.6,0
			l-0.4,0.6l-0.5,0L513.7,205.9L513.7,205.9z"/>
		<polygon class="st32" points="515.5,205.9 516,205.9 517.5,208.4 519.1,205.9 519.6,205.9 517.8,208.8 517.3,208.7 515.5,205.9 		
			"/>
		<polygon class="st32" points="520.1,205.9 520.5,205.9 520.5,208.8 520.1,208.8 520.1,205.9 		"/>
		<path class="st32" d="M523.2,206.2l-1.1,1.6l2.2,0L523.2,206.2L523.2,206.2z M523,205.9l0.5,0l1.9,2.9l-0.5,0l-0.4-0.6l-2.6,0
			l-0.4,0.6l-0.5,0L523,205.9L523,205.9z"/>
		<polygon class="st32" points="526.6,206.2 525,206.2 525,205.9 528.7,205.9 528.7,206.2 527,206.2 527,208.8 526.6,208.8 
			526.6,206.2 		"/>
		<polygon class="st32" points="529.3,205.9 529.7,205.9 529.7,208.8 529.3,208.8 529.3,205.9 		"/>
		<path class="st32" d="M534.2,206.8c0-0.5-0.3-0.6-0.8-0.6l-1.8,0c-0.4,0-0.8,0.1-0.8,0.6l0,1.1c0,0.5,0.3,0.6,0.8,0.6l1.8,0
			c0.4,0,0.8-0.1,0.8-0.6L534.2,206.8L534.2,206.8z M530.4,207c0-0.7,0.3-1.1,1.2-1.1l1.9,0c0.9,0,1.2,0.4,1.2,1.1l0,0.8
			c0,0.7-0.3,1.1-1.2,1.1l-1.9,0c-0.9,0-1.2-0.4-1.2-1.1L530.4,207L530.4,207z"/>
		<g>
			<polygon class="st32" points="535.2,205.9 535.9,205.9 538.9,208.5 538.9,205.9 539.3,205.9 539.3,208.8 538.6,208.8 
				535.7,206.3 535.7,208.8 535.2,208.8 535.2,205.9 			"/>
			<path class="st33" d="M513,200.4c0,0-0.1-0.2-0.1-0.3c0,0,0,0-0.1-0.2c0,0-0.4-0.5-0.5-0.6c0,0-0.3-0.5-0.8-0.6
				c0,0-0.1,0-0.2-0.3c0,0-0.6-1.2-0.7-1.4c-0.1-0.2-0.5-0.9-2.3-1.1c0,0-0.2-0.1,0.4-0.2c0,0,0.7-0.2,1.4,0.1c0,0,0-0.1-0.2-0.3
				c0,0-0.1-0.1,0.4,0c0,0,0.2,0,0.5,0.3c0,0,0-0.1,0-0.1s0.1-0.1,0.3,0c0,0,0.3,0.2,0.5,0.4c0,0,0.1-0.1,0.1-0.1s0.3,0.1,0.6,0.5
				c0,0,0.3,0,0.4,0.2c0,0,0.2,0.2,0.2,0.3c0,0,0.7,0.3,0.7,0.5c0,0,0.4,0.1,0.6,0.6c0,0,0,0,0,0l0.1-0.1c0,0,1-3.6,4.2-5.1
				c0,0,0.2-0.1-0.7,0.7c0,0,0.9-0.4,1.2-0.5c0,0,0.2,0-0.4,0.3c0,0,0.1,0,0.1,0s0.5-0.2,0.7-0.2c0,0,0.4,0,0,0.2c0,0-0.8,0.5-1,0.8
				c0,0,1.5-0.6,1.5-0.6c0,0,0.1,0,0,0.1c0,0-0.3,0.3-0.3,0.3c0,0,0.2,0,0.1,0.1l-0.1,0.1c0,0,0.5,0,0.2,0.2c0,0-0.6,0.5-0.8,0.9
				c0,0,0.6-0.3,0.7-0.1c0,0-0.4,0.3-0.6,0.7c0,0,0.4,0,0.4,0c0,0-0.1,0.3-0.5,0.6c0,0,0,0.1,0,0.2l0,0c0,0,0.1,0,0,0.2
				c0,0-0.2,0.3-0.3,0.4c0,0.1,0.5,0,0.7,0.1c0,0,0.2,0.1,0,0.2c0,0-0.2,0.1-0.2,0.1c0,0-0.1,0,0.3,0.1c0,0,0.2,0.1-0.1,0.2
				c0,0-0.1,0-0.1,0.1c0,0,0.1,0.1,0.2,0.1c0,0,0,0-0.1,0.1c0,0-0.1,0,0.1,0.2c0,0,0,0-0.1,0.2c0,0,0,0.1-0.1,0.2c0,0-0.1,0-0.1,0
				s0,0,0.1,0.1c0,0,0,0.1,0,0.1c0,0,0,0.1,0,0.1c0,0,0,0.1,0,0.2c0,0,0,0.1,0,0.1c0,0,0.2,0.1,0.1,0.2c0,0-0.2,0.2-0.3,0.2
				c0,0-0.1,0.1,0.1,0.2c0,0,0.1,0.1,0,0.1c0,0,0,0-0.1,0.1c0,0,0,0,0,0s0,0.1,0,0.1c0,0,0,0.1-0.3,0.1c0,0-0.1,0-0.1,0.1
				c0,0,0,0.3-0.2,0.3c0,0-0.1,0.1-0.1,0.3c0,0,0,0-0.4,0c0,0,0,0.1-0.1,0.1c0,0-0.2,0-0.3,0c0,0,0,0.1-0.2,0.2c0,0-0.4,0-0.5,0
				c0,0,0.1,0.2,0.4,0.4c0,0,0.5,0.3,0.6,0.7c0,0,0,0.2,0.6,0.6c0,0,1,0.7,1.1,1.5c0,0-1.5,0-2.4-0.8c0,0-0.5-0.4-0.7-0.3
				c0,0-0.1,0-0.3,0.1c0,0,0,0.1,0,0.1s0.1,0.2,0.2,0.3c0,0,0.2,0.2-0.2,0.3c0,0-0.1,0-0.2,0c0,0,0.2-0.1,0.1-0.2c0,0-0.1-0.1-0.2,0
				c0,0-0.2,0.1,0.1,0.3c0,0-0.5,0.1-0.6,0c0,0,0,0,0,0s-0.1,0-0.2-0.1c0,0-0.1,0-0.1-0.1c0,0-0.1-0.1-0.1-0.2c0,0,0-0.1,0.4-0.2
				c0.1,0,0.1-0.1,0.2-0.2c0,0,0.1-0.2,0.1-0.2s-0.2,0-0.4,0c0,0-0.2,0.1-0.4,0.3c0,0,0.1,0.5-0.2,0.6c0,0-0.1,0-0.1,0
				s0.2-0.2,0-0.3c0,0-0.1-0.1-0.2,0.1c0,0,0,0.2,0.2,0.2c0,0-0.2,0.2-0.6,0c0,0-0.2,0-0.2-0.1c0,0-0.2,0-0.2-0.1c0,0-0.1,0,0-0.1
				c0,0-0.1,0,0-0.1c0,0,0.5-0.3,0.9-0.5c0,0,0.1-0.1,0.2-0.3c0,0,0-0.1-0.1-0.2c0,0-0.1-0.1,0-0.2c0,0,0,0,0-0.2c0,0,0-0.1-0.1-0.1
				c0,0-0.1,0.1-0.1,0.1c0,0-0.4-0.4-0.5-0.5c0,0-0.2-0.2-0.4-0.2c0,0-0.1,0-0.1,0c0,0,0,0,0,0s-0.3,0-0.6,0.2c0,0-0.1,0.1-0.2,0.2
				c0,0,0,0-0.1,0c0,0-0.2,0.2-0.3,0.5c0,0-0.4-0.1-0.4-0.6c0,0,0-0.1,0-0.1s-0.2-0.5,0.3-1c0,0,0.5-0.5,0.7-0.9c0,0,0.1-0.1,0.1,0
				c0,0,0,0,0,0s0.1-0.1,0.1-0.2c0,0,0,0,0.1,0c0.1,0,0-0.1,0-0.1c0,0,0.1-0.1,0.1-0.1S513,200.5,513,200.4L513,200.4z"/>
		</g>
	</g>
</g>
<g>
	<g>
		<rect x="315.4" y="172.2" class="st36" width="99" height="56.6"/>
		<g>
			<g>
				<defs>
					
						<rect id="SVGID_9_" x="372.5" y="179.5" transform="matrix(-1 -6.084979e-04 6.084979e-04 -1 779.4028 368.4137)" width="34.4" height="9.1"/>
				</defs>
				<clipPath id="SVGID_4_">
					<use xlink:href="#SVGID_9_"  style="overflow:visible;"/>
				</clipPath>
				<path style="clip-path:url(#SVGID_4_);fill:#385988;" d="M373.1,187.8l0.9,0c0.1,0,0.2-0.1,0.2-0.2l0-0.1c0-0.1-0.1-0.2-0.2-0.2
					l-0.8,0L373.1,187.8L373.1,187.8z M372.5,186.9l1.6,0c0.5,0,0.7,0.2,0.7,0.6l0,0.1c0,0.2-0.1,0.5-0.5,0.5l-1.1,0l0,0.4l-0.6,0
					L372.5,186.9L372.5,186.9z"/>
			</g>
			<path class="st32" d="M375.7,187.8l1,0c0.2,0,0.2-0.1,0.2-0.2l0-0.1c0-0.1-0.1-0.2-0.3-0.2l-0.9,0L375.7,187.8L375.7,187.8z
				 M375.1,186.9l1.7,0c0.4,0,0.6,0.2,0.6,0.5l0,0.1c0,0.2-0.1,0.4-0.3,0.4v0c0.2,0,0.3,0.1,0.3,0.4l0,0.3l-0.6,0l0-0.2
				c0-0.2-0.1-0.2-0.2-0.2l-0.9,0l0,0.4l-0.6,0L375.1,186.9L375.1,186.9z"/>
			<polygon class="st32" points="377.8,186.9 378.4,186.9 378.4,188.6 377.8,188.6 377.8,186.9 			"/>
			<polygon class="st32" points="378.8,187 380.9,187 380.9,187.3 379.4,187.3 379.4,187.6 380.8,187.6 380.8,187.9 379.4,187.9 
				379.4,188.2 380.9,188.2 380.9,188.6 378.8,188.6 378.8,187 			"/>
			<path class="st32" d="M381.2,188.1l0.6,0c0,0.2,0.1,0.2,0.2,0.2l0.7,0c0.1,0,0.2,0,0.2-0.1c0-0.1-0.1-0.2-0.8-0.2
				c-0.9,0-1-0.1-1-0.5c0-0.3,0-0.5,0.8-0.5l0.8,0c0.7,0,0.7,0.2,0.7,0.5l0,0.1l-0.6,0c0-0.1,0-0.2-0.3-0.2l-0.6,0
				c-0.1,0-0.2,0-0.2,0.1c0,0.1,0.1,0.1,0.7,0.1c0.9,0,1.1,0,1.1,0.5c0,0.4-0.2,0.5-0.9,0.5l-0.7,0c-0.5,0-0.7-0.1-0.7-0.4
				L381.2,188.1L381.2,188.1z"/>
			<polygon class="st32" points="383.8,187 386,187 386,187.4 385.2,187.4 385.2,188.6 384.6,188.6 384.6,187.4 383.8,187.4 
				383.8,187 			"/>
			<polygon class="st32" points="386.2,187 388.3,187 388.3,187.3 386.8,187.3 386.8,187.6 388.2,187.6 388.2,188 386.8,188 
				386.8,188.2 388.3,188.2 388.3,188.6 386.2,188.6 386.2,187 			"/>
			<path class="st32" d="M389.3,187.8l1,0c0.2,0,0.2-0.1,0.2-0.2l0-0.1c0-0.1-0.1-0.2-0.3-0.2l-0.9,0L389.3,187.8L389.3,187.8z
				 M388.7,187l1.7,0c0.4,0,0.6,0.2,0.6,0.5l0,0.1c0,0.2-0.1,0.4-0.3,0.4v0c0.2,0,0.3,0.1,0.3,0.4l0,0.3l-0.6,0l0-0.2
				c0-0.2-0.1-0.2-0.2-0.2l-0.9,0l0,0.4l-0.6,0L388.7,187L388.7,187z"/>
			<path class="st32" d="M392.4,187.1l-0.6,0.9l1.3,0L392.4,187.1L392.4,187.1z M392.2,187l0.3,0l1.1,1.7l-0.3,0l-0.2-0.4l-1.5,0
				l-0.2,0.4l-0.3,0L392.2,187L392.2,187z"/>
			<polygon class="st32" points="393.2,187 393.5,187 394.4,188.4 395.3,187 395.6,187 394.6,188.6 394.3,188.6 393.2,187 			"/>
			<polygon class="st32" points="395.9,187 396.1,187 396.1,188.6 395.9,188.6 395.9,187 			"/>
			<path class="st32" d="M397.7,187.1l-0.6,0.9l1.3,0L397.7,187.1L397.7,187.1z M397.6,187l0.3,0l1.1,1.7l-0.3,0l-0.2-0.4l-1.5,0
				l-0.2,0.4l-0.3,0L397.6,187L397.6,187z"/>
			<polygon class="st32" points="399.7,187.1 398.7,187.1 398.7,187 400.9,187 400.9,187.1 399.9,187.1 399.9,188.6 399.6,188.6 
				399.7,187.1 			"/>
			<polygon class="st32" points="401.2,187 401.5,187 401.5,188.6 401.2,188.6 401.2,187 			"/>
			<path class="st32" d="M404,187.5c0-0.3-0.2-0.4-0.4-0.4l-1,0c-0.2,0-0.4,0.1-0.4,0.4l0,0.6c0,0.3,0.2,0.4,0.4,0.4l1,0
				c0.2,0,0.4-0.1,0.4-0.4L404,187.5L404,187.5z M401.9,187.6c0-0.4,0.2-0.6,0.7-0.6l1.1,0c0.5,0,0.7,0.2,0.7,0.6l0,0.5
				c0,0.4-0.2,0.6-0.7,0.6l-1.1,0c-0.5,0-0.7-0.2-0.7-0.6L401.9,187.6L401.9,187.6z"/>
			<g>
				<polygon class="st32" points="404.6,187 405,187 406.7,188.4 406.7,187 407,187 407,188.6 406.6,188.6 404.9,187.2 404.9,188.6 
					404.6,188.6 404.6,187 				"/>
				<path class="st33" d="M391.8,183.8c0,0,0-0.1-0.1-0.2c0,0,0,0-0.1-0.1c0,0-0.2-0.3-0.3-0.3c0,0-0.2-0.3-0.4-0.4c0,0,0,0-0.1-0.2
					c0,0-0.3-0.7-0.4-0.8c-0.1-0.1-0.3-0.5-1.3-0.6c0,0-0.1-0.1,0.2-0.1c0,0,0.4-0.1,0.8,0.1c0,0,0,0-0.1-0.2c0,0,0-0.1,0.2,0
					c0,0,0.1,0,0.3,0.1c0,0,0-0.1,0-0.1s0,0,0.2,0c0,0,0.2,0.1,0.3,0.2c0,0,0-0.1,0-0.1s0.2,0.1,0.4,0.3c0,0,0.2,0,0.3,0.1
					c0,0,0.1,0.1,0.1,0.2c0,0,0.4,0.2,0.4,0.3c0,0,0.2,0,0.4,0.3c0,0,0,0,0,0l0.1,0c0,0,0.6-2.1,2.4-2.9c0,0,0.1,0-0.4,0.4
					c0,0,0.5-0.2,0.7-0.3c0,0,0.1,0-0.2,0.2c0,0,0,0,0,0s0.3-0.1,0.4-0.1c0,0,0.2,0,0,0.1c0,0-0.4,0.3-0.6,0.5c0,0,0.8-0.3,0.9-0.3
					c0,0,0.1,0,0,0.1c0,0-0.2,0.1-0.2,0.2c0,0,0.1,0,0.1,0l-0.1,0.1c0,0,0.3,0,0.1,0.1c0,0-0.3,0.3-0.5,0.5c0,0,0.4-0.2,0.4,0
					c0,0-0.2,0.2-0.3,0.4c0,0,0.2,0,0.3,0c0,0-0.1,0.2-0.3,0.4c0,0,0,0.1,0,0.1l0,0c0,0,0.1,0,0,0.1c0,0-0.1,0.2-0.1,0.2
					c0,0.1,0.3,0,0.4,0.1c0,0,0.1,0,0,0.1c0,0-0.1,0.1-0.1,0.1c0,0-0.1,0,0.2,0.1c0,0,0.1,0.1,0,0.1c0,0-0.1,0-0.1,0.1
					c0,0,0,0,0.1,0c0,0,0,0,0,0.1c0,0,0,0,0.1,0.1c0,0,0,0,0,0.1c0,0,0,0.1-0.1,0.1c0,0,0,0,0,0s0,0,0,0c0,0,0,0.1,0,0.1
					c0,0,0,0,0,0.1c0,0,0,0.1,0,0.1c0,0,0,0,0,0.1c0,0,0.1,0.1,0,0.1c0,0-0.1,0.1-0.2,0.1c0,0,0,0,0,0.1c0,0,0.1,0,0,0.1
					c0,0,0,0-0.1,0c0,0,0,0,0,0s0,0.1,0,0.1c0,0,0,0-0.2,0.1c0,0-0.1,0-0.1,0.1c0,0,0,0.2-0.1,0.2c0,0,0,0.1,0,0.1c0,0,0,0-0.2,0
					c0,0,0,0,0,0.1c0,0-0.1,0-0.2,0c0,0,0,0.1-0.1,0.1c0,0-0.2,0-0.3,0c0,0,0,0.1,0.2,0.2c0,0,0.3,0.2,0.4,0.4c0,0,0,0.1,0.4,0.3
					c0,0,0.6,0.4,0.7,0.9c0,0-0.9,0-1.4-0.5c0,0-0.3-0.2-0.4-0.2c0,0-0.1,0-0.1,0.1c0,0,0,0,0,0s0.1,0.1,0.1,0.1
					c0,0,0.1,0.1-0.1,0.2c0,0-0.1,0-0.1,0c0,0,0.1-0.1,0.1-0.1c0,0,0-0.1-0.1,0c0,0-0.1,0.1,0.1,0.2c0,0-0.3,0.1-0.4,0c0,0,0,0,0,0
					s-0.1,0-0.1,0c0,0-0.1,0-0.1,0c0,0-0.1-0.1-0.1-0.1c0,0,0,0,0.2-0.1c0.1,0,0.1-0.1,0.1-0.1c0,0,0-0.1,0-0.1s-0.1,0-0.2,0
					c0,0-0.1,0-0.2,0.2c0,0,0.1,0.3-0.1,0.4c0,0,0,0,0,0s0.1-0.1,0-0.1c0,0-0.1,0-0.1,0c0,0,0,0.1,0.1,0.1c0,0-0.1,0.1-0.3,0
					c0,0-0.1,0-0.1,0c0,0-0.1,0-0.1-0.1c0,0,0,0,0,0c0,0,0,0,0-0.1c0,0,0.3-0.2,0.5-0.3c0,0,0.1-0.1,0.1-0.2c0,0,0,0-0.1-0.1
					c0,0,0,0,0-0.1c0,0,0,0,0-0.1c0,0,0,0-0.1,0c0,0,0,0,0,0.1c0,0-0.2-0.2-0.3-0.3c0,0-0.1-0.1-0.2-0.1c0,0,0,0-0.1,0c0,0,0,0,0,0
					s-0.2,0-0.3,0.1c0,0-0.1,0.1-0.1,0.1c0,0,0,0-0.1,0c0,0-0.1,0.1-0.2,0.3c0,0-0.3,0-0.2-0.3c0,0,0,0,0,0s-0.1-0.3,0.2-0.6
					c0,0,0.3-0.3,0.4-0.5c0,0,0-0.1,0.1,0c0,0,0,0,0,0s0-0.1,0.1-0.1c0,0,0,0,0,0c0,0,0,0,0-0.1c0,0,0,0,0,0
					S391.8,183.9,391.8,183.8L391.8,183.8z"/>
			</g>
		</g>
		<g>
			<g>
				<g>
					<path class="st32" d="M375.6,210l-0.9,0l0-0.1l0.5-0.5c0.1-0.1,0.2-0.2,0.2-0.4c0-0.2-0.1-0.3-0.3-0.3c-0.2,0-0.3,0.1-0.3,0.2
						l-0.1-0.1c0-0.1,0.2-0.3,0.4-0.3c0.3,0,0.5,0.2,0.5,0.4c0,0.2-0.2,0.4-0.3,0.5l-0.3,0.3l0.7,0L375.6,210z"/>
					<path class="st32" d="M376.8,209.7l-0.2,0l0,0.3l-0.2,0l0-0.3l-0.7,0l0-0.1l0.7-0.9l0.2,0l0,0.9l0.2,0L376.8,209.7z
						 M376.4,209.5l0-0.7l-0.5,0.7L376.4,209.5z"/>
					<path class="st32" d="M377.9,208.5l-0.8,1.7l-0.1-0.1l0.8-1.7L377.9,208.5z"/>
					<path class="st32" d="M379.1,208.7l-0.7,1.2l-0.2,0l0.6-1.2l-0.8,0l0-0.2l0.9,0L379.1,208.7z"/>
					<path class="st32" d="M382.1,209.1l-0.6,0l0,0.6l-0.1,0l0-0.6l-0.6,0l0-0.1l0.6,0l0-0.6l0.1,0l0,0.6l0.6,0L382.1,209.1z"/>
					<path class="st32" d="M383.1,210l-0.1,0l0-1.8l-0.4,0l0-0.1l0.5,0L383.1,210z"/>
					<path class="st32" d="M385.1,210c-0.3,0-0.5-0.2-0.6-0.3l0.1-0.1c0.1,0.1,0.2,0.3,0.5,0.3s0.5-0.2,0.5-0.5
						c0-0.3-0.2-0.5-0.5-0.5c-0.1,0-0.3,0-0.3,0.1l-0.1-0.1l0.2-0.9l0.9,0l0,0.1l-0.7,0l-0.1,0.6c0.1,0,0.2-0.1,0.3-0.1
						c0.3,0,0.6,0.2,0.6,0.6C385.7,209.8,385.4,210,385.1,210z"/>
					<path class="st32" d="M386.7,210c-0.3,0-0.5-0.2-0.6-0.3l0.1-0.1c0.1,0.1,0.2,0.3,0.5,0.3c0.2,0,0.5-0.2,0.5-0.5
						c0-0.3-0.2-0.5-0.5-0.5c-0.1,0-0.3,0-0.3,0.1l-0.1-0.1l0.2-0.9l0.9,0l0,0.1l-0.7,0l-0.1,0.6c0.1,0,0.2-0.1,0.3-0.1
						c0.3,0,0.6,0.2,0.6,0.6C387.4,209.8,387.1,210,386.7,210z"/>
					<path class="st32" d="M388.4,210c-0.3,0-0.5-0.2-0.6-0.3l0.1-0.1c0.1,0.1,0.2,0.3,0.5,0.3c0.2,0,0.5-0.2,0.5-0.5
						c0-0.3-0.2-0.5-0.5-0.5c-0.1,0-0.3,0-0.3,0.1L388,209l0.2-0.9l0.9,0l0,0.1l-0.7,0l-0.1,0.6c0.1,0,0.2-0.1,0.3-0.1
						c0.3,0,0.6,0.2,0.6,0.6C389,209.8,388.7,210,388.4,210z"/>
					<path class="st32" d="M390.7,210c-0.3,0-0.5-0.2-0.6-0.3l0.1-0.1c0.1,0.1,0.2,0.3,0.5,0.3c0.2,0,0.5-0.2,0.5-0.5
						c0-0.3-0.2-0.5-0.5-0.5c-0.1,0-0.3,0-0.3,0.1l-0.1-0.1l0.2-0.9l0.9,0l0,0.1l-0.7,0l-0.1,0.6c0.1,0,0.2-0.1,0.3-0.1
						c0.3,0,0.6,0.2,0.6,0.6C391.3,209.8,391,210,390.7,210z"/>
					<path class="st32" d="M392.3,210c-0.3,0-0.5-0.2-0.6-0.3l0.1-0.1c0.1,0.1,0.2,0.3,0.5,0.3c0.2,0,0.5-0.2,0.5-0.5
						c0-0.3-0.2-0.5-0.5-0.5c-0.1,0-0.3,0-0.3,0.1l-0.1-0.1l0.2-0.9l0.9,0l0,0.1l-0.7,0l-0.1,0.6c0.1,0,0.2-0.1,0.3-0.1
						c0.3,0,0.6,0.2,0.6,0.6C393,209.8,392.7,210,392.3,210z"/>
					<path class="st32" d="M394,210c-0.3,0-0.5-0.2-0.6-0.3l0.1-0.1c0.1,0.1,0.2,0.3,0.5,0.3c0.2,0,0.5-0.2,0.5-0.5
						c0-0.3-0.2-0.5-0.5-0.5c-0.1,0-0.3,0-0.3,0.1l-0.1-0.1l0.2-0.9l0.9,0l0,0.1l-0.7,0l-0.1,0.6c0.1,0,0.2-0.1,0.3-0.1
						c0.3,0,0.6,0.2,0.6,0.6S394.3,210,394,210z"/>
					<path class="st32" d="M396.3,210c-0.3,0-0.5-0.2-0.6-0.3l0.1-0.1c0.1,0.1,0.2,0.3,0.5,0.3c0.2,0,0.5-0.2,0.5-0.5
						c0-0.3-0.2-0.5-0.5-0.5c-0.1,0-0.3,0-0.3,0.1l-0.1-0.1l0.2-0.9l0.9,0l0,0.1l-0.7,0l-0.1,0.6c0.1,0,0.2-0.1,0.3-0.1
						c0.3,0,0.6,0.2,0.6,0.6C396.9,209.8,396.6,210,396.3,210z"/>
					<path class="st32" d="M397.9,210c-0.3,0-0.5-0.2-0.6-0.3l0.1-0.1c0.1,0.1,0.2,0.3,0.5,0.3c0.2,0,0.5-0.2,0.5-0.5
						c0-0.3-0.2-0.5-0.5-0.5c-0.1,0-0.3,0-0.3,0.1l-0.1-0.1l0.2-0.9l0.9,0l0,0.1l-0.7,0l-0.1,0.6c0.1,0,0.2-0.1,0.3-0.1
						c0.3,0,0.6,0.2,0.6,0.6S398.3,210,397.9,210z"/>
					<path class="st32" d="M399.6,210c-0.3,0-0.5-0.2-0.6-0.3l0.1-0.1c0.1,0.1,0.2,0.3,0.5,0.3c0.2,0,0.5-0.2,0.5-0.5
						c0-0.3-0.2-0.5-0.5-0.5c-0.1,0-0.3,0-0.3,0.1l-0.1-0.1l0.2-0.9l0.9,0l0,0.1l-0.7,0l-0.1,0.6c0.1,0,0.2-0.1,0.3-0.1
						c0.3,0,0.6,0.2,0.6,0.6C400.2,209.8,399.9,210,399.6,210z"/>
					<path class="st32" d="M401.2,210c-0.3,0-0.5-0.2-0.6-0.3l0.1-0.1c0.1,0.1,0.2,0.3,0.5,0.3s0.5-0.2,0.5-0.5
						c0-0.3-0.2-0.5-0.5-0.5c-0.1,0-0.3,0-0.3,0.1l-0.1-0.1l0.2-0.9l0.9,0l0,0.1l-0.7,0l-0.1,0.6c0.1,0,0.2-0.1,0.3-0.1
						c0.3,0,0.6,0.2,0.6,0.6C401.9,209.8,401.6,210,401.2,210z"/>
					<path class="st32" d="M376.3,213.7c-0.1,0.2-0.4,0.3-0.7,0.3c-0.6,0-1-0.4-1-1c0-0.6,0.4-1,1-1c0.3,0,0.6,0.1,0.7,0.3l-0.1,0.1
						c-0.1-0.1-0.3-0.3-0.6-0.3c-0.5,0-0.8,0.3-0.8,0.8s0.3,0.8,0.8,0.8C375.8,213.8,376,213.7,376.3,213.7L376.3,213.7z"/>
					<path class="st32" d="M377.7,213.9l-0.1,0l0-0.8c0-0.2,0-0.4-0.3-0.4c-0.3,0-0.4,0.2-0.4,0.5l0,0.6l-0.1,0l0-1.9l0.1,0l0,0.9
						c0.1-0.2,0.2-0.3,0.4-0.3c0.4,0,0.5,0.2,0.5,0.5L377.7,213.9z"/>
					<path class="st32" d="M378.3,212.3c-0.1,0-0.1-0.1-0.1-0.1c0-0.1,0.1-0.1,0.1-0.1s0.1,0.1,0.1,0.1
						C378.4,212.2,378.4,212.3,378.3,212.3z M378.4,213.9l-0.1,0l0-1.3l0.1,0L378.4,213.9z"/>
					<path class="st32" d="M380,213.7c0,0.1-0.2,0.2-0.5,0.2c-0.3,0-0.6-0.3-0.6-0.7c0-0.4,0.3-0.7,0.6-0.7c0.3,0,0.5,0.2,0.5,0.2
						l-0.1,0.1c-0.1-0.1-0.2-0.2-0.4-0.2c-0.3,0-0.5,0.2-0.5,0.5c0,0.3,0.2,0.5,0.5,0.5C379.7,213.8,379.9,213.6,380,213.7
						L380,213.7z"/>
					<path class="st32" d="M381.2,213.9l-0.1,0l0-0.2c0,0.1-0.2,0.2-0.4,0.2c-0.2,0-0.4-0.2-0.4-0.4c0-0.2,0.2-0.4,0.5-0.4l0.3,0
						l0-0.1c0-0.2-0.2-0.3-0.4-0.3c-0.2,0-0.3,0.1-0.4,0.1l-0.1-0.1c0.1-0.1,0.2-0.1,0.4-0.1c0.2,0,0.3,0.1,0.4,0.1
						c0.1,0.1,0.1,0.2,0.1,0.4L381.2,213.9z M381,213.3l-0.4,0c-0.3,0-0.4,0.1-0.4,0.3c0,0.1,0.1,0.3,0.3,0.3c0.2,0,0.3-0.1,0.4-0.2
						L381,213.3z"/>
					<path class="st32" d="M382.8,213.6c0,0.3,0,0.4-0.1,0.6c-0.1,0.1-0.2,0.3-0.6,0.3c-0.3,0-0.5-0.2-0.5-0.2l0.1-0.1
						c0.1,0.1,0.3,0.2,0.5,0.2c0.2,0,0.3-0.1,0.4-0.2c0.1-0.1,0.1-0.2,0.1-0.4l0-0.1c-0.1,0.2-0.3,0.3-0.5,0.3
						c-0.3,0-0.6-0.3-0.6-0.6c0-0.4,0.3-0.6,0.6-0.6c0.2,0,0.4,0.1,0.5,0.3l0-0.2l0.1,0L382.8,213.6z M382.2,212.7
						c-0.3,0-0.5,0.2-0.5,0.5c0,0.3,0.2,0.5,0.5,0.5c0.3,0,0.5-0.2,0.5-0.5C382.7,213,382.5,212.7,382.2,212.7z"/>
					<path class="st32" d="M383.9,213.9c-0.4,0-0.7-0.3-0.7-0.7c0-0.4,0.3-0.7,0.7-0.7c0.4,0,0.7,0.3,0.7,0.7
						C384.6,213.7,384.3,213.9,383.9,213.9z M383.9,212.7c-0.3,0-0.5,0.2-0.5,0.5c0,0.3,0.2,0.5,0.5,0.5c0.3,0,0.5-0.2,0.5-0.5
						C384.4,213,384.2,212.7,383.9,212.7z"/>
					<path class="st32" d="M386.7,213.9l-1.1,0l0-1.9l1,0l0,0.1l-0.9,0l0,0.7l0.8,0l0,0.1l-0.8,0l0,0.8l0.9,0L386.7,213.9z"/>
					<path class="st32" d="M388.2,213.9l-0.2,0l-0.4-0.6l-0.4,0.6l-0.2,0l0.5-0.7l-0.5-0.6l0.2,0l0.4,0.5l0.4-0.5l0.2,0l-0.5,0.6
						L388.2,213.9z"/>
					<path class="st32" d="M389.6,213.3l-1,0c0,0.3,0.2,0.5,0.5,0.5c0.3,0,0.4-0.2,0.4-0.2l0.1,0.1c0,0-0.2,0.2-0.5,0.2
						c-0.4,0-0.6-0.3-0.6-0.7c0-0.4,0.3-0.7,0.6-0.7C389.3,212.6,389.6,212.9,389.6,213.3C389.6,213.3,389.6,213.3,389.6,213.3z
						 M389.4,213.2c0-0.2-0.1-0.4-0.4-0.4c-0.3,0-0.4,0.3-0.5,0.4L389.4,213.2z"/>
					<path class="st32" d="M391,213.7c0,0.1-0.2,0.2-0.5,0.2c-0.3,0-0.6-0.3-0.6-0.7c0-0.4,0.3-0.7,0.6-0.7c0.3,0,0.5,0.2,0.5,0.2
						l-0.1,0.1c-0.1-0.1-0.2-0.2-0.4-0.2c-0.3,0-0.5,0.2-0.5,0.5c0,0.3,0.2,0.5,0.5,0.5C390.8,213.8,391,213.6,391,213.7L391,213.7z
						"/>
					<path class="st32" d="M392.4,213.9l-0.1,0l0-0.2c-0.1,0.2-0.2,0.2-0.4,0.2c-0.2,0-0.3-0.1-0.3-0.1c-0.1-0.1-0.1-0.2-0.1-0.4
						l0-0.8l0.1,0l0,0.8c0,0.2,0,0.4,0.3,0.4c0.3,0,0.4-0.2,0.4-0.5l0-0.7l0.1,0L392.4,213.9z"/>
					<path class="st32" d="M393.4,213.9c0,0-0.1,0-0.2,0c-0.1,0-0.2-0.1-0.2-0.1c0-0.1,0-0.2,0-0.4l0-0.6l-0.2,0l0-0.1l0.2,0l0-0.4
						l0.1,0l0,0.4l0.3,0l0,0.1l-0.3,0l0,0.7c0,0.1,0,0.3,0.2,0.3c0.1,0,0.1,0,0.1,0L393.4,213.9z"/>
					<path class="st32" d="M393.9,212.3c-0.1,0-0.1-0.1-0.1-0.1s0.1-0.1,0.1-0.1c0.1,0,0.1,0.1,0.1,0.1S393.9,212.3,393.9,212.3z
						 M393.9,213.9l-0.1,0l0-1.3l0.1,0L393.9,213.9z"/>
					<path class="st32" d="M395.5,212.6l-0.5,1.3l-0.1,0l-0.5-1.3l0.2,0l0.4,1.1l0.4-1.1L395.5,212.6z"/>
					<path class="st32" d="M396.9,213.3l-1,0c0,0.3,0.2,0.5,0.5,0.5c0.3,0,0.4-0.2,0.4-0.2l0.1,0.1c0,0-0.2,0.2-0.5,0.2
						c-0.4,0-0.6-0.3-0.6-0.7c0-0.4,0.3-0.7,0.6-0.7C396.6,212.6,396.9,212.9,396.9,213.3C396.9,213.3,396.9,213.3,396.9,213.3z
						 M396.7,213.2c0-0.2-0.1-0.4-0.4-0.4c-0.3,0-0.4,0.3-0.5,0.4L396.7,213.2z"/>
					<path class="st32" d="M399.4,213.9l-0.2,0l-0.2-0.6l-0.9,0l-0.2,0.6l-0.2,0l0.8-1.9l0.1,0L399.4,213.9z M399,213.2l-0.4-1
						l-0.4,1L399,213.2z"/>
					<path class="st32" d="M399.9,212.3c-0.1,0-0.1-0.1-0.1-0.1c0-0.1,0.1-0.1,0.1-0.1s0.1,0.1,0.1,0.1S399.9,212.3,399.9,212.3z
						 M399.9,213.9l-0.1,0l0-1.3l0.1,0L399.9,213.9z"/>
					<path class="st32" d="M401.1,212.8c0,0-0.1,0-0.1,0c-0.1,0-0.2,0.1-0.2,0.1c0,0-0.1,0.1-0.1,0.4l0,0.7l-0.1,0l0-1.3l0.1,0
						l0,0.2c0-0.2,0.2-0.3,0.3-0.3c0.1,0,0.1,0,0.1,0L401.1,212.8z"/>
					<path class="st32" d="M402,214c-0.2,0-0.4-0.1-0.5-0.3l0,0.8l-0.1,0l0-1.8l0.1,0l0,0.2c0.1-0.2,0.3-0.3,0.5-0.3
						c0.4,0,0.6,0.3,0.6,0.7C402.7,213.7,402.4,214,402,214z M402,212.8c-0.3,0-0.5,0.2-0.5,0.5c0,0.3,0.2,0.5,0.5,0.5
						c0.3,0,0.5-0.2,0.5-0.5C402.5,213,402.3,212.8,402,212.8z"/>
					<path class="st32" d="M403.7,214c-0.4,0-0.7-0.3-0.7-0.7c0-0.4,0.3-0.7,0.7-0.7c0.4,0,0.7,0.3,0.7,0.7S404,214,403.7,214z
						 M403.7,212.8c-0.3,0-0.5,0.2-0.5,0.5c0,0.3,0.2,0.5,0.5,0.5c0.3,0,0.5-0.2,0.5-0.5C404.2,213,404,212.8,403.7,212.8z"/>
					<path class="st32" d="M405.3,212.8c0,0-0.1,0-0.1,0c-0.1,0-0.2,0.1-0.2,0.1c0,0-0.1,0.1-0.1,0.4l0,0.7l-0.1,0l0-1.3l0.1,0
						l0,0.2c0-0.2,0.2-0.3,0.3-0.3c0.1,0,0.1,0,0.1,0L405.3,212.8z"/>
					<path class="st32" d="M406.2,213.9c0,0-0.1,0-0.2,0c-0.1,0-0.2-0.1-0.2-0.1c0-0.1,0-0.2,0-0.4l0-0.6l-0.2,0l0-0.1l0.2,0l0-0.4
						l0.1,0l0,0.4l0.3,0l0,0.1l-0.3,0l0,0.7c0,0.1,0,0.3,0.2,0.3c0.1,0,0.1,0,0.1,0L406.2,213.9z"/>
					<path class="st32" d="M375.2,217.8l-0.1,0l0-1.8l-0.4,0l0-0.1l0.5,0L375.2,217.8z"/>
					<path class="st32" d="M376.5,217.9c-0.5,0-0.7-0.5-0.7-1c0-0.5,0.2-1,0.7-1c0.5,0,0.7,0.5,0.7,1
						C377.2,217.4,377,217.9,376.5,217.9z M376.5,216c-0.3,0-0.5,0.3-0.5,0.8s0.2,0.8,0.5,0.8c0.3,0,0.5-0.3,0.5-0.8
						S376.9,216,376.5,216z"/>
					<path class="st32" d="M378.2,217.9c-0.4,0-0.5-0.3-0.6-0.3c0-0.1-0.1-0.3-0.1-0.6c0-0.3,0.1-0.6,0.2-0.8
						c0.1-0.2,0.3-0.3,0.5-0.3c0.3,0,0.5,0.2,0.5,0.2l-0.1,0.1c-0.1-0.1-0.2-0.2-0.4-0.2c-0.2,0-0.3,0.1-0.4,0.2
						c-0.1,0.1-0.2,0.4-0.2,0.7c0.1-0.2,0.2-0.4,0.5-0.4c0.3,0,0.6,0.2,0.6,0.6C378.8,217.6,378.6,217.9,378.2,217.9z M378.2,216.8
						c-0.3,0-0.5,0.2-0.5,0.5c0,0.2,0.2,0.5,0.5,0.5c0.3,0,0.5-0.2,0.5-0.5C378.7,217,378.5,216.8,378.2,216.8z"/>
					<path class="st32" d="M379.7,217.8l-0.1,0l0-1.8l-0.4,0l0-0.1l0.5,0L379.7,217.8z"/>
					<path class="st32" d="M381.7,217.9c-0.4,0-0.5-0.3-0.6-0.3l0.1-0.1c0.1,0.1,0.2,0.3,0.5,0.3c0.2,0,0.4-0.2,0.4-0.4
						c0-0.2-0.3-0.3-0.4-0.4c-0.1,0-0.2-0.1-0.3-0.1c-0.1,0-0.3-0.2-0.3-0.4c0-0.3,0.2-0.5,0.6-0.5c0.3,0,0.5,0.2,0.5,0.2l-0.1,0.1
						c-0.1-0.1-0.2-0.2-0.4-0.2s-0.4,0.1-0.4,0.3c0,0.2,0.1,0.3,0.3,0.4c0.1,0.1,0.3,0.1,0.4,0.2c0,0,0.3,0.2,0.3,0.4
						S382,217.9,381.7,217.9z"/>
					<path class="st32" d="M383.3,217.9c-0.4,0-0.7-0.3-0.7-0.7c0-0.4,0.3-0.7,0.7-0.7c0.4,0,0.7,0.3,0.7,0.7
						C383.9,217.6,383.6,217.9,383.3,217.9z M383.3,216.7c-0.3,0-0.5,0.2-0.5,0.5c0,0.3,0.2,0.5,0.5,0.5c0.3,0,0.5-0.2,0.5-0.5
						C383.8,216.9,383.6,216.7,383.3,216.7z"/>
					<path class="st32" d="M385.3,217.8l-0.1,0l0-0.2c-0.1,0.2-0.2,0.2-0.4,0.2c-0.2,0-0.3-0.1-0.3-0.1c-0.1-0.1-0.1-0.2-0.1-0.4
						l0-0.8l0.1,0l0,0.8c0,0.2,0,0.4,0.3,0.4c0.3,0,0.4-0.2,0.4-0.5l0-0.7l0.1,0L385.3,217.8z"/>
					<path class="st32" d="M386.4,217.8c0,0-0.1,0-0.2,0c-0.1,0-0.2-0.1-0.2-0.1c0-0.1,0-0.2,0-0.4l0-0.6l-0.2,0l0-0.1l0.2,0l0-0.4
						l0.1,0l0,0.4l0.3,0l0,0.1l-0.3,0l0,0.7c0,0.1,0,0.3,0.2,0.3c0.1,0,0.1,0,0.1,0L386.4,217.8z"/>
					<path class="st32" d="M387.7,217.9l-0.1,0l0-0.8c0-0.2,0-0.4-0.3-0.4c-0.3,0-0.4,0.2-0.4,0.5l0,0.6l-0.1,0l0-1.9l0.1,0l0,0.9
						c0.1-0.2,0.2-0.3,0.4-0.3c0.4,0,0.5,0.2,0.5,0.5L387.7,217.9z"/>
					<path class="st32" d="M391.2,216l-0.6,1.9l-0.1,0l-0.5-1.7l-0.5,1.7l-0.1,0l-0.6-1.9l0.2,0l0.5,1.6l0.5-1.6l0.2,0l0.5,1.6
						l0.5-1.6L391.2,216z"/>
					<path class="st32" d="M392.1,217.9c-0.4,0-0.7-0.3-0.7-0.7c0-0.4,0.3-0.7,0.7-0.7c0.4,0,0.7,0.3,0.7,0.7
						S392.5,217.9,392.1,217.9z M392.1,216.7c-0.3,0-0.5,0.2-0.5,0.5c0,0.3,0.2,0.5,0.5,0.5c0.3,0,0.5-0.2,0.5-0.5
						C392.6,216.9,392.4,216.7,392.1,216.7z"/>
					<path class="st32" d="M393.3,217.9l-0.1,0l0-1.9l0.1,0L393.3,217.9z"/>
					<path class="st32" d="M394.4,216.1c0,0-0.1,0-0.1,0c-0.2,0-0.2,0.2-0.2,0.3l0,0.2l0.3,0l0,0.1l-0.3,0l0,1.1l-0.1,0l0-1.1
						l-0.2,0l0-0.1l0.2,0l0-0.2c0-0.2,0-0.3,0.1-0.3c0-0.1,0.1-0.1,0.3-0.1c0.1,0,0.2,0,0.2,0L394.4,216.1z"/>
					<path class="st32" d="M396.5,217.9l-0.2,0l-0.6-0.9l-0.2,0l0,0.9l-0.1,0l0-1.9l0.4,0c0.4,0,0.6,0.2,0.6,0.5
						c0,0.3-0.2,0.5-0.5,0.5L396.5,217.9z M396.1,216.2c-0.1-0.1-0.2-0.1-0.4-0.1l-0.2,0l0,0.7l0.2,0c0.2,0,0.3,0,0.4-0.1
						c0.1-0.1,0.1-0.2,0.1-0.3C396.2,216.3,396.2,216.2,396.1,216.2z"/>
					<path class="st32" d="M397.3,217.9c-0.4,0-0.7-0.3-0.7-0.7c0-0.4,0.3-0.7,0.7-0.7c0.4,0,0.7,0.3,0.7,0.7
						C398,217.6,397.7,217.9,397.3,217.9z M397.3,216.7c-0.3,0-0.5,0.2-0.5,0.5c0,0.3,0.2,0.5,0.5,0.5c0.3,0,0.5-0.2,0.5-0.5
						C397.8,216.9,397.6,216.7,397.3,216.7z"/>
					<path class="st32" d="M399.3,217.9l-0.1,0l0-0.2c0,0.1-0.2,0.2-0.4,0.2s-0.4-0.2-0.4-0.4c0-0.2,0.2-0.4,0.5-0.4l0.3,0l0-0.1
						c0-0.2-0.2-0.3-0.4-0.3c-0.2,0-0.3,0.1-0.4,0.1l-0.1-0.1c0.1-0.1,0.2-0.1,0.4-0.1c0.2,0,0.3,0.1,0.4,0.1
						c0.1,0.1,0.1,0.2,0.1,0.4L399.3,217.9z M399.2,217.2l-0.4,0c-0.3,0-0.4,0.1-0.4,0.3c0,0.1,0.1,0.3,0.3,0.3
						c0.2,0,0.3-0.1,0.4-0.2L399.2,217.2z"/>
					<path class="st32" d="M400.3,216.6c0.2,0,0.4,0.1,0.5,0.3l0-0.9l0.1,0l0,1.9l-0.1,0l0-0.2c-0.1,0.2-0.3,0.3-0.5,0.3
						c-0.4,0-0.6-0.3-0.6-0.7C399.7,216.8,399.9,216.6,400.3,216.6z M400.3,217.8c0.3,0,0.5-0.2,0.5-0.5c0-0.3-0.2-0.5-0.5-0.5
						c-0.3,0-0.5,0.2-0.5,0.5C399.8,217.5,400,217.8,400.3,217.8z"/>
					<path class="st32" d="M377,219.9l-0.6,1.9l-0.1,0l-0.5-1.7l-0.5,1.7l-0.1,0l-0.6-1.9l0.2,0l0.5,1.6l0.5-1.6l0.2,0l0.5,1.6
						l0.5-1.6L377,219.9z"/>
					<path class="st32" d="M378.3,221.8l-0.1,0l0-0.8c0-0.2,0-0.4-0.3-0.4c-0.3,0-0.4,0.2-0.4,0.5l0,0.6l-0.1,0l0-1.9l0.1,0l0,0.9
						c0.1-0.2,0.2-0.3,0.4-0.3c0.4,0,0.5,0.2,0.5,0.5L378.3,221.8z"/>
					<path class="st32" d="M379.9,221.2l-1,0c0,0.3,0.2,0.5,0.5,0.5c0.3,0,0.4-0.2,0.4-0.2l0.1,0.1c0,0-0.2,0.2-0.5,0.2
						c-0.4,0-0.6-0.3-0.6-0.7c0-0.4,0.3-0.7,0.6-0.7C379.7,220.5,379.9,220.7,379.9,221.2C379.9,221.1,379.9,221.2,379.9,221.2z
						 M379.8,221c0-0.2-0.1-0.4-0.4-0.4c-0.3,0-0.4,0.3-0.5,0.4L379.8,221z"/>
					<path class="st32" d="M381.4,221.2l-1,0c0,0.3,0.2,0.5,0.5,0.5c0.3,0,0.4-0.2,0.4-0.2l0.1,0.1c0,0-0.2,0.2-0.5,0.2
						s-0.6-0.3-0.6-0.7c0-0.4,0.3-0.7,0.6-0.7C381.2,220.5,381.5,220.7,381.4,221.2C381.5,221.1,381.4,221.2,381.4,221.2z
						 M381.3,221c0-0.2-0.1-0.4-0.4-0.4c-0.3,0-0.4,0.3-0.5,0.4L381.3,221z"/>
					<path class="st32" d="M382,221.8l-0.1,0l0-1.9l0.1,0L382,221.8z"/>
					<path class="st32" d="M382.6,220.2c-0.1,0-0.1-0.1-0.1-0.1c0-0.1,0.1-0.1,0.1-0.1c0.1,0,0.1,0.1,0.1,0.1
						C382.8,220.1,382.7,220.2,382.6,220.2z M382.7,221.8l-0.1,0l0-1.3l0.1,0L382.7,221.8z"/>
					<path class="st32" d="M384.3,221.8l-0.1,0l0-0.8c0-0.2,0-0.4-0.3-0.4c-0.3,0-0.4,0.2-0.4,0.5l0,0.6l-0.1,0l0-1.3l0.1,0l0,0.2
						c0.1-0.2,0.2-0.3,0.4-0.3c0.4,0,0.5,0.2,0.5,0.5L384.3,221.8z"/>
					<path class="st32" d="M385.9,221.5c0,0.3,0,0.4-0.1,0.6c-0.1,0.1-0.2,0.3-0.6,0.3c-0.3,0-0.5-0.2-0.5-0.2l0.1-0.1
						c0.1,0.1,0.3,0.2,0.5,0.2c0.2,0,0.3-0.1,0.4-0.2c0.1-0.1,0.1-0.2,0.1-0.4l0-0.1c-0.1,0.2-0.3,0.3-0.5,0.3
						c-0.3,0-0.6-0.3-0.6-0.6c0-0.4,0.3-0.6,0.6-0.6c0.2,0,0.4,0.1,0.5,0.3l0-0.2l0.1,0L385.9,221.5z M385.3,220.6
						c-0.3,0-0.5,0.2-0.5,0.5c0,0.3,0.2,0.5,0.5,0.5c0.3,0,0.5-0.2,0.5-0.5C385.8,220.8,385.6,220.6,385.3,220.6z"/>
					<path class="st32" d="M386.8,221.6l-0.2,0.6l-0.1,0l0.2-0.6L386.8,221.6z"/>
					<path class="st32" d="M388.2,221.8l-0.1,0l0-1.9l0.1,0L388.2,221.8z"/>
					<path class="st32" d="M389.6,221.8l-0.8,0l0-1.9l0.1,0l0,1.8l0.7,0L389.6,221.8z"/>
					<path class="st32" d="M391.2,221.8c-0.4,0-0.5-0.3-0.6-0.3c0-0.1-0.1-0.3-0.1-0.6c0-0.3,0.1-0.6,0.2-0.8
						c0.1-0.2,0.3-0.3,0.5-0.3c0.3,0,0.5,0.2,0.5,0.2l-0.1,0.1c-0.1-0.1-0.2-0.2-0.4-0.2c-0.2,0-0.3,0.1-0.4,0.2
						c-0.1,0.1-0.2,0.4-0.2,0.7c0.1-0.2,0.2-0.4,0.5-0.4c0.3,0,0.6,0.2,0.6,0.6C391.8,221.5,391.6,221.8,391.2,221.8z M391.2,220.7
						c-0.3,0-0.5,0.2-0.5,0.5c0,0.2,0.2,0.5,0.5,0.5c0.3,0,0.5-0.2,0.5-0.5C391.6,221,391.5,220.7,391.2,220.7z"/>
					<path class="st32" d="M392.8,221.8c-0.5,0-0.7-0.5-0.7-1c0-0.5,0.2-1,0.7-1c0.5,0,0.7,0.5,0.7,1
						C393.5,221.3,393.3,221.8,392.8,221.8z M392.8,220c-0.3,0-0.5,0.3-0.5,0.8c0,0.5,0.2,0.8,0.5,0.8c0.3,0,0.5-0.3,0.5-0.8
						S393.1,220,392.8,220z"/>
					<path class="st32" d="M394.5,221.8c-0.5,0-0.7-0.5-0.7-1c0-0.5,0.2-1,0.7-1c0.5,0,0.7,0.5,0.7,1
						C395.1,221.3,394.9,221.8,394.5,221.8z M394.5,220c-0.3,0-0.5,0.3-0.5,0.8s0.2,0.8,0.5,0.8c0.3,0,0.5-0.3,0.5-0.8
						C395,220.3,394.8,220,394.5,220z"/>
					<path class="st32" d="M396.5,221.6c-0.1,0.2-0.3,0.3-0.5,0.3c-0.3,0-0.5-0.2-0.5-0.2l0.1-0.1c0.1,0.1,0.3,0.2,0.4,0.2
						c0.2,0,0.3-0.1,0.4-0.2c0.1-0.1,0.2-0.4,0.2-0.8c-0.1,0.2-0.2,0.4-0.5,0.4c-0.3,0-0.6-0.2-0.6-0.6c0-0.4,0.2-0.6,0.6-0.6
						s0.5,0.3,0.6,0.3c0,0.1,0.1,0.3,0.1,0.6C396.7,221.1,396.6,221.4,396.5,221.6z M396.1,220c-0.3,0-0.5,0.2-0.5,0.5
						c0,0.2,0.1,0.5,0.5,0.5c0.3,0,0.5-0.2,0.5-0.5C396.5,220.2,396.4,220,396.1,220z"/>
					<path class="st32" d="M397.8,221.8c-0.5,0-0.7-0.5-0.7-1c0-0.5,0.2-1,0.7-1c0.5,0,0.7,0.5,0.7,1
						C398.4,221.3,398.2,221.8,397.8,221.8z M397.8,220c-0.3,0-0.5,0.3-0.5,0.8s0.2,0.8,0.5,0.8s0.5-0.3,0.5-0.8
						S398.1,220,397.8,220z"/>
				</g>
			</g>
		</g>
		<line class="st38" x1="372.5" y1="208.1" x2="372.5" y2="221.8"/>
		<g>
			<path class="st32" d="M325.6,209.8c-0.1,0.1-0.3,0.2-0.5,0.2l-0.4,0l0-1.4l0.4,0c0.2,0,0.4,0.1,0.5,0.2c0.1,0.1,0.2,0.2,0.2,0.5
				C325.8,209.5,325.7,209.7,325.6,209.8z M325.4,208.9c-0.1-0.1-0.2-0.1-0.4-0.1l-0.2,0l0,1l0.2,0c0.2,0,0.3-0.1,0.4-0.1
				c0.1-0.1,0.2-0.2,0.2-0.4S325.5,209,325.4,208.9z"/>
			<path class="st32" d="M326.3,210l-0.2,0l0-1.4l0.2,0L326.3,210z"/>
			<path class="st32" d="M327.6,210l-0.2,0l-0.4-0.6l-0.1,0l0,0.6l-0.2,0l0-1.4l0.4,0c0.1,0,0.2,0,0.3,0.1c0.1,0.1,0.1,0.2,0.1,0.3
				c0,0.2-0.2,0.3-0.3,0.4L327.6,210z M327.2,208.8c-0.1,0-0.1,0-0.2,0l-0.1,0l0,0.5l0.1,0c0.1,0,0.2,0,0.2,0c0.1,0,0.1-0.1,0.1-0.2
				C327.3,208.9,327.3,208.8,327.2,208.8z"/>
			<path class="st32" d="M328.6,210l-0.8,0l0-1.4l0.8,0l0,0.2l-0.6,0l0,0.4l0.6,0l0,0.2l-0.6,0l0,0.5l0.6,0L328.6,210z"/>
			<path class="st32" d="M330,209.8c-0.1,0.1-0.2,0.2-0.5,0.2c-0.4,0-0.7-0.3-0.7-0.7c0-0.4,0.3-0.7,0.7-0.7c0.3,0,0.4,0.1,0.5,0.2
				l-0.1,0.2c-0.1-0.1-0.2-0.2-0.4-0.2c-0.3,0-0.5,0.2-0.5,0.5c0,0.3,0.2,0.5,0.5,0.5c0.2,0,0.3-0.1,0.4-0.2L330,209.8z"/>
			<path class="st32" d="M331.1,208.8l-0.4,0l0,1.2l-0.2,0l0-1.2l-0.4,0l0-0.2l1,0L331.1,208.8z"/>
			<path class="st32" d="M334.1,209.1l-0.6,0l0,0.6l-0.1,0l0-0.6l-0.6,0l0-0.1l0.6,0l0-0.6l0.1,0l0,0.6l0.6,0L334.1,209.1z"/>
			<path class="st32" d="M335.1,210l-0.1,0l0-1.8l-0.4,0l0-0.1l0.5,0L335.1,210z"/>
			<path class="st32" d="M337,210c-0.3,0-0.5-0.2-0.6-0.3l0.1-0.1c0.1,0.1,0.2,0.3,0.5,0.3c0.2,0,0.5-0.2,0.5-0.5
				c0-0.3-0.2-0.5-0.5-0.5c-0.1,0-0.3,0-0.3,0.1l-0.1-0.1l0.2-0.9l0.9,0l0,0.1l-0.7,0l-0.1,0.6c0.1,0,0.2-0.1,0.3-0.1
				c0.3,0,0.6,0.2,0.6,0.6C337.7,209.8,337.4,210,337,210z"/>
			<path class="st32" d="M338.7,210c-0.3,0-0.5-0.2-0.6-0.3l0.1-0.1c0.1,0.1,0.2,0.3,0.5,0.3c0.2,0,0.5-0.2,0.5-0.5
				c0-0.3-0.2-0.5-0.5-0.5c-0.1,0-0.3,0-0.3,0.1l-0.1-0.1l0.2-0.9l0.9,0l0,0.1l-0.7,0l-0.1,0.6c0.1,0,0.2-0.1,0.3-0.1
				c0.3,0,0.6,0.2,0.6,0.6C339.3,209.8,339,210,338.7,210z"/>
			<path class="st32" d="M340.3,210c-0.3,0-0.5-0.2-0.6-0.3l0.1-0.1c0.1,0.1,0.2,0.3,0.5,0.3c0.2,0,0.5-0.2,0.5-0.5
				c0-0.3-0.2-0.5-0.5-0.5c-0.1,0-0.3,0-0.3,0.1l-0.1-0.1l0.2-0.9l0.9,0l0,0.1l-0.7,0l-0.1,0.6c0.1,0,0.2-0.1,0.3-0.1
				c0.3,0,0.6,0.2,0.6,0.6S340.7,210,340.3,210z"/>
			<path class="st32" d="M342.6,210c-0.3,0-0.5-0.2-0.6-0.3l0.1-0.1c0.1,0.1,0.2,0.3,0.5,0.3s0.5-0.2,0.5-0.5c0-0.3-0.2-0.5-0.5-0.5
				c-0.1,0-0.3,0-0.3,0.1l-0.1-0.1l0.2-0.9l0.9,0l0,0.1l-0.7,0l-0.1,0.6c0.1,0,0.2-0.1,0.3-0.1c0.3,0,0.6,0.2,0.6,0.6
				C343.3,209.8,343,210,342.6,210z"/>
			<path class="st32" d="M344.3,210c-0.3,0-0.5-0.2-0.6-0.3l0.1-0.1c0.1,0.1,0.2,0.3,0.5,0.3c0.2,0,0.5-0.2,0.5-0.5
				c0-0.3-0.2-0.5-0.5-0.5c-0.1,0-0.3,0-0.3,0.1l-0.1-0.1l0.2-0.9l0.9,0l0,0.1l-0.7,0l-0.1,0.6c0.1,0,0.2-0.1,0.3-0.1
				c0.3,0,0.6,0.2,0.6,0.6S344.6,210,344.3,210z"/>
			<path class="st32" d="M345.9,210c-0.3,0-0.5-0.2-0.6-0.3l0.1-0.1c0.1,0.1,0.2,0.3,0.5,0.3c0.2,0,0.5-0.2,0.5-0.5
				c0-0.3-0.2-0.5-0.5-0.5c-0.1,0-0.3,0-0.3,0.1l-0.1-0.1l0.2-0.9l0.9,0l0,0.1l-0.7,0l-0.1,0.6c0.1,0,0.2-0.1,0.3-0.1
				c0.3,0,0.6,0.2,0.6,0.6C346.6,209.8,346.3,210,345.9,210z"/>
			<path class="st32" d="M348.2,210c-0.3,0-0.5-0.2-0.6-0.3l0.1-0.1c0.1,0.1,0.2,0.3,0.5,0.3c0.2,0,0.5-0.2,0.5-0.5
				s-0.2-0.5-0.5-0.5c-0.1,0-0.3,0-0.3,0.1l-0.1-0.1l0.2-0.9l0.9,0l0,0.1l-0.7,0l-0.1,0.6c0.1,0,0.2-0.1,0.3-0.1
				c0.3,0,0.6,0.2,0.6,0.6S348.6,210,348.2,210z"/>
			<path class="st32" d="M349.9,210c-0.3,0-0.5-0.2-0.6-0.3l0.1-0.1c0.1,0.1,0.2,0.3,0.5,0.3c0.2,0,0.5-0.2,0.5-0.5
				c0-0.3-0.2-0.5-0.5-0.5c-0.1,0-0.3,0-0.3,0.1l-0.1-0.1l0.2-0.9l0.9,0l0,0.1l-0.7,0l-0.1,0.6c0.1,0,0.2-0.1,0.3-0.1
				c0.3,0,0.6,0.2,0.6,0.6C350.5,209.8,350.2,210,349.9,210z"/>
			<path class="st32" d="M351.5,210c-0.3,0-0.5-0.2-0.6-0.3l0.1-0.1c0.1,0.1,0.2,0.3,0.5,0.3s0.5-0.2,0.5-0.5c0-0.3-0.2-0.5-0.5-0.5
				c-0.1,0-0.3,0-0.3,0.1l-0.1-0.1l0.2-0.9l0.9,0l0,0.1l-0.7,0l-0.1,0.6c0.1,0,0.2-0.1,0.3-0.1c0.3,0,0.6,0.2,0.6,0.6
				C352.2,209.8,351.9,210,351.5,210z"/>
			<path class="st32" d="M353.2,210c-0.3,0-0.5-0.2-0.6-0.3l0.1-0.1c0.1,0.1,0.2,0.3,0.5,0.3c0.2,0,0.5-0.2,0.5-0.5
				s-0.2-0.5-0.5-0.5c-0.1,0-0.3,0-0.3,0.1l-0.1-0.1l0.2-0.9l0.9,0l0,0.1l-0.7,0l-0.1,0.6c0.1,0,0.2-0.1,0.3-0.1
				c0.3,0,0.6,0.2,0.6,0.6C353.8,209.8,353.5,210,353.2,210z"/>
			<path class="st32" d="M326.1,213.9l-0.2,0l-0.1-1.1h0l-0.4,1.1l-0.1,0l-0.4-1.1h0l-0.1,1.1l-0.2,0l0.1-1.4l0.2,0l0.4,1l0,0l0.4-1
				l0.2,0L326.1,213.9z"/>
			<path class="st32" d="M327,213.9c-0.4,0-0.7-0.3-0.7-0.7c0-0.4,0.3-0.7,0.7-0.7c0.4,0,0.7,0.3,0.7,0.7
				C327.7,213.6,327.4,213.9,327,213.9z M327,212.7c-0.3,0-0.5,0.2-0.5,0.5c0,0.3,0.2,0.5,0.5,0.5c0.3,0,0.5-0.2,0.5-0.5
				C327.5,212.9,327.3,212.7,327,212.7z"/>
			<path class="st32" d="M328.8,213.8c-0.1,0.1-0.2,0.1-0.3,0.1l-0.4,0l0-1.4l0.4,0c0.1,0,0.2,0,0.3,0.1c0.1,0.1,0.1,0.1,0.1,0.3
				c0,0.1-0.1,0.3-0.2,0.3v0c0.2,0,0.3,0.2,0.3,0.3C328.9,213.6,328.9,213.7,328.8,213.8z M328.6,212.7c0,0-0.1,0-0.2,0l-0.2,0
				l0,0.4l0.2,0c0.1,0,0.2,0,0.2,0c0,0,0.1-0.1,0.1-0.2C328.7,212.8,328.6,212.7,328.6,212.7z M328.7,213.3c-0.1,0-0.2,0-0.2,0
				l-0.2,0l0,0.5l0.2,0c0.1,0,0.2,0,0.2,0s0.1-0.1,0.1-0.2C328.8,213.4,328.7,213.3,328.7,213.3z"/>
			<path class="st32" d="M329.4,213.9l-0.2,0l0-1.4l0.2,0L329.4,213.9z"/>
			<path class="st32" d="M330.5,213.9l-0.7,0l0-1.4l0.2,0l0,1.2l0.5,0L330.5,213.9z"/>
			<path class="st32" d="M331.5,213.9l-0.8,0l0-1.4l0.8,0l0,0.2l-0.6,0l0,0.4l0.6,0l0,0.2l-0.6,0l0,0.5l0.6,0L331.5,213.9z"/>
			<path class="st32" d="M334.6,213l-0.6,0l0,0.6l-0.1,0l0-0.6l-0.6,0l0-0.1l0.6,0l0-0.6l0.1,0l0,0.6l0.6,0L334.6,213z"/>
			<path class="st32" d="M335.6,213.9l-0.1,0l0-1.8l-0.4,0l0-0.1l0.5,0L335.6,213.9z"/>
			<path class="st32" d="M337.5,213.9c-0.3,0-0.5-0.2-0.6-0.3l0.1-0.1c0.1,0.1,0.2,0.3,0.5,0.3c0.2,0,0.5-0.2,0.5-0.5
				c0-0.3-0.2-0.5-0.5-0.5c-0.1,0-0.3,0-0.3,0.1l-0.1-0.1l0.2-0.9l0.9,0l0,0.1l-0.7,0l-0.1,0.6c0.1,0,0.2-0.1,0.3-0.1
				c0.3,0,0.6,0.2,0.6,0.6C338.2,213.7,337.9,213.9,337.5,213.9z"/>
			<path class="st32" d="M339.2,213.9c-0.3,0-0.5-0.2-0.6-0.3l0.1-0.1c0.1,0.1,0.2,0.3,0.5,0.3c0.2,0,0.5-0.2,0.5-0.5
				c0-0.3-0.2-0.5-0.5-0.5c-0.1,0-0.3,0-0.3,0.1l-0.1-0.1l0.2-0.9l0.9,0l0,0.1l-0.7,0l-0.1,0.6c0.1,0,0.2-0.1,0.3-0.1
				c0.3,0,0.6,0.2,0.6,0.6C339.8,213.7,339.5,213.9,339.2,213.9z"/>
			<path class="st32" d="M340.8,213.9c-0.3,0-0.5-0.2-0.6-0.3l0.1-0.1c0.1,0.1,0.2,0.3,0.5,0.3s0.5-0.2,0.5-0.5
				c0-0.3-0.2-0.5-0.5-0.5c-0.1,0-0.3,0-0.3,0.1l-0.1-0.1l0.2-0.9l0.9,0l0,0.1l-0.7,0l-0.1,0.6c0.1,0,0.2-0.1,0.3-0.1
				c0.3,0,0.6,0.2,0.6,0.6C341.5,213.7,341.2,213.9,340.8,213.9z"/>
			<path class="st32" d="M343.1,213.9c-0.3,0-0.5-0.2-0.6-0.3l0.1-0.1c0.1,0.1,0.2,0.3,0.5,0.3c0.2,0,0.5-0.2,0.5-0.5
				c0-0.3-0.2-0.5-0.5-0.5c-0.1,0-0.3,0-0.3,0.1l-0.1-0.1l0.2-0.9l0.9,0l0,0.1l-0.7,0l-0.1,0.6c0.1,0,0.2-0.1,0.3-0.1
				c0.3,0,0.6,0.2,0.6,0.6C343.8,213.7,343.5,213.9,343.1,213.9z"/>
			<path class="st32" d="M344.8,213.9c-0.3,0-0.5-0.2-0.6-0.3l0.1-0.1c0.1,0.1,0.2,0.3,0.5,0.3c0.2,0,0.5-0.2,0.5-0.5
				c0-0.3-0.2-0.5-0.5-0.5c-0.1,0-0.3,0-0.3,0.1l-0.1-0.1l0.2-0.9l0.9,0l0,0.1l-0.7,0l-0.1,0.6c0.1,0,0.2-0.1,0.3-0.1
				c0.3,0,0.6,0.2,0.6,0.6C345.4,213.7,345.1,213.9,344.8,213.9z"/>
			<path class="st32" d="M346.4,213.9c-0.3,0-0.5-0.2-0.6-0.3l0.1-0.1c0.1,0.1,0.2,0.3,0.5,0.3s0.5-0.2,0.5-0.5s-0.2-0.5-0.5-0.5
				c-0.1,0-0.3,0-0.3,0.1l-0.1-0.1l0.2-0.9l0.9,0l0,0.1l-0.7,0l-0.1,0.6c0.1,0,0.2-0.1,0.3-0.1c0.3,0,0.6,0.2,0.6,0.6
				S346.8,213.9,346.4,213.9z"/>
			<path class="st32" d="M348.7,213.9c-0.3,0-0.5-0.2-0.6-0.3l0.1-0.1c0.1,0.1,0.2,0.3,0.5,0.3c0.2,0,0.5-0.2,0.5-0.5
				c0-0.3-0.2-0.5-0.5-0.5c-0.1,0-0.3,0-0.3,0.1l-0.1-0.1l0.2-0.9l0.9,0l0,0.1l-0.7,0l-0.1,0.6c0.1,0,0.2-0.1,0.3-0.1
				c0.3,0,0.6,0.2,0.6,0.6C349.4,213.7,349.1,213.9,348.7,213.9z"/>
			<path class="st32" d="M350.4,213.9c-0.3,0-0.5-0.2-0.6-0.3l0.1-0.1c0.1,0.1,0.2,0.3,0.5,0.3s0.5-0.2,0.5-0.5s-0.2-0.5-0.5-0.5
				c-0.1,0-0.3,0-0.3,0.1l-0.1-0.1l0.2-0.9l0.9,0l0,0.1l-0.7,0l-0.1,0.6c0.1,0,0.2-0.1,0.3-0.1c0.3,0,0.6,0.2,0.6,0.6
				S350.7,213.9,350.4,213.9z"/>
			<path class="st32" d="M352,213.9c-0.3,0-0.5-0.2-0.6-0.3l0.1-0.1c0.1,0.1,0.2,0.3,0.5,0.3c0.2,0,0.5-0.2,0.5-0.5
				c0-0.3-0.2-0.5-0.5-0.5c-0.1,0-0.3,0-0.3,0.1l-0.1-0.1l0.2-0.9l0.9,0l0,0.1l-0.7,0l-0.1,0.6c0.1,0,0.2-0.1,0.3-0.1
				c0.3,0,0.6,0.2,0.6,0.6C352.7,213.7,352.4,213.9,352,213.9z"/>
			<path class="st32" d="M353.7,213.9c-0.3,0-0.5-0.2-0.6-0.3l0.1-0.1c0.1,0.1,0.2,0.3,0.5,0.3c0.2,0,0.5-0.2,0.5-0.5
				c0-0.3-0.2-0.5-0.5-0.5c-0.1,0-0.3,0-0.3,0.1l-0.1-0.1l0.2-0.9l0.9,0l0,0.1l-0.7,0l-0.1,0.6c0.1,0,0.2-0.1,0.3-0.1
				c0.3,0,0.6,0.2,0.6,0.6C354.4,213.7,354,213.9,353.7,213.9z"/>
			<path class="st32" d="M325.8,217.2l-1,0c0,0.3,0.2,0.5,0.5,0.5c0.3,0,0.4-0.2,0.4-0.2l0.1,0.1c0,0-0.2,0.2-0.5,0.2
				s-0.6-0.3-0.6-0.7c0-0.4,0.3-0.7,0.6-0.7C325.6,216.5,325.8,216.8,325.8,217.2C325.8,217.2,325.8,217.2,325.8,217.2z
				 M325.6,217.1c0-0.2-0.1-0.4-0.4-0.4c-0.3,0-0.4,0.3-0.5,0.4L325.6,217.1z"/>
			<path class="st32" d="M327.9,217.8l-0.1,0l0-0.8c0-0.2,0-0.4-0.3-0.4c-0.2,0-0.4,0.2-0.4,0.5l0,0.7l-0.1,0l0-0.8
				c0-0.2-0.1-0.4-0.3-0.4c-0.2,0-0.4,0.2-0.4,0.5l0,0.7l-0.1,0l0-1.3l0.1,0l0,0.2c0.1-0.1,0.2-0.3,0.4-0.3c0.2,0,0.3,0.1,0.4,0.3
				c0.1-0.2,0.2-0.3,0.4-0.3c0.4,0,0.4,0.3,0.4,0.5L327.9,217.8z"/>
			<path class="st32" d="M329.3,217.8l-0.1,0l0-0.2c0,0.1-0.2,0.2-0.4,0.2c-0.2,0-0.4-0.2-0.4-0.4c0-0.2,0.2-0.4,0.5-0.4l0.4,0
				l0-0.1c0-0.2-0.2-0.3-0.4-0.3c-0.2,0-0.3,0.1-0.4,0.1l-0.1-0.1c0.1-0.1,0.2-0.1,0.4-0.1c0.2,0,0.3,0.1,0.4,0.1
				c0.1,0.1,0.1,0.2,0.1,0.4L329.3,217.8z M329.2,217.2l-0.4,0c-0.3,0-0.4,0.1-0.4,0.3c0,0.1,0.1,0.3,0.3,0.3c0.2,0,0.3-0.1,0.4-0.2
				L329.2,217.2z"/>
			<path class="st32" d="M329.9,216.2c-0.1,0-0.1-0.1-0.1-0.1c0-0.1,0.1-0.1,0.1-0.1c0.1,0,0.1,0.1,0.1,0.1
				C330,216.2,330,216.2,329.9,216.2z M330,217.8l-0.1,0l0-1.3l0.1,0L330,217.8z"/>
			<path class="st32" d="M330.7,217.8l-0.1,0l0-1.9l0.1,0L330.7,217.8z"/>
			<path class="st32" d="M332.2,217.8l-0.1,0l0-0.8c0-0.2,0-0.4-0.3-0.4c-0.3,0-0.4,0.2-0.4,0.5l0,0.6l-0.1,0l0-1.3l0.1,0l0,0.2
				c0.1-0.2,0.2-0.3,0.4-0.3c0.4,0,0.5,0.2,0.5,0.5L332.2,217.8z"/>
			<path class="st32" d="M333.6,217.8l-0.1,0l0-0.2c0,0.1-0.2,0.2-0.4,0.2s-0.4-0.2-0.4-0.4c0-0.2,0.2-0.4,0.5-0.4l0.3,0l0-0.1
				c0-0.2-0.2-0.3-0.4-0.3c-0.2,0-0.3,0.1-0.4,0.1l-0.1-0.1c0.1-0.1,0.2-0.1,0.4-0.1c0.2,0,0.3,0.1,0.4,0.1c0.1,0.1,0.1,0.2,0.1,0.4
				L333.6,217.8z M333.5,217.2l-0.4,0c-0.3,0-0.4,0.1-0.4,0.3s0.1,0.3,0.3,0.3c0.2,0,0.3-0.1,0.4-0.2L333.5,217.2z"/>
			<path class="st32" d="M335.8,217.8l-0.1,0l0-0.8c0-0.2,0-0.4-0.3-0.4c-0.2,0-0.4,0.2-0.4,0.5l0,0.7l-0.1,0l0-0.8
				c0-0.2-0.1-0.4-0.3-0.4c-0.2,0-0.4,0.2-0.4,0.5l0,0.7l-0.1,0l0-1.3l0.1,0l0,0.2c0.1-0.1,0.2-0.3,0.4-0.3c0.2,0,0.3,0.1,0.4,0.3
				c0.1-0.2,0.2-0.3,0.4-0.3c0.4,0,0.4,0.3,0.4,0.5L335.8,217.8z"/>
			<path class="st32" d="M337.4,217.2l-1,0c0,0.3,0.2,0.5,0.5,0.5c0.3,0,0.4-0.2,0.4-0.2l0.1,0.1c0,0-0.2,0.2-0.5,0.2
				c-0.4,0-0.6-0.3-0.6-0.7c0-0.4,0.3-0.7,0.6-0.7C337.2,216.5,337.5,216.8,337.4,217.2C337.5,217.2,337.4,217.2,337.4,217.2z
				 M337.3,217.1c0-0.2-0.1-0.4-0.4-0.4c-0.3,0-0.4,0.3-0.5,0.4L337.3,217.1z"/>
			<path class="st32" d="M339.1,217.8c-0.2,0-0.2-0.1-0.2-0.2c-0.2,0.2-0.3,0.2-0.4,0.2c-0.1,0-0.3-0.1-0.3-0.4
				c0-0.3,0.3-0.8,0.6-0.8c0.2,0,0.3,0.2,0.3,0.2l0-0.1l0.1,0l-0.3,0.8c0,0.1,0,0.1,0,0.1c0,0.1,0,0.1,0.1,0.1
				c0.2,0,0.5-0.3,0.5-0.7c0-0.4-0.3-0.7-0.8-0.7c-0.5,0-0.9,0.4-0.9,0.9c0,0.5,0.4,0.9,0.8,0.9s0.8-0.2,0.8-0.2l0.1,0.1
				c0,0-0.3,0.3-0.8,0.3s-1-0.4-1-1c0-0.6,0.5-1,1-1c0.5,0,0.9,0.4,0.9,0.8C339.7,217.5,339.4,217.8,339.1,217.8z M339.1,216.9
				c0,0,0-0.2-0.3-0.2c-0.3,0-0.5,0.4-0.5,0.7c0,0.3,0.1,0.3,0.2,0.3c0.1,0,0.3-0.1,0.4-0.4L339.1,216.9z"/>
			<path class="st32" d="M340.8,217.8c-0.2,0-0.4-0.1-0.5-0.3l0,0.8l-0.1,0l0-1.8l0.1,0l0,0.2c0.1-0.2,0.3-0.3,0.5-0.3
				c0.4,0,0.6,0.3,0.6,0.7C341.4,217.6,341.2,217.8,340.8,217.8z M340.8,216.6c-0.3,0-0.5,0.2-0.5,0.5c0,0.3,0.2,0.5,0.5,0.5
				c0.3,0,0.5-0.2,0.5-0.5C341.3,216.9,341.1,216.6,340.8,216.6z"/>
			<path class="st32" d="M342.5,216.7c0,0-0.1,0-0.1,0c-0.1,0-0.2,0.1-0.2,0.1c0,0-0.1,0.1-0.1,0.4l0,0.7l-0.1,0l0-1.3l0.1,0l0,0.2
				c0-0.2,0.2-0.3,0.3-0.3c0.1,0,0.1,0,0.1,0L342.5,216.7z"/>
			<path class="st32" d="M342.9,216.2c-0.1,0-0.1-0.1-0.1-0.1c0-0.1,0.1-0.1,0.1-0.1c0.1,0,0.1,0.1,0.1,0.1
				C343,216.2,343,216.2,342.9,216.2z M343,217.8l-0.1,0l0-1.3l0.1,0L343,217.8z"/>
			<path class="st32" d="M344.6,217.2l-1,0c0,0.3,0.2,0.5,0.5,0.5c0.3,0,0.4-0.2,0.4-0.2l0.1,0.1c0,0-0.2,0.2-0.5,0.2
				c-0.4,0-0.6-0.3-0.6-0.7c0-0.4,0.3-0.7,0.6-0.7C344.4,216.5,344.6,216.8,344.6,217.2C344.6,217.2,344.6,217.2,344.6,217.2z
				 M344.5,217.1c0-0.2-0.1-0.4-0.4-0.4c-0.3,0-0.4,0.3-0.5,0.4L344.5,217.1z"/>
			<path class="st32" d="M345.3,217.9c-0.2,0-0.4-0.1-0.5-0.2l0.1-0.1c0.1,0.1,0.2,0.2,0.4,0.2c0.2,0,0.3-0.1,0.3-0.2
				c0-0.2-0.2-0.2-0.3-0.3c-0.1,0-0.3-0.1-0.3-0.4c0-0.2,0.2-0.3,0.4-0.3c0.2,0,0.3,0.1,0.4,0.2l-0.1,0.1c-0.1-0.1-0.2-0.1-0.3-0.1
				c-0.1,0-0.2,0.1-0.2,0.2c0,0.1,0.1,0.2,0.3,0.2c0.2,0.1,0.4,0.1,0.4,0.4C345.8,217.7,345.6,217.9,345.3,217.9z"/>
			<path class="st32" d="M346.7,217.8c0,0-0.1,0-0.2,0c-0.1,0-0.2-0.1-0.2-0.1c0-0.1,0-0.2,0-0.4l0-0.6l-0.2,0l0-0.1l0.2,0l0-0.4
				l0.1,0l0,0.4l0.3,0l0,0.1l-0.3,0l0,0.7c0,0.1,0,0.3,0.2,0.3c0.1,0,0.1,0,0.1,0L346.7,217.8z"/>
			<path class="st32" d="M348.1,217.2l-1,0c0,0.3,0.2,0.5,0.5,0.5c0.3,0,0.4-0.2,0.4-0.2l0.1,0.1c0,0-0.2,0.2-0.5,0.2
				c-0.4,0-0.6-0.3-0.6-0.7c0-0.4,0.3-0.7,0.6-0.7C347.9,216.5,348.1,216.8,348.1,217.2C348.1,217.2,348.1,217.2,348.1,217.2z
				 M348,217.1c0-0.2-0.1-0.4-0.4-0.4c-0.3,0-0.4,0.3-0.5,0.4L348,217.1z"/>
			<path class="st32" d="M349.2,216.7c0,0-0.1,0-0.1,0c-0.1,0-0.2,0.1-0.2,0.1c0,0-0.1,0.1-0.1,0.4l0,0.7l-0.1,0l0-1.3l0.1,0l0,0.2
				c0-0.2,0.2-0.3,0.3-0.3c0.1,0,0.1,0,0.1,0L349.2,216.7z"/>
			<path class="st32" d="M350.3,217.8l-0.1,0l0-0.2c0,0.1-0.2,0.2-0.4,0.2c-0.2,0-0.4-0.2-0.4-0.4c0-0.2,0.2-0.4,0.5-0.4l0.3,0
				l0-0.1c0-0.2-0.2-0.3-0.4-0.3c-0.2,0-0.3,0.1-0.4,0.1l-0.1-0.1c0.1-0.1,0.2-0.1,0.4-0.1s0.3,0.1,0.4,0.1c0.1,0.1,0.1,0.2,0.1,0.4
				L350.3,217.8z M350.2,217.2l-0.4,0c-0.3,0-0.4,0.1-0.4,0.3c0,0.1,0.1,0.3,0.3,0.3c0.2,0,0.3-0.1,0.4-0.2L350.2,217.2z"/>
			<path class="st32" d="M351.8,216.6l-0.5,1.3l-0.1,0l-0.5-1.3l0.2,0l0.4,1.1l0.4-1.1L351.8,216.6z"/>
			<path class="st32" d="M352.1,217.9c-0.1,0-0.1-0.1-0.1-0.1c0-0.1,0.1-0.1,0.1-0.1c0.1,0,0.1,0.1,0.1,0.1
				C352.2,217.8,352.2,217.9,352.1,217.9z"/>
			<path class="st32" d="M353.8,217.6c0,0.1-0.2,0.2-0.5,0.2c-0.3,0-0.6-0.3-0.6-0.7c0-0.4,0.3-0.7,0.6-0.7c0.3,0,0.5,0.2,0.5,0.2
				l-0.1,0.1c-0.1-0.1-0.2-0.2-0.4-0.2c-0.3,0-0.5,0.2-0.5,0.5c0,0.3,0.2,0.5,0.5,0.5C353.6,217.7,353.7,217.5,353.8,217.6
				L353.8,217.6z"/>
			<path class="st32" d="M354.7,217.9c-0.4,0-0.7-0.3-0.7-0.7c0-0.4,0.3-0.7,0.7-0.7c0.4,0,0.7,0.3,0.7,0.7
				C355.4,217.6,355.1,217.9,354.7,217.9z M354.7,216.7c-0.3,0-0.5,0.2-0.5,0.5c0,0.3,0.2,0.5,0.5,0.5c0.3,0,0.5-0.2,0.5-0.5
				C355.2,216.9,355,216.7,354.7,216.7z"/>
			<path class="st32" d="M357.5,217.8l-0.1,0l0-0.8c0-0.2,0-0.4-0.3-0.4c-0.2,0-0.4,0.2-0.4,0.5l0,0.7l-0.1,0l0-0.8
				c0-0.2-0.1-0.4-0.3-0.4c-0.2,0-0.4,0.2-0.4,0.5l0,0.7l-0.1,0l0-1.3l0.1,0l0,0.2c0.1-0.1,0.2-0.3,0.4-0.3c0.2,0,0.3,0.1,0.4,0.3
				c0.1-0.2,0.2-0.3,0.4-0.3c0.4,0,0.4,0.3,0.4,0.5L357.5,217.8z"/>
			<path class="st32" d="M326.4,220.5l-0.4,1.3l-0.1,0l-0.4-1.1l-0.4,1.1l-0.1,0l-0.4-1.3l0.2,0l0.3,1.1l0.4-1.1l0.1,0l0.4,1.1
				l0.3-1.1L326.4,220.5z"/>
			<path class="st32" d="M328.5,220.5l-0.4,1.3l-0.1,0l-0.4-1.1l-0.4,1.1l-0.1,0l-0.4-1.3l0.2,0l0.3,1.1l0.4-1.1l0.1,0l0.4,1.1
				l0.3-1.1L328.5,220.5z"/>
			<path class="st32" d="M330.6,220.5l-0.4,1.3l-0.1,0l-0.4-1.1l-0.4,1.1l-0.1,0l-0.4-1.3l0.2,0l0.3,1.1l0.4-1.1l0.1,0l0.4,1.1
				l0.3-1.1L330.6,220.5z"/>
			<path class="st32" d="M331,221.8c-0.1,0-0.1-0.1-0.1-0.1c0-0.1,0.1-0.1,0.1-0.1c0.1,0,0.1,0.1,0.1,0.1
				C331.1,221.7,331,221.8,331,221.8z"/>
			<path class="st32" d="M332.3,221.8c-0.2,0-0.4-0.1-0.5-0.3l0,0.8l-0.1,0l0-1.8l0.1,0l0,0.2c0.1-0.2,0.3-0.3,0.5-0.3
				c0.4,0,0.6,0.3,0.6,0.7C332.9,221.5,332.7,221.8,332.3,221.8z M332.3,220.6c-0.3,0-0.5,0.2-0.5,0.5c0,0.3,0.2,0.5,0.5,0.5
				c0.3,0,0.5-0.2,0.5-0.5C332.8,220.8,332.6,220.6,332.3,220.6z"/>
			<path class="st32" d="M333.9,220.6c0,0-0.1,0-0.1,0c-0.1,0-0.2,0.1-0.2,0.1c0,0-0.1,0.1-0.1,0.4l0,0.7l-0.1,0l0-1.3l0.1,0l0,0.2
				c0-0.2,0.2-0.3,0.3-0.3c0.1,0,0.1,0,0.1,0L333.9,220.6z"/>
			<path class="st32" d="M334.4,220.1c-0.1,0-0.1-0.1-0.1-0.1c0-0.1,0.1-0.1,0.1-0.1c0.1,0,0.1,0.1,0.1,0.1
				C334.5,220.1,334.4,220.1,334.4,220.1z M334.4,221.7l-0.1,0l0-1.3l0.1,0L334.4,221.7z"/>
			<path class="st32" d="M336.1,221.1l-1,0c0,0.3,0.2,0.5,0.5,0.5c0.3,0,0.4-0.2,0.4-0.2l0.1,0.1c0,0-0.2,0.2-0.5,0.2
				c-0.4,0-0.6-0.3-0.6-0.7c0-0.4,0.3-0.7,0.6-0.7C335.8,220.4,336.1,220.7,336.1,221.1C336.1,221.1,336.1,221.1,336.1,221.1z
				 M335.9,221c0-0.2-0.1-0.4-0.4-0.4c-0.3,0-0.4,0.3-0.5,0.4L335.9,221z"/>
			<path class="st32" d="M336.8,221.8c-0.2,0-0.4-0.1-0.5-0.2l0.1-0.1c0.1,0.1,0.2,0.2,0.4,0.2c0.2,0,0.3-0.1,0.3-0.2
				c0-0.2-0.2-0.2-0.3-0.3c-0.1,0-0.3-0.1-0.3-0.4c0-0.2,0.2-0.3,0.4-0.3c0.2,0,0.3,0.1,0.4,0.2l-0.1,0.1c-0.1-0.1-0.2-0.1-0.3-0.1
				c-0.1,0-0.2,0.1-0.2,0.2c0,0.1,0.1,0.2,0.3,0.2c0.2,0.1,0.4,0.1,0.4,0.4C337.3,221.6,337.1,221.8,336.8,221.8z"/>
			<path class="st32" d="M338.2,221.7c0,0-0.1,0-0.2,0s-0.2-0.1-0.2-0.1c0-0.1,0-0.2,0-0.4l0-0.6l-0.2,0l0-0.1l0.2,0l0-0.4l0.1,0
				l0,0.4l0.3,0l0,0.1l-0.3,0l0,0.7c0,0.1,0,0.3,0.2,0.3c0.1,0,0.1,0,0.1,0L338.2,221.7z"/>
			<path class="st32" d="M339.6,221.1l-1,0c0,0.3,0.2,0.5,0.5,0.5c0.3,0,0.4-0.2,0.4-0.2l0.1,0.1c0,0-0.2,0.2-0.5,0.2
				s-0.6-0.3-0.6-0.7c0-0.4,0.3-0.7,0.6-0.7C339.4,220.5,339.6,220.7,339.6,221.1C339.6,221.1,339.6,221.1,339.6,221.1z M339.5,221
				c0-0.2-0.1-0.4-0.4-0.4c-0.3,0-0.4,0.3-0.5,0.4L339.5,221z"/>
			<path class="st32" d="M340.6,220.6c0,0-0.1,0-0.1,0c-0.1,0-0.2,0.1-0.2,0.1c0,0-0.1,0.1-0.1,0.4l0,0.7l-0.1,0l0-1.3l0.1,0l0,0.2
				c0-0.2,0.2-0.3,0.3-0.3c0.1,0,0.1,0,0.1,0L340.6,220.6z"/>
			<path class="st32" d="M341.8,221.8l-0.1,0l0-0.2c0,0.1-0.2,0.2-0.4,0.2c-0.2,0-0.4-0.2-0.4-0.4c0-0.2,0.2-0.4,0.5-0.4l0.3,0
				l0-0.1c0-0.2-0.2-0.3-0.4-0.3c-0.2,0-0.3,0.1-0.4,0.1l-0.1-0.1c0.1-0.1,0.2-0.1,0.4-0.1c0.2,0,0.3,0.1,0.4,0.1
				c0.1,0.1,0.1,0.2,0.1,0.4L341.8,221.8z M341.7,221.1l-0.4,0c-0.3,0-0.4,0.1-0.4,0.3c0,0.1,0.1,0.3,0.3,0.3c0.2,0,0.3-0.1,0.4-0.2
				L341.7,221.1z"/>
			<path class="st32" d="M343.3,220.5l-0.5,1.3l-0.1,0l-0.5-1.3l0.2,0l0.4,1.1l0.4-1.1L343.3,220.5z"/>
			<path class="st32" d="M343.6,221.8c-0.1,0-0.1-0.1-0.1-0.1c0-0.1,0.1-0.1,0.1-0.1c0.1,0,0.1,0.1,0.1,0.1
				C343.7,221.7,343.7,221.8,343.6,221.8z"/>
			<path class="st32" d="M345.3,221.6c0,0.1-0.2,0.2-0.5,0.2c-0.3,0-0.6-0.3-0.6-0.7c0-0.4,0.3-0.7,0.6-0.7c0.3,0,0.5,0.2,0.5,0.2
				l-0.1,0.1c-0.1-0.1-0.2-0.2-0.4-0.2c-0.3,0-0.5,0.2-0.5,0.5c0,0.3,0.2,0.5,0.5,0.5C345.1,221.7,345.2,221.5,345.3,221.6
				L345.3,221.6z"/>
			<path class="st32" d="M346.2,221.8c-0.4,0-0.7-0.3-0.7-0.7s0.3-0.7,0.7-0.7c0.4,0,0.7,0.3,0.7,0.7S346.6,221.8,346.2,221.8z
				 M346.2,220.6c-0.3,0-0.5,0.2-0.5,0.5c0,0.3,0.2,0.5,0.5,0.5c0.3,0,0.5-0.2,0.5-0.5C346.7,220.8,346.5,220.6,346.2,220.6z"/>
			<path class="st32" d="M349,221.8l-0.1,0l0-0.8c0-0.2,0-0.4-0.3-0.4s-0.4,0.2-0.4,0.5l0,0.7l-0.1,0l0-0.8c0-0.2-0.1-0.4-0.3-0.4
				c-0.2,0-0.4,0.2-0.4,0.5l0,0.7l-0.1,0l0-1.3l0.1,0l0,0.2c0.1-0.1,0.2-0.3,0.4-0.3c0.2,0,0.3,0.1,0.4,0.3c0.1-0.2,0.2-0.3,0.4-0.3
				c0.4,0,0.4,0.3,0.4,0.5L349,221.8z"/>
		</g>
		<line class="st38" x1="322.5" y1="208.1" x2="322.5" y2="221.8"/>
		<g>
			<g>
				<path class="st32" d="M324.8,199.1l-0.4,0l-0.3-0.6l-1,0l-0.3,0.6l-0.4,0l1-2.4l0.3,0L324.8,199.1z M324.1,198.1l-0.4-1.1
					l-0.4,1.1L324.1,198.1z"/>
				<path class="st32" d="M327.6,199.1l-0.3,0l-1.4-1.9c0,0,0,0.3,0,0.6l0,1.3l-0.3,0l0-2.4l0.4,0l1.4,1.9c0,0,0-0.3,0-0.6l0-1.3
					l0.3,0L327.6,199.1z"/>
				<path class="st32" d="M330.2,198.7c-0.2,0.2-0.5,0.3-0.9,0.3l-0.7,0l0-2.4l0.7,0c0.4,0,0.7,0.2,0.9,0.3c0.2,0.2,0.4,0.4,0.4,0.9
					C330.6,198.3,330.4,198.6,330.2,198.7z M330,197.1c-0.1-0.1-0.4-0.2-0.7-0.2l-0.4,0l0,1.9l0.4,0c0.3,0,0.5-0.1,0.7-0.2
					c0.1-0.1,0.3-0.3,0.3-0.7C330.2,197.5,330.1,197.3,330,197.1z"/>
				<path class="st32" d="M333,196.6l-0.9,1.4l0,1l-0.3,0l0-1l-0.8-1.4l0.4,0l0.6,1.1l0.6-1.1L333,196.6z"/>
				<path class="st32" d="M336.1,197.8c-0.1,0.1-0.4,0.2-0.6,0.2l-0.3,0l0,1l-0.3,0l0-2.4l0.7,0c0.2,0,0.4,0,0.6,0.2
					c0.2,0.1,0.2,0.3,0.2,0.5C336.4,197.5,336.3,197.7,336.1,197.8z M335.9,197c-0.1-0.1-0.2-0.1-0.4-0.1l-0.3,0l0,0.8l0.3,0
					c0.2,0,0.3,0,0.4-0.1c0.1-0.1,0.1-0.2,0.1-0.3C336,197.2,336,197.1,335.9,197z"/>
				<path class="st32" d="M338.8,199.1l-0.4,0l-0.6-1.1l-0.3,0l0,1.1l-0.3,0l0-2.4l0.7,0c0.2,0,0.4,0.1,0.6,0.2
					c0.1,0.1,0.2,0.3,0.2,0.5c0,0.4-0.3,0.6-0.6,0.7L338.8,199.1z M338.2,197c-0.1-0.1-0.2-0.1-0.4-0.1l-0.3,0l0,0.8l0.3,0
					c0.2,0,0.3,0,0.4-0.1c0.1-0.1,0.2-0.2,0.2-0.3C338.3,197.2,338.3,197.1,338.2,197z"/>
				<path class="st32" d="M339.8,199.1l-0.3,0l0-2.4l0.3,0L339.8,199.1z"/>
				<path class="st32" d="M342.3,199.1l-1.5,0l0-2.4l1.4,0l0,0.3l-1.1,0l0,0.7l1,0l0,0.3l-1,0l0,0.8l1.1,0L342.3,199.1z"/>
				<path class="st32" d="M344.3,198.9c-0.2,0.1-0.4,0.2-0.6,0.2c-0.4,0-0.7-0.3-0.8-0.4l0.2-0.2c0.1,0.2,0.4,0.4,0.6,0.4
					c0.3,0,0.5-0.2,0.5-0.4c0-0.3-0.3-0.4-0.4-0.4c-0.1,0-0.3-0.1-0.4-0.2c-0.1,0-0.2-0.1-0.2-0.2c-0.1-0.1-0.2-0.2-0.2-0.4
					c0-0.2,0.1-0.4,0.2-0.5c0.1-0.1,0.3-0.2,0.6-0.2c0.4,0,0.6,0.2,0.7,0.3l-0.2,0.2c-0.1-0.1-0.3-0.3-0.5-0.3
					c-0.2,0-0.4,0.1-0.4,0.3c0,0.2,0.2,0.3,0.3,0.4l0.4,0.2c0,0,0.2,0.1,0.3,0.2c0.1,0.1,0.1,0.2,0.1,0.4
					C344.6,198.6,344.5,198.8,344.3,198.9z"/>
				<path class="st32" d="M346.9,196.9l-0.7,0l0,2.2l-0.3,0l0-2.2l-0.7,0l0-0.3l1.7,0L346.9,196.9z"/>
				<path class="st32" d="M349,199.1l-1.5,0l0-2.4l1.4,0l0,0.3l-1.1,0l0,0.7l1,0l0,0.3l-1,0l0,0.8l1.1,0L349,199.1z"/>
				<path class="st32" d="M351.5,199.1l-0.4,0l-0.6-1.1l-0.3,0l0,1.1l-0.3,0l0-2.4l0.7,0c0.2,0,0.4,0.1,0.6,0.2
					c0.1,0.1,0.2,0.3,0.2,0.5c0,0.4-0.3,0.6-0.6,0.7L351.5,199.1z M350.9,197c-0.1-0.1-0.2-0.1-0.4-0.1l-0.3,0l0,0.8l0.3,0
					c0.2,0,0.3,0,0.4-0.1c0.1-0.1,0.2-0.2,0.2-0.3C351,197.2,351,197.1,350.9,197z"/>
				<path class="st32" d="M323.6,201.6c-0.1,0.1-0.3,0.1-0.4,0.1l-0.3,0l0,0.9l-0.1,0l0-1.9l0.4,0c0.2,0,0.3,0,0.4,0.1
					s0.2,0.2,0.2,0.4C323.8,201.4,323.7,201.5,323.6,201.6z M323.5,200.9c-0.1-0.1-0.2-0.1-0.3-0.1l-0.3,0l0,0.7l0.3,0
					c0.1,0,0.2,0,0.3-0.1c0.1-0.1,0.1-0.2,0.1-0.3C323.7,201.1,323.6,201,323.5,200.9z"/>
				<path class="st32" d="M325.6,202.6l-0.2,0l-0.6-0.9l-0.2,0l0,0.9l-0.1,0l0-1.9l0.4,0c0.4,0,0.6,0.2,0.6,0.5s-0.2,0.5-0.5,0.5
					L325.6,202.6z M325.2,200.9c-0.1-0.1-0.2-0.1-0.4-0.1l-0.2,0l0,0.7l0.2,0c0.2,0,0.3,0,0.4-0.1c0.1-0.1,0.1-0.2,0.1-0.3
					C325.3,201.1,325.3,201,325.2,200.9z"/>
				<path class="st32" d="M327.2,202.6l-1.1,0l0-1.9l1,0l0,0.1l-0.9,0l0,0.7l0.8,0l0,0.1l-0.8,0l0,0.8l0.9,0L327.2,202.6z"/>
				<path class="st32" d="M328.4,202.6c-0.4,0-0.5-0.3-0.6-0.3l0.1-0.1c0.1,0.1,0.2,0.3,0.5,0.3c0.2,0,0.4-0.2,0.4-0.4
					c0-0.2-0.3-0.3-0.4-0.4c-0.1,0-0.2-0.1-0.3-0.1c-0.1,0-0.3-0.2-0.3-0.4c0-0.3,0.2-0.5,0.6-0.5c0.3,0,0.5,0.2,0.5,0.2l-0.1,0.1
					c-0.1-0.1-0.2-0.2-0.4-0.2c-0.2,0-0.4,0.1-0.4,0.3c0,0.2,0.1,0.3,0.3,0.4c0.1,0.1,0.3,0.1,0.4,0.2c0,0,0.3,0.2,0.3,0.4
					C329,202.4,328.8,202.6,328.4,202.6z"/>
				<path class="st32" d="M329.8,202.6l-0.1,0l0-1.9l0.1,0L329.8,202.6z"/>
				<path class="st32" d="M331.9,202.3c-0.1,0.1-0.4,0.3-0.7,0.3l-0.5,0l0-1.9l0.5,0c0.3,0,0.6,0.1,0.7,0.3c0.1,0.1,0.3,0.3,0.3,0.7
					C332.1,202,332,202.2,331.9,202.3z M331.7,201c-0.1-0.1-0.3-0.2-0.6-0.2l-0.4,0l0,1.6l0.4,0c0.3,0,0.5-0.1,0.6-0.2
					s0.3-0.3,0.3-0.6S331.8,201.1,331.7,201z"/>
				<path class="st32" d="M333.9,202.6l-1.1,0l0-1.9l1,0l0,0.1l-0.9,0l0,0.7l0.8,0l0,0.1l-0.8,0l0,0.8l0.9,0L333.9,202.6z"/>
				<path class="st32" d="M336.1,202.6l-0.1,0l-1.3-1.7l0,1.7l-0.1,0l0-1.9l0.1,0l1.3,1.6l0-1.6l0.1,0L336.1,202.6z"/>
				<path class="st32" d="M338,200.8l-0.6,0l0,1.8l-0.1,0l0-1.8l-0.6,0l0-0.1l1.3,0L338,200.8z"/>
				<path class="st32" d="M341,202.6l-0.2,0l-0.3-0.3c-0.2,0.2-0.3,0.3-0.7,0.3c-0.3,0-0.5-0.2-0.5-0.5c0-0.3,0.2-0.5,0.5-0.6
					c-0.1-0.1-0.2-0.2-0.2-0.5c0-0.2,0.2-0.4,0.4-0.4c0.3,0,0.4,0.2,0.4,0.4s-0.2,0.4-0.4,0.5l0.5,0.5c0.1-0.1,0.2-0.3,0.2-0.4
					l0.1,0c0,0.1-0.2,0.3-0.3,0.5L341,202.6L341,202.6z M339.9,201.6L339.9,201.6c-0.3,0.2-0.5,0.3-0.5,0.5c0,0.2,0.2,0.4,0.4,0.4
					c0.2,0,0.4-0.2,0.5-0.3L339.9,201.6z M340.1,200.8c-0.2,0-0.3,0.1-0.3,0.3c0,0.2,0.1,0.3,0.2,0.4l0,0c0.1-0.1,0.3-0.2,0.3-0.4
					C340.3,200.9,340.2,200.8,340.1,200.8z"/>
				<path class="st32" d="M344,202.3c-0.1,0.2-0.4,0.3-0.7,0.3c-0.6,0-1-0.4-1-1c0-0.6,0.4-1,1-1c0.3,0,0.6,0.1,0.7,0.3l-0.1,0.1
					c-0.1-0.1-0.3-0.3-0.6-0.3c-0.5,0-0.8,0.3-0.8,0.8c0,0.5,0.3,0.8,0.8,0.8C343.6,202.5,343.8,202.4,344,202.3L344,202.3z"/>
				<path class="st32" d="M345.7,202.6l-1.1,0l0-1.9l1,0l0,0.1l-0.9,0l0,0.7l0.8,0l0,0.1l-0.8,0l0,0.8l0.9,0L345.7,202.6z"/>
				<path class="st32" d="M347.2,202.6c-0.5,0-1-0.4-1-1c0-0.6,0.4-1,1-1c0.5,0,1,0.4,1,1C348.2,202.3,347.8,202.6,347.2,202.6z
					 M347.2,200.8c-0.4,0-0.8,0.3-0.8,0.8c0,0.5,0.4,0.8,0.8,0.8c0.4,0,0.8-0.3,0.8-0.8C348,201.1,347.7,200.8,347.2,200.8z"/>
			</g>
		</g>
	</g>
</g>
</svg>
