<?xml version="1.0" encoding="utf-8"?>
<!-- Generator: Adobe Illustrator 18.1.1, SVG Export Plug-In . SVG Version: 6.00 Build 0)  -->
<!DOCTYPE svg PUBLIC "-//W3C//DTD SVG 1.1//EN" "http://www.w3.org/Graphics/SVG/1.1/DTD/svg11.dtd">
<svg version="1.1" xmlns="http://www.w3.org/2000/svg" xmlns:xlink="http://www.w3.org/1999/xlink" x="0px" y="0px"
	 viewBox="0 0 593.7 276.3" enable-background="new 0 0 593.7 276.3" xml:space="preserve">
<g id="Layer_1">
	<g>
		<path fill="#4D4D4D" d="M511.8,258.4c-143.3-22.4-286.7,22.4-430,0c0-62.2,0-124.5,0-186.7c143.3,22.4,286.7-22.4,430,0
			C511.8,133.9,511.8,196.2,511.8,258.4z"/>
	</g>
	<g>
		<path fill="#5E28B2" d="M511.8,256.4c-143.3-22.4-286.7,22.4-430,0c0-62.2,0-124.5,0-186.7c143.3,22.4,286.7-22.4,430,0
			C511.8,131.9,511.8,194.2,511.8,256.4z"/>
	</g>
	<path fill="#5E28B2" d="M511.8,256.4c-143.3-22.4-286.7,22.4-430,0c0-62.2,0-124.5,0-186.7c143.3,22.4,286.7-22.4,430,0
		C511.8,131.9,511.8,194.2,511.8,256.4z"/>
	<path fill="#5E28B2" d="M511.8,256.4c-143.3-22.4-286.7,22.4-430,0c0-62.2,0-124.5,0-186.7c143.3,22.4,286.7-22.4,430,0
		C511.8,131.9,511.8,194.2,511.8,256.4z"/>
	<g>
		<path fill="#7E53C1" d="M279.8,257.7L81.7,112.6c0,17.7,0,35.4,0,53.1L213.1,262C235.3,261,257.6,259.4,279.8,257.7z"/>
		<path fill="#43C7CA" d="M213.1,262L81.7,165.7c0,30.3,0,60.5,0,90.8C125.5,263.3,169.3,263.8,213.1,262z"/>
	</g>
</g>
<g id="Layer_2">
	<linearGradient id="SVGID_2_" gradientUnits="userSpaceOnUse" x1="81.8452" y1="78.3384" x2="81.8452" y2="258.4174">
		<stop  offset="0" style="stop-color:#E5E5E5"/>
		<stop  offset="1" style="stop-color:#989898"/>
	</linearGradient>
	<path fill="url(#SVGID_2_)" d="M81.8,319.7L81.8,319.7c-2.2,0-4-1.8-4-4V70.3c0-2.2,1.8-4,4-4h0c2.2,0,4,1.8,4,4v245.3
		C85.8,317.9,84,319.7,81.8,319.7z"/>
	<linearGradient id="SVGID_4_" gradientUnits="userSpaceOnUse" x1="511.8452" y1="78.3384" x2="511.8452" y2="258.4174">
		<stop  offset="0" style="stop-color:#E5E5E5"/>
		<stop  offset="1" style="stop-color:#989898"/>
	</linearGradient>
	<path fill="url(#SVGID_4_)" d="M511.8,319.7L511.8,319.7c-2.2,0-4-1.8-4-4V70.3c0-2.2,1.8-4,4-4l0,0c2.2,0,4,1.8,4,4v245.3
		C515.8,317.9,514,319.7,511.8,319.7z"/>
	<g>
		<g>
			<g>
				<g>
					<g>
						<path fill-rule="evenodd" clip-rule="evenodd" fill="#43C7CA" d="M169.5,206.8C169.5,206.8,169.5,206.8,169.5,206.8
							C169.5,206.8,169.5,206.8,169.5,206.8L169.5,206.8z M252,157.5c-0.1,0.7-0.1,1.5-0.2,2.2c0,0.9,0,1.8,0,2.8h0
							c0,1.1,0,2.3,0,3.4c0,0.2,0,0.4,0.1,0.5c0.2,0.3,0.5,0.6,0.8,0.7c0.3,0.1,0.4-0.2,0.6-0.4c0.1-0.1,0.2-0.2,0.2-0.3
							c0,0,0,0,0.1-0.1c0.2-0.2,0.5-0.3,0.8-0.3c0.3,0,0.7-0.1,1,0.1c0.2,0.1,0.4,0.1,0.6,0c0.2-0.1,0.3-0.1,0.5-0.1
							c0.2,0,0.3,0.1,0.3,0.3c0,0.2-0.1,0.5-0.1,0.7c0,0,0.1,0.1,0.2,0.1c0,0,0.1,0,0.1-0.1c0-0.1,0.1-0.3,0.1-0.4
							c0,0,0.1,0.1,0.1,0.1c0,0,0.1,0,0.1-0.1c0-0.1,0.1-0.3,0.1-0.4c0,0,0.1,0.1,0.1,0.1c0,0,0.1,0,0.1-0.1c0-0.1,0.1-0.3,0.1-0.4
							c0,0,0.1,0.1,0.1,0.1c0,0,0.1,0,0.1-0.1c0-0.1,0-0.1,0-0.2c0.1,0,0.2,0,0.2,0c0.2,0,0.5-0.1,0.7-0.2c0.6-0.4,1.2-0.2,1.6,0.2
							c0.3,0.3,0.5,0.3,0.9,0.4c0.3,0.1,0.3,0,0.5-0.2c0-0.1,0.1-0.1,0.1-0.2c0.1,0,0.1-0.1,0.2-0.2c0.1-0.1,0.3,0,0.5,0.1
							c0.1,0,0.1,0.1,0.2,0.2c0.3,0.2,0.4,0.2,0.7,0c0.2-0.2,0.4-0.4,0.7-0.5c0.3-0.1,0.5-0.3,0.6-0.5c0.1-0.1,0.3-0.2,0.3-0.4
							c0.1-0.1,0.3-0.2,0.3-0.4c0.1-0.1,0.3-0.2,0.3-0.4c0.1-0.1,0.3-0.2,0.3-0.4c0.1-0.1,0.3-0.2,0.3-0.4c0.1-0.1,0.3-0.2,0.3-0.4
							c0.1-0.1,0.3-0.2,0.3-0.4c0.1-0.1,0.3-0.2,0.3-0.4c0.1-0.1,0.3-0.2,0.3-0.4c0.1-0.1,0.3-0.2,0.3-0.4c0.3-0.2,0.4-0.5,0.5-0.8
							c0.1-0.9,0.5-1.7,1-2.6c0.6-1.1,1.1-2.3,1.3-3.5c0.1-0.3,0.2-0.6,0.3-0.8c0.3-0.6,0.5-1.3,0.7-2c0.1-0.3,0.2-0.6,0.3-0.8
							c0.7-1.6,1.2-3.2,1.6-4.9c0.2-1.1,0.6-2.2,0.9-3.3c0.6-2,1.3-4.1,1.8-6.1c0.2-0.6,0.3-1.2,0.5-1.8c0.5-1.5,1-3.1,1.6-4.6
							c0.1-0.2,0.2-0.5,0.2-0.7c0.3-1.3,0.9-2.6,1.1-4c0-0.1,0.1-0.2,0.1-0.4c0.5-1.2,1-2.5,1.5-3.7c0.2-0.5,0.3-1,0.4-1.6
							c0-0.2,0.1-0.4,0.1-0.6c0.3,0.2,0.6,0.3,0.9,0.5c0.5,0.3,1,0.7,1.6,0.5c0.2,0,0.4,0.1,0.6,0.2c0.8,0.5,1.6,0.6,2.5,0.4
							c0.4-0.1,0.7-0.1,1.1-0.1c0.3,0,0.5,0,0.7,0.2c0.3,0.3,0.5,0.3,0.9,0.1c0.4-0.2,0.8-0.2,1.2-0.3c0.1,0,0.2,0,0.2,0
							c0.6-0.1,0.8,0.2,0.7,0.7c-0.1,0.4-0.3,0.7-0.4,1c-0.1,0.3-0.3,0.6-0.4,0.9c-1,2.4-2,4.8-2.8,7.2c-0.1,0.3-0.2,0.5-0.3,0.8
							c-0.2,0.5-0.4,1-0.5,1.5c-0.2,0.9-0.5,1.8-0.8,2.6c-0.1,0.5-0.3,1-0.4,1.4c-1,3.6-1.7,7.2-2,11c-0.1,0.5-0.1,1.1-0.1,1.6
							c-0.1,0.6-0.1,1.2-0.2,1.7c0,0.2-0.1,0.4,0,0.6c0.4,1.3,0.3,2.7,0.6,4.1c0.1,0.8,0.3,1.6,0.4,2.3c0.1,0.5,0.6,0.7,1.1,0.6
							c0.3-0.1,0.5-0.1,0.8,0c0.3,0.1,0.7,0.2,1.1,0.2c0.2,0,0.4,0,0.6,0.1c0.3,0.2-0.1,0.4,0,0.7c0,0.1,0,0.2,0,0.2
							c0,0,0,0.1,0,0.1c0.1,0.1,0.2,0.2,0.3,0.2c0.1,0,0.3,0,0.3-0.1c0-0.1,0.1-0.2,0.1-0.3c0.1,0,0.2-0.1,0.2-0.1
							c0-0.1,0.1-0.2,0.1-0.3c0.1,0,0.2-0.1,0.2-0.1c0-0.1,0.1-0.2,0.1-0.3c0.1,0,0.2-0.1,0.2-0.1c0-0.1,0.1-0.1,0.1-0.2
							c0.2,0,0.3,0.2,0.3,0.5c0,0.5-0.1,1.1-0.2,1.6c0,0.1,0.1,0.2,0.1,0.2c0.1,0,0.3,0,0.4,0c0.1-0.1,0.2-0.3,0.4-0.4
							c0.1-0.1,0.2-0.2,0.3-0.4c0.1-0.1,0.2-0.3,0.3-0.4c0.1-0.1,0.2-0.2,0.3-0.4c0.1-0.1,0.2-0.2,0.3-0.4c0.1-0.1,0.2-0.2,0.3-0.3
							c0.1,0,0.2,0.1,0.3,0.2c0.1,0.1,0.2,0.3,0.3,0.4c0.1,0.3,0.2,0.6,0.3,1c0,0.1,0.2,0.2,0.3,0.2c0.1,0,0.2-0.1,0.3-0.2
							c0,0,0-0.1,0-0.2c0,0,0,0,0,0c0.1,0,0.2-0.1,0.3-0.2c0,0,0-0.1,0-0.2c0,0,0,0,0,0c0.1,0,0.1-0.1,0.2-0.1
							c0.1,0.3,0.1,0.6,0.1,0.9c0,0.2,0.2,0.3,0.4,0.1c0.2-0.3,0.5-0.3,0.8-0.1c0,0,0.1,0,0.1,0.1c0.5,0.2,1,0,1.2-0.4
							c0.1-0.1,0.3-0.2,0.3-0.4c0.1-0.1,0.3-0.2,0.3-0.4c0.1-0.1,0.3-0.2,0.3-0.4c0.1-0.1,0.3-0.2,0.3-0.4c0.1-0.1,0.3-0.2,0.3-0.4
							c0.1-0.1,0.3-0.2,0.3-0.4c0.1-0.1,0.3-0.2,0.3-0.4c0.1-0.1,0.3-0.2,0.3-0.4c0.1-0.1,0.3-0.2,0.3-0.4c0.1-0.1,0.3-0.2,0.3-0.4
							c0.2-0.1,0.4-0.4,0.4-0.8c0-0.6,0.2-1.1,0.7-1.6c0.3-0.3,0.6-0.7,0.7-1.2c0.3-1.4,0.6-2.8,0.8-4.2c0.3-1.8,0.4-3.6,0.8-5.3
							c0.7-3.3,1.5-6.6,2.5-9.8c0.1-0.4,0.3-0.8,0.4-1.2c0.4-1.7,0.9-3.3,1.3-5c0.1-0.4,0.2-0.9,0.4-1.3c0.7-1.6,0.9-3.4,1.5-5
							c0-0.1,0-0.2,0.1-0.4c0.3-1.2,0.2-2.5,0.7-3.7c0,0,0-0.1,0-0.1c-0.1-0.8,0.2-1.5,0.3-2.2c0-0.2,0.1-0.4,0.1-0.6
							c0.7-0.3,1.5-0.5,2.2-0.8c1.9-0.6,3.7-1.2,5.7-1.6c0,0,0.1,0,0.1,0c0.5-0.2,0.9-0.4,1.4-0.5c0.5-0.1,1.1-0.2,1.5-0.5
							c0.1,0,0.2-0.1,0.2-0.1c0.3-0.1,0.6-0.1,0.9-0.1c0.2,0,0.3-0.2,0.4-0.4c0.1,0,0.2-0.2,0.3-0.3c0.1-0.1,0.2-0.1,0.2-0.1
							c1.1-0.4,2.2-1,3.4-1.2c1.5-0.3,3.1-0.8,4.6-1c0.3,0,0.6-0.1,0.8-0.2c0.4-0.2,0.7-0.2,1.1-0.2c0,0,0.1-0.2,0.2-0.4
							c0,0,0.1,0,0.1,0c0,0,0.1-0.2,0.2-0.4c0,0,0.1,0,0.1,0c0,0,0.1-0.1,0.1-0.2c0.1-0.1,0.2-0.1,0.4-0.2c0,0,0,0-0.1-0.1
							c0,0,0-0.1,0-0.1c0.1-0.1,0.2-0.1,0.4-0.2c0,0,0,0-0.1-0.1c0,0,0-0.1,0-0.1c0.1-0.1,0.2-0.1,0.4-0.2c0,0,0,0-0.1-0.1
							c0,0,0-0.1,0-0.1c0.1-0.1,0.2-0.1,0.4-0.2c0.5-0.1,2-0.8,2.5-1c0.3-0.1,0.6-0.2,1-0.2c0.3,0,0.5-0.1,0.7-0.3
							c0.6-0.5,1.3-0.9,2.1-0.8c0.3,0,0.7,0,1-0.2c0.3-0.1,0.6-0.1,0.8-0.2c0.5-0.1,1-0.2,1.5-0.3c0.2-0.1,0.3-0.2,0.2-0.3
							c0.1,0,0.1,0,0.2,0c0.2-0.1,0.3-0.2,0.2-0.3c0.1,0,0.1,0,0.2,0c0.2-0.1,0.3-0.2,0.2-0.3c0.1,0,0.1,0,0.2,0
							c0.2-0.1,0.3-0.2,0.2-0.3c0.1,0,0.1,0,0.2,0c0.1,0,0.1-0.1,0.2-0.1c0.9-0.1,1.8-0.3,2.7-0.4c0.4,0,0.7-0.2,1.1-0.4
							c0-0.1-0.1-0.2-0.1-0.2c0,0,0,0,0,0c0.2-0.1,0.3-0.1,0.5-0.2c0-0.1-0.1-0.2-0.1-0.2c0,0,0,0,0,0c0.2-0.1,0.3-0.1,0.5-0.2
							c0-0.1-0.1-0.2-0.1-0.2c0,0,0,0,0,0c0.2-0.1,0.3-0.1,0.5-0.2c0-0.1-0.1-0.2-0.1-0.2c0,0,0,0,0,0c0.2-0.1,0.3-0.1,0.5-0.2
							c0-0.1-0.1-0.2-0.1-0.2c0,0,0,0,0,0c0.2-0.1,0.3-0.1,0.5-0.2c0-0.1-0.1-0.2-0.1-0.2c0,0,0,0,0,0c0.2-0.1,0.3-0.1,0.5-0.2
							c0-0.1,0-0.2-0.1-0.2c0,0,0,0,0,0c0.2-0.1,0.3-0.1,0.5-0.2c0-0.1-0.1-0.2-0.1-0.2c0,0,0,0,0,0c0.2-0.1,0.3-0.1,0.5-0.2
							c0-0.1-0.1-0.2-0.1-0.2c0,0,0,0,0,0c0.2-0.1,0.3-0.1,0.5-0.2c0-0.1-0.1-0.2-0.1-0.2c0,0,0,0,0,0c0.2-0.1,0.3-0.1,0.5-0.2
							c0-0.1,0-0.2-0.1-0.2c0,0,0,0,0,0c0.2-0.1,0.3-0.1,0.5-0.2c0-0.1,0-0.2-0.1-0.2c-0.3-0.1-0.2-0.3,0-0.5
							c0.1-0.2,0.1-0.3-0.1-0.3c-0.2,0-0.4,0-0.6,0c0,0,0-0.1,0-0.1c0,0-0.1-0.1-0.1-0.1c-0.1,0-0.2,0-0.3,0
							c0.2-0.1,0.4-0.1,0.6-0.2c0,0,0.1-0.1,0.1-0.1c0,0-0.1-0.1-0.1-0.1c-0.1,0-0.2,0-0.3,0c0.2-0.1,0.4-0.1,0.6-0.2
							c0,0,0.1-0.1,0.1-0.1c0,0-0.1-0.1-0.1-0.1c-0.4,0-0.8,0-1.2-0.1c0,0,0-0.1,0-0.1c0,0,0,0,0.1,0c0.2-0.1,0.3-0.2,0.3-0.4
							c0-0.2-0.2-0.3-0.4-0.3c-1,0-1.9,0-2.9,0.1c-1.2,0.2-2.4,0.3-3.6,0.1c-0.2,0-0.4,0-0.6,0.1c-0.3,0.2-0.6,0.2-0.8,0
							c-0.2-0.2-0.4-0.2-0.7,0c-0.1,0.1-0.3,0.2-0.4,0.2c-0.6-0.1-1.1,0.1-1.6,0.1c-0.3,0-0.7,0-1-0.1c-0.6-0.1-0.6-0.1-0.7-0.1
							c-0.4,0.3-0.7,0.4-1-0.1c0-0.1-0.1-0.1-0.2-0.1c-0.7,0.1-1.4,0-1.8,0.7c0,0,0,0.1-0.1,0.1c0,0-0.1,0.1-0.1,0.1
							c-0.2,0.1-0.3,0.2-0.6,0.2c-0.9,0.1-1.8,0.2-2.7,0.4c-0.7,0.1-1.3,0.2-2,0c-0.3-0.1-0.7-0.2-0.7,0.3c0,0,0,0,0,0
							c0,0-0.1,0-0.1,0c-0.2,0.1-0.4,0.1-0.6,0.2c-0.2,0-0.4-0.1-0.4-0.4l0,0c-0.4-0.1-0.9-0.2-1.1,0.4c-0.1,0-0.2,0.1-0.3,0.3
							c-0.1,0-0.1,0-0.2,0c-0.2,0-0.5,0-0.7-0.1c-0.3-0.3-0.6-0.2-0.9,0c-0.2,0.1-0.4,0.3-0.6,0.4c-0.5,0.3-1,0.4-1.6,0.3
							c-0.6-0.1-1.4-0.1-1.9,0.1c-0.3,0.1-0.6,0.2-1,0.3c-0.7,0.2-1.5,0.1-2.2,0.5c-0.1,0.1-0.3,0-0.5,0c-0.2,0-0.4,0-0.6,0
							c-0.3,0-0.6,0.1-0.9,0.2c-0.9,0.1-1.7,0.2-2.6,0.4c-1.6,0.4-3.2,0.7-4.7,1.1c-1.6,0.5-3.1,0.9-4.7,1.4c-2,0.6-4,1.3-5.8,2.3
							c-0.3,0.1-0.5,0.2-0.8,0.3c-0.9,0.4-1.8,0.8-2.8,1.2c-0.8,0.4-1.6,0.9-2.5,1c-0.1,0-0.2,0.1-0.2,0.1c-1.4,0.8-2.8,1.5-4.1,2.4
							c-1.3,0.8-2.6,1.7-3.9,2.6c-0.6,0.4-1.1,0.9-1.6,1.4c-0.1,0.1-0.2,0.3-0.3,0.4c-0.1,0.1-0.2,0.3-0.3,0.4
							c-0.1,0.1-0.2,0.3-0.3,0.4c-0.1,0.1-0.2,0.3-0.3,0.4c-0.1,0.1-0.2,0.3-0.3,0.4c-0.1,0.1-0.2,0.3-0.3,0.4
							c-0.1,0.1-0.2,0.3-0.3,0.4c0,0,0,0,0,0c0,0,0-0.1,0-0.1c0.2-0.5,0.1-1.1,0.1-1.6c-0.1-0.5,0-1,0.1-1.5c0.1-0.6,0.1-1.2,0-1.7
							c0-0.3-0.1-0.6-0.2-0.9c-0.2-0.9-0.4-1.8-0.8-2.6c-0.4-0.7-0.9-1.1-1.7-1.2c-0.5,0-0.9-0.2-1.3-0.4c-0.9-0.4-1.7-0.8-2.5-1.4
							c-0.2-0.2-0.4-0.2-0.7-0.3c-0.2-0.1-0.4,0-0.4,0.1c-0.2,0.4-0.6,0.5-1,0.3c-0.4-0.2-0.7,0-0.9,0.4c-0.1,0.1-0.2,0.2-0.3,0.3
							c-0.1,0.1-0.2,0.1-0.4,0.1c-0.6,0.1-1.2,0.2-1.7,0.8c0,0.1-0.1,0.1-0.2,0.1c-0.3,0-0.5,0.2-0.7,0.5c-0.1,0.1-0.2,0.2-0.3,0.4
							c-0.1,0.1-0.2,0.2-0.3,0.4c-0.1,0.1-0.2,0.2-0.3,0.4c-0.1,0.1-0.2,0.2-0.3,0.4c-0.1,0.1-0.2,0.2-0.3,0.4
							c-0.1,0.1-0.2,0.2-0.3,0.4c-0.1,0.1-0.2,0.2-0.3,0.4c-0.1,0.1-0.2,0.2-0.3,0.4c-0.1,0.1-0.2,0.2-0.3,0.4
							c-0.1,0.1-0.2,0.2-0.3,0.4c-0.1,0.1-0.2,0.2-0.3,0.4c-0.2,0.4-0.5,0.9-0.7,1.3c-0.8,1.9-1.6,3.9-2.4,5.8
							c-1.5,3.7-2.9,7.4-4.2,11.1c-0.5,1.5-1.1,3.1-1.6,4.6c-0.5,1.5-1,3.1-1.5,4.7c-1,3.3-1.8,6.8-2.6,10.2
							c-0.4,1.8-0.8,3.7-1.1,5.5C252.4,153.8,252.2,155.7,252,157.5 M186.3,165.9C186.3,165.9,186.3,165.8,186.3,165.9
							C186.2,165.8,186.2,165.8,186.3,165.9L186.3,165.9z M222.7,191.6c0.1-0.1,0.2-0.1,0.3-0.2c0-0.1,0-0.1,0.1-0.2
							c0.1-0.1,0.2-0.1,0.3-0.2c0,0,0,0,0,0c0.1-0.1,0.2-0.2,0.3-0.3c0.6-0.6,1.1-1.4,1.9-1.7c0.1-0.1,0.2-0.2,0.4-0.3
							c0.9-0.7,1.7-1.3,2.6-2c0.6-0.5,1.4-0.8,1.9-1.5c0.1-0.1,0.3-0.2,0.4-0.3c0.6-0.3,1.1-0.9,1.8-1.1c0.4-0.4,0.9-0.7,1.3-1.2
							c0.1-0.1,0.2-0.2,0.3-0.3c0.3-0.2,0.6-0.4,0.8-0.7c0.4-0.3,0.6-0.7,1-1.1c0.1-0.1,0.3-0.2,0.5-0.3c0.6-0.4,1.2-0.8,1.6-1.3
							c0.1-0.1,0.2-0.2,0.3-0.4c0.1-0.1,0.2-0.2,0.3-0.4c0.1-0.1,0.2-0.2,0.3-0.3c0.1,0,0.1-0.1,0.2-0.1c0.5-0.3,0.9-0.6,1.2-1.1
							c0.1-0.1,0.2-0.2,0.3-0.4c0.1-0.1,0.2-0.3,0.3-0.4c0.1-0.1,0.2-0.2,0.3-0.4c0.1-0.1,0.2-0.3,0.3-0.4c0.1-0.1,0.2-0.3,0.3-0.4
							c0.1-0.1,0.2-0.2,0.3-0.4c0.1-0.1,0.2-0.2,0.3-0.4c0.1-0.1,0.2-0.2,0.3-0.4c0.1-0.1,0.2-0.2,0.3-0.4c0.1-0.1,0.2-0.2,0.3-0.4
							c0.2-0.2,0.4-0.5,0.6-0.8c0.5-0.7,1-1.3,1.5-2c0.2-0.3,0.5-0.7,0.7-1c0.9-1.5,1.7-3,2.6-4.4c0.1-0.1,0.2-0.3,0.2-0.4
							c0.4-1.2,0.9-2.3,1.1-3.4c0.1-0.6,0.3-1.2,0.5-1.8c0-0.2,0.1-0.4,0.1-0.5c-0.2-0.4-0.1-0.9-0.2-1.3c-0.3-1.1-0.6-2.3-0.8-3.4
							c-0.4-2-1.3-3.7-2.5-5.3c-0.8-1.1-1.9-1.9-3.1-2.5c-1.5-0.7-2.9-1.6-4.5-2.1c-0.2-0.1-0.4-0.2-0.6-0.3
							c-0.6-0.3-1.1-0.6-1.7-0.9c0.1-0.1,0.2-0.1,0.3-0.2c0.6-0.3,1-0.7,1.5-1.1c0.3-0.3,0.7-0.6,1-0.9c0.8-0.8,1.7-1.5,2.4-2.4
							c0.1-0.1,0.2-0.3,0.3-0.4c0.1-0.1,0.2-0.3,0.3-0.4c0.1-0.1,0.2-0.2,0.3-0.4c0.1-0.1,0.2-0.3,0.3-0.4c0.1-0.1,0.2-0.3,0.3-0.4
							c0.1-0.1,0.2-0.2,0.3-0.4c0.1-0.1,0.2-0.3,0.3-0.4c0.1-0.1,0.2-0.3,0.4-0.4c0.1-0.1,0.2-0.2,0.3-0.3c0.1-0.1,0.2-0.3,0.4-0.4
							c0.4-0.5,0.9-1,1.2-1.6c0-0.1,0.1-0.1,0.2-0.2c0.7-1,1.6-1.9,2.1-3c0.7-1.5,1.4-2.9,2.1-4.4c0.1-0.3,0.2-0.6,0.3-1
							c0.1-0.6,0.3-1.1,0.4-1.7c0.2-0.8,0.3-1.6,0.3-2.5c0-1.1,0-2.2-0.2-3.4c-0.2-1.2-0.4-2.4-0.9-3.5c-0.7-1.8-1.8-3.3-3.4-4.4
							c-0.9-0.7-1.9-1.2-2.9-1.7c-0.9-0.5-1.9-0.8-2.9-1.1c-0.9-0.2-1.8-0.5-2.7-0.9c-1.3-0.7-2.7-1-4.2-1.1
							c-2.4-0.2-4.8-0.1-7.2,0.4c-1.4,0.3-2.9,0.6-4.3,0.9c-1.4,0.3-1.4,0.3-2.5-0.9c-0.1-0.1-0.2-0.2-0.2-0.3
							c-0.3-0.7-0.8-1-1.6-0.9c-0.1,0-0.2,0-0.4,0c-1.6,0-3,0.3-4.2,1.6c-0.9,1.1-2,2-2.9,3.1c0,0.1-0.1,0.1-0.1,0.2
							c-0.1,0.1-0.1,0.1-0.2,0.2c0,0.1-0.1,0.1-0.1,0.2c-0.1,0.1-0.1,0.1-0.2,0.2c0,0.1-0.1,0.1-0.1,0.2c-0.1,0.1-0.1,0.1-0.2,0.2
							c0,0.1-0.1,0.1-0.1,0.2c-0.1,0.1-0.1,0.1-0.2,0.2c0,0.1-0.1,0.1-0.1,0.2c-0.1,0.1-0.1,0.1-0.2,0.2c0,0.1-0.1,0.1-0.1,0.2
							c-0.1,0.1-0.1,0.1-0.2,0.2c0,0.1-0.1,0.1-0.1,0.2c-0.1,0.1-0.1,0.1-0.2,0.2c0,0.1-0.1,0.1-0.1,0.2c-0.1,0.1-0.1,0.1-0.2,0.2
							c0,0.1-0.1,0.1-0.1,0.2c-0.1,0.1-0.1,0.1-0.2,0.2c0,0.1-0.1,0.1-0.1,0.2c-0.1,0.1-0.1,0.1-0.2,0.2c0,0.1-0.1,0.1-0.1,0.2
							c-0.1,0.1-0.1,0.1-0.2,0.2c-0.3,0.3-0.5,0.7-0.8,1c-1.4,1-2.7,2.1-3.8,3.4c-0.3,0.2-0.6,0.5-0.8,0.8c-0.1,0.1-0.2,0.2-0.3,0.4
							c-0.1,0.1-0.2,0.2-0.3,0.4c-0.1,0.1-0.2,0.2-0.3,0.4c-0.1,0.1-0.2,0.2-0.3,0.4c-0.1,0.1-0.2,0.3-0.3,0.4
							c-0.1,0.1-0.2,0.2-0.3,0.4c-0.1,0.1-0.2,0.3-0.3,0.4c-0.1,0.1-0.2,0.2-0.3,0.4c-0.1,0.1-0.2,0.2-0.3,0.4
							c-0.1,0.1-0.2,0.3-0.3,0.4c-0.5,0.5-0.9,1.2-1.3,1.8c-0.6,1.1-1,2.2-1.2,3.4c0,0.3-0.1,0.6-0.2,0.8c0,0.3,0.3,0.5,0.6,0.4
							c0.7-0.3,1.4-0.5,2.1-0.8c0.1,0,0.3,0,0.5,0c0.5,0.1,0.6,0.3,0.4,0.8c-0.1,0.2-0.1,0.3-0.2,0.5c-1.5,3.6-3,7.3-4.4,10.9
							c-0.3,0.9-0.7,1.7-1,2.6c-1.6,4.5-3.2,9-4.7,13.5c-0.6,1.9-1.2,3.9-1.9,5.9c-0.3,1-0.7,1.9-1.5,2.7c-0.6,0.7-1.1,1.6-1.1,2.6
							c0.2,0.2,0.3,0.4,0.4,0.6c0,0,0,0.1-0.1,0.1c0,0-0.1,0.1-0.1,0.1c-0.1,0.1-0.1,0.2-0.2,0.2c0,0-0.1,0.1-0.1,0.1
							c-0.1,0.1-0.1,0.2-0.2,0.2c0,0-0.1,0.1-0.1,0.1c-0.1,0.1-0.1,0.2-0.2,0.2c0,0-0.1,0.1-0.1,0.1c-0.1,0.1-0.1,0.2-0.2,0.2
							c-0.2,0.3-0.4,0.5-0.6,0.8c-0.2,0.3-0.1,0.8,0.3,1c0,0,0,0-0.1,0c0,0,0,0.1,0,0.2c-0.1,0.1-0.2,0.1-0.3,0.2c0,0,0,0.1,0,0.2
							c-0.1,0.1-0.2,0.1-0.3,0.2c0,0,0,0.1,0,0.2c-0.1,0.1-0.2,0.1-0.3,0.2c0,0,0,0.2,0,0.2c0,0.1,0.1,0.1,0.2,0.1
							c0.3,0,0.5-0.2,0.6-0.4c0.2-0.1,0.3-0.2,0.3-0.4c0.2-0.1,0.3-0.2,0.3-0.4c0.1,0,0.1-0.1,0.2-0.1c0.5,0.2,0.5,0.2,0.4,0.9
							c0,0.1,0,0.2-0.1,0.3c0,0-0.1,0-0.1,0c-0.3,0-0.5,0.1-0.5,0.4c-0.2,0-0.3,0.2-0.3,0.4c-0.2,0-0.3,0.2-0.3,0.4
							c-0.2,0-0.3,0.2-0.3,0.4c-0.2,0-0.3,0.2-0.3,0.4c-0.2,0-0.3,0.2-0.3,0.4c-0.2,0-0.3,0.2-0.3,0.4c-0.2,0-0.3,0.2-0.3,0.4
							c-0.2,0-0.3,0.2-0.3,0.4c-0.2,0-0.3,0.2-0.3,0.4c-0.2,0-0.3,0.2-0.3,0.4c-0.2,0-0.3,0.2-0.3,0.4c0,0.1,0,0.2,0,0.3
							c0,0.3,0,0.6,0.1,0.9c0,0.1,0.2,0.2,0.3,0.3c0,0,0.2-0.1,0.3-0.2c0-0.1,0.1-0.1,0.1-0.2c0.1,0,0.2-0.1,0.2-0.2
							c0-0.1,0.1-0.1,0.1-0.2c0.1,0,0.2-0.1,0.2-0.2c0,0,0.1-0.1,0.1-0.1c0,0,0,0,0,0.1c0,0.2,0,0.3,0.1,0.5c0,0.1,0.2,0.2,0.3,0.1
							c0.2-0.1,0.4-0.3,0.5-0.5c0.1-0.1,0.2-0.2,0.3-0.4c0.2-0.1,0.3-0.3,0.4-0.4c0,0,0,0,0.1,0c-0.1,0.6-0.3,1.2-0.4,1.8
							c-0.1,0.1-0.1,0.2-0.2,0.3c-0.2,0.1-0.2,0.2-0.3,0.4c-0.2,0.1-0.2,0.2-0.3,0.4c-0.2,0.1-0.3,0.2-0.3,0.4
							c-0.2,0.1-0.2,0.2-0.3,0.4c-0.1,0.1-0.2,0.2-0.3,0.4c-0.2,0.1-0.3,0.2-0.3,0.4c-0.2,0.1-0.3,0.3-0.4,0.5
							c-0.2,0.4-0.4,0.8-0.3,1.3c0,0.1,0,0.3-0.1,0.5c-0.1,0.5-0.1,0.9,0.1,1.2c0,0,0,0,0,0c-0.1,0-0.3,0.1-0.3,0.1
							c0,0.1,0,0.2,0,0.2c0,0-0.1,0-0.1,0c-0.1,0-0.3,0.1-0.3,0.1c0,0.1,0,0.2,0.1,0.3c0.1,0.2,0.3,0.3,0.5,0.2
							c0.5-0.1,1-0.2,1.5-0.3c0.3-0.1,0.4,0,0.3,0.2c-0.1,0.4-0.1,0.7-0.2,1.1c-0.1-0.1-0.2-0.1-0.2-0.2c0,0-0.1-0.1-0.2,0
							c-0.2,0.1-0.4,0.2-0.6,0.4c-0.1,0.1-0.2,0.2-0.2,0.3c0,0-0.1,0.1-0.1,0.1c-0.1,0.1-0.2,0.2-0.2,0.3c0,0-0.1,0.1-0.1,0.1
							c-0.1,0.1-0.2,0.2-0.2,0.3c0,0-0.1,0-0.1,0.1c-0.1,0.1-0.2,0.2-0.2,0.3c0,0-0.1,0-0.1,0.1c-0.1,0.1-0.2,0.2-0.2,0.3
							c0,0-0.1,0-0.1,0.1c-0.1,0.1-0.2,0.2-0.2,0.3c0,0-0.1,0-0.1,0.1c-0.1,0.1-0.2,0.2-0.2,0.3c0,0-0.1,0-0.1,0.1
							c-0.1,0.1-0.2,0.2-0.2,0.3c0,0-0.1,0-0.1,0.1c-0.1,0.1-0.2,0.2-0.2,0.3c0,0-0.1,0-0.1,0.1c-0.1,0.1-0.2,0.2-0.2,0.3
							c0,0-0.1,0-0.1,0.1c-0.1,0.1-0.2,0.2-0.2,0.3c0,0-0.1,0-0.1,0.1c-0.2,0.2-0.3,0.7-0.2,0.9c0.1,0.2,0.2,0.4,0.4,0.5
							c0.3,0.2,0.6,0.4,1,0.6c0.3-0.1,0.5-0.3,0.8-0.4c0,0,0.1-0.1,0.1-0.2c0.1-0.1,0.2-0.1,0.3-0.2c0,0,0.1-0.1,0.1-0.2
							c0.1-0.1,0.2-0.1,0.3-0.2c0,0,0.1-0.1,0.1-0.2c0.1-0.1,0.2-0.1,0.3-0.2c0,0,0.1-0.1,0.1-0.2c0.1-0.1,0.2-0.1,0.3-0.2
							c0,0,0.1-0.1,0.1-0.2c0.1-0.1,0.2-0.1,0.3-0.2c0,0,0.1-0.1,0.1-0.2c0.1-0.1,0.2-0.1,0.3-0.2c0,0,0.1-0.1,0.1-0.2
							c0.1-0.1,0.2-0.1,0.3-0.2c0,0,0.1-0.1,0.1-0.2c0.1,0,0.2-0.1,0.2-0.1c0.2,1.7,0.4,3.4,0.8,5.1c0.1,0.6,0.3,1,0.9,1.1
							c0.4,0,0.5,0.4,0.7,0.7c0,0,0.1,0.1,0.1,0.1c-0.2,0.1-0.4,0.1-0.5,0.2c-0.4,0.1-0.8,0.1-1.1,0.4c-0.1,0.1-0.3,0-0.5,0
							c-0.1-0.1-0.3-0.2-0.4-0.3c-0.4-0.5-1-0.6-1.6-0.5c-0.2,0-0.4,0.1-0.6,0.1c-0.7,0-1.5,0.3-2.2-0.1c-0.3-0.2-0.5-0.1-0.7,0.2
							c-0.1,0.1-0.1,0.2-0.2,0.3c0,0-0.1,0.1-0.1,0.1c-0.1,0.1-0.1,0.2-0.2,0.3c0,0-0.1,0.1-0.1,0.1c-0.1,0.1-0.1,0.2-0.2,0.3
							c0,0-0.1,0.1-0.1,0.1c-0.1,0.1-0.2,0.2-0.2,0.3c0,0-0.1,0.1-0.1,0.1c-0.1,0.1-0.1,0.2-0.2,0.3c0,0-0.1,0.1-0.1,0.1
							c-0.2,0.1-0.3,0.2-0.6,0.1c-0.2,0-0.4,0.1-0.5,0.3c-0.1,0.1-0.2,0.2-0.3,0.4c0,0,0,0,0,0c-0.1,0.1-0.2,0.2-0.3,0.4
							c0,0,0,0,0,0c-0.1,0.1-0.2,0.2-0.3,0.4c0,0,0,0,0,0c-0.1,0.1-0.2,0.2-0.3,0.4c0,0,0,0,0,0c-0.1,0.1-0.2,0.2-0.3,0.4
							c0,0,0,0,0,0c-0.1,0.1-0.2,0.2-0.3,0.4c0,0,0,0,0,0c-0.1,0.1-0.2,0.2-0.3,0.4c0,0,0,0,0,0c-0.1,0.1-0.2,0.2-0.3,0.4
							c0,0,0,0,0,0c-0.1,0.1-0.2,0.2-0.3,0.4c0,0,0,0,0,0c-0.1,0.1-0.2,0.2-0.3,0.4c0,0,0,0,0,0c-0.1,0.1-0.2,0.2-0.3,0.4
							c0,0,0,0,0,0c-0.3,0.3-0.5,0.6-0.7,0.9c-0.1,0.1-0.2,0.3-0.2,0.4c0,0.2,0,0.4-0.1,0.6c-0.1,0-0.1,0.1-0.2,0.1
							c-0.1,0.1-0.1,0.1-0.2,0.2c-0.1,0.1-0.1,0.1-0.2,0.2c-0.1,0.1-0.1,0.1-0.2,0.2c-0.1,0.1-0.1,0.1-0.2,0.2
							c-0.1,0.1-0.1,0.1-0.2,0.2c-0.1,0.1-0.1,0.1-0.2,0.2c-0.3,0.3-0.4,0.7-0.1,1.1c0.1,0.2,0.2,0.4,0.3,0.7c0.1,0,0.1-0.1,0.2-0.1
							c0.1-0.1,0.3-0.1,0.3,0c0,0.4,0.2,0.6,0.5,0.8c0,0,0.1,0.2,0,0.2c-0.1,0.2,0,0.4,0.2,0.5c0.8,0.3,1.7,0.5,2.6,0.3
							c0.9-0.2,1.9-0.4,2.8-0.6c0.2,0,0.3-0.1,0.5,0c0.5,0.2,1.1,0.1,1.6,0c0.2,0,0.5-0.1,0.6,0c0.4,0.2,0.8,0.2,1.2,0
							c0.7-0.2,1.4-0.4,2.1-0.2c0.3,0.1,0.7,0,1,0c0.5,0,0.9-0.1,1.4-0.1c0.2,0,0.4,0.2,0.3,0.4c-0.1,0.2-0.2,0.3-0.4,0.5
							c0,0.1-0.1,0.2,0,0.2c0,0.1,0.1,0.1,0.2,0.1c0.9,0,1.7-0.1,2.6-0.4c0.9-0.3,1.9-0.6,2.9-0.9c0.8-0.2,1.5-0.5,2.2-0.7
							c0.8-0.3,1.5-0.6,2.3-0.9c0.7-0.3,1.3-0.5,2-0.7c0.5-0.2,1.1-0.5,1.6-0.7c0.2-0.1,0.5-0.2,0.7,0.1c0,0.1,0.2,0.1,0.3,0.1
							c0.7-0.3,1.4-0.4,1.8-1.1c0.1-0.1,0.2-0.2,0.3-0.4c0.1-0.1,0.1-0.1,0.2-0.2c0,0,0.1,0,0.1,0c0.2,0.2,0.4,0.3,0.7,0.1
							c1-0.5,2-0.9,2.9-1.4c2.6-1.3,5.2-2.6,7.8-3.9c0.8-0.4,1.5-0.9,2.3-1.3c0.5-0.7,1.3-0.9,1.9-1.3c0.8-0.4,1.6-0.8,2.2-1.4
							c0.4-0.4,0.8-0.8,1.5-0.9c0.2,0,0.5-0.2,0.7-0.3c0.4-0.3,0.8-0.6,1.2-0.9C222.7,191.7,222.7,191.7,222.7,191.6 M213.4,141.6
							c0.4-1.3,0.8-2.5,1.2-3.8c0.4-1.1,0.8-2.3,1.2-3.4c0.4-1.1,0.7-2.3,1.5-3.3c0.7-0.9,1-2,1.3-3.1c0.5-1.5,1-3,1.6-4.5
							c0.1,0,0.2-0.1,0.3-0.1c1.2-0.5,2.4-0.8,3.5-1.3c1.1-0.5,2.3-0.7,3.5-1c0.9-0.2,1.7-0.4,2.5-0.7c0.5-0.2,1-0.3,1.5-0.3
							c0.7-0.1,1.3-0.2,2-0.3c0.5-0.1,0.9,0.1,1.1,0.6c0.1,0.3,0.3,0.6,0.3,0.9c0.1,0.3,0,0.7,0,1c-0.1,2.4-0.5,4.6-1.8,6.7
							c-0.2,0.4-0.5,0.7-0.7,1c-0.4,0.6-0.8,1.2-1.2,1.8c-0.1,0.1-0.2,0.2-0.4,0.3c-2,1.6-3.9,3.2-6,4.7c-1.3,0.9-2.6,2-4,2.8
							c-0.7,0.7-1.6,1.1-2.4,1.6c-0.9,0.6-1.9,0.7-3,0.8c-0.5-0.2-1.1,0-1.6,0.1c-0.1,0-0.2,0-0.2,0.1c-0.2,0-0.4-0.1-0.4-0.3
							C213.4,141.8,213.4,141.7,213.4,141.6 M220.3,176.8c-0.6,0.4-1.2,0.9-1.9,1.2c-0.3,0.1-0.5,0.3-0.7,0.5
							c-0.9,0.6-1.8,1.3-2.6,1.9c-0.3,0.2-0.6,0.4-1,0.6c-1.7,1-3.4,2-5.1,2.9c-0.3,0.1-0.5,0.3-0.8,0.4c-0.2,0.1-0.5,0.2-0.7,0.3
							c-1.2,1-2.7,1.5-4,2.2c-0.4,0.2-0.8,0.5-1.2,0.7c-0.3,0.2-0.7,0.3-1,0.4c-0.1,0-0.2-0.2-0.2-0.2c0.2-0.7,0.1-1.5,0.1-2.2
							c0-0.6,0.1-1.2,0.4-1.8c0.2-0.3,0.2-0.7,0.2-1.1c0.1-0.5,0.2-1.1,0.2-1.6c0.1-0.8,0.3-1.6,0.4-2.5c0.2-1.4,0.6-2.8,0.9-4.2
							c0.8-3.4,1.8-6.7,2.7-10c0.2-0.9,0.5-1.7,0.8-2.6c0.9-0.5,1.8-0.9,2.7-1.3c1.1-0.4,2.2-1.1,3.3-1.6c1.8-0.8,3.6-1.8,5.5-2.3
							c1.7-0.5,3.4-1.1,5.2-1.3c1.2-0.2,2.4-0.3,3.6-0.1c0.6,0.1,1.1,0.2,1.5,0.5c1.2,0.6,2.2,1.5,3,2.6c0.4,0.5,0.7,1.5,0.6,2.6
							c-0.2,1-0.3,2.3-0.9,3.5c-0.4,0.7-0.7,1.4-1,2.2c-0.1,0.4-0.5,0.7-0.7,1.1c-0.7,1.2-1.5,2.4-2.4,3.4c-0.9,0.7-1.6,1.6-2.4,2.3
							C223.6,174.6,222,175.7,220.3,176.8 M393.4,208.3C393.3,208.3,393.3,208.3,393.4,208.3c-0.1,0.1,0,0.1,0,0.2
							C393.4,208.4,393.4,208.4,393.4,208.3C393.4,208.3,393.4,208.3,393.4,208.3 M349.1,217.6C349.1,217.6,349.1,217.6,349.1,217.6
							C349.1,217.6,349.1,217.6,349.1,217.6L349.1,217.6z M393.7,207.9C393.7,207.9,393.7,207.9,393.7,207.9c-0.1,0.1,0,0.1,0,0.2
							C393.7,208,393.8,208,393.7,207.9C393.8,207.9,393.7,207.9,393.7,207.9 M358.9,166.8c0.2-0.2,0.4-0.5,0.5-0.8
							c0.1-0.1,0.2-0.2,0.2-0.3c0.2-0.1,0.3-0.2,0.3-0.4c0.2-0.1,0.3-0.3,0.4-0.5c0-0.3,0-0.5-0.2-0.7c-0.3-0.2-0.4-0.5-0.4-0.8
							c0-0.5-0.1-1-0.2-1.5c0-0.2,0-0.3,0-0.5c0.1-0.2,0.2-0.4,0.3-0.6c0.2-0.2,0.2-0.4,0-0.7c-0.3-0.6-0.7-0.9-1.3-1.2
							c-0.7-0.3-1.2-0.7-1.8-1.1c-0.5-0.3-1-0.7-1.4-1c-0.2-0.1-0.4-0.3-0.7-0.4c-1-0.3-2-0.8-3.1-0.9c-0.4,0-0.7-0.1-1-0.5
							c-0.2-0.2-0.4-0.3-0.7-0.2c-0.6,0.3-1.3,0.6-1.9,0.9c-0.3,0.2-0.6,0.2-1,0.1c-0.3-0.1-0.5-0.2-0.8-0.2
							c-0.7-0.1-1.5,0.1-2.2-0.2c-0.1,0-0.2,0-0.4,0c-0.4,0.1-0.8,0.1-1.2,0.2c-0.3,0-0.6,0.2-0.7,0.4c0,0,0,0,0,0.1
							c-0.1,0.1-0.2,0.2-0.3,0.3c0,0,0,0,0,0.1c-0.1,0.1-0.2,0.2-0.3,0.3c0,0,0,0,0,0.1c-0.1,0.1-0.2,0.2-0.3,0.3c0,0,0,0,0,0
							c-0.2,0.1-0.4,0.3-0.6,0.4c-0.5,0.4-0.9,0.8-1.3,1.3c0,0.1-0.1,0.1-0.1,0.2c-0.1,0.1-0.1,0.1-0.2,0.2c0,0.1-0.1,0.1-0.1,0.2
							c-0.1,0.1-0.1,0.1-0.2,0.2c0,0.1-0.1,0.1-0.1,0.2c-0.1,0.1-0.1,0.1-0.2,0.2c0,0.1-0.1,0.1-0.1,0.2c-0.1,0.1-0.1,0.1-0.2,0.2
							c0,0.1-0.1,0.1-0.1,0.2c-0.1,0.1-0.1,0.1-0.2,0.2c0,0.1-0.1,0.1-0.1,0.2c-0.1,0.1-0.1,0.1-0.2,0.2c0,0.1-0.1,0.1-0.1,0.2
							c-0.1,0.1-0.1,0.1-0.2,0.2c0,0.1-0.1,0.1-0.1,0.2c-0.1,0.1-0.1,0.1-0.2,0.2c0,0.1-0.1,0.1-0.1,0.2c-0.1,0.1-0.1,0.1-0.2,0.2
							c0,0.1-0.1,0.1-0.1,0.2c-0.1,0.1-0.1,0.1-0.2,0.2c0,0.1-0.1,0.1-0.1,0.2c-0.1,0.1-0.1,0.1-0.2,0.2c-0.1,0.1-0.2,0.3-0.3,0.4
							c-0.1,0.1-0.2,0.2-0.3,0.4c-0.1,0.1-0.2,0.2-0.3,0.4c-0.1,0.1-0.2,0.2-0.3,0.4c-0.1,0.1-0.2,0.2-0.3,0.4
							c-0.3,0.3-0.6,0.7-0.8,1c-0.1,0.2-0.3,0.4-0.4,0.6c-0.7,1.1-1.2,2.2-1.6,3.4c-0.3,0.9-0.6,1.7-0.9,2.6
							c-0.4,0.9-0.6,1.8-0.6,2.8c-0.1,1.5,0,3,0.3,4.5c0.2,0.9,0.5,1.8,0.8,2.7c-0.5,0.1-1,0.3-1.5,0.5c-0.5,0.2-1.1,0.4-1.7,0.5
							c-0.1,0-0.3-0.1-0.3-0.2c-0.1-0.3-0.1-0.6-0.1-0.9c-0.1-1.7-0.1-3.4-0.2-5.1c-0.1-1.1-0.1-2.1-0.6-3.2c-0.5-1-0.6-2.2-0.9-3.3
							c-0.2-0.7-0.4-1.5-0.6-2.2c-0.2-0.6-0.4-1.3-0.6-1.9c-0.3-0.9-0.6-1.7-0.9-2.6c-0.6-1.4-1.6-2.5-2.6-3.6
							c-0.2-0.2-0.5-0.5-0.8-0.6c-0.8-0.3-1.5-0.6-2.3-0.9c-0.3-0.1-0.7-0.2-1-0.3c-1-0.4-2-0.4-3.1-0.3c-0.3,0.1-0.6,0.1-1,0.1
							c-1.9-0.1-3.5,0.6-4.9,1.8c-0.8,0.7-1.5,1.4-2.2,2.2c-0.1,0.1-0.2,0.2-0.3,0.3c0,0-0.1,0.1-0.1,0.1c-0.1,0.1-0.2,0.2-0.3,0.3
							c0,0-0.1,0.1-0.1,0.1c-0.1,0.1-0.2,0.2-0.3,0.3c0,0-0.1,0.1-0.1,0.1c-0.1,0.1-0.2,0.2-0.3,0.3c0,0-0.1,0.1-0.1,0.1
							c-0.1,0.1-0.2,0.2-0.3,0.3c0,0-0.1,0.1-0.1,0.1c-0.1,0.1-0.2,0.2-0.3,0.3c0,0-0.1,0.1-0.1,0.1c-0.1,0.1-0.2,0.2-0.3,0.3
							c0,0-0.1,0.1-0.1,0.1c-0.1,0.1-0.2,0.2-0.3,0.3c0,0-0.1,0.1-0.1,0.1c-0.1,0.1-0.2,0.2-0.3,0.3c0,0-0.1,0.1-0.1,0.1
							c-0.1,0.1-0.2,0.2-0.3,0.3c0,0-0.1,0.1-0.1,0.1c-0.1,0.1-0.2,0.2-0.3,0.3c0,0-0.1,0.1-0.1,0.1c-0.2,0.2-0.3,0.4-0.4,0.6
							c-0.1,0.3-0.3,0.6-0.5,0.8c0,0-0.1,0.1-0.1,0.1c-0.1,0.1-0.2,0.2-0.2,0.3c0,0-0.1,0.1-0.1,0.1c-0.3,0.3-0.5,0.6-0.8,1
							c-0.5,0.6-0.9,1.2-1.4,1.8c-1.7,2-3.3,4.1-4.7,6.4c-1.7,2.7-3.1,5.6-4.5,8.4c-0.6,1.2-1.2,2.5-1.8,3.7c-0.5,1-1,2-1.4,3.1
							c-0.1,0.1-0.1,0.3-0.2,0.4c-0.5-1-1.2-2-2.1-2.8c-1.1-1-2-2.1-3.1-3c0,0,0-0.1,0.1-0.1c0,0,0.1-0.1,0.1-0.1
							c0.1-0.1,0.2-0.2,0.2-0.3c0,0,0.1-0.1,0.1-0.1c0.1-0.1,0.2-0.2,0.2-0.3c0,0,0.1-0.1,0.1-0.1c0.1-0.1,0.2-0.2,0.2-0.3
							c0,0,0.1-0.1,0.1-0.1c0.1-0.1,0.2-0.2,0.2-0.3c0,0,0.1-0.1,0.1-0.1c0.1-0.1,0.2-0.2,0.2-0.3c0,0,0.1-0.1,0.1-0.1
							c0.1-0.1,0.2-0.2,0.2-0.3c1.6-1.9,3-3.9,3.9-6.2c0.1-0.3,0.3-0.5,0.2-0.8c-0.2-0.5-0.1-1.1,0-1.6c0-0.2,0-0.4,0-0.6
							c-0.5-1.7-1.3-3.2-2.8-4.2c-0.5-0.4-1.1-0.8-1.6-1.2c-0.7-0.4-1.3-0.9-2.1-1.2c-2-0.8-4.1-1.4-6.3-1.5
							c-2.8-0.2-5.7-0.1-8.5,0.2c-0.3,0-0.7,0.1-1,0.2c-1,0.3-2.1,0.6-3.1,1c-1.2,0.5-2.5,1.1-3.7,1.6c-1.3,0.6-2.5,1.4-3.8,2.2
							c-1.8,1.1-3.5,2.2-5.1,3.4c-0.7,0.5-1.4,1.1-2,1.7c-0.1,0.1-0.2,0.2-0.3,0.3c0,0,0,0-0.1,0.1c-0.1,0.1-0.2,0.2-0.3,0.3
							c0,0,0,0-0.1,0.1c-0.1,0.1-0.2,0.2-0.3,0.3c0,0,0,0-0.1,0.1c-0.1,0.1-0.2,0.2-0.3,0.3c0,0,0,0-0.1,0.1
							c-0.1,0.1-0.2,0.2-0.3,0.3c0,0,0,0-0.1,0.1c-0.1,0.1-0.2,0.2-0.3,0.3c0,0,0,0-0.1,0.1c-0.1,0.1-0.2,0.2-0.3,0.3
							c0,0,0,0-0.1,0.1c-0.1,0.1-0.2,0.2-0.3,0.3c0,0,0,0-0.1,0.1c-0.1,0.1-0.2,0.2-0.3,0.3c0,0,0,0-0.1,0.1
							c-0.1,0.1-0.2,0.2-0.3,0.3c0,0,0,0-0.1,0.1c-0.1,0.1-0.2,0.2-0.3,0.3c0,0,0,0-0.1,0.1c-0.2,0.2-0.3,0.4-0.3,0.6
							c0,0.5-0.1,0.9-0.4,1.3c-0.3,0.5-0.6,1.1-0.8,1.7c-0.1,0.4,0,0.8,0,1.2c0,0.1,0,0.3,0,0.4c-0.1,0.5,0.1,0.8,0.5,1.1
							c0.2,0.2,0.4,0.4,0.7,0.6c0.5,0.4,0.9,0.7,1.5,0.8c0.5,0.1,1.1,0.3,1.6,0.5c0.4,0.2,0.9,0.3,1.3,0.3c0.4,0,0.5,0.2,0.3,0.5
							c-0.5,1.2-0.9,2.4-1.4,3.6c-0.1,0.1-0.1,0.1-0.1,0.2c0,0,0,0,0,0.1c0,0,0,0-0.1,0c-0.1,0.1-0.2,0.2-0.2,0.3c0,0,0,0,0,0.1
							c0,0,0,0-0.1,0c-0.1,0.1-0.2,0.2-0.2,0.3c0,0,0,0,0,0.1c0,0,0,0-0.1,0c-0.1,0.1-0.2,0.2-0.2,0.3c0,0,0,0,0,0.1c0,0,0,0-0.1,0
							c-0.1,0.1-0.2,0.2-0.2,0.3c0,0,0,0,0,0.1c0,0,0,0-0.1,0c-0.1,0.1-0.2,0.2-0.2,0.3c0,0,0,0,0,0.1c0,0,0,0-0.1,0
							c-0.1,0.1-0.2,0.2-0.2,0.3c0,0,0,0,0,0.1c0,0,0,0-0.1,0c-0.1,0.1-0.2,0.2-0.2,0.3c0,0,0,0,0,0.1c0,0,0,0-0.1,0
							c-0.1,0.1-0.2,0.2-0.2,0.3c0,0,0,0,0,0.1c0,0,0,0-0.1,0c-0.1,0.1-0.2,0.2-0.2,0.3c-0.1,0.6-0.5,0.9-0.8,1.4c0,0,0,0,0,0
							c-0.1,0.1-0.1,0.2-0.2,0.2c0,0,0,0,0,0c-0.1,0.1-0.3,0.2-0.3,0.4c0,0,0,0,0,0c-0.1,0.1-0.3,0.2-0.3,0.4c0,0,0,0,0,0
							c-0.2,0.1-0.4,0.3-0.4,0.5c0,0.5-0.2,0.8-0.4,1.2c-0.2,0.3-0.3,0.7-0.1,1c0.1,0.1,0,0.4,0,0.6c-0.1,0.3-0.3,0.7-0.5,1
							c-0.1,0.2,0,0.4,0.1,0.6c0.2,0.2,0.4,0.4,0.7,0.5c0.3,0.1,0.6,0.2,0.9,0.3c0.8,0.4,0.8,0.7,0.7,1.3c-0.4,2.2-0.7,4.4-1.2,6.5
							c-0.1,0.3-0.1,0.6-0.2,1c-1.5,0.5-3,0.7-4.5,0.7c-0.6,0-1.1-0.2-1.6-0.5c-0.3-0.2-0.4-0.5-0.3-0.9c0.1-0.4,0.1-0.7,0.2-1.1
							c0-0.4-0.3-0.6-0.7-0.5c-0.2,0.1-0.3,0.2-0.4,0.2c-0.3,0-0.2-0.3-0.3-0.5c-0.3-0.5-0.2-0.9-0.1-1.4c0.1-0.4,0.2-0.9,0.3-1.3
							c0-0.1-0.1-0.3-0.2-0.3c-0.1,0-0.2,0-0.3,0.1c-0.1,0.1-0.2,0.2-0.3,0.4c0,0-0.1,0.1-0.1,0.2c-0.1,0.1-0.1,0.2-0.2,0.2
							c0,0,0,0,0,0c-0.1,0.1-0.2,0.2-0.4,0.2c0,0,0,0,0,0l0,0l0-0.1h0c0.1-0.3,0.1-0.6,0.2-0.8c0-0.2,0-0.3,0-0.5
							c0-0.1-0.1-0.2-0.1-0.2c-0.1,0-0.2,0-0.2,0c-0.1,0.1-0.3,0.2-0.4,0.3c-0.1,0.1-0.2,0.3-0.3,0.4c0,0,0,0,0,0
							c-0.1,0.1-0.2,0.3-0.3,0.4c0,0,0,0,0,0c-0.1,0.1-0.2,0.3-0.3,0.4l0,0c-0.1,0.1-0.2,0.3-0.3,0.4c0,0,0,0,0,0
							c-0.1,0.1-0.2,0.3-0.3,0.4c0,0,0,0,0,0c-0.1,0.1-0.2,0.3-0.3,0.4c0,0,0,0,0,0c-0.1,0.1-0.2,0.3-0.3,0.4c0,0,0,0,0,0
							c-0.1,0.1-0.2,0.3-0.3,0.4c0,0,0,0,0,0c-0.1,0.1-0.2,0.3-0.3,0.4c0,0,0,0,0,0c-0.1,0.1-0.2,0.3-0.3,0.4c0,0,0,0,0,0
							c-0.1,0.1-0.2,0.3-0.3,0.4c0,0,0,0,0,0c-0.7,0.8-1.5,1.7-2.2,2.6c-0.9,1.1-1.8,2.3-2,3.8c0,0.3-0.2,0.6-0.3,0.8
							c-0.2,0.8-0.5,1.5-0.7,2.3c-0.1,0.2-0.1,0.5-0.1,0.7c0,0.5,0.1,1,0.1,1.5c0,0.5,0.1,1,0.5,1.4c0.4,0.4,0.8,0.9,1.4,1.2
							c0.6,0.3,1.1,0.6,1.6,1c0.3,0.2,0.5,0.3,0.8,0.2c0.1,0,0.4,0,0.4,0.1c0.3,0.3,0.7,0.4,1.1,0.3c0.5-0.1,1.1,0,1.6,0.1
							c0.9,0.2,1.8-0.2,2.7,0.1c0.2,0.1,0.4,0,0.6-0.1c0.2,0,0.5,0,0.7,0c0.2,0,0.4,0,0.6-0.1c1.8-0.4,3.7-0.8,5.5-1.4
							c1-0.3,2-0.6,3-0.9c1-0.3,2-0.7,2.9-1.1c0.9-0.3,1.8-0.6,2.7-1c0.9-0.4,1.8-0.8,2.6-1.1c0.8-0.3,1.6-0.6,2.3-0.9
							c1.4-0.7,2.9-1.4,4.4-1.9c0.7-0.3,1.4-0.6,2.1-0.9c1.2-0.6,2.5-1.2,3.7-1.8c1.3-0.6,2.6-1.2,3.8-1.9c2.1-1.2,4.3-2.3,6.2-3.8
							c1-0.5,1.7-1.3,2.6-1.9c0.5-0.4,0.9-0.8,1.3-1.3c0-0.1,0.1-0.1,0.2-0.2c0.1-0.1,0.1-0.1,0.2-0.2c0,0,0,0,0,0
							c0.3-0.4,0.7-0.7,1.1-0.9c0.7-0.3,1.1-0.8,1.6-1.3c0.1-0.1,0.2-0.3,0.3-0.4c0.1-0.1,0.1-0.1,0.2-0.2c0,0,0,0,0,0
							c0,0,0.1,0,0.1,0.1c0,0.2,0,0.4,0,0.6c-0.1,1.2-0.4,2.3-0.4,3.5c0,1,0,2,0,3c0,0.4,0,0.7,0.3,1c0.1,0.1,0.2,0.3,0.1,0.5
							c-0.1,0.4,0.1,0.7,0.2,1.1c0,0.1,0.1,0.3,0.3,0.4c0.6,0.4,1.3,0.8,1.9,1.1c0.6,0.3,1,0.8,1.1,1.4c0.2,0.8,0.4,1.5,0.6,2.3
							c0.2,0.7,0.4,1.5,0.4,2.2c0.1,1,0.2,2,0.6,2.9c0.1,0.2,0.1,0.4,0,0.6c-0.3,0.7-0.2,1.4-0.4,2.1c-0.2,1,0.1,2,0.4,2.9
							c0.3,0.7,1,1.1,1.7,0.9c0.2,0,0.4-0.1,0.6-0.1c0.8-0.1,1.3-0.5,1.8-1.1c0,0,0,0,0,0c0.1-0.1,0.2-0.2,0.3-0.4c0,0,0,0,0,0
							c0.1-0.1,0.2-0.2,0.3-0.4c0,0,0,0,0,0c0.1-0.1,0.2-0.2,0.3-0.4c0,0,0,0,0,0c0.1-0.1,0.2-0.2,0.3-0.4c0,0,0,0,0,0
							c0.1-0.1,0.2-0.2,0.3-0.4c0,0,0,0,0,0c0.1-0.1,0.2-0.2,0.3-0.4c0,0,0,0,0,0c0.1-0.1,0.1-0.1,0.2-0.2c0.2,0.4,0.6,0.8,1.1,0.9
							c0.2,0.1,0.4,0,0.5-0.2c0-0.1,0.1-0.1,0.1-0.2c0.1,0,0.2-0.1,0.2-0.2c0-0.1,0.1-0.1,0.1-0.2c0.1,0,0.2-0.1,0.2-0.2
							c0-0.1,0.1-0.1,0.1-0.2c0.1,0,0.2-0.1,0.2-0.2c0-0.1,0.1-0.1,0.1-0.2c0.1,0,0.2-0.1,0.2-0.2c0-0.1,0.1-0.1,0.1-0.2
							c0.1,0,0.2-0.1,0.2-0.2c0-0.1,0.1-0.1,0.1-0.2c0.1,0,0.2-0.1,0.2-0.2c0-0.1,0.1-0.1,0.1-0.2c0.1,0,0.2-0.1,0.2-0.2
							c0-0.1,0.1-0.1,0.1-0.2c0.1,0,0.2-0.1,0.2-0.2c0-0.1,0.1-0.1,0.1-0.2c0.1,0,0.2-0.1,0.2-0.2c0-0.1,0.1-0.1,0.1-0.2
							c0.1,0,0.2-0.1,0.2-0.2c0-0.1,0.1-0.1,0.1-0.2c0.1,0,0.2-0.1,0.2-0.2c0.1-0.2,0.2-0.4,0.3-0.6c0-0.7-0.2-1.2-0.7-1.6
							c-0.3-0.2-0.6-0.2-0.9-0.1c-0.2,0.1-0.4,0.2-0.4,0.4c-0.2,0.1-0.3,0.2-0.3,0.4c-0.2,0.1-0.3,0.2-0.3,0.4
							c-0.2,0.1-0.3,0.2-0.3,0.4c-0.2,0.1-0.3,0.2-0.3,0.4c-0.2,0.1-0.3,0.2-0.3,0.4c-0.1,0-0.1,0.1-0.2,0.1
							c-0.1-0.3-0.3-0.6-0.5-0.8c-0.2-0.2-0.6-0.4-0.8-0.6c-0.4-0.5-0.9-0.9-1.4-1.3c-0.8-0.5-1.1-1.2-1.3-2.1
							c-0.1-0.9-0.3-1.8-0.3-2.7c0-0.3,0-0.7,0-1c1.4-0.1,2.6-0.4,3.6-1.5c0.2-0.2,0.4-0.3,0.6-0.4c0.9-0.6,1.9-1.1,2.8-1.6
							c1-0.4,1.9-1,2.6-1.7c0.4-0.4,0.8-0.7,1.2-1c0.4-0.3,0.9-0.6,1.3-1c0.8-0.6,1.6-1.2,2.5-1.7c1.2-0.8,2.5-1.5,3.7-2.4
							c0.5-0.4,1.2-0.8,1.7-1.2c0.1-0.1,0.3-0.2,0.4-0.2c0.2-0.1,0.4,0,0.5,0.2c0.1,0.3,0.1,0.6,0.2,0.9c0.2,1.1,0.6,2.2,0.8,3.3
							c0.6,2.5,1.3,5,2.4,7.4c0.2,0.5,0.2,0.5,0.7,0.4c0.6,0,0.8-0.1,0.9-0.5c0.1-0.1,0.2-0.2,0.3-0.4c0.1-0.1,0.2-0.2,0.3-0.4
							c0.1-0.1,0.2-0.2,0.3-0.4c0.1-0.1,0.2-0.2,0.3-0.4c0.1,0,0.1-0.1,0.1-0.1c0.2,0,0.3,0.1,0.5,0.1c0.2,0.1,0.3,0.2,0.4,0.3
							c0.5,0.2,0.9,0.1,1.2-0.3c0,0,0-0.1,0.1-0.1c0.1-0.1,0.2-0.2,0.3-0.3c0,0,0-0.1,0.1-0.1c0.1-0.1,0.2-0.2,0.3-0.3
							c0,0,0-0.1,0.1-0.1c0.1-0.1,0.2-0.2,0.3-0.3c0,0,0-0.1,0.1-0.1c0.1-0.1,0.2-0.2,0.3-0.3c0,0,0-0.1,0.1-0.1
							c0.1-0.1,0.2-0.2,0.3-0.3c0,0,0-0.1,0.1-0.1c0.1-0.1,0.2-0.2,0.3-0.3c0,0,0-0.1,0.1-0.1c0.1-0.1,0.2-0.2,0.3-0.3
							c0,0,0-0.1,0.1-0.1c0.1-0.1,0.2-0.2,0.3-0.3c0,0,0-0.1,0.1-0.1c0.1-0.1,0.2-0.2,0.3-0.3c0,0,0-0.1,0.1-0.1
							c0.1-0.1,0.2-0.2,0.3-0.3c0,0,0-0.1,0.1-0.1c0.1-0.1,0.2-0.2,0.3-0.3c0.3-0.4,0.4-0.9,0.6-1.4c0.1-0.2,0.2-0.4,0.3-0.7
							c0.1-0.1,0.2-0.2,0.3-0.4c0.2-0.1,0.3-0.2,0.3-0.4c0.2-0.1,0.3-0.2,0.3-0.4c0.3-0.2,0.4-0.5,0.4-0.9c0-0.2,0-0.3,0.1-0.5
							c0.1-0.1,0.2-0.2,0.2-0.3c0,0,0,0,0,0c0.4-0.3,0.5-0.8,0.5-1.2c0-0.9,0-1.8,0.1-2.8c0-0.2,0-0.4,0.1-0.6c0,0,0.1,0,0.1-0.1
							c0,0,0.1-0.1,0.1-0.2c0.1-0.1,0.1-0.1,0.2-0.1c0.1,0,0.1-0.2,0.1-0.3c0-0.2-0.1-0.5-0.1-0.7c-0.2-0.9-0.3-1.9-0.5-2.8
							c0-0.3-0.1-0.6,0-0.9c0.2-0.7,0.1-1.4,0.1-2.1c0-0.8-0.1-1.6-0.1-2.4c0-0.2,0.1-0.5,0.2-0.7c0,0,0,0,0-0.1
							c0,0,0.1-0.1,0.1-0.1c0.1-0.1,0.3-0.2,0.3-0.4c0.1-0.1,0.3-0.2,0.3-0.4c0.2-0.4,0.1-0.8,0.1-1.2c0-0.1,0.1-0.2,0.2-0.3
							c0.1-0.2,0.3-0.4,0.4-0.7c0-0.1,0-0.1,0.1-0.2c0.2-0.1,0.4-0.3,0.5-0.5c0.1-0.1,0.2-0.2,0.3-0.4c0.1-0.1,0.2-0.2,0.3-0.4
							c0.1-0.1,0.2-0.2,0.3-0.4c0.1-0.1,0.2-0.2,0.3-0.4c0.1-0.1,0.2-0.2,0.3-0.4c0.1-0.1,0.2-0.2,0.3-0.4c0.1-0.1,0.2-0.2,0.3-0.4
							c0.1,0,0.1-0.1,0.2-0.2c0.7,1.6,1.5,3.2,2.4,4.8c1.2,1.9,2.3,3.8,3.4,5.8c0.7,1.3,1.3,2.7,2.1,4c0.3,0.5,0.3,1.2,1,1.5
							c0.1,0,0.1,0.1,0.1,0.2c0.3,0.8,0.6,1.6,0.8,2.4c0.3,0.9,0.5,1.8,0.7,2.7c0,0.2,0.1,0.3,0.1,0.5c-0.3-0.1-0.6,0.1-0.9,0.3
							c-0.3,0.2-0.6,0.4-0.9,0.4c-0.8,0.2-1.5,0.5-2,1.1c-0.1,0.1-0.3,0.1-0.3,0.1c0,0.1,0,0.2,0,0.3c-0.1,0.1-0.3,0.1-0.3,0.1
							c0,0.1,0,0.2,0,0.3c-0.1,0.1-0.3,0.1-0.3,0.1v0c-0.1,0-0.1,0-0.2,0.1c-0.1,0.1-0.2,0.2-0.3,0.3c0,0,0,0-0.1,0.1
							c-0.1,0.1-0.2,0.2-0.3,0.3c0,0,0,0-0.1,0.1c-0.1,0.1-0.2,0.2-0.3,0.3c0,0,0,0-0.1,0.1c-0.1,0.1-0.2,0.2-0.3,0.3
							c0,0,0,0-0.1,0.1c-0.1,0.1-0.2,0.2-0.3,0.3c0,0,0,0-0.1,0.1c-0.1,0.1-0.2,0.2-0.3,0.3c0,0,0,0-0.1,0.1
							c-0.1,0.1-0.2,0.2-0.3,0.3c0,0,0,0-0.1,0.1c-0.1,0.1-0.2,0.2-0.3,0.3c0,0,0,0-0.1,0.1c-0.1,0.1-0.2,0.2-0.3,0.3
							c0,0,0,0-0.1,0.1c-0.1,0.1-0.2,0.2-0.3,0.3c0,0,0,0-0.1,0.1c-0.1,0.1-0.2,0.2-0.3,0.3c0,0,0,0-0.1,0.1
							c-0.2,0.2-0.4,0.5-0.4,0.7c0,0.4,0,0.7-0.4,1c-0.1,0.1,0,0.3,0,0.5c0.1,0.4,0.2,0.8,0,1.2c-0.1,0.1-0.1,0.1-0.1,0.2
							c0,0,0,0,0,0c-0.5,0.4-0.5,0.9-0.4,1.5c0,0.2,0.2,0.5,0.1,0.7c-0.1,0.4,0,0.7,0.2,1c0.2,0.2,0.2,0.5,0,0.7
							c-0.1,0.1-0.1,0.2-0.2,0.3c-0.1,0.3-0.1,0.4,0.2,0.5c0.5,0.1,1,0.1,1.4,0.5c0.1,0.1,0.3,0.2,0.4,0.2c0.4,0,0.8,0,1.2-0.1
							c0.3-0.1,0.6-0.2,1-0.2c0.1,0,0.3,0,0.3,0.1c0.1,0.3,0.3,0.3,0.6,0.2c0.8-0.4,1.5-1,2.5-1c0.2,0,0.4-0.2,0.5-0.3
							c0.3-0.2,0.5-0.4,0.8-0.5c0.3-0.2,0.6-0.2,0.8-0.1c0.7,0.4,1.3,0.2,1.8-0.3c0,0,0.1,0,0.1-0.1c0.8-0.4,1.6-0.7,2.3-1.2
							c0.1-0.1,0.2-0.1,0.4-0.1c0.7,0.1,1.1-0.3,1.6-0.6c0.3-0.2,0.6-0.5,0.9-0.7c0.2-0.2,0.4,0,0.5,0.2c0.2-0.1,0.4-0.2,0.5-0.3
							c0.2-0.2,0.4-0.4,0.8-0.3c0.1,0,0.2-0.1,0.2-0.2c0-0.1,0-0.1,0-0.2c0,0,0.1,0,0.1,0c0.1,0,0.2-0.1,0.2-0.2c0-0.1,0-0.1,0-0.2
							c0,0,0.1,0,0.1,0c0.1,0,0.2-0.1,0.2-0.2c0-0.1,0-0.1,0-0.2c0,0,0.1,0,0.1,0c0.1,0,0.2-0.1,0.2-0.2c0-0.1,0-0.1,0-0.2
							c0,0,0.1,0,0.1,0c0.1,0,0.2-0.1,0.2-0.2c0-0.1,0-0.1,0-0.2c0,0,0.1,0,0.1,0c0.1,0,0.2-0.1,0.2-0.2c0-0.1,0-0.1,0-0.2
							c0,0,0.1,0,0.1,0c0.1,0,0.2-0.1,0.2-0.2c0-0.1,0-0.1,0-0.2c0,0,0.1,0,0.1,0c0.1,0,0.2-0.1,0.2-0.2c0-0.1,0-0.1,0-0.2
							c0,0,0.1,0,0.1,0c0.1,0,0.2-0.1,0.2-0.2c0-0.1,0-0.1,0-0.2c0,0,0.1,0,0.1,0c0.1,0,0.2-0.1,0.2-0.2c0-0.1,0-0.1,0-0.2
							c0,0,0.1,0,0.1,0c0.1,0,0.2-0.1,0.2-0.2c0-0.1,0-0.1,0-0.2c0,0,0.1,0,0.1,0c0.1,0,0.2-0.1,0.2-0.2c0-0.1,0-0.2,0-0.3
							c0,0,0,0,0,0c0.1-0.1,0.2-0.2,0.3-0.4c0.1-0.1,0.2-0.3,0.3-0.4c0.8-0.8,1.3-1.8,1.5-2.8c0.2-0.9,0.5-1.7,1.1-2.4
							c0.5-0.6,0.7-1.4,0.7-2.2c0-1,0.1-1.9,0.1-2.9c0-1.1,0.1-2.3-0.5-3.3c-0.1-0.1-0.1-0.3-0.1-0.5c-0.4-1.4-0.5-3-0.9-4.4
							c-0.6-2-1.2-4-2-5.9c-0.7-1.5-1.3-3-2-4.4c-0.8-1.6-1.6-3.3-2.4-5c-0.5-1.1-1-2.2-1.5-3.4c0,0,0-0.1,0.1-0.1
							c0,0,0.1-0.1,0.1-0.1c0,0,0.1-0.1,0.1-0.1c0.2-0.1,0.4-0.1,0.7-0.1c0.4,0,0.7-0.1,1.1-0.1c0.5,0,1,0,1.2-0.5
							c0.1-0.1,0.3-0.2,0.3-0.4c0.1-0.1,0.3-0.2,0.3-0.4c0.1,0,0.1-0.1,0.2-0.2c0.5-0.3,0.7-0.1,0.9,0.4c0.1,0.4,0.1,0.7,0.2,1.1
							c0.1,0.2,0.1,0.5,0.4,0.6c0.1,0.1,0.1-0.1,0.2-0.5c0,0.1,0.1,0.1,0.2,0.2c0.1,0.1,0.1-0.1,0.2-0.5c0,0.1,0.1,0.1,0.2,0.2
							c0.1,0.1,0.1-0.1,0.2-0.5c0,0.1,0.1,0.1,0.2,0.2c0.1,0.1,0.1-0.1,0.2-0.5c0,0.1,0.1,0.1,0.2,0.2c0.1,0.1,0.1-0.1,0.2-0.5
							c0,0.1,0.1,0.1,0.2,0.2c0.1,0.1,0.1-0.1,0.2-0.5c0,0.1,0.1,0.1,0.2,0.2c0.1,0.1,0.1-0.1,0.2-0.5c0,0.1,0.1,0.1,0.2,0.2
							c0.1,0.1,0.1-0.1,0.2-0.5c0,0.1,0.1,0.1,0.2,0.2c0.1,0.1,0.1-0.1,0.2-0.5c0,0.1,0.1,0.1,0.2,0.2c0.1,0.1,0.1-0.1,0.2-0.5
							c0,0.1,0.1,0.1,0.2,0.2c0.1,0.1,0.1-0.1,0.2-0.5c0,0.1,0.1,0.1,0.2,0.2c0.1,0.1,0.1-0.1,0.2-0.6c0-0.6-0.2-1.1-0.4-1.7
							c0,0,0,0,0-0.1c0,0,0,0,0-0.1c0.1-0.1,0.2-0.2,0.3-0.4c0.1-0.1,0.2-0.2,0.3-0.4C358.7,167.1,358.8,166.9,358.9,166.8
							 M261.1,183.9C261.1,183.9,261.1,183.8,261.1,183.9c0.6-0.4,1.3-0.6,2-0.8c0.8-0.3,1.7-0.3,2.6-0.4c0.1,0,0.2,0,0.4,0.1
							c0.4,0,0.8-0.1,1.2-0.1c-0.1,0.1-0.2,0.1-0.4,0.2c-0.9,0.4-1.8,0.8-2.7,1.3c-1,0.5-2.1,0.9-3.1,1.4c-0.2,0.1-0.3,0-0.3-0.3
							C260.8,184.7,260.9,184.3,261.1,183.9 M269.2,202.7c-1.8,1.1-3.6,2.3-5.4,3.3c-2.4,1.4-4.8,2.6-7.3,3.9
							c-0.1,0.1-0.3,0.1-0.5,0.2c-0.1,0-0.2-0.1-0.2-0.2c0-0.1,0-0.3,0-0.4c0.5-2.3,0.9-4.6,1.5-6.8c0-0.1,0.1-0.2,0.1-0.3
							c0.4-0.2,0.7-0.3,1.1-0.5c0.6-0.3,1.3-0.5,1.8-1.1c0.1-0.2,0.4-0.2,0.7-0.3c1.5-0.4,3-0.7,4.6-0.7c0.5,0,1.1,0.1,1.6,0.1
							c0.7,0.1,1.4,0.3,1.8,1c0.3,0.4,0.5,0.8,0.8,1.1c0.1,0.1,0.1,0.2,0.1,0.3C269.6,202.4,269.4,202.5,269.2,202.7 M308,191.3
							c-1.2,0.5-2.4,1-3.5,1.6c-0.4,0.2-0.8,0.4-1.2,0.6c-0.4,0.2-0.8,0.3-1.2,0.4c-0.1,0-0.2-0.1-0.2-0.2c0-0.1,0-0.2,0-0.2
							c0.4-1,0.5-2.1,1-3.1c0.2-0.4,0.3-0.8,0.4-1.2c0.4-1.6,1-3.2,1.8-4.7c0.2-0.5,0.5-1,0.7-1.5c0.5-1.3,1.1-2.5,1.7-3.7
							c0-0.1,0.1-0.2,0.1-0.3c0.2,1.2,0.2,2.5,0.3,3.7c0,0.3,0,0.6,0,0.9c0.1,2.5,0.3,5,0.4,7.6C308.3,191.2,308.1,191.2,308,191.3
							 M424.7,171.1c-0.1-0.4-0.2-0.4-0.5-0.4c-0.2,0-0.5,0.1-0.7,0.1c-0.3,0-0.6,0-0.7-0.4c-0.1-0.4-0.5-0.4-0.8-0.4
							c-1.1,0-2.2,0.3-3.2,0.2c-0.1,0-0.3,0-0.4,0.1c-0.4,0.3-0.9,0.2-1.3,0.2c-0.5,0-0.9,0-1.4,0.1c-0.9,0.1-1.8,0.3-2.7,0.4
							c-0.6,0.1-1.2,0.1-1.9,0.1c-0.3,0-0.5-0.2-0.4-0.5c0.5-2.2,0.9-4.5,1.4-6.7c0.4-1.7,0.9-3.5,1.4-5.2c0.2-0.8,0.5-1.6,0.7-2.4
							c0.2-0.7,0.3-1.4,0.7-2c0.6-1,0.7-2.1,1.1-3.2c0.2-0.6,0.1-1.1-0.5-1.6c-0.2-0.1-0.3-0.4-0.4-0.6c-0.1-0.4-0.3-0.5-0.6-0.7
							c-0.5-0.3-1-0.3-1.4-0.8c-0.1-0.1-0.4-0.2-0.6-0.1c-0.4,0.1-0.8-0.2-1.2-0.2c-0.5,0.1-0.8-0.1-1.1-0.4
							c-0.1-0.1-0.2-0.1-0.4-0.1c-0.4,0-0.7,0.1-1,0.3c-0.4,0.3-0.4,0.3-0.8-0.1c-0.4-0.3-0.6-0.4-1-0.1c-0.2,0.2-0.4,0.3-0.6,0.6
							c-0.1,0.1-0.2,0.2-0.3,0.4c-0.1,0.1-0.2,0.2-0.3,0.4c-0.1,0.1-0.2,0.2-0.3,0.4c0,0,0,0-0.1,0.1c0,0,0,0-0.1,0
							c-0.2,0-0.4,0.1-0.5,0.3c-0.1,0.1-0.2,0.2-0.3,0.4c0,0,0,0,0,0c-0.1,0.1-0.2,0.2-0.3,0.4c0,0,0,0,0,0
							c-0.1,0.1-0.2,0.2-0.3,0.4c0,0,0,0,0,0c-0.1,0.1-0.2,0.2-0.3,0.4c0,0,0,0,0,0c-0.1,0.1-0.2,0.2-0.3,0.4c0,0,0,0,0,0
							c-0.1,0.1-0.2,0.2-0.3,0.4c0,0,0,0,0,0c-0.1,0.1-0.2,0.2-0.3,0.4c0,0,0,0,0,0c-0.1,0.1-0.2,0.2-0.3,0.4c0,0,0,0,0,0
							c-0.1,0.1-0.2,0.2-0.3,0.4c0,0,0,0,0,0c-0.1,0.1-0.2,0.2-0.3,0.4c0,0,0,0,0,0c-0.1,0.1-0.2,0.2-0.3,0.4c0,0,0,0,0,0
							c-0.9,0.9-1.4,2-2.1,2.9c-0.3,0.4-0.5,1-0.8,1.4c-1,1.5-1.7,3.2-2.4,4.8c-0.6,1.4-1.1,2.9-1.6,4.3c-0.2,0.5-0.3,0.9-0.4,1.4
							c-0.4,1.4-0.8,2.9-1.2,4.3c-0.2,0.9-0.5,1.9-0.7,2.8c-0.2,0.9-0.4,1.9-0.5,2.8c-1.3,0.5-2.5,0.9-3.8,1.4
							c-0.3,0.1-0.6,0.2-0.9,0.4c-0.5,0.2-1,0.3-1.6,0.4c-0.8,0-1.6,0.3-2.3,0.6c-0.3,0.2-0.7,0.3-1,0.4c-0.4,0.2-0.9,0.2-1.3,0.3
							c-0.3,0-0.4-0.2-0.4-0.5c0.3-1.8,0.6-3.6,0.9-5.4c0.2-1.2,0.4-2.4,0.6-3.6c0.1-0.3,0.1-0.7,0.2-1c0.2-1.2,0.4-2.4,0.6-3.6
							c0.1-0.4,0.1-0.7,0.2-1.1c0-0.8,0.1-1.7,0.4-2.5c0.1-0.2,0.1-0.3,0.1-0.5c0.1-0.7,0.1-1.5,0.2-2.2c0-0.4,0-0.7-0.1-1.1
							c-0.2-0.9-0.5-1.8-0.2-2.7c0.1-0.2-0.1-0.4-0.3-0.5c-0.2-0.1-0.4-0.3-0.7-0.1c-0.2,0.1-0.3,0-0.4-0.2
							c-0.1-0.1-0.1-0.3-0.1-0.5c-0.1-0.3-0.3-0.4-0.6-0.2c-0.3,0.2-0.5,0.3-0.8,0.2c-0.3-0.1-0.6-0.2-0.9,0.2c0,0.1-0.3,0-0.3,0
							c-0.5-0.3-1-0.3-1.5-0.4c-0.6-0.1-1,0.4-1.6,0.2c0,0-0.2,0.1-0.2,0.1c0,0.1-0.1,0.2-0.2,0.3c-0.1,0-0.1,0.1-0.2,0.1
							c0,0,0,0.1-0.1,0.1c-0.2,0.2-0.5,0.4-0.7,0.7c-0.1,0.1-0.2,0.2-0.3,0.4c-0.1,0.1-0.2,0.2-0.3,0.4c-0.1,0.1-0.2,0.2-0.3,0.4
							c-0.1,0.1-0.2,0.2-0.3,0.4c-0.1,0.1-0.2,0.2-0.3,0.4c-0.1,0.1-0.2,0.2-0.3,0.4c-0.1,0.1-0.2,0.2-0.3,0.4
							c-0.1,0.1-0.2,0.2-0.3,0.4c-0.1,0.1-0.2,0.2-0.3,0.4c-0.1,0.1-0.2,0.2-0.3,0.4c-0.2,0.2-0.4,0.4-0.5,0.6c0,0,0,0.1,0,0.1
							c0,0,0,0,0,0c-0.1,0.1-0.2,0.2-0.3,0.4c-0.1,0.1-0.2,0.2-0.3,0.4c-0.6,0.7-1,1.5-1.3,2.3c-0.3,0.9-0.6,1.7-1.2,2.5
							c-0.4,0.5-0.7,1.1-0.9,1.8c-0.4,1.3-0.8,2.5-1.2,3.8c-0.1,0.2-0.1,0.5-0.2,0.7c-0.1,0.8-0.3,1.6-0.5,2.4c-0.6,2-1.1,4-1.5,6.1
							c-0.6,3.3-1.1,6.6-1.6,9.9c-0.1,0.4-0.1,0.8-0.2,1.2c0,0.1,0,0.1,0,0.2c-0.1,0.1-0.1,0.2-0.1,0.2c0,0,0,0,0,0
							c-0.2,0.1-0.3,0.2-0.3,0.4c0,0,0,0,0,0c-0.2,0.1-0.3,0.2-0.3,0.4c0,0,0,0,0,0c-0.4,0.2-0.4,0.5-0.2,0.8
							c0.1,0.2,0.1,0.3-0.1,0.4c-0.3,0.2-0.4,0.5-0.2,0.8c0.1,0.1,0.1,0.2,0.1,0.3c-0.1,0.1-0.2,0.2-0.3,0.3
							c-0.1,0.1-0.2,0.2-0.3,0.4c-0.4,0.4-0.7,0.9-0.3,1.5c0.1,0.1,0.1,0.3,0,0.5c0,0.5,0.2,0.9,0.6,1.2c0.2,0.1,0.3,0.2,0.5,0.4
							c0.1,0.2,0.2,0.4,0.2,0.5c0,1.5,0,2.9-0.1,4.4c0,1.1-0.2,2.2-0.2,3.4c0,0.3,0,0.6,0,0.9c-0.1,1.7-0.1,3.4-0.2,5.1c0,0,0,0,0,0
							c0,1.5,0,2.9-0.1,4.4c-0.1,1.1,0.1,2.3,0.2,3.4c0.1,0.5,0.2,0.9,0.3,1.3c0.1,0.4,0.6,0.5,0.8,0.3c0.3-0.2,0.5-0.5,0.7-0.8
							c0.1-0.1,0.2-0.2,0.3-0.4c0.1-0.1,0.2-0.2,0.3-0.4c0.1-0.1,0.2-0.2,0.3-0.4c0.1-0.1,0.2-0.2,0.3-0.4c0.1-0.1,0.2-0.2,0.3-0.4
							c0.1-0.1,0.2-0.2,0.3-0.4c0.1-0.1,0.2-0.2,0.3-0.4c0.1-0.1,0.2-0.2,0.3-0.4c0,0,0,0,0,0c0,0,0,0.1,0,0.1
							c0,0.2,0.1,0.4,0.1,0.6c0.3,0,0.3-0.2,0.4-0.4c0.2,0,0.3-0.2,0.3-0.4c0.2,0,0.3-0.2,0.3-0.4c0.2,0,0.3-0.2,0.3-0.4
							c0.2,0,0.3-0.1,0.3-0.2c0,0,0,0.1,0.1,0.1c0.1,0.2,0.2,0.3,0.4,0.2c0.1-0.1,0.3-0.2,0.4-0.3c0.3-0.2,0.7-0.1,0.9,0.4
							c0,0.1,0,0.2,0.1,0.2c0,0.1,0,0.3,0.1,0.4c0.1,0.1,0.2,0.3,0.3,0.3c0.1,0.1,0.4-0.1,0.4-0.4c0.1,0,0.3-0.2,0.3-0.4
							c0.1,0,0.3-0.2,0.3-0.4v0c0.1,0,0.3-0.2,0.3-0.4v0c0.1,0,0.3-0.2,0.3-0.4v0c0.1,0,0.3-0.2,0.3-0.4v0c0.1,0,0.3-0.2,0.3-0.4v0
							c0.1,0,0.3-0.2,0.3-0.4c0.1,0,0.3-0.2,0.3-0.4c0.1,0,0.3-0.2,0.3-0.4c0,0,0,0,0,0c0.1,0,0.3-0.2,0.3-0.4c0,0,0,0,0,0
							c0.1,0,0.3-0.2,0.3-0.4c0.1-0.4,0.2-0.8,0.2-1.2c0.1-0.1,0.2-0.2,0.3-0.3c0.2-0.1,0.3-0.2,0.3-0.4c0.2-0.1,0.3-0.2,0.3-0.4
							c0.3-0.2,0.4-0.5,0.5-0.8c0.1-0.3,0.1-0.6,0.1-0.9c0-0.4,0.1-0.8,0.2-1.2c0.2-0.7,0.5-1.4,0.7-2.1c0.2-0.9,0.5-1.7,1.1-2.4
							c0.3-0.4,0.5-0.8,0.5-1.3c0.1-0.9,0.2-1.7,0.3-2.6c0.2-1.5,0.3-3,0.5-4.6c1.1-0.5,2.2-1,3.3-1.5c1.1-0.5,2.3-1,3.4-1.6
							c1.3-0.7,2.6-1.3,4-1.8c0.4-0.2,0.6-0.1,0.6,0.3c0,0.2,0,0.4,0,0.6c-0.1,0.8-0.1,1.7-0.2,2.5c-0.1,1,0,1.9-0.2,2.9
							c-0.3,2.4-0.6,4.9-1.1,7.3c-0.1,0.6-0.3,1.1-0.4,1.7c-0.1,0.5-0.1,0.9,0,1.4c0,0.1,0.1,0.2,0.2,0.3c0.3,0.2,1,0.2,1.2-0.2
							c0.1-0.1,0.1-0.1,0.1-0.2c0.1,0,0.1-0.1,0.2-0.2c0-0.1,0.1-0.1,0.1-0.2c0.1,0,0.1-0.1,0.2-0.2c0.1-0.1,0.1-0.1,0.1-0.2
							c0.1,0,0.1-0.1,0.2-0.2c0-0.1,0.1-0.1,0.1-0.2c0,0,0,0,0,0c0,0,0,0,0,0c0.4,0,0.6-0.2,0.8-0.4c0.3-0.4,0.8-0.6,1.2-0.9
							c0,0,0.2,0.1,0.2,0.1c0,0.1,0,0.2,0,0.4c0,0.1,0,0.2,0,0.3c0.1,0,0.2,0,0.3-0.1c0.1-0.1,0.2-0.2,0.3-0.4c0,0,0,0,0,0
							c0.1-0.1,0.2-0.3,0.3-0.4c0,0,0,0,0,0c0.1-0.1,0.2-0.2,0.3-0.3c0.2-0.1,0.4-0.1,0.5,0.1c0,0,0,0.1,0.1,0.1
							c0.3,0.4,0.4,0.4,0.7,0.1c0.1-0.1,0.3-0.4,0.5-0.3c0.4,0.1,0.7-0.2,1-0.4c0.4-0.3,0.8-0.5,1.2-0.5c0.3,0,0.4,0,0.7-0.2
							c0.3-0.2,0.5-0.4,0.7-0.7c0.1-0.1,0.2-0.2,0.3-0.4c0.1-0.1,0.2-0.2,0.3-0.4c0.1-0.1,0.2-0.2,0.3-0.4c0.1-0.1,0.2-0.2,0.3-0.4
							c0.1-0.1,0.2-0.2,0.3-0.4c0.1-0.1,0.2-0.2,0.3-0.4c0.1-0.1,0.2-0.2,0.3-0.4c0.1-0.1,0.2-0.2,0.3-0.4c0.1-0.1,0.2-0.2,0.3-0.4
							c0.1-0.1,0.2-0.2,0.3-0.4c0.4-0.3,0.6-0.8,0.8-1.3c0.1-0.4,0.2-0.8,0.4-1.2c0.4-0.9,0.8-1.9,1.4-2.8c0.7-1,1.2-2.1,1.5-3.3
							c0.4-1.6,0.5-3.4,1.2-5c0.1-0.2,0.1-0.4,0.1-0.6c0.1-0.5,0.2-1.1,0.3-1.6c0.3-0.1,0.6-0.2,1-0.3c0.6-0.2,1.2-0.5,1.7-0.7
							c0.1,0,0.2-0.1,0.3-0.2c0-0.1,0.1-0.1,0.1-0.2c0.1-0.1,0.2-0.1,0.2-0.2c0-0.1,0.1-0.1,0.1-0.2c0.1-0.1,0.2-0.1,0.2-0.2
							c0-0.1,0.1-0.1,0.1-0.2c0.1-0.1,0.2-0.1,0.2-0.2c0-0.1,0.1-0.1,0.1-0.2c0.1-0.1,0.2-0.1,0.2-0.2c0-0.1,0.1-0.1,0.1-0.2
							c0.1-0.1,0.2-0.1,0.2-0.2c0-0.1,0.1-0.1,0.1-0.2c0.1-0.1,0.2-0.1,0.2-0.2c0-0.1,0.1-0.1,0.1-0.2c0.1-0.1,0.2-0.1,0.2-0.2
							c0-0.1,0.1-0.1,0.1-0.2c0.1-0.1,0.2-0.1,0.2-0.2c0-0.1,0.1-0.1,0.1-0.2c0.1-0.1,0.2-0.1,0.2-0.2c0-0.1,0.1-0.1,0.1-0.2
							c0.1-0.1,0.2-0.1,0.2-0.2c0-0.1,0.1-0.1,0.1-0.2c0.1-0.1,0.2-0.1,0.2-0.2c0.2-0.3,0.5-0.7,0.7-1.1c0-0.1,0-0.2,0-0.3
							c-0.1-0.1-0.1-0.2-0.2-0.2c0.4-0.2,0.8-0.5,1.1-0.8c0.3-0.3,0.7-0.6,1.1-0.7c0.4-0.1,0.7-0.3,0.9-0.6c0.2-0.2,0.5-0.4,0.7-0.4
							c0.8-0.1,1.6-0.6,2.4-0.7c0.2,0,0.2-0.2,0.2-0.4c0.1,0,0.1,0,0.2,0c0.2,0,0.2-0.2,0.2-0.4c0.1,0,0.1,0,0.2,0
							c0.2,0,0.2-0.2,0.2-0.4c0.1,0,0.1,0,0.2,0c0.2,0,0.2-0.2,0.2-0.4c0.1,0,0.1,0,0.2,0c0.2,0,0.2-0.2,0.2-0.4c0.1,0,0.1,0,0.2,0
							c0.2,0,0.2-0.2,0.2-0.4c0.1,0,0.1,0,0.2,0c0.2,0,0.2-0.2,0.2-0.4c0.1,0,0.1,0,0.2,0c0.2,0,0.2-0.2,0.2-0.4c0.1,0,0.1,0,0.2,0
							c0.2,0,0.2-0.2,0.2-0.4c0.1,0,0.1,0,0.2,0c0.2,0,0.2-0.2,0.2-0.4c0.1,0,0.1,0,0.2,0c0.2,0,0.2-0.2,0.2-0.4c0.1,0,0.1,0,0.2,0
							C424.7,171.5,424.7,171.3,424.7,171.1 M297.9,234.5c0-0.1-0.1-0.3-0.2-0.4c-0.1-0.1-0.3,0-0.5,0.2c0,0.1-0.1,0.1-0.1,0.2
							c-0.1,0-0.1,0.1-0.2,0.2c0,0.1-0.1,0.1-0.1,0.2c-0.1,0-0.1,0.1-0.2,0.2c0,0.1-0.1,0.1-0.1,0.2c-0.1,0-0.1,0.1-0.2,0.2
							c0,0.1-0.1,0.1-0.1,0.2c-0.1,0-0.1,0.1-0.2,0.2c0,0.1-0.1,0.1-0.1,0.2c-0.1,0-0.1,0.1-0.2,0.2c0,0.1-0.1,0.1-0.1,0.2
							c-0.1,0-0.1,0.1-0.2,0.2c0,0.1-0.1,0.1-0.1,0.2c-0.1,0-0.1,0.1-0.2,0.2c0,0.1-0.1,0.1-0.1,0.2c-0.1,0-0.1,0.1-0.2,0.2
							c0,0.1-0.1,0.1-0.1,0.2c-0.1,0-0.1,0.1-0.2,0.2c0,0.1-0.1,0.1-0.1,0.2c-0.1,0-0.1,0.1-0.2,0.2c0,0.1-0.1,0.1-0.1,0.2
							c-0.1,0-0.1,0.1-0.2,0.2c0,0.1-0.1,0.1-0.1,0.2c0,0.1-0.1,0.2-0.1,0.2c0.1,0.1,0.2,0.1,0.2,0.1c0.1,0,0.2,0,0.3,0
							c0.2,0,0.3-0.1,0.3-0.3c0,0,0-0.1,0-0.1c0,0,0,0,0,0c0.2,0,0.3-0.1,0.3-0.3c0,0,0-0.1,0-0.1c0,0,0,0,0,0
							c0.2,0,0.3-0.1,0.3-0.3c0,0,0-0.1,0-0.1c0,0,0,0,0,0c0.2,0,0.3-0.1,0.3-0.3c0,0,0-0.1,0-0.1c0,0,0,0,0,0
							c0.2,0,0.3-0.1,0.3-0.3c0,0,0-0.1,0-0.1c0,0,0,0,0,0c0.2,0,0.3-0.1,0.3-0.3c0,0,0-0.1,0-0.1c0,0,0,0,0,0
							c0.2,0,0.3-0.1,0.3-0.3c0,0,0-0.1,0-0.1c0,0,0,0,0,0c0.2,0,0.3-0.1,0.3-0.3c0,0,0-0.1,0-0.1c0,0,0,0,0,0
							c0.2,0,0.3-0.1,0.3-0.3c0,0,0-0.1,0-0.1c0,0,0,0,0,0c0.2,0,0.3-0.1,0.3-0.3c0,0,0-0.1,0-0.1c0,0,0,0,0,0
							c0.2,0,0.3-0.1,0.3-0.3c0,0,0-0.1,0-0.1c0,0,0,0,0,0C297.7,234.8,297.9,234.7,297.9,234.5 M301.8,231.9
							c-0.2,0-0.4,0.2-0.4,0.4c0,0,0,0,0,0c-0.2,0-0.3,0.2-0.3,0.4c0,0,0,0,0,0c-0.2,0-0.3,0.2-0.3,0.3c0,0,0,0,0,0
							c-0.2,0-0.3,0.2-0.3,0.4c0,0,0,0,0,0c-0.2,0-0.3,0.2-0.3,0.4c0,0,0,0,0,0c-0.2,0-0.3,0.2-0.3,0.3c0,0,0,0,0,0
							c-0.2,0-0.3,0.2-0.3,0.4c0,0,0,0,0,0c-0.2,0-0.3,0.2-0.3,0.4c0,0,0,0,0,0c-0.2,0-0.3,0.2-0.3,0.3c0,0,0,0,0,0
							c-0.2,0-0.3,0.2-0.3,0.3c0,0,0,0,0,0c-0.2,0-0.3,0.2-0.3,0.4c0,0,0,0,0,0c-0.2,0-0.3,0.2-0.3,0.3c0,0.7,0.6,1.3,1.3,1.2
							c0.2,0,0.4-0.2,0.5-0.4c0.2-0.1,0.3-0.2,0.3-0.4c0.2-0.1,0.3-0.2,0.3-0.4c0.2-0.1,0.3-0.2,0.3-0.4c0.2-0.1,0.3-0.2,0.3-0.4
							c0.2-0.1,0.3-0.2,0.3-0.4c0.2-0.1,0.3-0.2,0.3-0.4c0.2-0.1,0.3-0.2,0.3-0.4c0.2-0.1,0.3-0.2,0.3-0.4c0.2-0.1,0.3-0.2,0.3-0.4
							c0.2-0.1,0.3-0.2,0.3-0.4c0.2-0.1,0.3-0.3,0.3-0.4c0-0.1,0-0.2,0-0.2C302.8,232.2,302.4,231.9,301.8,231.9"/>
					</g>
				</g>
			</g>
		</g>
	</g>
	<path fill-rule="evenodd" clip-rule="evenodd" fill="#FFFFFF" d="M173.2,202.6C173.1,202.6,173.1,202.6,173.2,202.6
		C173.1,202.6,173.1,202.6,173.2,202.6L173.2,202.6z M189.9,161.7C189.9,161.7,189.9,161.7,189.9,161.7
		C189.9,161.7,189.9,161.7,189.9,161.7L189.9,161.7z M227.3,186.5c0.6-0.6,1.1-1.4,1.9-1.7c0.1-0.1,0.2-0.2,0.4-0.3
		c0.9-0.7,1.7-1.3,2.6-2c0.6-0.5,1.4-0.8,1.9-1.5c0.1-0.1,0.3-0.2,0.4-0.3c0.6-0.3,1.1-0.9,1.8-1.1c0.4-0.4,0.9-0.7,1.3-1.2
		c0.3-0.4,0.7-0.6,1.1-1c0.3-0.3,0.6-0.7,1-1.1c0.1-0.1,0.4-0.2,0.5-0.3c0.7-0.4,1.4-0.9,1.8-1.7c0.2-0.4,0.5-0.6,0.9-0.9
		c0.6-0.3,1.1-0.9,1.5-1.5c0.5-0.7,1-1.3,1.5-2c0.2-0.3,0.5-0.7,0.7-1c0.9-1.5,1.7-3,2.6-4.4c0.1-0.1,0.2-0.3,0.2-0.4
		c0.4-1.2,0.9-2.3,1.1-3.4c0.1-0.6,0.3-1.2,0.5-1.8c0-0.2,0.1-0.4,0.1-0.5c-0.2-0.4-0.1-0.9-0.2-1.3c-0.3-1.1-0.6-2.3-0.8-3.4
		c-0.4-2-1.3-3.7-2.5-5.3c-0.8-1.1-1.9-1.9-3.1-2.5c-1.5-0.7-2.9-1.6-4.5-2.1c-0.2-0.1-0.4-0.2-0.6-0.3c-0.9-0.5-1.8-0.9-2.7-1.3
		c-0.2-0.1-0.5-0.2-0.5-0.5c0-0.2,0.2-0.3,0.4-0.4c0.2-0.1,0.4-0.2,0.6-0.2l0,0c0.1,0,0.2,0,0.3,0l0,0c0.5-0.2,0.9-0.4,1.3-0.7
		c0.8-0.8,1.8-1.5,2.8-2c0.6-0.3,1-0.7,1.5-1.1c0.3-0.3,0.7-0.6,1-0.9c1.2-1.1,2.4-2.2,3.3-3.6c0-0.1,0.1-0.1,0.2-0.2
		c0.7-1,1.6-1.9,2.1-3c0.7-1.5,1.4-2.9,2.1-4.4c0.1-0.3,0.2-0.6,0.3-1c0.1-0.6,0.3-1.1,0.4-1.7c0.2-0.8,0.3-1.6,0.3-2.5
		c0-1.1,0-2.2-0.2-3.4c-0.2-1.2-0.4-2.4-0.9-3.5c-0.7-1.8-1.8-3.3-3.4-4.4c-0.9-0.7-1.9-1.2-2.9-1.7c-0.9-0.5-1.9-0.8-2.9-1.1
		c-0.9-0.2-1.8-0.5-2.7-0.9c-1.3-0.7-2.7-1-4.2-1.1c-2.4-0.2-4.8-0.1-7.2,0.4c-1.4,0.3-2.9,0.6-4.3,0.9c-1.4,0.3-1.4,0.3-2.5-0.9
		c-0.1-0.1-0.2-0.2-0.2-0.3c-0.3-0.7-0.8-1-1.6-0.9c-0.1,0-0.2,0-0.4,0c-1.6,0-3,0.3-4.2,1.6c-0.9,1.1-2,2-2.9,3.1
		c-0.4,0.5-0.8,1-1.1,1.5c-0.4,0.6-0.8,1.2-1.2,1.8c-0.3,0.4-0.6,0.8-1,1.1c-1.8,1.3-3.6,2.5-5,4.2c-0.8,0.6-1.3,1.4-1.8,2.2
		c-0.6,1.1-1,2.2-1.2,3.4c0,0.3-0.1,0.6-0.2,0.8c0,0.3,0.3,0.5,0.6,0.4c0.7-0.3,1.4-0.5,2.1-0.8c0.1,0,0.3,0,0.5,0
		c0.5,0.1,0.6,0.3,0.4,0.8c-0.1,0.2-0.1,0.3-0.2,0.5c-1.5,3.6-3,7.3-4.4,10.9c-0.3,0.9-0.7,1.7-1,2.6c-1.6,4.5-3.2,9-4.7,13.5
		c-0.6,1.9-1.2,3.9-1.9,5.9c-0.3,1-0.7,1.9-1.5,2.7c-0.6,0.7-1.1,1.6-1.1,2.6c0.3,0.3,0.5,0.6,0.5,1.1c0,0.5-0.2,0.9-0.5,1.3
		c0,0-0.1,0-0.2-0.1c-0.1-0.1-0.2-0.3-0.3-0.3c-0.2-0.1-0.4,0.1-0.5,0.3c-0.2,0.3-0.4,0.5-0.6,0.8c-0.2,0.3-0.1,0.8,0.3,1
		c0.1,0.1,0.2,0.1,0.4,0.1c0.8,0.2,0.7,0.2,0.6,1c-0.1,0.3-0.1,0.6-0.2,0.9c-0.2,0.9-0.3,1.8-1.3,2.3c-0.1,0-0.1,0.3,0,0.3
		c0.4,0.3,0.4,0.6,0.3,1c-0.1,0.7-0.3,1.4-0.5,2.1c-0.1,0.3-0.2,0.6-0.2,0.8c0,0.6-0.2,1.2-0.3,1.9c0,0.2-0.2,0.4-0.2,0.6
		c-0.2-0.1-0.1-0.3-0.1-0.5c0-0.2,0-0.3-0.1-0.5c0-0.1-0.2-0.2-0.3-0.2c-0.2,0-0.3,0.2-0.5,0.2c-0.5-0.1-0.7,0.2-0.8,0.6
		c-0.2,0.4-0.4,0.8-0.3,1.3c0,0.1,0,0.3-0.1,0.5c-0.2,0.6-0.1,1.1,0.4,1.5c0,0,0,0.1,0,0.1c0,0.1-0.1,0.2-0.1,0.2
		c-0.2,0-0.3-0.1-0.5-0.1c-0.1,0-0.3,0.1-0.3,0.1c0,0.1,0,0.2,0.1,0.3c0.1,0.2,0.3,0.3,0.5,0.2c0.5-0.1,1-0.2,1.5-0.3
		c0.3-0.1,0.4,0,0.3,0.2c-0.1,0.7-0.2,1.4-0.3,2.1c-0.1,0.4-0.1,0.8-0.1,1.2c0.3,1.9,0.5,3.8,0.9,5.7c0.1,0.6,0.3,1,0.9,1.1
		c0.4,0,0.5,0.4,0.7,0.7c0.3,0.4,0.7,0.6,1.2,0.6c0.3,0,0.5,0,0.7,0c0.5-0.1,0.9,0,1.3,0.1c0.4,0.2,0.5,0.1,0.7-0.3
		c0.2-0.4,0.3-0.8,0.4-1.2c0-0.1,0.2-0.2,0.3-0.1c0.4,0.2,0.7,0.5,0.7,1c0,0.4-0.4,0.5-0.7,0.6c-0.1,0-0.2,0.1-0.2,0.1
		c-1.6,0.7-3.1,1.4-4.7,2c-0.2,0.1-0.3,0.1-0.4,0.3c-0.4,0.5-0.9,0.6-1.5,0.7c-0.3,0-0.6,0.2-0.9,0.3c-0.3,0.2-0.6,0.3-0.9,0.3
		c-0.4,0.1-0.8,0.1-1.1,0.4c-0.1,0.1-0.3,0-0.5,0c-0.1-0.1-0.3-0.2-0.4-0.3c-0.4-0.5-1-0.6-1.6-0.5c-0.2,0-0.4,0.1-0.6,0.1
		c-0.7,0-1.5,0.3-2.2-0.1c-0.3-0.2-0.5-0.1-0.7,0.2c-0.4,0.5-0.9,1-1.3,1.5c-0.2,0.3-0.5,0.5-0.9,0.5c-0.2,0-0.4,0.1-0.5,0.3
		c-0.3,0.3-0.5,0.6-0.7,0.9c-0.1,0.1-0.2,0.3-0.2,0.4c0.1,0.6-0.3,0.9-0.6,1.3c-0.2,0.2-0.5,0.4-0.6,0.6c-0.3,0.3-0.4,0.7-0.1,1.1
		c0.1,0.2,0.2,0.4,0.3,0.7c0.1,0,0.1-0.1,0.2-0.1c0.1-0.1,0.3-0.1,0.3,0c0,0.4,0.2,0.6,0.5,0.8c0,0,0.1,0.2,0,0.2
		c-0.1,0.2,0,0.4,0.2,0.5c0.8,0.3,1.7,0.5,2.6,0.3c0.9-0.2,1.9-0.4,2.8-0.6c0.2,0,0.3-0.1,0.5,0c0.5,0.2,1.1,0.1,1.6,0
		c0.2,0,0.5-0.1,0.6,0c0.4,0.2,0.8,0.2,1.2,0c0.7-0.2,1.4-0.4,2.1-0.2c0.3,0.1,0.7,0,1,0c0.5,0,0.9-0.1,1.4-0.1
		c0.2,0,0.4,0.2,0.3,0.4c-0.1,0.2-0.2,0.3-0.4,0.5c0,0.1-0.1,0.2,0,0.2c0,0.1,0.1,0.1,0.2,0.1c0.9,0,1.7-0.1,2.6-0.4
		c0.9-0.3,1.9-0.6,2.9-0.9c0.8-0.2,1.5-0.5,2.2-0.7c0.8-0.3,1.5-0.6,2.3-0.9c0.7-0.3,1.3-0.5,2-0.7c0.5-0.2,1.1-0.5,1.6-0.7
		c0.2-0.1,0.5-0.2,0.7,0.1c0,0.1,0.2,0.1,0.3,0.1c0.8-0.3,1.7-0.5,2-1.5c0.1-0.2,0.3-0.3,0.4-0.1c0.2,0.2,0.4,0.3,0.7,0.1
		c1-0.5,2-0.9,2.9-1.4c2.6-1.3,5.2-2.6,7.8-3.9c0.8-0.4,1.5-0.9,2.3-1.3c0.5-0.7,1.3-0.9,1.9-1.3c0.8-0.4,1.6-0.8,2.2-1.4
		c0.4-0.4,0.8-0.8,1.5-0.9c0.2,0,0.5-0.2,0.7-0.3c0.4-0.3,0.8-0.6,1.2-0.9C226.4,187,227,186.9,227.3,186.5 M186.8,178.2
		L186.8,178.2L186.8,178.2L186.8,178.2z M197.9,189.6c-0.6,0.3-1.2,0.7-1.8,1c-0.4,0.2-0.6,0-0.6-0.4c0,0,0-0.1,0-0.1c0,0,0,0-0.1,0
		c0.1-0.7,0.3-1.4,0.4-2.1c0.1-0.3,0.4-0.4,0.6-0.2c0.1,0.1,0.2,0.2,0.2,0.3c0.3,0.5,0.7,0.9,1.3,1.1
		C198.1,189.3,198.1,189.5,197.9,189.6 M213.4,141.6c0.4-1.3,0.8-2.5,1.2-3.8c0.4-1.1,0.8-2.3,1.2-3.4c0.4-1.1,0.7-2.3,1.5-3.3
		c0.7-0.9,1-2,1.3-3.1c0.6-2,1.3-4,2.2-5.8c0.1-0.3,0.2-0.5,0.3-0.8c0.2-0.7,0.6-1.1,1.2-1.4c0.6-0.3,1.2-0.5,1.8-0.8
		c1.2-0.5,2.4-0.8,3.5-1.3c1.1-0.5,2.3-0.7,3.5-1c0.9-0.2,1.7-0.4,2.5-0.7c0.5-0.2,0.9-0.3,1.5-0.3c0.7-0.1,1.3-0.2,2-0.3
		c0.5-0.1,0.9,0.1,1.1,0.6c0.1,0.3,0.3,0.6,0.3,0.9c0.1,0.3,0,0.7,0,1c-0.1,2.4-0.5,4.6-1.8,6.7c-0.2,0.4-0.5,0.7-0.7,1
		c-0.8,1.3-1.8,2.5-2.7,3.7c-0.8,0.9-1.6,1.8-2.5,2.6c-2,1.6-3.9,3.2-6,4.7c-1.3,0.9-2.6,2-4,2.8c-0.7,0.7-1.6,1.1-2.4,1.6
		c-0.9,0.6-1.9,0.7-3,0.8c-0.5-0.2-1.1,0-1.6,0.1c-0.1,0-0.2,0-0.2,0.1c-0.2,0-0.4-0.1-0.4-0.3C213.4,141.8,213.4,141.7,213.4,141.6
		 M225,173.2c-1.5,1.3-3.1,2.4-4.7,3.5c-0.6,0.4-1.2,0.9-1.9,1.2c-0.3,0.1-0.5,0.3-0.7,0.5c-0.9,0.6-1.8,1.3-2.6,1.9
		c-0.3,0.2-0.6,0.4-1,0.6c-1.7,1-3.4,2-5.1,2.9c-0.3,0.1-0.5,0.3-0.8,0.4c-0.2,0.1-0.5,0.2-0.7,0.3c-1.2,1-2.7,1.5-4,2.2
		c-0.4,0.2-0.8,0.5-1.2,0.7c-0.3,0.2-0.7,0.3-1,0.4c-0.1,0-0.2-0.2-0.2-0.2c0.2-0.7,0.1-1.5,0.1-2.2c0-0.6,0.1-1.2,0.4-1.8
		c0.2-0.3,0.2-0.7,0.2-1.1c0.1-0.5,0.2-1.1,0.2-1.6c0.1-0.8,0.3-1.6,0.4-2.5c0.2-1.4,0.6-2.8,0.9-4.2c0.8-3.4,1.8-6.7,2.7-10
		c0.4-1.6,1-3.1,1.4-4.7c0.1-0.4,0.3-0.7,0.7-0.8c1.7-0.9,3.3-1.8,5-2.5c1.1-0.4,2.2-1.1,3.3-1.6c1.8-0.8,3.6-1.8,5.5-2.3
		c1.7-0.5,3.4-1.1,5.2-1.3c1.2-0.2,2.4-0.3,3.6-0.1c0.5,0.1,1,0.2,1.5,0.5c1.2,0.6,2.2,1.5,3,2.6c0.4,0.5,0.7,1.5,0.6,2.6
		c-0.2,1-0.3,2.3-0.9,3.5c-0.4,0.7-0.7,1.4-1,2.2c-0.1,0.4-0.4,0.7-0.7,1.1c-1,1.7-2.1,3.2-3.4,4.6c-0.2,0.2-0.4,0.4-0.5,0.7
		c-0.5,0.8-1.1,1.5-1.8,2C226.8,171.5,226,172.4,225,173.2 M331.6,182.3c-0.2,0-0.3,0.1-0.5,0.1c-0.3,0.1-0.5,0.2-0.8,0.3
		c-0.6,0.1-1.1,0.3-1.7,0.5c-0.5,0.2-1.1,0.4-1.7,0.5c-0.1,0-0.3-0.1-0.3-0.2c-0.1-0.3-0.1-0.6-0.1-0.9c-0.1-1.7-0.1-3.4-0.2-5.1
		c-0.1-1.1-0.1-2.1-0.6-3.2c-0.5-1-0.6-2.2-0.9-3.3c-0.2-0.7-0.4-1.5-0.6-2.2c-0.2-0.6-0.4-1.3-0.6-1.9c-0.3-0.9-0.6-1.7-0.9-2.6
		c-0.6-1.4-1.6-2.5-2.6-3.6c-0.2-0.2-0.5-0.5-0.8-0.6c-0.8-0.3-1.5-0.6-2.3-0.9c-0.3-0.1-0.7-0.2-1-0.3c-1-0.4-2-0.4-3.1-0.3
		c-0.3,0.1-0.6,0.1-1,0.1c-1.9-0.1-3.5,0.6-4.9,1.8c-0.8,0.7-1.5,1.4-2.2,2.2c-0.2,0.2-0.3,0.4-0.4,0.6c-0.2,0.5-0.6,0.9-1,1.3
		c-0.3,0.3-0.5,0.6-0.8,1c-0.5,0.6-0.9,1.2-1.4,1.8c-1.7,2-3.3,4.1-4.7,6.4c-1.7,2.7-3.1,5.6-4.5,8.4c-0.6,1.2-1.2,2.5-1.8,3.7
		c-0.5,1-1,2-1.4,3.1c-0.8,2.1-1.6,4.2-2.4,6.3c-0.1,0.2-0.2,0.5-0.3,0.7c0,0-0.1,0.1-0.1,0.1c-0.1,0-0.1-0.1-0.2-0.2
		c0-0.1-0.1-0.2-0.1-0.2c-0.5-1.9-1.4-3.6-2.9-4.9c-1.2-1-2.1-2.3-3.4-3.2c0,0-0.1-0.1-0.1-0.1c0-0.1,0.1-0.2,0.1-0.2
		c0.5,0.1,0.8-0.2,1.1-0.5c0.4-0.5,0.8-0.9,1.3-1.4c1.6-1.9,3-3.9,3.9-6.2c0.1-0.3,0.3-0.5,0.2-0.8c-0.2-0.5-0.1-1.1,0-1.6
		c0-0.2,0-0.4,0-0.6c-0.5-1.7-1.3-3.2-2.8-4.2c-0.5-0.4-1.1-0.8-1.6-1.2c-0.7-0.4-1.3-0.9-2.1-1.2c-2-0.8-4.1-1.4-6.3-1.5
		c-2.8-0.2-5.7-0.1-8.5,0.2c-0.3,0-0.7,0.1-1,0.2c-1,0.3-2.1,0.6-3.1,1c-1.2,0.5-2.5,1.1-3.7,1.6c-1.3,0.6-2.5,1.4-3.8,2.2
		c-1.8,1.1-3.5,2.2-5.1,3.4c-0.7,0.5-1.4,1.1-2,1.7c-0.2,0.2-0.3,0.4-0.3,0.6c0,0.5-0.1,0.9-0.4,1.3c-0.3,0.5-0.6,1.1-0.8,1.7
		c-0.1,0.4,0,0.8,0,1.2c0,0.1,0,0.3,0,0.4c-0.1,0.5,0.1,0.8,0.5,1.1c0.2,0.2,0.4,0.4,0.7,0.6c0.5,0.4,0.9,0.7,1.5,0.8
		c0.6,0.1,1.1,0.3,1.6,0.5c0.4,0.2,0.9,0.3,1.3,0.3c0.4,0,0.5,0.2,0.3,0.5c-0.7,1.7-1.3,3.4-2,5.2c-0.2,0.5-0.5,0.8-1,1.1
		c-0.5,0.2-0.9,0.5-1.3,0.7c-0.1,0.1-0.2,0.2-0.2,0.3c-0.1,0.6-0.5,0.9-0.8,1.4c-0.2,0.4-0.5,0.8-0.9,1.1c-0.2,0.1-0.4,0.3-0.4,0.5
		c0,0.5-0.2,0.8-0.4,1.2c-0.2,0.4-0.3,0.7-0.1,1c0.1,0.1,0,0.4,0,0.6c-0.1,0.3-0.3,0.7-0.5,1c-0.1,0.2,0,0.4,0.1,0.6
		c0.2,0.2,0.4,0.4,0.7,0.5c0.3,0.1,0.6,0.2,0.9,0.3c0.8,0.4,0.8,0.7,0.7,1.3c-0.4,2.2-0.7,4.4-1.2,6.5c-0.2,1.1-0.5,2.2-0.5,3.3
		c0,0.3-0.2,0.6-0.4,0.7c-0.3,0.1-0.5,0.2-0.8,0.3c-0.4,0.1-0.7,0.2-1.1,0.3c-1.8,0.8-3.6,1.1-5.6,1.1c-0.6,0-1.1-0.2-1.6-0.5
		c-0.3-0.2-0.4-0.5-0.3-0.9c0.1-0.4,0.1-0.7,0.2-1.1c0-0.4-0.3-0.6-0.7-0.5c-0.2,0.1-0.3,0.2-0.4,0.2c-0.3,0-0.2-0.3-0.3-0.5
		c-0.3-0.5-0.2-0.9-0.1-1.4c0.1-0.4,0.2-0.9,0.3-1.3c0-0.1-0.1-0.3-0.2-0.3c-0.1,0-0.2,0-0.3,0.1c-0.1,0.1-0.2,0.2-0.3,0.4
		c-0.2,0.2-0.4,0.5-0.7,0.6c0,0,0,0,0,0l0,0l0-0.1h0c0.1-0.3,0.1-0.6,0.2-0.8c0-0.2,0-0.3,0-0.5c0-0.1-0.1-0.2-0.1-0.2
		c-0.1,0-0.2,0-0.2,0c-0.1,0.1-0.3,0.2-0.4,0.3c-0.7,0.8-1.5,1.7-2.2,2.6c-0.9,1.1-1.8,2.3-2,3.8c-0.1,0.3-0.2,0.6-0.3,0.8
		c-0.2,0.8-0.5,1.5-0.7,2.3c-0.1,0.2-0.1,0.5-0.1,0.7c0,0.5,0.1,1,0.1,1.5c0,0.5,0.1,1,0.5,1.4c0.4,0.4,0.8,0.9,1.4,1.2
		c0.6,0.3,1.1,0.6,1.6,1c0.3,0.2,0.5,0.3,0.8,0.2c0.1,0,0.4,0,0.4,0.1c0.3,0.3,0.7,0.4,1.1,0.3c0.5-0.1,1.1,0,1.6,0.1
		c0.9,0.2,1.8-0.2,2.7,0.1c0.2,0.1,0.4,0,0.6-0.1c0.2,0,0.5,0,0.7,0c0.2,0,0.4,0,0.6-0.1c1.8-0.4,3.7-0.8,5.5-1.4c1-0.3,2-0.6,3-0.9
		c1-0.3,2-0.7,2.9-1.1c0.9-0.3,1.8-0.6,2.7-1c0.9-0.3,1.8-0.8,2.6-1.1c0.8-0.3,1.6-0.6,2.3-0.9c1.4-0.7,2.9-1.4,4.4-1.9
		c0.7-0.3,1.4-0.6,2.1-0.9c1.2-0.6,2.5-1.2,3.7-1.8c1.3-0.6,2.6-1.2,3.8-1.9c2.1-1.2,4.3-2.3,6.2-3.8c1-0.5,1.7-1.3,2.6-1.9
		c0.5-0.4,0.9-0.8,1.3-1.3c0.4-0.5,0.9-1,1.5-1.3c0.7-0.3,1.2-0.9,1.7-1.5c0.1-0.1,0.2-0.3,0.3-0.4c0,0,0.1,0,0.1,0
		c0,0,0.1,0,0.1,0.1c0,0.2,0,0.4,0,0.6c-0.1,1.2-0.4,2.3-0.4,3.5c0,1,0,2,0,3c0,0.4,0,0.7,0.3,1c0.1,0.1,0.2,0.3,0.1,0.5
		c-0.1,0.4,0.1,0.7,0.2,1.1c0,0.1,0.1,0.3,0.3,0.4c0.6,0.4,1.3,0.8,1.9,1.1c0.6,0.3,1,0.8,1.1,1.4c0.2,0.8,0.4,1.5,0.6,2.3
		c0.2,0.7,0.4,1.5,0.4,2.2c0.1,1,0.2,2,0.6,2.9c0.1,0.2,0.1,0.4,0,0.6c-0.3,0.7-0.2,1.4-0.4,2.1c-0.2,1,0.1,2,0.4,2.9
		c0.3,0.7,1,1.1,1.7,0.9c0.2,0,0.4-0.1,0.6-0.1c0.8-0.1,1.3-0.5,1.8-1.1c0.6-0.7,0.5-1.9-0.2-2.5c-0.2-0.2-0.6-0.4-0.8-0.6
		c-0.4-0.5-0.9-0.9-1.4-1.3c-0.8-0.5-1.1-1.2-1.3-2.1c-0.1-0.9-0.3-1.8-0.3-2.7c0-0.5,0-1,0-1.5c-0.1-0.9,0.1-1.8,0.3-2.7
		c0.1-0.3,0.2-0.4,0.5-0.5c0.9-0.2,1.8-0.5,2.7-0.5c1.5,0,2.8-0.4,3.8-1.5c0.2-0.2,0.4-0.3,0.6-0.4c0.9-0.6,1.9-1.1,2.8-1.6
		c1-0.4,1.9-1,2.6-1.7c0.4-0.4,0.8-0.7,1.2-1c0.4-0.3,0.9-0.6,1.3-1c0.8-0.6,1.6-1.2,2.5-1.7c1.2-0.8,2.5-1.5,3.7-2.4
		c0.5-0.4,1.2-0.8,1.7-1.2c0.1-0.1,0.3-0.2,0.4-0.2c0.2-0.1,0.4,0,0.5,0.2c0.1,0.3,0.1,0.6,0.2,0.9c0.2,1.1,0.6,2.2,0.8,3.3
		c0.6,2.5,1.3,5,2.4,7.4c0.2,0.5,0.2,0.5,0.7,0.4c0.7,0,0.8-0.2,1.1-0.8c0.1-0.2,0.1-0.3,0.1-0.5c0.1-0.7,0.4-0.8,1.2-0.8
		c0.2,0,0.3,0.1,0.5,0.1c0.2,0.1,0.3,0.2,0.4,0.3c0.5,0.2,0.9,0.1,1.2-0.3c0.3-0.4,0.4-0.9,0.6-1.4c0.3-0.7,0.6-1.3,1.2-1.7
		c0.4-0.2,0.5-0.5,0.5-0.9c0-0.3,0-0.6,0.3-0.8c0.4-0.3,0.5-0.8,0.5-1.2c0-0.9,0-1.8,0.1-2.8c0-0.4,0-0.8,0.5-1
		c0.1,0,0.1-0.2,0.1-0.3c0-0.2-0.1-0.5-0.1-0.7c-0.2-0.9-0.3-1.9-0.5-2.8c0-0.3-0.1-0.6,0-0.9c0.2-0.7,0.1-1.4,0.1-2.1
		c0-0.8-0.1-1.6-0.1-2.4c0-0.2,0.1-0.5,0.2-0.7c0.1-0.4,0.6-0.6,0.8-1c0.2-0.4,0.1-0.8,0.1-1.2c0-0.1,0.1-0.2,0.2-0.3
		c0.1-0.2,0.3-0.4,0.4-0.7c0.3-0.8,0.6-1.5,1.2-2c0.2-0.2,0.2-0.4,0.4-0.7c0.4-0.8,0.9-1.5,1.9-1.6c0.4-0.1,0.7-0.4,0.9-0.8
		c0.1-0.1,0-0.3,0-0.5C332.1,182.3,331.9,182.2,331.6,182.3 M261.1,183.9c0.3-0.5,0.6-1.1,0.8-1.7c0.3-0.9,0.8-1.7,1.8-1.9
		c0.2,0,0.3-0.1,0.4-0.2c0.7-0.7,1.7-0.9,2.6-1.2c0.8-0.3,1.7-0.3,2.6-0.4c0.1,0,0.2,0,0.4,0.1c0.5-0.1,1.2-0.1,1.9-0.2
		c0.1,0,0.2,0.1,0.2,0.2c0,0,0,0.1,0,0.1c-0.1,0.1-0.1,0.2-0.2,0.3c-1.3,1.6-2.7,3-4.6,3.8c-0.9,0.4-1.8,0.8-2.7,1.3
		c-1,0.5-2.1,0.9-3.1,1.4c-0.2,0.1-0.3,0-0.3-0.3C260.8,184.7,260.9,184.3,261.1,183.9 M273.3,198.9c-0.4,0.7-0.9,1.4-1.6,1.9
		c-0.8,0.6-1.7,1.3-2.5,1.8c-1.8,1.1-3.6,2.3-5.4,3.3c-2.4,1.4-4.8,2.6-7.3,3.9c-0.1,0.1-0.3,0.1-0.5,0.2c-0.1,0-0.2-0.1-0.2-0.2
		c0-0.1,0-0.3,0-0.4c0.5-2.3,0.9-4.6,1.5-6.8c0.2-0.6,0.3-1.2,0.5-1.8c0.1-0.3,0.2-0.5,0.4-0.6c0.4-0.2,0.6-0.5,0.9-0.9
		c0.2-0.3,0.5-0.5,0.9-0.7c0.7-0.4,1.4-0.7,2.1-1c0.6-0.3,1.3-0.5,1.8-1.1c0.1-0.2,0.4-0.2,0.7-0.3c1.5-0.4,3-0.7,4.6-0.7
		c0.5,0,1.1,0.1,1.6,0.1c0.7,0,1.4,0.3,1.8,1c0.3,0.4,0.5,0.7,0.8,1.1C273.5,198.1,273.5,198.5,273.3,198.9 M311.3,189.8
		c-1.1,0.5-2.2,1-3.3,1.5c-1.2,0.5-2.4,1-3.5,1.6c-0.4,0.2-0.8,0.4-1.2,0.6c-0.4,0.2-0.8,0.3-1.2,0.4c-0.1,0-0.2-0.1-0.2-0.2
		c0-0.1,0-0.2,0-0.2c0.4-1,0.5-2.1,1-3.1c0.2-0.4,0.3-0.8,0.4-1.2c0.4-1.6,1-3.2,1.8-4.7c0.2-0.5,0.5-1,0.7-1.5
		c0.5-1.3,1.1-2.5,1.7-3.7c0.6-1.3,1.4-2.5,2.1-3.7c0.3-0.6,0.8-1.2,1.2-1.7c0-0.1,0.2-0.1,0.2-0.1c0.1,0,0.2,0.1,0.2,0.1
		c0.3,1.5,0.4,3.1,0.4,4.6c0,0.3,0,0.6,0,0.9c0.2,2.8,0.3,5.7,0.5,8.5c0,0,0,0,0,0c0,0.2,0,0.4,0.1,0.6
		C312.2,189.5,312.1,189.5,311.3,189.8 M424.7,171.1c-0.1-0.4-0.2-0.4-0.5-0.4c-0.2,0-0.5,0.1-0.7,0.1c-0.3,0-0.6,0-0.7-0.4
		c-0.1-0.4-0.5-0.4-0.8-0.4c-1.1,0-2.2,0.3-3.2,0.2c-0.1,0-0.3,0-0.4,0.1c-0.4,0.3-0.9,0.2-1.3,0.2c-0.5,0-0.9,0-1.4,0.1
		c-0.9,0.1-1.8,0.3-2.7,0.4c-0.6,0.1-1.2,0.1-1.9,0.1c-0.3,0-0.5-0.2-0.4-0.5c0.5-2.2,0.9-4.5,1.4-6.7c0.4-1.7,0.9-3.5,1.4-5.2
		c0.2-0.8,0.5-1.6,0.7-2.4c0.2-0.7,0.3-1.4,0.7-2c0.6-1,0.7-2.1,1.1-3.2c0.2-0.6,0.1-1.1-0.5-1.6c-0.2-0.1-0.3-0.4-0.4-0.6
		c-0.1-0.4-0.3-0.5-0.6-0.7c-0.5-0.3-1-0.3-1.4-0.8c-0.1-0.1-0.4-0.2-0.6-0.1c-0.4,0.1-0.8-0.2-1.2-0.2c-0.5,0.1-0.8-0.1-1.1-0.4
		c-0.1-0.1-0.2-0.1-0.4-0.1c-0.4,0-0.7,0.1-1,0.3c-0.4,0.3-0.4,0.3-0.8-0.1c-0.4-0.3-0.6-0.4-1-0.1c-0.4,0.3-0.7,0.6-0.8,1.1
		c-0.1,0.4-0.4,0.7-0.9,0.7c-0.2,0-0.4,0.1-0.5,0.3c-0.9,0.9-1.4,2-2.1,2.9c-0.3,0.4-0.5,1-0.8,1.4c-1,1.5-1.7,3.2-2.4,4.8
		c-0.6,1.4-1.1,2.9-1.6,4.3c-0.2,0.5-0.3,0.9-0.4,1.4c-0.4,1.4-0.8,2.9-1.2,4.3c-0.2,0.9-0.5,1.9-0.7,2.8c-0.3,1.7-0.6,3.4-0.9,5.2
		c-0.1,0.5-0.3,0.8-0.8,1c-2.1,0.7-4.2,1.5-6.2,2.3c-0.3,0.1-0.6,0.2-0.9,0.4c-0.5,0.2-1,0.3-1.6,0.4c-0.8,0-1.6,0.3-2.3,0.6
		c-0.3,0.2-0.7,0.3-1,0.4c-0.4,0.2-0.9,0.2-1.3,0.3c-0.3,0-0.4-0.2-0.4-0.5c0.3-1.8,0.6-3.6,0.9-5.4c0.2-1.2,0.4-2.4,0.6-3.6
		c0.1-0.3,0.1-0.7,0.2-1c0.2-1.2,0.4-2.4,0.6-3.6c0.1-0.4,0.1-0.7,0.2-1.1c0-0.8,0.1-1.7,0.4-2.5c0.1-0.1,0.1-0.3,0.1-0.5
		c0.1-0.7,0.1-1.5,0.2-2.2c0-0.4,0-0.7-0.1-1.1c-0.2-0.9-0.5-1.8-0.2-2.7c0.1-0.2-0.1-0.4-0.3-0.5c-0.2-0.1-0.4-0.3-0.7-0.1
		c-0.2,0.1-0.3,0-0.4-0.2c-0.1-0.1-0.1-0.3-0.1-0.5c-0.1-0.3-0.3-0.4-0.6-0.2c-0.3,0.2-0.5,0.3-0.8,0.2c-0.3-0.1-0.6-0.2-0.9,0.2
		c0,0.1-0.3,0-0.3,0c-0.5-0.3-1-0.3-1.5-0.4c-0.6-0.1-1,0.4-1.6,0.2c0,0-0.2,0.1-0.2,0.1c-0.3,0.6-1,0.8-1.2,1.4
		c-0.1,0.3-0.3,0.5-0.5,0.7c-0.7,0.7-1.2,1.6-1.5,2.5c-0.3,0.9-0.6,1.7-1.2,2.5c-0.4,0.5-0.7,1.1-0.9,1.8c-0.4,1.3-0.8,2.5-1.2,3.8
		c-0.1,0.2-0.1,0.5-0.2,0.7c-0.1,0.8-0.3,1.6-0.5,2.4c-0.6,2-1.1,4-1.5,6.1c-0.6,3.3-1.1,6.6-1.6,9.9c-0.1,0.4-0.1,0.8-0.2,1.2
		c-0.1,0.5-0.3,1-0.8,1.2c-0.4,0.2-0.4,0.5-0.2,0.8c0.1,0.2,0.1,0.3-0.1,0.4c-0.3,0.2-0.4,0.5-0.2,0.8c0.2,0.4,0,0.6-0.3,0.8
		c-0.6,0.4-1,0.9-0.6,1.7c0.1,0.1,0.1,0.3,0,0.5c0,0.5,0.2,0.9,0.6,1.2c0.2,0.1,0.3,0.2,0.5,0.4c0.1,0.2,0.2,0.4,0.2,0.5
		c0,1.5,0,2.9-0.1,4.4c0,1.1-0.2,2.2-0.2,3.4c0,0.3,0,0.6,0,0.9c-0.1,1.7-0.1,3.4-0.2,5.1c0,0,0,0,0,0c0,1.5,0,2.9-0.1,4.4
		c-0.1,1.1,0.1,2.3,0.2,3.4c0.1,0.5,0.2,0.9,0.3,1.3c0.1,0.4,0.6,0.5,0.8,0.3c0.5-0.5,1-0.9,1.2-1.6c0.1-0.4,0.1-0.7,0.6-0.9
		c0.1,0,0.2-0.3,0.3-0.4c0.2-0.6,0.7-0.9,1.1-1.3c0,0,0.2,0,0.2,0c0.1,0.1,0.1,0.2,0.1,0.3c0,0.2,0.1,0.4,0.1,0.6
		c0.3,0,0.3-0.3,0.4-0.5c0.2-0.5,0.3-1,0.4-1.4c0.1-0.2,0.1-0.4,0.2-0.6c0-0.1,0.1-0.1,0.2-0.1c0.1,0,0.2,0.1,0.2,0.1
		c0.1,0.3,0.2,0.6,0.3,0.9c0.1,0.2,0.2,0.3,0.4,0.2c0.1-0.1,0.3-0.2,0.4-0.3c0.3-0.2,0.7-0.1,0.9,0.4c0,0.1,0,0.2,0.1,0.2
		c0,0.1,0,0.3,0.1,0.4c0.1,0.1,0.2,0.3,0.3,0.3c0.1,0.1,0.4-0.1,0.4-0.4c0.1-0.4,0.2-0.8,0.2-1.2c0.1-0.4,0.2-0.8,0.7-1
		c0.5-0.1,0.6-0.5,0.7-0.9c0.1-0.3,0.1-0.6,0.1-0.9c0-0.4,0.1-0.8,0.2-1.2c0.2-0.7,0.5-1.4,0.7-2.1c0.2-0.9,0.5-1.7,1.1-2.4
		c0.3-0.4,0.5-0.8,0.5-1.3c0.1-0.9,0.2-1.7,0.3-2.6c0.2-1.9,0.3-3.9,0.7-5.8c-0.1-1.1,0.6-1.6,1.4-1.9c0.2-0.1,0.3-0.1,0.5-0.2
		c1.6-0.8,3.3-1.5,4.9-2.3c1.1-0.5,2.3-1,3.4-1.6c1.3-0.7,2.6-1.3,4-1.8c0.4-0.2,0.6-0.1,0.6,0.3c0,0.2,0,0.4,0,0.6
		c-0.1,0.8-0.1,1.7-0.2,2.5c-0.1,1,0,1.9-0.2,2.9c-0.3,2.4-0.6,4.9-1.1,7.3c-0.1,0.6-0.3,1.1-0.4,1.7c-0.1,0.5-0.1,0.9,0,1.4
		c0,0.1,0.1,0.2,0.2,0.3c0.3,0.2,1,0.2,1.2-0.2c0.2-0.3,0.4-0.6,0.6-1c0.1-0.2,0.3-0.4,0.6-0.4c0.4,0,0.6-0.2,0.8-0.4
		c0.3-0.4,0.8-0.6,1.2-0.9c0,0,0.2,0.1,0.2,0.1c0,0.1,0,0.2,0,0.4c0,0.1,0,0.2,0,0.3c0.1,0,0.2,0,0.3-0.1c0.3-0.3,0.6-0.7,0.9-1
		c0.2-0.2,0.4-0.2,0.6,0c0,0,0,0.1,0.1,0.1c0.3,0.4,0.4,0.4,0.7,0.1c0.1-0.1,0.3-0.4,0.5-0.3c0.4,0.1,0.7-0.2,1-0.4
		c0.4-0.3,0.8-0.5,1.2-0.5c0.3,0,0.4,0,0.7-0.2c0.6-0.4,1-0.9,1.2-1.6c0.1-0.4,0.2-0.8,0.4-1.2c0.4-0.9,0.8-1.9,1.4-2.8
		c0.7-1,1.2-2.1,1.5-3.3c0.4-1.6,0.5-3.4,1.2-5c0.1-0.2,0.1-0.4,0.1-0.6c0.2-1.2,0.5-2.4,0.7-3.6c0.1-0.4,0.3-0.6,0.6-0.9
		c1.1-0.7,2.3-1.3,3.6-1.7c0.6-0.2,1.2-0.5,1.7-0.7c0.1,0,0.2-0.1,0.3-0.2c0.2-0.3,0.5-0.7,0.7-1.1c0-0.1,0-0.2,0-0.3
		c-0.2-0.2-0.3-0.5-0.5-0.7c-0.3-0.4-0.3-0.4,0-0.8c0.3-0.4,0.7-0.9,1.1-1.2c0.4-0.3,0.8-0.6,1.2-0.9c0.3-0.2,0.6-0.5,1-0.6
		c0.8-0.2,1.4-0.6,1.9-1.1c0.3-0.3,0.7-0.6,1.1-0.7c0.3-0.1,0.7-0.3,0.9-0.6c0.2-0.2,0.5-0.4,0.7-0.4c0.8-0.1,1.6-0.6,2.4-0.7
		C424.7,171.5,424.7,171.3,424.7,171.1 M285.4,114.7c0.4,0.2,0.7,0.4,1.1,0.6c0.5,0.3,1,0.7,1.6,0.5c0.2,0,0.4,0.1,0.6,0.2
		c0.8,0.5,1.6,0.6,2.5,0.4c0.4-0.1,0.7-0.1,1.1-0.1c0.3,0,0.5,0,0.7,0.2c0.3,0.3,0.5,0.3,0.9,0.1c0.4-0.2,0.8-0.2,1.2-0.3
		c0.1,0,0.2,0,0.2,0c0.6-0.1,0.8,0.2,0.7,0.7c-0.1,0.4-0.3,0.7-0.4,1c-0.1,0.3-0.3,0.6-0.4,0.9c-1,2.4-2,4.8-2.8,7.2
		c-0.1,0.3-0.2,0.5-0.3,0.8c-0.2,0.5-0.4,1-0.5,1.5c-0.2,0.9-0.5,1.8-0.8,2.6c-0.1,0.5-0.3,1-0.4,1.4c-1,3.6-1.7,7.2-2,11
		c-0.1,0.5-0.1,1.1-0.1,1.6c-0.1,0.6-0.1,1.2-0.2,1.7c0,0.2-0.1,0.4,0,0.6c0.4,1.3,0.3,2.7,0.6,4.1c0.1,0.8,0.3,1.6,0.4,2.3
		c0.1,0.5,0.6,0.7,1.1,0.6c0.3-0.1,0.5-0.1,0.8,0c0.3,0.1,0.7,0.2,1.1,0.2c0.2,0,0.4,0,0.6,0.1c0.3,0.2-0.1,0.4,0,0.7
		c0,0.1,0,0.2,0,0.2c0,0,0,0.1,0,0.1c0.1,0.1,0.2,0.2,0.3,0.2c0.1,0,0.3,0,0.3-0.1c0.2-0.4,0.3-0.8,0.5-1.1c0.1-0.2,0.2-0.2,0.4-0.2
		c0.4,0,0.5,0.1,0.5,0.5c0,0.5-0.1,1.1-0.2,1.6c0,0.1,0.1,0.2,0.1,0.2c0.1,0,0.3,0,0.4,0c0.5-0.5,0.8-1,1-1.7
		c0.2-0.6,0.8-0.8,1.3-0.3c0.1,0.1,0.2,0.3,0.3,0.4c0.1,0.3,0.2,0.6,0.3,1c0,0.1,0.2,0.2,0.3,0.2c0.1,0,0.2-0.1,0.3-0.2
		c0.1-0.1,0-0.2,0.1-0.4c0-0.2,0-0.3,0.1-0.5c0-0.1,0.1-0.2,0.2-0.2c0.1,0,0.2,0.1,0.3,0.2c0.1,0.4,0.1,0.7,0.2,1.1
		c0,0.2,0.2,0.3,0.4,0.1c0.2-0.3,0.5-0.3,0.8-0.1c0,0,0.1,0,0.1,0.1c0.7,0.2,1.3-0.1,1.3-0.8c0-0.6,0.2-1.1,0.7-1.6
		c0.3-0.3,0.6-0.7,0.7-1.2c0.3-1.4,0.6-2.8,0.8-4.2c0.3-1.8,0.4-3.6,0.8-5.3c0.7-3.3,1.5-6.6,2.5-9.8c0.1-0.4,0.3-0.8,0.4-1.2
		c0.4-1.7,0.9-3.3,1.3-5c0.1-0.4,0.2-0.9,0.4-1.3c0.7-1.6,0.9-3.4,1.5-5c0-0.1,0-0.2,0.1-0.4c0.3-1.2,0.2-2.5,0.7-3.7
		c0,0,0-0.1,0-0.1c-0.1-0.8,0.2-1.5,0.3-2.2c0.1-0.9,0.3-1.7,0.5-2.6c0.1-0.7,0.5-1.2,1.2-1.4c1.4-0.5,2.8-1.1,4.2-1.5
		c1.9-0.6,3.7-1.2,5.7-1.6c0,0,0.1,0,0.1,0c0.5-0.2,0.9-0.4,1.4-0.5c0.5-0.1,1.1-0.2,1.5-0.5c0.1,0,0.2-0.1,0.2-0.1
		c0.3-0.1,0.6-0.1,0.9-0.1c0.3-0.1,0.3-0.5,0.6-0.6c0.1-0.1,0.2-0.1,0.3-0.2c1.1-0.4,2.2-1,3.4-1.2c1.5-0.3,3.1-0.8,4.6-1
		c0.3,0,0.6-0.1,0.8-0.2c0.4-0.2,0.7-0.2,1.1-0.2c0.1,0,0.1-0.7,1.2-1.2c0-0.1-1.1-0.2-1.3-0.1c-0.1,0-0.2,0-0.4,0
		c0,0-0.1,0-0.1-0.1c0,0,0-0.1,0-0.1c0.3-0.1,0.7-0.2,1-0.4c0.5-0.3,1-0.4,1.6-0.4c0.4,0,2.1-0.8,2.6-1c0.3-0.1,0.6-0.2,1-0.2
		c0.3,0,0.5-0.1,0.7-0.3c0.6-0.5,1.3-0.9,2.1-0.8c0.3,0,0.7,0,1-0.2c0.3-0.1,0.6-0.1,0.8-0.2c0.5-0.1,1-0.2,1.5-0.3
		c0.3-0.1,0.3-0.2,0.1-0.4c-0.2-0.1-0.3-0.2-0.1-0.5c0.4-0.3,0.8-0.6,1.3-0.7c1-0.1,2-0.3,3-0.4c0.4,0,0.7-0.2,1.1-0.3
		c0-0.1,0-0.2-0.1-0.2c-0.3-0.1-0.2-0.3,0-0.5c0.1-0.2,0.1-0.3-0.1-0.3c-0.7,0-1.4-0.1-2.1-0.1c0,0-0.1-0.1-0.1-0.2
		c0,0,0.1-0.1,0.1-0.1c0.5-0.1,0.9-0.1,1.4-0.2c0.3,0,0.6-0.2,0.8-0.2c0,0,0.1-0.1,0.1-0.1c0,0-0.1-0.1-0.1-0.1
		c-0.4,0-0.9,0-1.3-0.1c0,0,0,0,0,0l0,0l0-0.1c0,0,0,0,0.1,0c0.1,0,0.1-0.1,0.2-0.1c0.2-0.1,0.3-0.2,0.3-0.4c0-0.2-0.2-0.3-0.4-0.3
		c-1,0-1.9,0-2.9,0.1c-1.2,0.2-2.4,0.3-3.6,0.1c-0.2,0-0.4,0-0.6,0.1c-0.3,0.2-0.6,0.2-0.8,0c-0.2-0.2-0.4-0.2-0.7,0
		c-0.1,0.1-0.3,0.2-0.4,0.2c-0.6-0.1-1.1,0.1-1.6,0.1c-0.3,0-0.7,0-1-0.1c-0.6-0.1-0.6-0.1-0.7-0.1c-0.4,0.3-0.7,0.4-1-0.1
		c0-0.1-0.1-0.1-0.2-0.1c-0.7,0.1-1.4,0-1.8,0.7c-0.2,0.3-0.4,0.3-0.7,0.4c-0.9,0.1-1.8,0.2-2.7,0.4c-0.7,0.1-1.3,0.2-2,0
		c-0.3-0.1-0.7-0.2-0.7,0.3c-0.2,0.1-0.5,0.2-0.7,0.2c-0.2,0-0.4-0.1-0.4-0.4l0,0c-0.5-0.1-0.9-0.2-1.1,0.5c0,0.1-0.3,0.2-0.4,0.2
		c-0.2,0-0.5,0-0.7-0.1c-0.3-0.3-0.6-0.2-0.9,0c-0.2,0.1-0.4,0.3-0.6,0.4c-0.5,0.3-1,0.4-1.6,0.3c-0.6-0.1-1.4-0.1-1.9,0.1
		c-0.3,0.1-0.6,0.2-1,0.3c-0.7,0.2-1.5,0.1-2.2,0.5c-0.1,0.1-0.3,0-0.5,0c-0.2,0-0.4,0-0.6,0c-0.3,0-0.6,0.1-0.9,0.2
		c-0.9,0.1-1.7,0.2-2.6,0.4c-1.6,0.4-3.2,0.7-4.7,1.1c-1.6,0.5-3.1,0.9-4.7,1.4c-2,0.6-4,1.3-5.8,2.3c-0.3,0.1-0.5,0.2-0.8,0.3
		c-0.9,0.4-1.8,0.8-2.8,1.2c-0.8,0.4-1.6,0.9-2.5,1c-0.1,0-0.2,0.1-0.2,0.1c-1.4,0.8-2.8,1.5-4.1,2.4c-1.3,0.8-2.6,1.7-3.9,2.6
		c-0.9,0.6-1.8,1.4-2.3,2.4c-0.3,0.6-0.3,1.2,0.1,1.8C284.7,114.3,285,114.6,285.4,114.7 M352.8,213.4
		C352.8,213.4,352.8,213.4,352.8,213.4C352.8,213.4,352.8,213.4,352.8,213.4L352.8,213.4z M360.1,164.1c-0.3-0.2-0.4-0.5-0.4-0.8
		c0-0.5-0.1-1-0.2-1.5c0-0.2,0-0.3,0-0.5c0.1-0.2,0.2-0.4,0.3-0.6c0.2-0.2,0.2-0.4,0-0.7c-0.3-0.6-0.7-0.9-1.3-1.2
		c-0.7-0.3-1.2-0.7-1.8-1.1c-0.5-0.3-1-0.7-1.4-1c-0.2-0.1-0.4-0.3-0.7-0.4c-1-0.3-2-0.8-3.1-0.9c-0.4,0-0.7-0.1-1-0.5
		c-0.2-0.2-0.4-0.3-0.7-0.2c-0.6,0.3-1.3,0.6-1.9,0.9c-0.3,0.2-0.6,0.2-1,0.1c-0.3-0.1-0.5-0.2-0.8-0.2c-0.7-0.1-1.5,0.1-2.2-0.2
		c-0.1,0-0.2,0-0.4,0c-0.4,0.1-0.8,0.1-1.2,0.2c-0.3,0-0.6,0.2-0.7,0.4c-0.3,0.7-0.9,1.1-1.6,1.6c-0.5,0.4-0.9,0.8-1.3,1.3
		c-0.1,0.1-0.3,0.3-0.3,0.5c-0.1,0.4-0.3,0.7-0.7,0.9c-0.6,0.4-1.1,0.9-1.4,1.6c-0.1,0.2-0.3,0.4-0.4,0.6c-0.7,1.1-1.2,2.2-1.6,3.4
		c-0.3,0.9-0.6,1.7-1,2.6c-0.4,0.9-0.6,1.8-0.6,2.8c-0.1,1.5,0,3,0.3,4.5c0.3,1.6,0.9,3,1.5,4.5c0.7,1.7,1.5,3.3,2.4,4.8
		c1.2,1.9,2.3,3.8,3.4,5.8c0.7,1.3,1.3,2.7,2.1,4c0.3,0.5,0.3,1.2,1,1.5c0.1,0,0.1,0.1,0.1,0.2c0.3,0.8,0.6,1.6,0.8,2.4
		c0.3,0.9,0.5,1.8,0.7,2.7c0.2,0.7,0.3,1.3-0.1,1.9c0,0.5-0.3,0.8-0.8,1c-0.6,0.3-1.2,0.7-1.7,1.3c-0.2,0.3-0.6,0.5-1,0.4
		c-0.4-0.1-0.6,0.1-0.9,0.3c-0.3,0.2-0.6,0.4-0.9,0.4c-0.8,0.2-1.5,0.5-2,1.1c-0.1,0.1-0.3,0.1-0.3,0.1c0,0.2-0.1,0.5-0.1,0.7
		c0,0.3-0.2,0.2-0.3,0.1c-0.2-0.1-0.3-0.1-0.5,0c-0.2,0.2-0.4,0.5-0.4,0.7c0,0.4,0,0.7-0.4,1c-0.1,0.1,0,0.3,0,0.5
		c0.1,0.5,0.2,1-0.2,1.4c-0.5,0.4-0.5,0.9-0.4,1.5c0,0.2,0.2,0.5,0.1,0.7c-0.1,0.4,0,0.7,0.2,1c0.2,0.2,0.2,0.5,0,0.7
		c-0.1,0.1-0.1,0.2-0.2,0.3c-0.1,0.3-0.1,0.4,0.2,0.5c0.5,0.1,1,0.1,1.4,0.5c0.1,0.1,0.3,0.2,0.4,0.2c0.4,0,0.8,0,1.2-0.1
		c0.3-0.1,0.6-0.2,1-0.2c0.1,0,0.3,0,0.3,0.1c0.1,0.3,0.3,0.3,0.6,0.2c0.8-0.4,1.5-1,2.5-1c0.2,0,0.4-0.2,0.5-0.3
		c0.3-0.2,0.5-0.4,0.8-0.5c0.3-0.1,0.6-0.2,0.8-0.1c0.7,0.4,1.3,0.2,1.8-0.3c0,0,0.1,0,0.1-0.1c0.8-0.4,1.6-0.7,2.3-1.2
		c0.1-0.1,0.2-0.1,0.4-0.1c0.7,0.1,1.1-0.3,1.6-0.6c0.3-0.2,0.6-0.5,0.9-0.7c0.2-0.2,0.4,0,0.5,0.2c0.2-0.1,0.4-0.2,0.5-0.3
		c0.2-0.2,0.4-0.4,0.8-0.3c0.1,0,0.2-0.1,0.2-0.2c0-0.3,0.1-0.5,0.3-0.7c1-0.9,1.7-2,2-3.3c0.2-0.9,0.5-1.7,1.1-2.4
		c0.5-0.6,0.7-1.4,0.7-2.2c0-1,0.1-1.9,0.1-2.9c0-1.1,0.1-2.3-0.5-3.3c-0.1-0.1-0.1-0.3-0.1-0.5c-0.4-1.4-0.5-3-0.9-4.4
		c-0.6-2-1.2-4-2-5.9c-0.7-1.5-1.3-3-2-4.4c-0.8-1.6-1.6-3.3-2.4-5c-0.8-1.7-1.5-3.4-2.1-5.2c-0.2-0.7-0.2-1.4,0.1-2.1
		c0-0.1,0.1-0.1,0.2-0.1c0,0,0.1,0,0.1,0c0.2,0.3,0.4,0.7,0.7,0.9c0.4,0.2,0.7,0.5,1,0.7c0.3,0.2,0.6,0.2,0.8-0.1
		c0.3-0.4,0.6-0.8,0.9-1.2c0.4-0.5,0.8-1,1.5-0.9c0.4,0,0.7-0.1,1.1-0.1c0.6,0,1.2,0,1.2-0.8c0-0.1,0.2-0.2,0.2-0.3
		c0.2-0.1,0.4-0.2,0.5-0.3c0.5-0.3,0.8-0.1,0.9,0.4c0.1,0.4,0.1,0.7,0.2,1.1c0.1,0.2,0.1,0.5,0.4,0.6c0.1,0.1,0.1-0.1,0.2-0.6
		c0-0.6-0.2-1.1-0.4-1.7c-0.1-0.3,0-0.5,0.1-0.7c0.1-0.1,0.2-0.3,0.4-0.3c0.7-0.2,0.9-0.6,1.1-1.2c0.1-0.2,0.2-0.4,0.4-0.4
		c0.3-0.1,0.4-0.3,0.4-0.5C360.3,164.6,360.3,164.3,360.1,164.1 M347.5,168.2c0-0.2,0.1-0.4,0.1-0.6c0,0,0.1-0.1,0.1,0
		c0,0,0.1,0.1,0.1,0.1c0,0.2-0.1,0.4-0.1,0.6C347.7,168.2,347.6,168.2,347.5,168.2C347.5,168.2,347.5,168.2,347.5,168.2 M348,170.1
		C348,170.1,347.9,170.2,348,170.1c-0.1,0.1-0.2,0.1-0.2,0.1c0,0-0.1,0-0.1,0c-0.2-0.4-0.2-0.9,0-1.3c0-0.1,0.2-0.1,0.3-0.2
		c0.1,0.1,0.2,0.2,0.2,0.3C348.1,169.3,348.1,169.7,348,170.1 M255.5,158.4c0,1.1,0,2.3,0,3.4c0,0.2,0,0.4,0.1,0.5
		c0.2,0.3,0.5,0.6,0.8,0.7c0.4,0.1,0.5-0.3,0.7-0.5c0.1-0.1,0.1-0.1,0.2-0.2c0.2-0.2,0.5-0.3,0.8-0.3c0.3,0,0.7-0.1,1,0.1
		c0.2,0.1,0.4,0.1,0.6,0c0.2-0.1,0.3-0.1,0.5-0.1c0.2,0,0.3,0.1,0.3,0.3c0,0.2-0.1,0.5-0.1,0.7c0,0,0.1,0.1,0.2,0.1
		c0,0,0.1,0,0.1-0.1c0-0.2,0.1-0.4,0.1-0.6c0-0.1,0.1-0.3,0.1-0.3c0.4-0.1,0.6-0.5,1-0.5c0.2,0,0.5-0.1,0.7-0.2
		c0.6-0.4,1.2-0.2,1.6,0.2c0.3,0.3,0.5,0.3,0.9,0.4c0.3,0.1,0.3,0,0.5-0.2c0.3-0.4,0.4-0.5,0.8-0.2c0.1,0,0.1,0.1,0.2,0.2
		c0.3,0.2,0.4,0.2,0.7,0c0.2-0.2,0.4-0.4,0.7-0.5c0.4-0.2,0.7-0.5,0.7-1c0.1-0.9,0.5-1.7,1-2.6c0.6-1.1,1.1-2.3,1.3-3.5
		c0.1-0.3,0.2-0.6,0.3-0.8c0.3-0.6,0.5-1.3,0.7-2c0.1-0.3,0.2-0.6,0.3-0.8c0.7-1.6,1.2-3.2,1.6-4.9c0.2-1.1,0.6-2.2,0.9-3.3
		c0.6-2,1.3-4.1,1.8-6.1c0.2-0.6,0.3-1.2,0.5-1.8c0.5-1.5,1-3.1,1.6-4.6c0.1-0.2,0.2-0.5,0.2-0.7c0.3-1.3,0.9-2.6,1.1-4
		c0-0.1,0.1-0.2,0.1-0.4c0.5-1.2,1-2.5,1.5-3.7c0.2-0.5,0.3-1,0.4-1.6c0.1-0.7,0.2-1.4,0.5-2.1c0.2-0.6,0.3-1.3,0.3-2
		c0-0.7,0-1.3,0.2-2c0.2-0.5,0.1-1.1,0.1-1.6c-0.1-0.5,0-1,0.1-1.5c0.1-0.6,0.1-1.2,0-1.7c0-0.3-0.1-0.6-0.2-0.9
		c-0.2-0.9-0.4-1.8-0.8-2.6c-0.4-0.7-0.9-1.1-1.7-1.2c-0.5,0-0.9-0.2-1.3-0.4c-0.9-0.4-1.7-0.8-2.5-1.4c-0.2-0.2-0.4-0.2-0.7-0.3
		c-0.2-0.1-0.4,0-0.4,0.1c-0.2,0.4-0.6,0.5-1,0.3c-0.4-0.2-0.7,0-0.9,0.4c-0.1,0.2-0.4,0.3-0.6,0.4c-0.6,0.1-1.2,0.2-1.7,0.8
		c0,0.1-0.1,0.1-0.2,0.1c-0.4,0-0.5,0.2-0.7,0.5c-0.2,0.4-0.5,0.9-0.7,1.3c-0.8,1.9-1.6,3.9-2.4,5.8c-1.5,3.7-2.9,7.4-4.2,11.1
		c-0.5,1.5-1.1,3.1-1.6,4.6c-0.5,1.5-1,3.1-1.5,4.7c-1,3.3-1.8,6.8-2.6,10.2c-0.4,1.8-0.8,3.7-1.1,5.5c-0.3,1.9-0.5,3.7-0.7,5.6
		c-0.1,0.7-0.1,1.5-0.2,2.2C255.4,156.5,255.5,157.4,255.5,158.4L255.5,158.4z M185.3,172.8c0,0.1,0.2,0.2,0.3,0.3
		c0,0,0.2-0.1,0.3-0.2c0.2-0.3,0.3-0.6,0.5-0.9c0-0.1,0.1-0.1,0.2-0.1c0,0,0.1,0.1,0.1,0.2c0,0.2,0,0.3,0.1,0.5
		c0,0.1,0.2,0.2,0.3,0.1c0.5-0.3,0.7-0.8,0.8-1.3c0,0,0-0.1,0-0.1c-0.2-0.2-0.3-0.6-0.4-0.9c-0.1-0.2-0.5-0.3-0.7-0.1
		c-0.2,0.2-0.4,0.4-0.6,0.6c-0.1,0.3-0.3,0.3-0.6,0.3c-0.3,0-0.5,0.1-0.5,0.4c0,0.1,0,0.2,0,0.3
		C185.2,172.3,185.2,172.6,185.3,172.8 M297.6,226.3c0.1-0.2,0.2-0.4,0.3-0.6c0-0.7-0.2-1.2-0.7-1.6c-0.3-0.2-0.6-0.2-0.9-0.1
		c-0.3,0.1-0.4,0.4-0.5,0.7c-0.1,0.9,0.4,1.6,1.3,1.9C297.2,226.6,297.5,226.5,297.6,226.3 M182.2,187c0.3,0.2,0.6,0.4,1,0.6
		c0.3-0.1,0.5-0.3,0.8-0.4c0.1,0,0.1-0.2,0.1-0.3c-0.1-0.3-0.3-0.5-0.4-0.8c-0.1-0.4-0.6-0.5-0.7-0.8c0,0-0.1-0.1-0.2,0
		c-0.2,0.1-0.4,0.2-0.6,0.4c-0.2,0.2-0.3,0.7-0.2,0.9C182,186.7,182.1,186.9,182.2,187 M301.8,231.9c-0.2,0-0.4,0.2-0.4,0.4
		c0,0.7,0.6,1.3,1.3,1.2c0.3,0,0.5-0.3,0.5-0.5c0-0.1,0-0.2,0-0.2C302.8,232.2,302.4,231.9,301.8,231.9 M297.2,234.3
		c0,0.1-0.1,0.1-0.1,0.2c0,0.1-0.1,0.2-0.1,0.2c0.1,0.1,0.2,0.1,0.2,0.1c0.1,0,0.2,0,0.3,0c0.2,0,0.3-0.1,0.3-0.3
		c0-0.1-0.1-0.3-0.2-0.4C297.6,233.9,297.4,234,297.2,234.3 M187.7,167.1c0.4,0,0.6-0.2,0.6-0.6c0-0.1-0.1-0.2-0.1-0.2
		c-0.2,0.1-0.5,0.3-0.7,0.5c0,0,0,0.2,0,0.2C187.6,167.1,187.7,167.1,187.7,167.1 M397,204.1C397,204.1,397,204.1,397,204.1
		c-0.1,0.1,0,0.1,0,0.2C397.1,204.2,397.1,204.2,397,204.1C397.1,204.1,397.1,204.1,397,204.1"/>
</g>
</svg>
