<?xml version="1.0" encoding="utf-8"?>
<!-- Generator: Adobe Illustrator 19.0.1, SVG Export Plug-In . SVG Version: 6.00 Build 0)  -->
<!DOCTYPE svg PUBLIC "-//W3C//DTD SVG 1.1//EN" "http://www.w3.org/Graphics/SVG/1.1/DTD/svg11.dtd">
<svg version="1.1" id="Layer_1" xmlns="http://www.w3.org/2000/svg" xmlns:xlink="http://www.w3.org/1999/xlink" x="0px" y="0px"
	 viewBox="0 0 400 300" enable-background="new 0 0 400 300" xml:space="preserve">
<g>
	<g>
		<path fill="#BBA171" d="M92.4,106.4c2.2,0,4.7,0.3,6.7,2.1c2.2,1.9,2.5,4.5,2.5,6.2c0,3.2-1.2,5-2.2,6c-2,2.1-4.7,2.3-6.5,2.3
			h-3.6v9h-5.9v-25.6H92.4z M89.3,118.2h2.1c0.8,0,2.2,0,3.2-1c0.5-0.5,1-1.4,1-2.5c0-1.1-0.4-2-1-2.5c-0.9-0.8-2.2-1-3.3-1h-2
			V118.2z"/>
		<path fill="#BBA171" d="M111.3,106.4V127h8v5h-13.9v-25.6H111.3z"/>
		<path fill="#BBA171" d="M138.8,127.2h-9.7l-2,4.8H121l10.3-25.6h5.4l10.1,25.6h-6.1L138.8,127.2z M137.2,122.6L134,114l-3.2,8.6
			H137.2z"/>
		<path fill="#BBA171" d="M153.3,120.1l-9.2-13.7h7l5.1,8l5.1-8h7l-9.2,13.7V132h-5.9V120.1z"/>
		<path fill="#BBA171" d="M182.8,112.6c-1.9-1.7-3.6-1.8-4.3-1.8c-0.8,0-1.8,0.1-2.5,0.9c-0.4,0.4-0.7,1-0.7,1.6
			c0,0.6,0.2,1.1,0.6,1.4c0.6,0.6,1.5,0.8,3.2,1.5l1.9,0.7c1.1,0.4,2.5,1,3.5,2c1.5,1.4,1.9,3.3,1.9,4.8c0,2.7-0.9,5-2.3,6.3
			c-2.3,2.4-5.6,2.6-7.3,2.6c-1.8,0-3.5-0.3-5.1-1.1c-1.3-0.7-2.8-1.8-3.8-2.8l3.1-4.2c0.7,0.7,1.7,1.5,2.4,2c1,0.6,2,0.9,3.2,0.9
			c0.8,0,1.8-0.2,2.7-0.9c0.5-0.4,0.9-1.1,0.9-2.1c0-0.8-0.3-1.4-0.9-1.8c-0.7-0.6-2.3-1.2-3-1.4l-2.1-0.7c-1.2-0.4-2.6-1-3.6-2
			c-1.3-1.4-1.5-3.2-1.5-4.5c0-2.3,0.7-4.2,2.2-5.8c1.8-1.8,4-2.3,6.3-2.3c1.8,0,4.6,0.3,7.6,2.5L182.8,112.6z"/>
		<path fill="#BBA171" d="M199.7,111.4V132h-5.9v-20.6h-5.6v-5h17.1v5H199.7z"/>
		<path fill="#BBA171" d="M221.8,127.2h-9.7l-2,4.8H204l10.3-25.6h5.4l10.1,25.6h-6.1L221.8,127.2z M220.2,122.6l-3.1-8.6l-3.2,8.6
			H220.2z"/>
		<path fill="#BBA171" d="M240.1,111.4V132h-5.9v-20.6h-5.6v-5h17.1v5H240.1z"/>
		<path fill="#BBA171" d="M254.8,106.4V132h-5.9v-25.6H254.8z"/>
		<path fill="#BBA171" d="M283.3,109.5c2.4,2.3,4,5.7,4,9.7c0,3.4-1.2,6.9-4,9.6c-2.4,2.3-5.6,3.8-9.9,3.8c-4.8,0-8.1-1.9-10-3.8
			c-2.5-2.3-4-5.8-4-9.5c0-3.7,1.7-7.4,4-9.7c1.7-1.7,4.9-3.8,10-3.8C277.3,105.8,280.7,107,283.3,109.5z M267.7,113.5
			c-1.1,1.1-2.3,3-2.3,5.8c0,2.3,0.8,4.2,2.3,5.8c1.7,1.6,3.5,2.1,5.5,2.1c2.6,0,4.5-1,5.7-2.2c1-1,2.2-2.8,2.2-5.7
			c0-2.7-1.1-4.6-2.2-5.8c-1.3-1.2-3.3-2.2-5.6-2.2C271.1,111.3,269.1,112.1,267.7,113.5z"/>
		<path fill="#BBA171" d="M291.7,132v-25.6h5.1l13.9,16.5v-16.5h5.9V132h-5.1l-13.9-16.6V132H291.7z"/>
		<path fill="#BBA171" d="M125,145.3v20.6h8v5h-13.9v-25.6H125z"/>
		<path fill="#BBA171" d="M142.3,145.3v25.6h-5.9v-25.6H142.3z"/>
		<path fill="#BBA171" d="M162.2,150.3h-8.3v5h7.7v5h-7.7v10.7H148v-25.6h14.2V150.3z"/>
		<path fill="#BBA171" d="M181,150.3h-8.6v5h8.1v5h-8.1v5.7h8.6v5h-14.5v-25.6H181V150.3z"/>
		<path fill="#BBA171" d="M199,151.5c-1.9-1.7-3.6-1.8-4.3-1.8c-0.8,0-1.8,0.1-2.5,0.9c-0.4,0.4-0.7,1-0.7,1.6
			c0,0.6,0.2,1.1,0.6,1.4c0.6,0.6,1.5,0.8,3.2,1.5l1.9,0.7c1.1,0.4,2.5,1,3.5,2c1.5,1.4,1.9,3.3,1.9,4.8c0,2.7-0.9,5-2.3,6.3
			c-2.3,2.4-5.6,2.6-7.3,2.6c-1.8,0-3.5-0.3-5.1-1.1c-1.3-0.7-2.8-1.8-3.8-2.8l3.1-4.2c0.7,0.7,1.7,1.5,2.4,2c1,0.6,2,0.9,3.2,0.9
			c0.8,0,1.8-0.2,2.7-0.9c0.5-0.4,0.9-1.1,0.9-2.1c0-0.8-0.3-1.4-0.9-1.8c-0.7-0.6-2.3-1.2-3-1.4l-2.1-0.7c-1.2-0.4-2.6-1-3.6-2
			c-1.3-1.4-1.5-3.2-1.5-4.5c0-2.3,0.7-4.2,2.2-5.8c1.8-1.8,4-2.3,6.3-2.3c1.8,0,4.6,0.3,7.6,2.5L199,151.5z"/>
		<path fill="#BBA171" d="M215.9,150.3v20.6H210v-20.6h-5.6v-5h17.1v5H215.9z"/>
		<path fill="#BBA171" d="M232.2,158.9l-9.2-13.7h7l5.1,8l5.1-8h7l-9.2,13.7v11.9h-5.9V158.9z"/>
		<path fill="#BBA171" d="M256,145.3v20.6h8v5h-13.9v-25.6H256z"/>
		<path fill="#BBA171" d="M281.8,150.3h-8.6v5h8.1v5h-8.1v5.7h8.6v5h-14.5v-25.6h14.5V150.3z"/>
		<path d="M106.5,187.8c0.8,0,2.4,0.1,3.5,1c0.5,0.4,1.4,1.3,1.4,3.1c0,0.8-0.2,2.1-1.5,3c2.1,0.5,2.9,2.4,2.9,3.8s-0.7,2.6-1.6,3.3
			c-1.2,1-2.6,1-3.6,1h-3.8v-15.2H106.5z M105.5,194.5h1.3c0.9,0,3-0.2,3-2.5c0-2.5-2.5-2.6-2.9-2.6h-1.3V194.5z M105.5,201.4h1.9
			c1,0,1.9-0.1,2.7-0.6c0.6-0.4,1-1.2,1-2.1c0-1.2-0.7-1.9-1.3-2.2c-0.6-0.3-1.4-0.5-2.6-0.5h-1.7V201.4z"/>
		<path d="M123.8,189.4h-6.2v4.5h6v1.6h-6v5.9h6.2v1.6h-7.9v-15.2h7.9V189.4z"/>
		<path d="M133.7,190.8c-0.2-0.4-0.5-0.9-0.9-1.1c-0.3-0.2-0.8-0.5-1.7-0.5c-1.5,0-2.6,0.9-2.6,2.3c0,0.6,0.2,0.9,0.6,1.3
			c0.5,0.5,1,0.7,1.6,1l1.5,0.6c0.9,0.4,1.7,0.8,2.3,1.4c0.8,0.8,1.1,1.7,1.1,2.8c0,2.8-2.1,4.7-4.8,4.7c-1,0-2.3-0.2-3.3-1.2
			c-0.8-0.7-1.2-1.8-1.4-2.7l1.6-0.5c0.1,0.8,0.5,1.5,0.9,1.9c0.7,0.7,1.4,0.8,2.2,0.8c2.1,0,3.1-1.5,3.1-3c0-0.7-0.2-1.3-0.8-1.8
			c-0.4-0.4-1-0.7-1.8-1l-1.4-0.6c-0.6-0.3-1.3-0.6-2-1.3c-0.7-0.6-1-1.3-1-2.5c0-2.3,1.8-3.9,4.3-3.9c0.9,0,1.7,0.2,2.4,0.7
			c0.6,0.4,1.1,1,1.5,1.7L133.7,190.8z"/>
		<path d="M141.5,189.4V203h-1.7v-13.6h-3.7v-1.6h9.1v1.6H141.5z"/>
		<path d="M151.9,195.4c0-4.5,3.5-7.9,7.9-7.9s7.9,3.3,7.9,7.9c0,4.5-3.5,7.9-7.9,7.9S151.9,200,151.9,195.4z M153.7,195.4
			c0,3.5,2.8,6.3,6.2,6.3s6.2-2.8,6.2-6.3c0-3.5-2.8-6.3-6.2-6.3S153.7,192,153.7,195.4z"/>
		<path d="M177.8,189.4h-5.2v4.5h5.1v1.6h-5.1v7.5h-1.7v-15.2h6.9V189.4z"/>
		<path d="M193.9,189.4h-6.2v4.5h6v1.6h-6v5.9h6.2v1.6h-7.9v-15.2h7.9V189.4z"/>
		<path d="M197,191.6c0-0.8,0.3-1.6,0.7-2.2c1-1.6,2.6-1.8,3.5-1.8c2.9,0,4.3,2,4.3,4.1c0,1.1-0.4,2.6-2,3.4c0.5,0.2,2.2,1,2.2,3.7
			c0,2.8-2.1,4.6-4.7,4.6c-1.6,0-3.4-0.7-4.2-2.6c-0.2-0.5-0.3-1-0.3-1.6h1.7c0.1,0.5,0.3,1.1,0.5,1.5c0.5,0.7,1.4,1.1,2.3,1.1
			c1.7,0,3-1.4,3-3.1c0-0.9-0.3-2-1.5-2.6c-0.5-0.2-1.1-0.3-1.7-0.3v-1.5c0.6,0,1.3-0.1,1.7-0.3c0.5-0.3,1.3-0.9,1.3-2.3
			c0-1.3-0.7-2.6-2.6-2.6c-0.6,0-1.4,0.1-2,0.9c-0.3,0.4-0.5,1-0.6,1.6H197z"/>
		<path d="M215.4,187.8l4,11.4l4.8-12.2l4.5,12.2l4.4-11.4h1.9l-6.4,16l-4.5-12.2l-4.8,12.2l-5.8-16H215.4z"/>
		<path d="M238.8,187.8V203h-1.7v-15.2H238.8z"/>
		<path d="M242.8,203v-15.8l11.9,12.4v-11.8h1.7v15.9l-11.9-12.4V203H242.8z"/>
		<path d="M260.2,203v-15.8l11.9,12.4v-11.8h1.7v15.9l-11.9-12.4V203H260.2z"/>
		<path d="M285.6,189.4h-6.2v4.5h6v1.6h-6v5.9h6.2v1.6h-7.9v-15.2h7.9V189.4z"/>
		<path d="M291.1,187.8c1,0,2.6,0.1,3.7,0.8c0.9,0.6,1.7,1.8,1.7,3.4c0,2.3-1.5,4-3.8,4.2l4.8,6.8h-2.1l-4.6-6.7h-0.4v6.7h-1.7
			v-15.2H291.1z M290.4,194.9h1.1c2.1,0,3.4-1,3.4-2.8c0-0.8-0.3-1.7-1.2-2.2c-0.7-0.4-1.5-0.4-2.2-0.4h-1V194.9z"/>
		<path d="M181.5,235.2l4.7-5.4c0.3-0.4,1.2-1.4,1.5-1.9c0.6-0.8,0.7-1.4,0.7-2c0-1.4-1-2.5-2.6-2.5c-0.9,0-1.7,0.4-2.1,1.1
			c-0.2,0.4-0.4,0.9-0.4,1.5h-1.4c0.1-1.3,0.5-2.1,1-2.6c0.5-0.6,1.4-1.3,3-1.3c2.3,0,4,1.6,4,3.8c0,0.9-0.2,1.7-1,2.7
			c-0.5,0.7-1.2,1.5-1.7,2.1l-2.7,3h5.4v1.3H181.5z"/>
		<path d="M193.2,233.5c-0.8-1.2-1.3-2.9-1.3-4.7c0-1.8,0.4-3.5,1.3-4.7c1-1.4,2.3-1.9,3.3-1.9c1,0,2.3,0.5,3.3,1.9
			c0.8,1.2,1.3,2.9,1.3,4.7c0,1.8-0.4,3.5-1.3,4.7c-1,1.4-2.3,1.9-3.3,1.9C195.4,235.4,194.2,234.9,193.2,233.5z M194.3,224.9
			c-0.7,1.1-0.9,2.6-0.9,3.9c0,1.3,0.2,2.8,0.9,3.9c0.7,1.1,1.6,1.4,2.2,1.4c0.7,0,1.5-0.3,2.2-1.4c0.7-1.1,0.9-2.6,0.9-3.9
			c0-1.3-0.2-2.8-0.9-3.9c-0.7-1.1-1.6-1.4-2.2-1.4C195.8,223.5,194.9,223.8,194.3,224.9z"/>
		<path d="M205.1,223.7H203l0.7-1.3h2.8v12.8h-1.4V223.7z"/>
		<path d="M217.7,223.7h-4.1l-0.8,2.8c0.2-0.1,0.5-0.1,0.8-0.1c2.6,0,4.2,1.9,4.2,4.4c0,2.9-2.2,4.6-4.7,4.6c-1,0-2-0.3-2.9-1
			c-0.4-0.3-0.8-0.8-1.1-1.3l1.1-0.8c0.2,0.4,0.5,0.7,0.9,1c0.5,0.4,1.2,0.8,2.1,0.8c1.8,0,3.1-1.5,3.1-3.3c0-1.8-1.3-3.1-3.1-3.1
			c-0.5,0-1.3,0.1-2.5,0.9l1.9-6.2h5.1V223.7z"/>
	</g>
</g>
<g>
	<g>
		<g>
			<path fill="#27251E" d="M377.1,195.6c6.4-2.4,9.4-10.3,9.4-10.3s-9.1-2.2-15.3,1.3c-2,1.1-4,3.4-5.6,5.5
				c1.8-4.8,3.2-9.7,4.3-14.6c2.3-0.1,7.3-0.7,12.6-3.8c5.8-3.4,7.4-11.5,7.4-11.5s-9.2-0.6-14.5,3.9c-1.8,1.5-3.3,4-4.5,6.4
				c0.9-5.2,1.4-10.4,1.5-15.5c2-0.4,7-1.7,11.8-5.9c5-4.3,5.1-12.4,5.1-12.4s-8.9,1-13.3,6.2c-1.6,1.9-2.8,5.2-3.5,7.9
				c0-5.6-0.5-11.1-1.2-16.5c1.8-0.7,6.5-2.8,10.6-7.8c4.1-5,2.8-12.8,2.8-12.8s-8.5,2.5-11.8,8.3c-1.4,2.3-1.9,6.1-2.1,8.9
				c-1-5.8-2.4-11.4-4.1-16.7c1.6-1,5.8-3.8,8.8-9.3c3.1-5.5,0.6-12.9,0.6-12.9s-7.8,3.8-10,10c-0.9,2.4-0.8,6-0.6,8.7
				c-2-5.5-4.3-10.7-6.9-15.3c1.4-1.2,4.9-4.6,7-10.5c2.1-5.9-1.6-12.5-1.6-12.5s-6.8,5-8,11.3c-0.5,2.6,0.3,6.3,1,8.9
				c-1-1.6-1.9-3.1-3-4.6c-2.2-3.4-4.5-6.5-6.8-9.4c0.9-1.1,4.1-5.2,5.1-11.5c1-6-3.7-11.8-3.7-11.8s-5.7,6-5.8,12.3
				c0,3,1.8,7,3,9.4c-4.3-5.2-8.5-9.4-12.4-12.8c0.7-1.1,3.1-5.6,3.1-12.1c-0.1-6-5.6-10.7-5.6-10.7s-4.5,6.8-3.5,12.8
				c0.5,3.1,3.3,7,4.8,8.9c-2.6-2.2-5-4.1-7.1-5.5c-0.4-1.1-2.5-6.1-6.3-8.2c-3.1-1.6-9.2-1.3-9.2-1.3s1.5,4.4,6.2,8
				c3.2,2.4,7.6,2,9,1.8c2.4,1.8,5.4,4.3,8.8,7.3c-2.2-1.1-6.6-3.2-9.8-3.2c-6.2,0-12,5.7-12,5.7s5.7,4.6,11.6,3.6
				c6.3-1,10.3-4.2,11.3-5.1c3.7,3.5,7.7,7.8,11.7,13c-2.1-1.6-5.7-4-8.6-4.5c-6.2-1.1-13.1,3.6-13.1,3.6s4.9,5.6,11,5.7
				c6.2,0.1,10.6-2.2,12.1-3c1.8,2.4,3.5,4.9,5.2,7.6c1.6,2.3,3.1,4.8,4.5,7.4c-1.8-2-5.1-5.1-8-6.1c-6-2.2-13.8,1.3-13.8,1.3
				s3.9,6.5,10,7.7c6.3,1.2,11.1-0.3,12.7-0.9c2.5,4.9,4.7,10.3,6.5,16c-1.6-2.3-4-5.5-6.5-6.9c-5.7-3.3-14.1-1.2-14.1-1.2
				s2.8,7.2,8.7,9.5c5.8,2.2,10.8,1.7,12.7,1.4c1.5,5.2,2.7,10.7,3.5,16.3c-1.2-2.5-2.9-5.6-4.9-7.3c-5.1-4.3-13.9-3.7-13.9-3.7
				s1.5,7.8,7.1,11.1c5.2,3.1,10.1,3.6,12.2,3.7c0.6,5.4,0.9,11,0.7,16.6c-0.7-2.7-1.9-6.1-3.6-8.2c-4.4-5.2-13.3-6.2-13.3-6.2
				s0.1,8.1,5.2,12.4c4.7,4,9.6,5.4,11.7,5.8c-0.3,5.6-1.1,11.1-2.3,16.7c-0.3-2.9-0.8-6.7-2.2-9.1c-3.5-6-12.3-8.6-12.3-8.6
				s-1.3,8.1,3,13.3c4.1,4.9,8.7,7.2,10.7,8c-1.3,5.1-3,10.1-5.1,15.1c0.2-2.9,0.2-6.4-0.7-8.9c-2.4-6.7-10.9-10.8-10.9-10.8
				s-2.7,8,0.6,13.9c3.1,5.5,7.2,8.6,9.2,9.8c-2.1,4.7-4.5,9.2-7.2,13.5c0.7-2.8,1.3-6.4,0.9-9c-1.3-7.1-9-12.8-9-12.8
				s-4.2,7.5-1.8,14.1c2.1,6,5.7,9.8,7.4,11.4c-2.8,4.1-5.9,7.9-9.1,11.5c1.1-2.6,2.2-5.8,2.2-8.4c0-7.4-6.8-14.4-6.8-14.4
				s-5.5,6.8-4.3,13.9c1,6.3,3.8,10.6,5.4,12.7c-3.4,3.4-6.9,6.6-10.6,9.5c1.5-2.4,3.1-5.2,3.5-7.6c1.3-7.4-4.3-15.7-4.3-15.7
				s-6.8,5.9-6.8,13.2c-0.1,6.4,1.9,11.2,3.1,13.6c-4.1,2.9-8.3,5.6-12.5,7.9c2.1-2.2,4.3-4.9,5.2-7.4c2.6-7.2-1.5-16.5-1.5-16.5
				s-7.8,4.7-9.2,12c-1.2,6.6,0,11.9,0.8,14.4c-13.3,5.4-22,7.5-22,7.5l-0.9,3.5c5.4-0.6,26.3-9,27-9.4c1.8,1.9,5.8,5.6,12,7.8
				c7,2.5,15-2,15-2s-6-8.2-13.6-9.5c-2.2-0.4-5.1,0-7.7,0.5c3.9-2.4,7.8-5,11.5-7.9c1.9,1.5,6.5,4.5,13.2,5.6
				c7.2,1.2,14.1-4.5,14.1-4.5s-7.2-6.9-14.7-6.9c-2.5,0-5.5,1-8.1,2.1c3.7-3.1,7.2-6.5,10.6-10.1c2.1,1.1,7,3.3,13.6,3.2
				c7.2-0.1,12.9-6.7,12.9-6.7s-8.1-5.4-15.4-4.1c-2.3,0.4-5,1.9-7.3,3.3c3.1-3.7,6-7.6,8.6-11.6c2.3,0.7,7.3,1.9,13.7,0.7
				c6.9-1.3,11.3-8.7,11.3-8.7s-8.7-3.9-15.6-1.4c-2.1,0.8-4.5,2.6-6.4,4.4c2.4-4.2,4.5-8.5,6.3-13
				C365.9,197.5,371.1,197.9,377.1,195.6z"/>
		</g>
		<path fill="#27251E" d="M22.9,195.6c-6.4-2.4-9.4-10.3-9.4-10.3s9.1-2.2,15.3,1.3c2,1.1,4,3.4,5.6,5.5c-1.8-4.8-3.2-9.7-4.3-14.6
			c-2.3-0.1-7.3-0.7-12.6-3.8c-5.8-3.4-7.4-11.5-7.4-11.5s9.2-0.6,14.5,3.9c1.8,1.5,3.3,4,4.5,6.4c-0.9-5.2-1.4-10.4-1.5-15.5
			c-2-0.4-7-1.7-11.8-5.9c-5-4.3-5.1-12.4-5.1-12.4s8.9,1,13.3,6.2c1.6,1.9,2.8,5.2,3.5,7.9c0-5.6,0.5-11.1,1.2-16.5
			c-1.8-0.7-6.5-2.8-10.6-7.8c-4.1-5-2.8-12.8-2.8-12.8s8.5,2.5,11.8,8.3c1.4,2.3,1.9,6.1,2.1,8.9c1-5.8,2.4-11.4,4.1-16.7
			c-1.6-1-5.8-3.8-8.8-9.3c-3.1-5.5-0.6-12.9-0.6-12.9s7.8,3.8,10,10c0.9,2.4,0.8,6,0.6,8.7c2-5.5,4.3-10.7,6.9-15.3
			c-1.4-1.2-4.9-4.6-7-10.5c-2.1-5.9,1.6-12.5,1.6-12.5s6.8,5,8,11.3c0.5,2.6-0.3,6.3-1,8.9c1-1.6,1.9-3.1,3-4.6
			c2.2-3.4,4.5-6.5,6.8-9.4c-0.9-1.1-4.1-5.2-5.1-11.5c-1-6,3.7-11.8,3.7-11.8s5.7,6,5.8,12.3c0,3-1.8,7-3,9.4
			c4.3-5.2,8.5-9.4,12.4-12.8c-0.7-1.1-3.1-5.6-3.1-12.1c0.1-6,5.6-10.7,5.6-10.7s4.5,6.8,3.5,12.8c-0.5,3.1-3.3,7-4.8,8.9
			c2.6-2.2,5-4.1,7.1-5.5c0.4-1.1,2.5-6.1,6.3-8.2c3.1-1.6,9.2-1.3,9.2-1.3s-1.5,4.4-6.2,8c-3.2,2.4-7.6,2-9,1.8
			c-2.4,1.8-5.4,4.3-8.8,7.3c2.2-1.1,6.6-3.2,9.8-3.2c6.2,0,12,5.7,12,5.7s-5.7,4.6-11.6,3.6c-6.3-1-10.3-4.2-11.3-5.1
			c-3.7,3.5-7.7,7.8-11.7,13c2.1-1.6,5.7-4,8.6-4.5c6.2-1.1,13.1,3.6,13.1,3.6s-4.9,5.6-11,5.7c-6.2,0.1-10.6-2.2-12.1-3
			c-1.8,2.4-3.5,4.9-5.2,7.6c-1.6,2.3-3.1,4.8-4.5,7.4c1.8-2,5.1-5.1,8-6.1c6-2.2,13.8,1.3,13.8,1.3s-3.9,6.5-10,7.7
			c-6.3,1.2-11.1-0.3-12.7-0.9c-2.5,4.9-4.7,10.3-6.5,16c1.6-2.3,4-5.5,6.5-6.9c5.7-3.3,14.1-1.2,14.1-1.2s-2.8,7.2-8.7,9.5
			c-5.8,2.2-10.8,1.7-12.7,1.4c-1.5,5.2-2.7,10.7-3.5,16.3c1.2-2.5,2.9-5.6,4.9-7.3c5.1-4.3,13.9-3.7,13.9-3.7s-1.5,7.8-7.1,11.1
			c-5.2,3.1-10.1,3.6-12.2,3.7c-0.6,5.4-0.9,11-0.7,16.6c0.7-2.7,1.9-6.1,3.6-8.2c4.4-5.2,13.3-6.2,13.3-6.2s-0.1,8.1-5.2,12.4
			c-4.7,4-9.6,5.4-11.7,5.8c0.3,5.6,1.1,11.1,2.3,16.7c0.3-2.9,0.8-6.7,2.2-9.1c3.5-6,12.3-8.6,12.3-8.6s1.3,8.1-3,13.3
			c-4.1,4.9-8.7,7.2-10.7,8c1.3,5.1,3,10.1,5.1,15.1c-0.2-2.9-0.2-6.4,0.7-8.9c2.4-6.7,10.9-10.8,10.9-10.8s2.7,8-0.6,13.9
			c-3.1,5.5-7.2,8.6-9.2,9.8c2.1,4.7,4.5,9.2,7.2,13.5c-0.7-2.8-1.3-6.4-0.9-9c1.3-7.1,9-12.8,9-12.8s4.2,7.5,1.8,14.1
			c-2.1,6-5.7,9.8-7.4,11.4c2.8,4.1,5.9,7.9,9.1,11.5c-1.1-2.6-2.2-5.8-2.2-8.4c0-7.4,6.8-14.4,6.8-14.4s5.5,6.8,4.3,13.9
			c-1,6.3-3.8,10.6-5.4,12.7c3.4,3.4,6.9,6.6,10.6,9.5c-1.5-2.4-3.1-5.2-3.5-7.6c-1.3-7.4,4.3-15.7,4.3-15.7s6.8,5.9,6.8,13.2
			c0.1,6.4-1.9,11.2-3.1,13.6c4.1,2.9,8.3,5.6,12.5,7.9c-2.1-2.2-4.3-4.9-5.2-7.4C81.9,237.3,86,228,86,228s7.8,4.7,9.2,12
			c1.2,6.6,0,11.9-0.8,14.4c13.3,5.4,22,7.5,22,7.5l0.9,3.5c-5.4-0.6-26.3-9-27-9.4c-1.8,1.9-5.8,5.6-12,7.8c-7,2.5-15-2-15-2
			s6-8.2,13.6-9.5c2.2-0.4,5.1,0,7.7,0.5c-3.9-2.4-7.8-5-11.5-7.9c-1.9,1.5-6.5,4.5-13.2,5.6c-7.2,1.2-14.1-4.5-14.1-4.5
			s7.2-6.9,14.7-6.9c2.5,0,5.5,1,8.1,2.1c-3.7-3.1-7.2-6.5-10.6-10.1c-2.1,1.1-7,3.3-13.6,3.2c-7.2-0.1-12.9-6.7-12.9-6.7
			s8.1-5.4,15.4-4.1c2.3,0.4,5,1.9,7.3,3.3c-3.1-3.7-6-7.6-8.6-11.6c-2.3,0.7-7.3,1.9-13.7,0.7c-6.9-1.3-11.3-8.7-11.3-8.7
			s8.7-3.9,15.6-1.4c2.1,0.8,4.5,2.6,6.4,4.4c-2.4-4.2-4.5-8.5-6.3-13C34.1,197.5,28.9,197.9,22.9,195.6z"/>
	</g>
</g>
</svg>
