<?xml version="1.0" encoding="utf-8"?>
<!-- Generator: Adobe Illustrator 19.0.1, SVG Export Plug-In . SVG Version: 6.00 Build 0)  -->
<!DOCTYPE svg PUBLIC "-//W3C//DTD SVG 1.1//EN" "http://www.w3.org/Graphics/SVG/1.1/DTD/svg11.dtd">
<svg version="1.1" id="Layer_1" xmlns="http://www.w3.org/2000/svg" xmlns:xlink="http://www.w3.org/1999/xlink" x="0px" y="0px"
	 viewBox="0 0 30 30" enable-background="new 0 0 30 30" xml:space="preserve">
<path fill="#27251E" d="M24.3,1.5L24.3,1.5c-0.1,0-0.2,0-0.3,0H6c-0.1,0-0.2,0-0.3,0v0H1.5V6v0.6v16.7V24v4.5h4.2v0
	c0.1,0,0.2,0,0.3,0h18c0.1,0,0.2,0,0.3,0v0h4.2V24v-0.6V6.6V6V1.5H24.3z M20.8,23.2c-0.8,0.4-1.5,0.6-2.2,0.8
	c-0.6,0.1-1.3,0.2-2.1,0.2c-0.9,0-1.3-0.1-2-0.3c-0.7-0.2-1.2-0.5-1.7-0.9c-0.5-0.4-0.8-0.8-1-1.3c-0.2-0.4-0.3-1.1-0.3-2v-6.5H9.1
	v-2.6c0.7-0.2,1.6-0.6,2.1-1c0.5-0.4,0.9-1,1.3-1.6c0.3-0.6,0.5-1.4,0.7-2.4h2.7v4.3h4.3v3.3h-4.3V18c0,1.1,0,1.7,0.1,2
	c0.1,0.3,0.4,0.6,0.7,0.8c0.4,0.3,0.9,0.4,1.4,0.4c0.9,0,1.9-0.3,2.8-0.9V23.2z"/>
</svg>
