<?xml version="1.0" encoding="utf-8"?>
<!-- Generator: Adobe Illustrator 19.0.1, SVG Export Plug-In . SVG Version: 6.00 Build 0)  -->
<!DOCTYPE svg PUBLIC "-//W3C//DTD SVG 1.1//EN" "http://www.w3.org/Graphics/SVG/1.1/DTD/svg11.dtd">
<svg version="1.1" id="Layer_1" xmlns="http://www.w3.org/2000/svg" xmlns:xlink="http://www.w3.org/1999/xlink" x="0px" y="0px"
	 viewBox="0 0 30 30" enable-background="new 0 0 30 30" xml:space="preserve">
<g>
	<path fill="#27251E" d="M28.5,6.6c-1,0.4-2.1,0.7-3.2,0.9c1.1-0.7,2-1.8,2.4-3.1c-1.1,0.6-2.3,1.1-3.5,1.3c-1-1.1-2.5-1.8-4-1.8
		c-3.1,0-5.5,2.5-5.5,5.5c0,0.4,0,0.9,0.1,1.3C10.2,10.6,6.1,8.4,3.4,5C2.9,5.9,2.6,6.8,2.6,7.8c0,1.9,1,3.6,2.5,4.6
		c-0.9,0-1.8-0.3-2.5-0.7c0,0,0,0,0,0.1c0,2.7,1.9,4.9,4.4,5.4c-0.5,0.1-0.9,0.2-1.5,0.2c-0.4,0-0.7,0-1-0.1
		c0.7,2.2,2.8,3.8,5.2,3.9c-1.9,1.5-4.3,2.4-6.9,2.4c-0.5,0-0.9,0-1.3-0.1C4,25.1,6.9,26,10,26c10.2,0,15.8-8.4,15.8-15.8
		c0-0.2,0-0.5,0-0.7C26.8,8.7,27.7,7.7,28.5,6.6z"/>
</g>
</svg>
