<?xml version="1.0" encoding="utf-8"?>
<!-- Generator: Adobe Illustrator 19.0.1, SVG Export Plug-In . SVG Version: 6.00 Build 0)  -->
<!DOCTYPE svg PUBLIC "-//W3C//DTD SVG 1.1//EN" "http://www.w3.org/Graphics/SVG/1.1/DTD/svg11.dtd">
<svg version="1.1" id="Layer_1" xmlns:sketch="http://www.bohemiancoding.com/sketch/ns"
	 xmlns="http://www.w3.org/2000/svg" xmlns:xlink="http://www.w3.org/1999/xlink" x="0px" y="0px" viewBox="-483 2991 616 500"
	 style="enable-background:new -483 2991 616 500;" xml:space="preserve">
<style type="text/css">
	.st0{fill-rule:evenodd;clip-rule:evenodd;fill:#DDDDDD;}
</style>
<path class="st0" d="M-175,2994.8c-139.4,0-252.4,113-252.4,252.4c0,111.5,72.3,206.1,172.6,239.5c12.6,2.3,17.2-5.5,17.2-12.1
	c0-6-0.2-25.9-0.3-47c-70.2,15.3-85-29.8-85-29.8c-11.5-29.2-28-36.9-28-36.9c-22.9-15.7,1.7-15.3,1.7-15.3
	c25.3,1.8,38.7,26,38.7,26c22.5,38.6,59,27.4,73.4,21c2.3-16.3,8.8-27.4,16-33.8c-56.1-6.4-115-28-115-124.7
	c0-27.6,9.9-50.1,26-67.7c-2.6-6.4-11.3-32,2.4-66.8c0,0,21.2-6.8,69.4,25.9c20.1-5.6,41.7-8.4,63.2-8.5c21.4,0.1,43.1,2.9,63.2,8.5
	c48.2-32.7,69.3-25.9,69.3-25.9c13.7,34.8,5.1,60.4,2.5,66.8c16.2,17.7,26,40.2,26,67.7c0,96.9-59,118.3-115.2,124.5
	c9.1,7.8,17.1,23.2,17.1,46.7c0,33.8-0.3,60.9-0.3,69.3c0,6.7,4.5,14.6,17.3,12.1c100.2-33.4,172.5-128,172.5-239.5
	C77.4,3107.8-35.6,2994.8-175,2994.8z"/>
</svg>
