<?xml version="1.0" encoding="utf-8"?>
<!-- Generator: Adobe Illustrator 19.0.1, SVG Export Plug-In . SVG Version: 6.00 Build 0)  -->
<!DOCTYPE svg PUBLIC "-//W3C//DTD SVG 1.1//EN" "http://www.w3.org/Graphics/SVG/1.1/DTD/svg11.dtd">
<svg version="1.1" id="Layer_1" xmlns:sketch="http://www.bohemiancoding.com/sketch/ns"
	 xmlns="http://www.w3.org/2000/svg" xmlns:xlink="http://www.w3.org/1999/xlink" x="0px" y="0px" viewBox="-483 2991 616 500"
	 style="enable-background:new -483 2991 616 500;" xml:space="preserve">
<style type="text/css">
	.st0{fill:#DDDDDD;}
	.st1{fill:none;}
</style>
<path class="st0" d="M16.8,2994.9h-383.7c-30,0-54.3,24.3-54.3,54.3v383.7c0,30,24.3,54.3,54.3,54.3H16.8c30,0,54.3-24.3,54.3-54.3
	v-383.7C71.1,3019.2,46.8,2994.9,16.8,2994.9z M-261.4,3204c14.4-33.5,47.7-57,86.4-57s72.1,23.5,86.4,57c4.9,11.4,7.6,23.9,7.6,37
	c0,51.9-42.1,94-94,94s-94-42.1-94-94C-269,3227.9-266.3,3215.4-261.4,3204z M13.6,3408.1c0,11.9-9.6,21.5-21.5,21.5h-334.2
	c-11.9,0-21.5-9.6-21.5-21.5V3204h42.2c-3,11.8-4.6,24.2-4.6,37c0,83.4,67.6,151,151,151s151-67.6,151-151c0-12.8-1.6-25.2-4.6-37
	h42.2V3408.1z M14.3,3132.9c0,7.8-6.3,14.1-14.1,14.1h-57h-9.3c-7.8,0-14.1-6.3-14.1-14.1v-9.5c0,0,0,0,0,0c0,0,0,0,0,0v-56.9
	c0-7.8,6.3-14.1,14.1-14.1H0.2c7.8,0,14.1,6.3,14.1,14.1V3132.9z"/>
</svg>
